G04 Layer_Physical_Order=2*
G04 Layer_Color=11436288*
%FSLAX25Y25*%
%MOIN*%
G70*
G01*
G75*
%ADD11R,0.15000X0.07600*%
%ADD15C,0.01500*%
%ADD16C,0.02400*%
G36*
X132692Y464284D02*
X132667Y464092D01*
X132518Y463784D01*
X128739D01*
X122762Y469762D01*
X122183Y470149D01*
X121500Y470284D01*
X121000D01*
Y473300D01*
X121000D01*
Y473700D01*
X121000D01*
Y475323D01*
X121462Y475515D01*
X132692Y464284D01*
D02*
G37*
G36*
X178929Y424571D02*
X121000D01*
Y433300D01*
X121000D01*
Y433700D01*
X121000D01*
Y443300D01*
X121000D01*
Y443700D01*
X121000D01*
Y453300D01*
X121000D01*
Y453700D01*
X121000D01*
Y463300D01*
X121000D01*
Y463700D01*
X121000D01*
Y465823D01*
X121462Y466015D01*
X126738Y460738D01*
X127317Y460352D01*
X128000Y460216D01*
X128000Y460216D01*
X170711D01*
X171142Y459928D01*
X172000Y459757D01*
X172858Y459928D01*
X173586Y460414D01*
X174072Y461142D01*
X174243Y462000D01*
X174072Y462858D01*
X173702Y463412D01*
X173649Y463683D01*
X173262Y464262D01*
X172683Y464648D01*
X172000Y464784D01*
X171317Y464648D01*
X170738Y464262D01*
X170261Y463784D01*
X166982D01*
X166833Y464092D01*
X166808Y464284D01*
X173262Y470738D01*
X173649Y471317D01*
X173784Y472000D01*
X173784Y472000D01*
Y477211D01*
X174072Y477642D01*
X174243Y478500D01*
X174072Y479358D01*
X173586Y480086D01*
X172858Y480572D01*
X172000Y480743D01*
X171142Y480572D01*
X170414Y480086D01*
X169928Y479358D01*
X169757Y478500D01*
X169928Y477642D01*
X170216Y477211D01*
Y472739D01*
X164761Y467284D01*
X134739D01*
X122262Y479762D01*
X121683Y480149D01*
X121000Y480284D01*
Y483300D01*
X121000D01*
Y483700D01*
X121000D01*
Y487000D01*
X112500D01*
Y490000D01*
X121000D01*
Y492429D01*
X178929D01*
Y424571D01*
D02*
G37*
%LPC*%
G36*
X151500Y473644D02*
X151414Y473586D01*
X151356Y473500D01*
X151500D01*
Y473644D01*
D02*
G37*
G36*
X154644Y470500D02*
X154500D01*
Y470356D01*
X154586Y470414D01*
X154644Y470500D01*
D02*
G37*
G36*
X151500D02*
X151356D01*
X151414Y470414D01*
X151500Y470356D01*
Y470500D01*
D02*
G37*
G36*
X146500Y486644D02*
X146414Y486586D01*
X146356Y486500D01*
X146500D01*
Y486644D01*
D02*
G37*
G36*
X149500D02*
Y486500D01*
X149644D01*
X149586Y486586D01*
X149500Y486644D01*
D02*
G37*
G36*
X149644Y483500D02*
X149500D01*
Y483356D01*
X149586Y483414D01*
X149644Y483500D01*
D02*
G37*
G36*
X154500Y473644D02*
Y473500D01*
X154644D01*
X154586Y473586D01*
X154500Y473644D01*
D02*
G37*
G36*
X146500Y483500D02*
X146356D01*
X146414Y483414D01*
X146500Y483356D01*
Y483500D01*
D02*
G37*
%LPD*%
D11*
X112500Y488500D02*
D03*
Y478500D02*
D03*
Y468500D02*
D03*
Y458500D02*
D03*
Y448500D02*
D03*
Y438500D02*
D03*
Y428500D02*
D03*
D15*
X172000Y472000D02*
Y478500D01*
X118500D02*
X121000D01*
X112500Y468500D02*
X121500D01*
X121000Y478500D02*
X134000Y465500D01*
X165500D01*
X172000Y472000D01*
X121500Y468500D02*
X128000Y462000D01*
X171000D01*
X172000Y463000D01*
D16*
X148000Y485000D02*
D03*
X153000Y472000D02*
D03*
X172000Y478500D02*
D03*
Y462000D02*
D03*
M02*
