G04 Layer_Color=15132400*
%FSLAX25Y25*%
%MOIN*%
G70*
G01*
G75*
%ADD17C,0.00984*%
%ADD18C,0.00787*%
%ADD19C,0.01000*%
D17*
X157096Y479231D02*
G03*
X157096Y479231I-492J0D01*
G01*
D18*
X159950Y478148D02*
X162706D01*
X159950Y465943D02*
X162706D01*
X159950D02*
Y478148D01*
X162706Y465943D02*
Y478148D01*
D19*
X140668Y477166D02*
X140001Y476499D01*
Y475166D01*
X140668Y474500D01*
X143333D01*
X144000Y475166D01*
Y476499D01*
X143333Y477166D01*
X144000Y478499D02*
Y479832D01*
Y479165D01*
X140001D01*
X140668Y478499D01*
X175213Y474002D02*
X171881D01*
X171214Y473335D01*
Y472002D01*
X171881Y471336D01*
X175213D01*
X171214Y470003D02*
Y468670D01*
Y469336D01*
X175213D01*
X174546Y470003D01*
X157500Y488000D02*
Y491999D01*
X159499D01*
X160166Y491332D01*
Y489999D01*
X159499Y489333D01*
X157500D01*
X158833D02*
X160166Y488000D01*
X164164D02*
X161499D01*
X164164Y490666D01*
Y491332D01*
X163498Y491999D01*
X162165D01*
X161499Y491332D01*
X157500Y449500D02*
Y453499D01*
X159499D01*
X160166Y452832D01*
Y451499D01*
X159499Y450833D01*
X157500D01*
X158833D02*
X160166Y449500D01*
X161499D02*
X162832D01*
X162165D01*
Y453499D01*
X161499Y452832D01*
X146000Y449500D02*
Y453499D01*
X147999D01*
X148666Y452832D01*
Y451499D01*
X147999Y450833D01*
X146000D01*
X147333D02*
X148666Y449500D01*
X149999Y452832D02*
X150665Y453499D01*
X151998D01*
X152664Y452832D01*
Y452166D01*
X151998Y451499D01*
X151332D01*
X151998D01*
X152664Y450833D01*
Y450166D01*
X151998Y449500D01*
X150665D01*
X149999Y450166D01*
X141000Y433500D02*
Y435633D01*
X141533D01*
X142066Y435100D01*
Y433500D01*
Y435100D01*
X142599Y435633D01*
X143133Y435100D01*
Y433500D01*
X146332Y435633D02*
X144732D01*
X144199Y435100D01*
Y434033D01*
X144732Y433500D01*
X146332D01*
X147398Y432434D02*
Y435633D01*
X148997D01*
X149531Y435100D01*
Y434033D01*
X148997Y433500D01*
X147398D01*
X150597Y434033D02*
X151130Y433500D01*
X152196D01*
X152729Y434033D01*
Y436166D01*
X152196Y436699D01*
X151130D01*
X150597Y436166D01*
Y435633D01*
X151130Y435100D01*
X152729D01*
X153796Y436166D02*
X154329Y436699D01*
X155395D01*
X155929Y436166D01*
Y435633D01*
X155395Y435100D01*
X155929Y434566D01*
Y434033D01*
X155395Y433500D01*
X154329D01*
X153796Y434033D01*
Y434566D01*
X154329Y435100D01*
X153796Y435633D01*
Y436166D01*
X154329Y435100D02*
X155395D01*
X156995Y436166D02*
X157528Y436699D01*
X158594D01*
X159127Y436166D01*
Y434033D01*
X158594Y433500D01*
X157528D01*
X156995Y434033D01*
Y436166D01*
X160194D02*
X160727Y436699D01*
X161793D01*
X162327Y436166D01*
Y434033D01*
X161793Y433500D01*
X160727D01*
X160194Y434033D01*
Y436166D01*
X166592Y435633D02*
X167658Y433500D01*
X168724Y435633D01*
X169791Y433500D02*
X170857D01*
X170324D01*
Y436699D01*
X169791Y436166D01*
X172457Y433500D02*
Y434033D01*
X172990D01*
Y433500D01*
X172457D01*
X175122Y436166D02*
X175655Y436699D01*
X176722D01*
X177255Y436166D01*
Y434033D01*
X176722Y433500D01*
X175655D01*
X175122Y434033D01*
Y436166D01*
X122066Y425434D02*
X122599D01*
X123133Y425967D01*
Y428633D01*
X121533D01*
X121000Y428099D01*
Y427033D01*
X121533Y426500D01*
X123133D01*
X124199D02*
X125265D01*
X124732D01*
Y428633D01*
X124199D01*
X127398Y429166D02*
Y428633D01*
X126865D01*
X127931D01*
X127398D01*
Y427033D01*
X127931Y426500D01*
X129531Y429699D02*
Y426500D01*
Y428099D01*
X130064Y428633D01*
X131130D01*
X131663Y428099D01*
Y426500D01*
X132729Y428633D02*
Y427033D01*
X133263Y426500D01*
X134862D01*
Y428633D01*
X135928Y429699D02*
Y426500D01*
X137528D01*
X138061Y427033D01*
Y427566D01*
Y428099D01*
X137528Y428633D01*
X135928D01*
X139128Y426500D02*
Y427033D01*
X139661D01*
Y426500D01*
X139128D01*
X143926Y428633D02*
X142326D01*
X141793Y428099D01*
Y427033D01*
X142326Y426500D01*
X143926D01*
X145525D02*
X146592D01*
X147125Y427033D01*
Y428099D01*
X146592Y428633D01*
X145525D01*
X144992Y428099D01*
Y427033D01*
X145525Y426500D01*
X148191D02*
Y428633D01*
X148724D01*
X149258Y428099D01*
Y426500D01*
Y428099D01*
X149791Y428633D01*
X150324Y428099D01*
Y426500D01*
X151390D02*
X153523Y428633D01*
X154589Y426500D02*
Y428633D01*
X155122D01*
X155656Y428099D01*
Y426500D01*
Y428099D01*
X156189Y428633D01*
X156722Y428099D01*
Y426500D01*
X157788D02*
X158854D01*
X158321D01*
Y428633D01*
X157788D01*
X162587D02*
X160987D01*
X160454Y428099D01*
Y427033D01*
X160987Y426500D01*
X162587D01*
X163653Y428633D02*
Y426500D01*
Y427566D01*
X164186Y428099D01*
X164719Y428633D01*
X165252D01*
X167385Y426500D02*
X168451D01*
X168984Y427033D01*
Y428099D01*
X168451Y428633D01*
X167385D01*
X166852Y428099D01*
Y427033D01*
X167385Y426500D01*
X170051Y429699D02*
Y426500D01*
Y428099D01*
X170584Y428633D01*
X171650D01*
X172184Y428099D01*
Y426500D01*
X173783Y428633D02*
X174849D01*
X175382Y428099D01*
Y426500D01*
X173783D01*
X173250Y427033D01*
X173783Y427566D01*
X175382D01*
X176449Y426500D02*
X177515D01*
X176982D01*
Y429699D01*
X176449D01*
X127666Y469332D02*
X126999Y469999D01*
X125666D01*
X125000Y469332D01*
Y466666D01*
X125666Y466000D01*
X126999D01*
X127666Y466666D01*
Y467999D01*
X126333D01*
X128999Y466000D02*
Y469999D01*
X130998D01*
X131665Y469332D01*
Y467999D01*
X130998Y467333D01*
X128999D01*
X132997Y469999D02*
X134330D01*
X133664D01*
Y466000D01*
X132997D01*
X134330D01*
X138329Y469999D02*
X136996D01*
X136330Y469332D01*
Y466666D01*
X136996Y466000D01*
X138329D01*
X138996Y466666D01*
Y469332D01*
X138329Y469999D01*
X140328Y466000D02*
X141661D01*
X140995D01*
Y469999D01*
X140328Y469332D01*
X125000Y489332D02*
X125666Y489999D01*
X126999D01*
X127666Y489332D01*
Y488666D01*
X126999Y487999D01*
X126333D01*
X126999D01*
X127666Y487333D01*
Y486666D01*
X126999Y486000D01*
X125666D01*
X125000Y486666D01*
X128999Y489999D02*
Y487333D01*
X130332Y486000D01*
X131665Y487333D01*
Y489999D01*
X132997Y489332D02*
X133664Y489999D01*
X134997D01*
X135663Y489332D01*
Y488666D01*
X134997Y487999D01*
X134330D01*
X134997D01*
X135663Y487333D01*
Y486666D01*
X134997Y486000D01*
X133664D01*
X132997Y486666D01*
M02*
