G04 Layer_Physical_Order=1*
G04 Layer_Color=25308*
%FSLAX25Y25*%
%MOIN*%
G70*
G01*
G75*
%ADD10C,0.01000*%
%ADD11R,0.03937X0.03543*%
%ADD12R,0.05709X0.04921*%
%ADD13R,0.03937X0.04134*%
%ADD14R,0.04134X0.03543*%
%ADD15O,0.07874X0.01378*%
%ADD16R,0.03543X0.04134*%
%ADD17R,0.15000X0.07600*%
%ADD18C,0.03000*%
%ADD19C,0.01500*%
%ADD20C,0.08661*%
%ADD21C,0.09843*%
%ADD22C,0.06299*%
%ADD23C,0.02400*%
D10*
X160000Y436000D02*
G03*
X160500Y436500I0J500D01*
G01*
X163161Y452161D02*
G03*
X160000Y449000I0J-3161D01*
G01*
X144500Y459839D02*
G03*
X138000Y453339I0J-6500D01*
G01*
X203000Y439000D02*
G03*
X207000Y435000I4000J0D01*
G01*
X203000Y446500D02*
G03*
X197339Y452161I-5661J0D01*
G01*
X199339Y459839D02*
G03*
X203000Y463500I0J3661D01*
G01*
X208000Y474500D02*
G03*
X203000Y469500I0J-5000D01*
G01*
X196500Y466000D02*
Y471343D01*
X195457Y464957D02*
X196500Y466000D01*
X190417Y464957D02*
X195457D01*
X191157Y471343D02*
X196500D01*
X190417Y472083D02*
X191157Y471343D01*
X190417Y472083D02*
Y473083D01*
X160900Y454700D02*
X167562D01*
X156927Y457279D02*
X167583D01*
X156650Y462398D02*
X167583D01*
X160000Y436000D02*
Y449000D01*
Y434500D02*
Y436000D01*
X163161Y452161D02*
X167583D01*
X138000Y436000D02*
Y453339D01*
X144500Y459839D02*
X167583D01*
X190417Y452161D02*
X197339D01*
X207000Y435000D02*
X222500D01*
X203000Y439000D02*
Y446500D01*
X190417Y459839D02*
X199339D01*
X203000Y463500D02*
Y469500D01*
X208000Y474500D02*
X222500D01*
X167583Y473083D02*
X169000Y474500D01*
X174000D01*
X184000D02*
X189000D01*
X190417Y473083D01*
Y462398D02*
X196398D01*
X167583Y449602D02*
X174898D01*
X175000Y449500D01*
X167583Y440417D02*
Y447043D01*
X125500Y447500D02*
X127500Y445500D01*
X110000Y437500D02*
X120500D01*
X123000Y435000D01*
Y417000D02*
Y435000D01*
Y417000D02*
X132000Y408000D01*
X127500Y419000D02*
Y445500D01*
Y419000D02*
X134500Y412000D01*
X130500Y419000D02*
Y437500D01*
Y419000D02*
X135500Y414000D01*
X125000Y418000D02*
X133000Y410000D01*
X167583Y481083D02*
X170500Y484000D01*
X176342D01*
X167583Y464957D02*
Y473083D01*
Y481083D01*
X190417Y473083D02*
Y481083D01*
X187500Y484000D02*
X190417Y481083D01*
X181658Y484000D02*
X187500D01*
X110000Y447500D02*
X120000D01*
X125000Y442500D01*
Y418000D02*
Y442500D01*
X133000Y410000D02*
X178000D01*
X132000Y408000D02*
X180500D01*
X182102Y449602D02*
X190417D01*
X184043Y447043D02*
X190417D01*
X135500Y414000D02*
X167000D01*
X134500Y412000D02*
X173000D01*
X167000Y414000D02*
X169000Y416000D01*
Y424715D01*
X170064Y425779D01*
X169000Y432158D02*
X170064Y431094D01*
X169000Y432158D02*
Y439000D01*
X167583Y440417D02*
X169000Y439000D01*
X174500Y432158D02*
X175564Y431094D01*
X174500Y432158D02*
Y442000D01*
X182102Y449602D01*
X180000Y432158D02*
X181064Y431094D01*
X180000Y432158D02*
Y443000D01*
X184043Y447043D01*
X173000Y412000D02*
X174500Y413500D01*
Y424715D01*
X175564Y425779D01*
X178000Y410000D02*
X180000Y412000D01*
Y424715D01*
X181064Y425779D01*
X180500Y408000D02*
X185500Y413000D01*
Y424843D01*
X190500Y406000D02*
X196500Y412000D01*
Y425843D01*
X185500D02*
X186500D01*
X185500Y424843D02*
X186500Y425843D01*
X190417Y454720D02*
X202500D01*
X191000Y431157D02*
Y437000D01*
X199000Y445000D01*
X196500Y431157D02*
Y439000D01*
X190417Y457279D02*
X206500D01*
X196500Y439000D02*
X199000Y441500D01*
X131000Y406000D02*
X190500D01*
X120000Y417000D02*
X131000Y406000D01*
X120000Y417000D02*
Y417500D01*
D11*
X196500Y476657D02*
D03*
Y471343D02*
D03*
D12*
X148500Y449154D02*
D03*
Y455847D02*
D03*
Y463654D02*
D03*
Y470346D02*
D03*
D13*
X155500Y450047D02*
D03*
Y455953D02*
D03*
Y463547D02*
D03*
Y469453D02*
D03*
D14*
X180064Y431094D02*
D03*
Y425779D02*
D03*
X169064Y431094D02*
D03*
Y425779D02*
D03*
X174564Y431094D02*
D03*
Y425779D02*
D03*
X185500Y425843D02*
D03*
Y431157D02*
D03*
X191000Y425843D02*
D03*
Y431157D02*
D03*
X196500Y425843D02*
D03*
Y431157D02*
D03*
X202500Y425843D02*
D03*
Y431157D02*
D03*
D15*
X167583Y464957D02*
D03*
Y462398D02*
D03*
Y459839D02*
D03*
Y457279D02*
D03*
Y454720D02*
D03*
Y452161D02*
D03*
Y449602D02*
D03*
Y447043D02*
D03*
X190417Y464957D02*
D03*
Y462398D02*
D03*
Y459839D02*
D03*
Y457279D02*
D03*
Y454720D02*
D03*
Y452161D02*
D03*
Y449602D02*
D03*
Y447043D02*
D03*
D16*
X181658Y484000D02*
D03*
X176342D02*
D03*
D17*
X110000Y437500D02*
D03*
Y447500D02*
D03*
Y457500D02*
D03*
Y467500D02*
D03*
Y477500D02*
D03*
Y487500D02*
D03*
Y417500D02*
D03*
Y407500D02*
D03*
D18*
X196500Y478158D02*
Y480000D01*
X148500Y455847D02*
X155394D01*
X155500Y446500D02*
Y450047D01*
X148500Y445000D02*
Y449154D01*
Y463654D02*
X155394D01*
X155500Y469453D02*
Y473500D01*
X148500Y470346D02*
Y475000D01*
X143000Y456000D02*
X148346D01*
X148346Y463500D02*
X148500Y463654D01*
X143000Y463500D02*
X148346D01*
X135500Y467500D02*
X139500Y463500D01*
X143000D01*
X135500Y467500D02*
Y483500D01*
X131500Y487500D02*
X135500Y483500D01*
X110000Y487500D02*
X131500D01*
X191000Y422500D02*
Y425843D01*
X202500Y422500D02*
Y425843D01*
D19*
X185500Y431157D02*
X191000D01*
X196500D02*
X202500D01*
D20*
X222500Y435000D02*
D03*
Y474500D02*
D03*
D21*
X232500Y445000D02*
D03*
Y425000D02*
D03*
X212500D02*
D03*
Y445000D02*
D03*
X232500Y484500D02*
D03*
Y464500D02*
D03*
X212500D02*
D03*
Y484500D02*
D03*
D22*
X160000Y426000D02*
D03*
Y436000D02*
D03*
X138000Y426000D02*
D03*
Y436000D02*
D03*
X174000Y474500D02*
D03*
X184000D02*
D03*
D23*
X196500Y480000D02*
D03*
X160900Y454700D02*
D03*
X148500Y445000D02*
D03*
X155500Y446500D02*
D03*
X148500Y475000D02*
D03*
X155500Y473500D02*
D03*
X196398Y462398D02*
D03*
X175000Y449500D02*
D03*
X143000Y456000D02*
D03*
Y463500D02*
D03*
X125500Y447500D02*
D03*
X130500Y437500D02*
D03*
X199000Y445000D02*
D03*
X202500Y454720D02*
D03*
X206500Y457279D02*
D03*
X191000Y422500D02*
D03*
X202500D02*
D03*
X199000Y441500D02*
D03*
X120000Y417500D02*
D03*
M02*
