G04 Layer_Color=15132400*
%FSLAX25Y25*%
%MOIN*%
G70*
G01*
G75*
%ADD10C,0.01000*%
%ADD24C,0.00984*%
%ADD25C,0.02362*%
%ADD26C,0.00600*%
%ADD27C,0.00394*%
%ADD28C,0.00787*%
D10*
X195334Y485133D02*
X194801Y484599D01*
Y483533D01*
X195334Y483000D01*
X197467D01*
X198000Y483533D01*
Y484599D01*
X197467Y485133D01*
X194801Y488332D02*
Y486199D01*
X196400D01*
X195867Y487265D01*
Y487798D01*
X196400Y488332D01*
X197467D01*
X198000Y487798D01*
Y486732D01*
X197467Y486199D01*
X136834Y449133D02*
X136301Y448599D01*
Y447533D01*
X136834Y447000D01*
X138967D01*
X139500Y447533D01*
Y448599D01*
X138967Y449133D01*
X139500Y450199D02*
Y451265D01*
Y450732D01*
X136301D01*
X136834Y450199D01*
X141334Y448633D02*
X140801Y448100D01*
Y447033D01*
X141334Y446500D01*
X143467D01*
X144000Y447033D01*
Y448100D01*
X143467Y448633D01*
X144000Y451832D02*
Y449699D01*
X141867Y451832D01*
X141334D01*
X140801Y451298D01*
Y450232D01*
X141334Y449699D01*
X136834Y468633D02*
X136301Y468099D01*
Y467033D01*
X136834Y466500D01*
X138967D01*
X139500Y467033D01*
Y468099D01*
X138967Y468633D01*
X136834Y469699D02*
X136301Y470232D01*
Y471298D01*
X136834Y471832D01*
X137367D01*
X137900Y471298D01*
Y470765D01*
Y471298D01*
X138434Y471832D01*
X138967D01*
X139500Y471298D01*
Y470232D01*
X138967Y469699D01*
X141334Y468633D02*
X140801Y468099D01*
Y467033D01*
X141334Y466500D01*
X143467D01*
X144000Y467033D01*
Y468099D01*
X143467Y468633D01*
X144000Y471298D02*
X140801D01*
X142401Y469699D01*
Y471832D01*
X133599Y419699D02*
X132533D01*
X132000Y419166D01*
Y417033D01*
X132533Y416500D01*
X133599D01*
X134133Y417033D01*
Y419166D01*
X133599Y419699D01*
X135199D02*
Y417033D01*
X135732Y416500D01*
X136799D01*
X137332Y417033D01*
Y419699D01*
X138398D02*
X140531D01*
X139464D01*
Y416500D01*
X141597Y419166D02*
X142130Y419699D01*
X143196D01*
X143729Y419166D01*
Y417033D01*
X143196Y416500D01*
X142130D01*
X141597Y417033D01*
Y419166D01*
X204301Y470600D02*
Y469533D01*
X204834Y469000D01*
X206967D01*
X207500Y469533D01*
Y470600D01*
X206967Y471133D01*
X204834D01*
X204301Y470600D01*
Y472199D02*
X206967D01*
X207500Y472732D01*
Y473798D01*
X206967Y474332D01*
X204301D01*
Y475398D02*
Y477531D01*
Y476464D01*
X207500D01*
Y478597D02*
Y479663D01*
Y479130D01*
X204301D01*
X204834Y478597D01*
X218099Y453699D02*
X217033D01*
X216500Y453166D01*
Y451033D01*
X217033Y450500D01*
X218099D01*
X218633Y451033D01*
Y453166D01*
X218099Y453699D01*
X219699D02*
Y451033D01*
X220232Y450500D01*
X221299D01*
X221832Y451033D01*
Y453699D01*
X222898D02*
X225031D01*
X223964D01*
Y450500D01*
X228230D02*
X226097D01*
X228230Y452633D01*
Y453166D01*
X227696Y453699D01*
X226630D01*
X226097Y453166D01*
X156099Y419699D02*
X155033D01*
X154500Y419166D01*
Y417033D01*
X155033Y416500D01*
X156099D01*
X156633Y417033D01*
Y419166D01*
X156099Y419699D01*
X157699D02*
Y417033D01*
X158232Y416500D01*
X159299D01*
X159832Y417033D01*
Y419699D01*
X160898D02*
X163031D01*
X161964D01*
Y416500D01*
X164097Y419166D02*
X164630Y419699D01*
X165696D01*
X166229Y419166D01*
Y418633D01*
X165696Y418099D01*
X165163D01*
X165696D01*
X166229Y417566D01*
Y417033D01*
X165696Y416500D01*
X164630D01*
X164097Y417033D01*
X159500Y472500D02*
Y475699D01*
X161100D01*
X161633Y475166D01*
Y474099D01*
X161100Y473566D01*
X159500D01*
X160566D02*
X161633Y472500D01*
X164832Y475699D02*
X162699D01*
Y472500D01*
X164832D01*
X162699Y474099D02*
X163765D01*
X168031Y475699D02*
X165898D01*
Y474099D01*
X166964D01*
X165898D01*
Y472500D01*
X181500Y434500D02*
X178301D01*
Y436099D01*
X178834Y436633D01*
X179901D01*
X180434Y436099D01*
Y434500D01*
Y435566D02*
X181500Y436633D01*
Y437699D02*
Y438765D01*
Y438232D01*
X178301D01*
X178834Y437699D01*
X176000Y434500D02*
X172801D01*
Y436099D01*
X173334Y436633D01*
X174400D01*
X174934Y436099D01*
Y434500D01*
Y435566D02*
X176000Y436633D01*
Y439832D02*
Y437699D01*
X173867Y439832D01*
X173334D01*
X172801Y439298D01*
Y438232D01*
X173334Y437699D01*
X170500Y434500D02*
X167301D01*
Y436099D01*
X167834Y436633D01*
X168901D01*
X169434Y436099D01*
Y434500D01*
Y435566D02*
X170500Y436633D01*
X167834Y437699D02*
X167301Y438232D01*
Y439298D01*
X167834Y439832D01*
X168367D01*
X168901Y439298D01*
Y438765D01*
Y439298D01*
X169434Y439832D01*
X169967D01*
X170500Y439298D01*
Y438232D01*
X169967Y437699D01*
X197500Y467199D02*
Y464533D01*
X198033Y464000D01*
X199100D01*
X199633Y464533D01*
Y467199D01*
X200699Y464000D02*
X201765D01*
X201232D01*
Y467199D01*
X200699Y466666D01*
X168000Y482500D02*
Y485699D01*
X169599D01*
X170133Y485166D01*
Y484099D01*
X169599Y483566D01*
X168000D01*
X169066D02*
X170133Y482500D01*
X172799D02*
Y485699D01*
X171199Y484099D01*
X173332D01*
X198000Y434500D02*
X194801D01*
Y436099D01*
X195334Y436633D01*
X196400D01*
X196934Y436099D01*
Y434500D01*
Y435566D02*
X198000Y436633D01*
X194801Y439832D02*
Y437699D01*
X196400D01*
X195867Y438765D01*
Y439298D01*
X196400Y439832D01*
X197467D01*
X198000Y439298D01*
Y438232D01*
X197467Y437699D01*
X187000Y434500D02*
X183801D01*
Y436099D01*
X184334Y436633D01*
X185400D01*
X185934Y436099D01*
Y434500D01*
Y435566D02*
X187000Y436633D01*
X183801Y437699D02*
Y439832D01*
X184334D01*
X186467Y437699D01*
X187000D01*
X204000Y434500D02*
X200801D01*
Y436099D01*
X201334Y436633D01*
X202400D01*
X202934Y436099D01*
Y434500D01*
Y435566D02*
X204000Y436633D01*
X200801Y439832D02*
X201334Y438765D01*
X202400Y437699D01*
X203467D01*
X204000Y438232D01*
Y439298D01*
X203467Y439832D01*
X202934D01*
X202400Y439298D01*
Y437699D01*
X192500Y434500D02*
X189301D01*
Y436099D01*
X189834Y436633D01*
X190901D01*
X191434Y436099D01*
Y434500D01*
Y435566D02*
X192500Y436633D01*
X189834Y437699D02*
X189301Y438232D01*
Y439298D01*
X189834Y439832D01*
X190367D01*
X190901Y439298D01*
X191434Y439832D01*
X191967D01*
X192500Y439298D01*
Y438232D01*
X191967Y437699D01*
X191434D01*
X190901Y438232D01*
X190367Y437699D01*
X189834D01*
X190901Y438232D02*
Y439298D01*
X182066Y404934D02*
X182599D01*
X183133Y405467D01*
Y408133D01*
X181533D01*
X181000Y407599D01*
Y406533D01*
X181533Y406000D01*
X183133D01*
X184199D02*
X185265D01*
X184732D01*
Y408133D01*
X184199D01*
X187398Y408666D02*
Y408133D01*
X186865D01*
X187931D01*
X187398D01*
Y406533D01*
X187931Y406000D01*
X189531Y409199D02*
Y406000D01*
Y407599D01*
X190064Y408133D01*
X191130D01*
X191663Y407599D01*
Y406000D01*
X192729Y408133D02*
Y406533D01*
X193263Y406000D01*
X194862D01*
Y408133D01*
X195929Y409199D02*
Y406000D01*
X197528D01*
X198061Y406533D01*
Y407066D01*
Y407599D01*
X197528Y408133D01*
X195929D01*
X199127Y406000D02*
Y406533D01*
X199661D01*
Y406000D01*
X199127D01*
X203926Y408133D02*
X202326D01*
X201793Y407599D01*
Y406533D01*
X202326Y406000D01*
X203926D01*
X205525D02*
X206592D01*
X207125Y406533D01*
Y407599D01*
X206592Y408133D01*
X205525D01*
X204992Y407599D01*
Y406533D01*
X205525Y406000D01*
X208191D02*
Y408133D01*
X208724D01*
X209258Y407599D01*
Y406000D01*
Y407599D01*
X209791Y408133D01*
X210324Y407599D01*
Y406000D01*
X211390D02*
X213523Y408133D01*
X214589Y406000D02*
Y408133D01*
X215122D01*
X215655Y407599D01*
Y406000D01*
Y407599D01*
X216189Y408133D01*
X216722Y407599D01*
Y406000D01*
X217788D02*
X218854D01*
X218321D01*
Y408133D01*
X217788D01*
X222587D02*
X220987D01*
X220454Y407599D01*
Y406533D01*
X220987Y406000D01*
X222587D01*
X223653Y408133D02*
Y406000D01*
Y407066D01*
X224186Y407599D01*
X224719Y408133D01*
X225252D01*
X227385Y406000D02*
X228451D01*
X228984Y406533D01*
Y407599D01*
X228451Y408133D01*
X227385D01*
X226852Y407599D01*
Y406533D01*
X227385Y406000D01*
X230051Y409199D02*
Y406000D01*
Y407599D01*
X230584Y408133D01*
X231650D01*
X232184Y407599D01*
Y406000D01*
X233783Y408133D02*
X234849D01*
X235383Y407599D01*
Y406000D01*
X233783D01*
X233250Y406533D01*
X233783Y407066D01*
X235383D01*
X236449Y406000D02*
X237515D01*
X236982D01*
Y409199D01*
X236449D01*
X201500Y412000D02*
Y414133D01*
X202033D01*
X202566Y413599D01*
Y412000D01*
Y413599D01*
X203099Y414133D01*
X203633Y413599D01*
Y412000D01*
X205232Y414133D02*
X206298D01*
X206832Y413599D01*
Y412000D01*
X205232D01*
X204699Y412533D01*
X205232Y413066D01*
X206832D01*
X207898Y414133D02*
X210031Y412000D01*
X208964Y413066D01*
X210031Y414133D01*
X207898Y412000D01*
X213230Y415199D02*
X211097D01*
Y413599D01*
X212163Y414133D01*
X212696D01*
X213230Y413599D01*
Y412533D01*
X212696Y412000D01*
X211630D01*
X211097Y412533D01*
X214296Y412000D02*
X215362D01*
X214829D01*
Y415199D01*
X214296Y414666D01*
X216962D02*
X217495Y415199D01*
X218561D01*
X219094Y414666D01*
Y414133D01*
X218561Y413599D01*
X218028D01*
X218561D01*
X219094Y413066D01*
Y412533D01*
X218561Y412000D01*
X217495D01*
X216962Y412533D01*
X221760Y412000D02*
Y415199D01*
X220161Y413599D01*
X222293D01*
X226559Y414133D02*
X227625Y412000D01*
X228691Y414133D01*
X229758Y412000D02*
X230824D01*
X230291D01*
Y415199D01*
X229758Y414666D01*
X232423Y412000D02*
Y412533D01*
X232957D01*
Y412000D01*
X232423D01*
X235089Y414666D02*
X235622Y415199D01*
X236689D01*
X237222Y414666D01*
Y412533D01*
X236689Y412000D01*
X235622D01*
X235089Y412533D01*
Y414666D01*
D24*
X168075Y467811D02*
G03*
X168075Y467811I-492J0D01*
G01*
D25*
X178213Y462102D02*
G03*
X178213Y462102I-1181J0D01*
G01*
D26*
X217776Y421220D02*
X227224D01*
X236280Y430276D02*
Y439724D01*
X217776Y448779D02*
X227224D01*
X208720Y430276D02*
Y439724D01*
X217776Y460720D02*
X227224D01*
X236280Y469776D02*
Y479224D01*
X217776Y488279D02*
X227224D01*
X208720Y469776D02*
Y479224D01*
D27*
X162500Y441000D02*
X165000Y438500D01*
X157500Y441000D02*
X162500D01*
X155000Y438500D02*
X157500Y441000D01*
X155000Y433500D02*
Y438500D01*
Y433500D02*
X157500Y431000D01*
X155000Y428500D02*
X157500Y431000D01*
X155000Y423500D02*
Y428500D01*
Y423500D02*
X157500Y421000D01*
X162500D01*
X165000Y423500D01*
Y428500D01*
X162500Y431000D02*
X165000Y428500D01*
X162500Y431000D02*
X165000Y433500D01*
Y438500D01*
X140500Y441000D02*
X143000Y438500D01*
X135500Y441000D02*
X140500D01*
X133000Y438500D02*
X135500Y441000D01*
X133000Y433500D02*
Y438500D01*
Y433500D02*
X135500Y431000D01*
X133000Y428500D02*
X135500Y431000D01*
X133000Y423500D02*
Y428500D01*
Y423500D02*
X135500Y421000D01*
X140500D01*
X143000Y423500D01*
Y428500D01*
X140500Y431000D02*
X143000Y428500D01*
X140500Y431000D02*
X143000Y433500D01*
Y438500D01*
X186500Y469500D02*
X189000Y472000D01*
Y477000D01*
X186500Y479500D02*
X189000Y477000D01*
X181500Y479500D02*
X186500D01*
X179000Y477000D02*
X181500Y479500D01*
X176500D02*
X179000Y477000D01*
X171500Y479500D02*
X176500D01*
X169000Y477000D02*
X171500Y479500D01*
X169000Y472000D02*
Y477000D01*
Y472000D02*
X171500Y469500D01*
X176500D01*
X179000Y472000D01*
X181500Y469500D01*
X186500D01*
D28*
X173094Y445961D02*
Y466039D01*
X184906Y445961D02*
Y466039D01*
X173094D02*
X184906D01*
X173094Y445961D02*
X184906D01*
M02*
