G04 Layer_Color=20142*
%FSLAX25Y25*%
%MOIN*%
G70*
G01*
G75*
%ADD29R,0.04737X0.04343*%
%ADD30R,0.06509X0.05721*%
%ADD31R,0.04737X0.04934*%
%ADD32R,0.04934X0.04343*%
%ADD33O,0.08674X0.02178*%
%ADD34R,0.04343X0.04934*%
%ADD35R,0.15200X0.07800*%
%ADD36C,0.09461*%
%ADD37C,0.10642*%
%ADD38C,0.07099*%
%ADD39C,0.03200*%
D29*
X196500Y476657D02*
D03*
Y471343D02*
D03*
D30*
X148500Y449154D02*
D03*
Y455847D02*
D03*
Y463654D02*
D03*
Y470346D02*
D03*
D31*
X155500Y450047D02*
D03*
Y455953D02*
D03*
Y463547D02*
D03*
Y469453D02*
D03*
D32*
X180064Y431094D02*
D03*
Y425779D02*
D03*
X169064Y431094D02*
D03*
Y425779D02*
D03*
X174564Y431094D02*
D03*
Y425779D02*
D03*
X185500Y425843D02*
D03*
Y431157D02*
D03*
X191000Y425843D02*
D03*
Y431157D02*
D03*
X196500Y425843D02*
D03*
Y431157D02*
D03*
X202500Y425843D02*
D03*
Y431157D02*
D03*
D33*
X167583Y464957D02*
D03*
Y462398D02*
D03*
Y459839D02*
D03*
Y457279D02*
D03*
Y454720D02*
D03*
Y452161D02*
D03*
Y449602D02*
D03*
Y447043D02*
D03*
X190417Y464957D02*
D03*
Y462398D02*
D03*
Y459839D02*
D03*
Y457279D02*
D03*
Y454720D02*
D03*
Y452161D02*
D03*
Y449602D02*
D03*
Y447043D02*
D03*
D34*
X181658Y484000D02*
D03*
X176342D02*
D03*
D35*
X110000Y437500D02*
D03*
Y447500D02*
D03*
Y457500D02*
D03*
Y467500D02*
D03*
Y477500D02*
D03*
Y487500D02*
D03*
Y417500D02*
D03*
Y407500D02*
D03*
D36*
X222500Y435000D02*
D03*
Y474500D02*
D03*
D37*
X232500Y445000D02*
D03*
Y425000D02*
D03*
X212500D02*
D03*
Y445000D02*
D03*
X232500Y484500D02*
D03*
Y464500D02*
D03*
X212500D02*
D03*
Y484500D02*
D03*
D38*
X160000Y426000D02*
D03*
Y436000D02*
D03*
X138000Y426000D02*
D03*
Y436000D02*
D03*
X174000Y474500D02*
D03*
X184000D02*
D03*
D39*
X196500Y480000D02*
D03*
X160900Y454700D02*
D03*
X148500Y445000D02*
D03*
X155500Y446500D02*
D03*
X148500Y475000D02*
D03*
X155500Y473500D02*
D03*
X196398Y462398D02*
D03*
X175000Y449500D02*
D03*
X143000Y456000D02*
D03*
Y463500D02*
D03*
X125500Y447500D02*
D03*
X130500Y437500D02*
D03*
X199000Y445000D02*
D03*
X202500Y454720D02*
D03*
X206500Y457279D02*
D03*
X191000Y422500D02*
D03*
X202500D02*
D03*
X199000Y441500D02*
D03*
X120000Y417500D02*
D03*
M02*
