G04 Layer_Physical_Order=2*
G04 Layer_Color=11436288*
%FSLAX25Y25*%
%MOIN*%
G70*
G01*
G75*
%ADD12R,0.15000X0.07600*%
%ADD14C,0.01000*%
%ADD18C,0.02400*%
G36*
X179337Y424163D02*
X120600D01*
Y432900D01*
X115000D01*
Y434100D01*
X120600D01*
Y437378D01*
X125535D01*
X136206Y426708D01*
X136165Y426500D01*
X136304Y425798D01*
X136702Y425202D01*
X137298Y424804D01*
X138000Y424665D01*
X138702Y424804D01*
X139298Y425202D01*
X139696Y425798D01*
X139835Y426500D01*
X139696Y427202D01*
X139298Y427798D01*
X138702Y428196D01*
X138000Y428335D01*
X137792Y428294D01*
X126793Y439293D01*
X126429Y439536D01*
X126000Y439622D01*
X126000Y439622D01*
X120600D01*
Y442900D01*
X115000D01*
Y444100D01*
X120600D01*
Y447378D01*
X127025D01*
X140712Y433235D01*
X140665Y433000D01*
X140804Y432298D01*
X141202Y431702D01*
X141798Y431304D01*
X142500Y431165D01*
X143202Y431304D01*
X143798Y431702D01*
X144196Y432298D01*
X144335Y433000D01*
X144196Y433702D01*
X143798Y434298D01*
X143202Y434696D01*
X142500Y434835D01*
X142319Y434799D01*
X128306Y449280D01*
X128298Y449285D01*
X128293Y449293D01*
X128119Y449410D01*
X127946Y449529D01*
X127937Y449531D01*
X127929Y449536D01*
X127724Y449577D01*
X127518Y449621D01*
X127509Y449620D01*
X127500Y449622D01*
X120600D01*
Y452900D01*
X115000D01*
Y454100D01*
X120600D01*
Y457378D01*
X122535D01*
X140206Y439708D01*
X140165Y439500D01*
X140304Y438798D01*
X140702Y438202D01*
X141298Y437804D01*
X142000Y437665D01*
X142702Y437804D01*
X143298Y438202D01*
X143696Y438798D01*
X143835Y439500D01*
X143696Y440202D01*
X143298Y440798D01*
X142702Y441196D01*
X142000Y441335D01*
X141792Y441294D01*
X123793Y459293D01*
X123429Y459536D01*
X123000Y459622D01*
X123000Y459622D01*
X120600D01*
Y462900D01*
X115000D01*
Y464100D01*
X120600D01*
Y472900D01*
X115000D01*
Y474100D01*
X120600D01*
Y482900D01*
X115000D01*
Y483700D01*
X121000D01*
Y487500D01*
X112500D01*
Y489500D01*
X121000D01*
Y492441D01*
X121417Y492837D01*
X179337D01*
Y424163D01*
D02*
G37*
%LPC*%
G36*
X140500Y472500D02*
X139522D01*
X139914Y471914D01*
X140500Y471522D01*
Y472500D01*
D02*
G37*
G36*
X143478D02*
X142500D01*
Y471522D01*
X143086Y471914D01*
X143478Y472500D01*
D02*
G37*
G36*
X140500Y475478D02*
X139914Y475086D01*
X139522Y474500D01*
X140500D01*
Y475478D01*
D02*
G37*
G36*
X157500Y470978D02*
Y470000D01*
X158478D01*
X158086Y470586D01*
X157500Y470978D01*
D02*
G37*
G36*
X155500Y468000D02*
X154522D01*
X154914Y467414D01*
X155500Y467022D01*
Y468000D01*
D02*
G37*
G36*
X158478D02*
X157500D01*
Y467022D01*
X158086Y467414D01*
X158478Y468000D01*
D02*
G37*
G36*
X155500Y470978D02*
X154914Y470586D01*
X154522Y470000D01*
X155500D01*
Y470978D01*
D02*
G37*
G36*
X142500Y475478D02*
Y474500D01*
X143478D01*
X143086Y475086D01*
X142500Y475478D01*
D02*
G37*
G36*
X143478Y485000D02*
X142500D01*
Y484022D01*
X143086Y484414D01*
X143478Y485000D01*
D02*
G37*
G36*
X140500D02*
X139522D01*
X139914Y484414D01*
X140500Y484022D01*
Y485000D01*
D02*
G37*
G36*
X142500Y487978D02*
Y487000D01*
X143478D01*
X143086Y487586D01*
X142500Y487978D01*
D02*
G37*
G36*
X140500D02*
X139914Y487586D01*
X139522Y487000D01*
X140500D01*
Y487978D01*
D02*
G37*
G36*
X143478Y479000D02*
X142500D01*
Y478022D01*
X143086Y478414D01*
X143478Y479000D01*
D02*
G37*
G36*
X140500D02*
X139522D01*
X139914Y478414D01*
X140500Y478022D01*
Y479000D01*
D02*
G37*
G36*
X142500Y481978D02*
Y481000D01*
X143478D01*
X143086Y481586D01*
X142500Y481978D01*
D02*
G37*
G36*
X140500D02*
X139914Y481586D01*
X139522Y481000D01*
X140500D01*
Y481978D01*
D02*
G37*
%LPD*%
D12*
X112500Y428500D02*
D03*
Y438500D02*
D03*
Y448500D02*
D03*
Y458500D02*
D03*
Y468500D02*
D03*
Y478500D02*
D03*
Y488500D02*
D03*
D14*
X142500Y433000D02*
X143000D01*
X127500Y448500D02*
X142500Y433000D01*
X126000Y438500D02*
X138000Y426500D01*
X112500Y438500D02*
X126000D01*
X123000Y458500D02*
X142000Y439500D01*
X112500Y448500D02*
X127500D01*
X112500Y458500D02*
X123000D01*
D18*
X156500Y469000D02*
D03*
X141500Y473500D02*
D03*
Y486000D02*
D03*
X138000Y426500D02*
D03*
X142500Y433000D02*
D03*
X142000Y439500D02*
D03*
X141500Y480000D02*
D03*
M02*
