G04 Layer_Color=25308*
%FSLAX25Y25*%
%MOIN*%
G70*
G01*
G75*
%ADD10R,0.06102X0.05906*%
%ADD11R,0.03150X0.03543*%
%ADD12R,0.04134X0.03543*%
%ADD13R,0.03543X0.04134*%
%ADD14R,0.15000X0.07600*%
%ADD17R,0.06000X0.08000*%
G04:AMPARAMS|DCode=18|XSize=60mil|YSize=80mil|CornerRadius=15mil|HoleSize=0mil|Usage=FLASHONLY|Rotation=0.000|XOffset=0mil|YOffset=0mil|HoleType=Round|Shape=RoundedRectangle|*
%AMROUNDEDRECTD18*
21,1,0.06000,0.05000,0,0,0.0*
21,1,0.03000,0.08000,0,0,0.0*
1,1,0.03000,0.01500,-0.02500*
1,1,0.03000,-0.01500,-0.02500*
1,1,0.03000,-0.01500,0.02500*
1,1,0.03000,0.01500,0.02500*
%
%ADD18ROUNDEDRECTD18*%
%ADD19O,0.07874X0.03937*%
%ADD20O,0.07874X0.03937*%
D10*
X40000Y77457D02*
D03*
Y84543D02*
D03*
D11*
Y26437D02*
D03*
X43740Y18563D02*
D03*
X36260D02*
D03*
X40000Y41437D02*
D03*
X43740Y33563D02*
D03*
X36260D02*
D03*
X40000Y48563D02*
D03*
X36260Y56437D02*
D03*
X43740D02*
D03*
D12*
X28000Y12342D02*
D03*
Y17658D02*
D03*
X27500Y47657D02*
D03*
Y42342D02*
D03*
X52500Y62657D02*
D03*
Y57342D02*
D03*
D13*
X37343Y62500D02*
D03*
X42658D02*
D03*
D14*
X10000Y5000D02*
D03*
Y15000D02*
D03*
Y85000D02*
D03*
Y75000D02*
D03*
Y65000D02*
D03*
Y55000D02*
D03*
Y45000D02*
D03*
Y35000D02*
D03*
D17*
X50000Y76500D02*
D03*
D18*
X60000D02*
D03*
X70000D02*
D03*
D19*
Y60000D02*
D03*
Y50000D02*
D03*
D20*
Y55000D02*
D03*
M02*
