G04 Layer_Color=8150272*
%FSLAX25Y25*%
%MOIN*%
G70*
G01*
G75*
%ADD31R,0.15200X0.07800*%
%ADD32R,0.06800X0.08800*%
G04:AMPARAMS|DCode=33|XSize=68mil|YSize=88mil|CornerRadius=19mil|HoleSize=0mil|Usage=FLASHONLY|Rotation=0.000|XOffset=0mil|YOffset=0mil|HoleType=Round|Shape=RoundedRectangle|*
%AMROUNDEDRECTD33*
21,1,0.06800,0.05000,0,0,0.0*
21,1,0.03000,0.08800,0,0,0.0*
1,1,0.03800,0.01500,-0.02500*
1,1,0.03800,-0.01500,-0.02500*
1,1,0.03800,-0.01500,0.02500*
1,1,0.03800,0.01500,0.02500*
%
%ADD33ROUNDEDRECTD33*%
%ADD34O,0.08274X0.04337*%
%ADD35O,0.08274X0.04337*%
%ADD36C,0.03950*%
D31*
X10000Y85000D02*
D03*
Y75000D02*
D03*
Y65000D02*
D03*
Y55000D02*
D03*
Y45000D02*
D03*
Y35000D02*
D03*
Y25000D02*
D03*
Y15000D02*
D03*
Y5000D02*
D03*
D32*
X50000Y76500D02*
D03*
D33*
X60000D02*
D03*
X70000D02*
D03*
D34*
Y60000D02*
D03*
Y50000D02*
D03*
D35*
Y55000D02*
D03*
D36*
X42500Y66500D02*
D03*
X32000Y66000D02*
D03*
X42500Y72500D02*
D03*
X36437Y41437D02*
D03*
X69500Y18000D02*
D03*
X44000Y10000D02*
D03*
X51000Y30000D02*
D03*
X60000Y45000D02*
D03*
X22500Y57500D02*
D03*
Y35000D02*
D03*
M02*
