G04 Layer_Physical_Order=2*
G04 Layer_Color=11436288*
%FSLAX25Y25*%
%MOIN*%
G70*
G01*
G75*
%ADD14R,0.15000X0.07600*%
%ADD15C,0.02400*%
%ADD16C,0.03200*%
%ADD17R,0.06000X0.08000*%
G04:AMPARAMS|DCode=18|XSize=60mil|YSize=80mil|CornerRadius=15mil|HoleSize=0mil|Usage=FLASHONLY|Rotation=0.000|XOffset=0mil|YOffset=0mil|HoleType=Round|Shape=RoundedRectangle|*
%AMROUNDEDRECTD18*
21,1,0.06000,0.05000,0,0,0.0*
21,1,0.03000,0.08000,0,0,0.0*
1,1,0.03000,0.01500,-0.02500*
1,1,0.03000,-0.01500,-0.02500*
1,1,0.03000,-0.01500,0.02500*
1,1,0.03000,0.01500,0.02500*
%
%ADD18ROUNDEDRECTD18*%
%ADD19O,0.07874X0.03937*%
%ADD20O,0.07874X0.03937*%
%ADD21C,0.03150*%
%ADD22C,0.05000*%
G36*
X78929Y1071D02*
X18500D01*
Y2757D01*
X22500D01*
X23358Y2928D01*
X24086Y3414D01*
X26586Y5914D01*
X27072Y6642D01*
X27243Y7500D01*
Y29071D01*
X37099Y38927D01*
X37109Y38928D01*
X37736Y39188D01*
X38273Y39601D01*
X38686Y40139D01*
X38945Y40765D01*
X39034Y41437D01*
X38945Y42109D01*
X38686Y42735D01*
X38273Y43273D01*
X37736Y43686D01*
X37109Y43946D01*
X36437Y44034D01*
X35765Y43946D01*
X35138Y43686D01*
X34601Y43273D01*
X34188Y42735D01*
X33928Y42109D01*
X33927Y42099D01*
X24885Y33057D01*
X24508Y33387D01*
X24749Y33702D01*
X25008Y34328D01*
X25031Y34500D01*
X23000D01*
Y32469D01*
X23172Y32491D01*
X23799Y32751D01*
X24113Y32992D01*
X24443Y32615D01*
X23414Y31586D01*
X22928Y30858D01*
X22757Y30000D01*
Y8429D01*
X21571Y7243D01*
X18854D01*
X18500Y7597D01*
Y9700D01*
X18500Y9800D01*
Y10000D01*
Y10200D01*
X18500Y10300D01*
Y19700D01*
X18500Y19800D01*
Y20000D01*
Y20200D01*
X18500Y20300D01*
Y29700D01*
X18500Y29800D01*
Y30000D01*
Y30200D01*
X18500Y30300D01*
Y39700D01*
X18500Y39800D01*
Y40000D01*
Y40200D01*
X18500Y40300D01*
Y49700D01*
X18500Y49800D01*
Y50000D01*
Y50200D01*
X18500Y50300D01*
Y59700D01*
X18500Y59800D01*
Y60000D01*
Y60200D01*
X18500Y60300D01*
Y69700D01*
X18500Y69800D01*
Y70000D01*
Y70200D01*
X18500Y70300D01*
Y79700D01*
X18500Y79800D01*
Y80000D01*
Y80200D01*
X18500Y80300D01*
Y84500D01*
X10000D01*
Y85500D01*
X18500D01*
Y88929D01*
X78929D01*
Y1071D01*
D02*
G37*
%LPC*%
G36*
X51500Y32531D02*
Y30500D01*
X53531D01*
X53509Y30672D01*
X53249Y31299D01*
X52836Y31836D01*
X52298Y32249D01*
X51672Y32509D01*
X51500Y32531D01*
D02*
G37*
G36*
X22000Y34500D02*
X19969D01*
X19992Y34328D01*
X20251Y33702D01*
X20664Y33164D01*
X21202Y32751D01*
X21828Y32491D01*
X22000Y32469D01*
Y34500D01*
D02*
G37*
G36*
X53531Y29500D02*
X51500D01*
Y27469D01*
X51672Y27492D01*
X52298Y27751D01*
X52836Y28164D01*
X53249Y28701D01*
X53509Y29328D01*
X53531Y29500D01*
D02*
G37*
G36*
X50500Y32531D02*
X50328Y32509D01*
X49701Y32249D01*
X49164Y31836D01*
X48751Y31299D01*
X48491Y30672D01*
X48469Y30500D01*
X50500D01*
Y32531D01*
D02*
G37*
G36*
X22000Y37531D02*
X21828Y37508D01*
X21202Y37249D01*
X20664Y36836D01*
X20251Y36298D01*
X19992Y35672D01*
X19969Y35500D01*
X22000D01*
Y37531D01*
D02*
G37*
G36*
X62531Y44500D02*
X60500D01*
Y42469D01*
X60672Y42491D01*
X61299Y42751D01*
X61836Y43164D01*
X62249Y43701D01*
X62508Y44328D01*
X62531Y44500D01*
D02*
G37*
G36*
X59500Y47531D02*
X59328Y47508D01*
X58701Y47249D01*
X58164Y46836D01*
X57751Y46299D01*
X57491Y45672D01*
X57469Y45500D01*
X59500D01*
Y47531D01*
D02*
G37*
G36*
X23000Y37531D02*
Y35500D01*
X25031D01*
X25008Y35672D01*
X24749Y36298D01*
X24336Y36836D01*
X23799Y37249D01*
X23172Y37508D01*
X23000Y37531D01*
D02*
G37*
G36*
X59500Y44500D02*
X57469D01*
X57491Y44328D01*
X57751Y43701D01*
X58164Y43164D01*
X58701Y42751D01*
X59328Y42491D01*
X59500Y42469D01*
Y44500D01*
D02*
G37*
G36*
X43500Y12531D02*
X43328Y12508D01*
X42702Y12249D01*
X42164Y11836D01*
X41751Y11299D01*
X41491Y10672D01*
X41469Y10500D01*
X43500D01*
Y12531D01*
D02*
G37*
G36*
X44500D02*
Y10500D01*
X46531D01*
X46508Y10672D01*
X46249Y11299D01*
X45836Y11836D01*
X45298Y12249D01*
X44672Y12508D01*
X44500Y12531D01*
D02*
G37*
G36*
X43500Y9500D02*
X41469D01*
X41491Y9328D01*
X41751Y8702D01*
X42164Y8164D01*
X42702Y7751D01*
X43328Y7491D01*
X43500Y7469D01*
Y9500D01*
D02*
G37*
G36*
X46531D02*
X44500D01*
Y7469D01*
X44672Y7491D01*
X45298Y7751D01*
X45836Y8164D01*
X46249Y8702D01*
X46508Y9328D01*
X46531Y9500D01*
D02*
G37*
G36*
X69000Y17500D02*
X66969D01*
X66992Y17328D01*
X67251Y16702D01*
X67664Y16164D01*
X68202Y15751D01*
X68828Y15492D01*
X69000Y15469D01*
Y17500D01*
D02*
G37*
G36*
X70000Y20531D02*
Y18500D01*
X72031D01*
X72009Y18672D01*
X71749Y19298D01*
X71336Y19836D01*
X70798Y20249D01*
X70172Y20508D01*
X70000Y20531D01*
D02*
G37*
G36*
X50500Y29500D02*
X48469D01*
X48491Y29328D01*
X48751Y28701D01*
X49164Y28164D01*
X49701Y27751D01*
X50328Y27492D01*
X50500Y27469D01*
Y29500D01*
D02*
G37*
G36*
X72031Y17500D02*
X70000D01*
Y15469D01*
X70172Y15492D01*
X70798Y15751D01*
X71336Y16164D01*
X71749Y16702D01*
X72009Y17328D01*
X72031Y17500D01*
D02*
G37*
G36*
X69000Y20531D02*
X68828Y20508D01*
X68202Y20249D01*
X67664Y19836D01*
X67251Y19298D01*
X66992Y18672D01*
X66969Y18500D01*
X69000D01*
Y20531D01*
D02*
G37*
G36*
X69500Y76000D02*
X65951D01*
Y74000D01*
X66145Y73024D01*
X66698Y72198D01*
X67524Y71645D01*
X68500Y71451D01*
X69500D01*
Y76000D01*
D02*
G37*
G36*
X74049D02*
X70500D01*
Y71451D01*
X71500D01*
X72475Y71645D01*
X73302Y72198D01*
X73855Y73024D01*
X74049Y74000D01*
Y76000D01*
D02*
G37*
G36*
X45031Y72000D02*
X43000D01*
Y69969D01*
X43172Y69991D01*
X43799Y70251D01*
X44336Y70664D01*
X44749Y71201D01*
X45009Y71828D01*
X45031Y72000D01*
D02*
G37*
G36*
X61500Y81549D02*
X58500D01*
X57525Y81355D01*
X56698Y80802D01*
X56145Y79975D01*
X55951Y79000D01*
Y74000D01*
X56145Y73024D01*
X56698Y72198D01*
X57525Y71645D01*
X58500Y71451D01*
X61500D01*
X62476Y71645D01*
X63302Y72198D01*
X63855Y73024D01*
X64049Y74000D01*
Y79000D01*
X63855Y79975D01*
X63302Y80802D01*
X62476Y81355D01*
X61500Y81549D01*
D02*
G37*
G36*
X54000Y81500D02*
X46000D01*
Y71500D01*
X54000D01*
Y81500D01*
D02*
G37*
G36*
X69500Y81549D02*
X68500D01*
X67524Y81355D01*
X66698Y80802D01*
X66145Y79975D01*
X65951Y79000D01*
Y77000D01*
X69500D01*
Y81549D01*
D02*
G37*
G36*
X71500D02*
X70500D01*
Y77000D01*
X74049D01*
Y79000D01*
X73855Y79975D01*
X73302Y80802D01*
X72475Y81355D01*
X71500Y81549D01*
D02*
G37*
G36*
X42000Y75031D02*
X41828Y75008D01*
X41201Y74749D01*
X40664Y74336D01*
X40251Y73799D01*
X39992Y73172D01*
X39969Y73000D01*
X42000D01*
Y75031D01*
D02*
G37*
G36*
X43000D02*
Y73000D01*
X45031D01*
X45009Y73172D01*
X44749Y73799D01*
X44336Y74336D01*
X43799Y74749D01*
X43172Y75008D01*
X43000Y75031D01*
D02*
G37*
G36*
X42000Y72000D02*
X39969D01*
X39992Y71828D01*
X40251Y71201D01*
X40664Y70664D01*
X41201Y70251D01*
X41828Y69991D01*
X42000Y69969D01*
Y72000D01*
D02*
G37*
G36*
X74897Y49500D02*
X70500D01*
Y47006D01*
X71969D01*
X72743Y47108D01*
X73466Y47407D01*
X74086Y47883D01*
X74562Y48503D01*
X74861Y49225D01*
X74897Y49500D01*
D02*
G37*
G36*
X71969Y62994D02*
X68032D01*
X67257Y62892D01*
X66534Y62593D01*
X65914Y62117D01*
X65438Y61497D01*
X65139Y60775D01*
X65037Y60000D01*
X65139Y59225D01*
X65438Y58503D01*
X65914Y57883D01*
X66088Y57750D01*
Y57250D01*
X65914Y57117D01*
X65438Y56497D01*
X65139Y55775D01*
X65037Y55000D01*
X65139Y54225D01*
X65438Y53503D01*
X65914Y52883D01*
X66088Y52750D01*
Y52250D01*
X65914Y52117D01*
X65438Y51497D01*
X65139Y50775D01*
X65103Y50500D01*
X74897D01*
X74861Y50775D01*
X74562Y51497D01*
X74086Y52117D01*
X73913Y52250D01*
Y52750D01*
X74086Y52883D01*
X74562Y53503D01*
X74861Y54225D01*
X74963Y55000D01*
X74861Y55775D01*
X74562Y56497D01*
X74086Y57117D01*
X73913Y57250D01*
Y57750D01*
X74086Y57883D01*
X74562Y58503D01*
X74861Y59225D01*
X74963Y60000D01*
X74861Y60775D01*
X74562Y61497D01*
X74086Y62117D01*
X73466Y62593D01*
X72743Y62892D01*
X71969Y62994D01*
D02*
G37*
G36*
X60500Y47531D02*
Y45500D01*
X62531D01*
X62508Y45672D01*
X62249Y46299D01*
X61836Y46836D01*
X61299Y47249D01*
X60672Y47508D01*
X60500Y47531D01*
D02*
G37*
G36*
X69500Y49500D02*
X65103D01*
X65139Y49225D01*
X65438Y48503D01*
X65914Y47883D01*
X66534Y47407D01*
X67257Y47108D01*
X68032Y47006D01*
X69500D01*
Y49500D01*
D02*
G37*
G36*
X22000Y57000D02*
X19969D01*
X19992Y56828D01*
X20251Y56201D01*
X20664Y55664D01*
X21202Y55251D01*
X21828Y54992D01*
X22000Y54969D01*
Y57000D01*
D02*
G37*
G36*
X23000Y60031D02*
Y58000D01*
X25031D01*
X25008Y58172D01*
X24749Y58798D01*
X24336Y59336D01*
X23799Y59749D01*
X23172Y60009D01*
X23000Y60031D01*
D02*
G37*
G36*
X42500Y69097D02*
X41828Y69008D01*
X41201Y68749D01*
X40664Y68336D01*
X40592Y68243D01*
X33306D01*
X33299Y68249D01*
X32672Y68508D01*
X32000Y68597D01*
X31328Y68508D01*
X30702Y68249D01*
X30164Y67836D01*
X29751Y67299D01*
X29491Y66672D01*
X29403Y66000D01*
X29491Y65328D01*
X29751Y64701D01*
X30164Y64164D01*
X30702Y63751D01*
X31328Y63491D01*
X32000Y63403D01*
X32672Y63491D01*
X33299Y63751D01*
X33306Y63757D01*
X42000D01*
X42858Y63928D01*
X42900Y63956D01*
X43172Y63991D01*
X43799Y64251D01*
X44336Y64664D01*
X44749Y65201D01*
X45009Y65828D01*
X45097Y66500D01*
X45009Y67172D01*
X44749Y67799D01*
X44336Y68336D01*
X43799Y68749D01*
X43172Y69008D01*
X42500Y69097D01*
D02*
G37*
G36*
X25031Y57000D02*
X23000D01*
Y54969D01*
X23172Y54992D01*
X23799Y55251D01*
X24336Y55664D01*
X24749Y56201D01*
X25008Y56828D01*
X25031Y57000D01*
D02*
G37*
G36*
X22000Y60031D02*
X21828Y60009D01*
X21202Y59749D01*
X20664Y59336D01*
X20251Y58798D01*
X19992Y58172D01*
X19969Y58000D01*
X22000D01*
Y60031D01*
D02*
G37*
%LPD*%
D14*
X10000Y85000D02*
D03*
Y75000D02*
D03*
Y65000D02*
D03*
Y55000D02*
D03*
Y45000D02*
D03*
Y35000D02*
D03*
Y25000D02*
D03*
Y15000D02*
D03*
Y5000D02*
D03*
D15*
X32000Y66000D02*
X42000D01*
X25000Y30000D02*
X36437Y41437D01*
X25000Y7500D02*
Y30000D01*
X22500Y5000D02*
X25000Y7500D01*
X10000Y5000D02*
X22500D01*
D16*
X39000Y85000D02*
X41000Y83000D01*
D17*
X50000Y76500D02*
D03*
D18*
X60000D02*
D03*
X70000D02*
D03*
D19*
Y60000D02*
D03*
Y50000D02*
D03*
D20*
Y55000D02*
D03*
D21*
X42500Y66500D02*
D03*
X32000Y66000D02*
D03*
X42500Y72500D02*
D03*
X36437Y41437D02*
D03*
X69500Y18000D02*
D03*
X44000Y10000D02*
D03*
X51000Y30000D02*
D03*
X60000Y45000D02*
D03*
X22500Y57500D02*
D03*
Y35000D02*
D03*
D22*
X10000Y85000D02*
X39000D01*
M02*
