G04 Layer_Physical_Order=2*
G04 Layer_Color=11436288*
%FSLAX25Y25*%
%MOIN*%
G70*
G01*
G75*
%ADD18R,0.15000X0.07600*%
%ADD19C,0.01500*%
%ADD20C,0.01000*%
%ADD24C,0.06102*%
%ADD25R,0.06102X0.06102*%
%ADD26C,0.02400*%
G36*
X198930Y233571D02*
X118500D01*
Y242300D01*
X118500D01*
Y242700D01*
X118500D01*
Y252300D01*
X118500D01*
Y252700D01*
X118500D01*
Y255716D01*
X124261D01*
X124738Y255238D01*
X124738Y255238D01*
X125317Y254852D01*
X126000Y254716D01*
X129210D01*
X129642Y254428D01*
X130500Y254257D01*
X131358Y254428D01*
X132086Y254914D01*
X132572Y255642D01*
X132743Y256500D01*
X132572Y257358D01*
X132086Y258086D01*
X131358Y258572D01*
X130500Y258743D01*
X129642Y258572D01*
X129210Y258284D01*
X126739D01*
X126262Y258762D01*
X125683Y259149D01*
X125000Y259284D01*
X118500D01*
Y262300D01*
X118500D01*
Y262700D01*
X118500D01*
Y265971D01*
X131000D01*
X131585Y266087D01*
X132081Y266419D01*
X133581Y267919D01*
X133913Y268415D01*
X134029Y269000D01*
Y278500D01*
X133913Y279085D01*
X133581Y279581D01*
X131581Y281581D01*
X131085Y281913D01*
X130500Y282029D01*
X129124D01*
X129086Y282086D01*
X128358Y282572D01*
X127500Y282743D01*
X126642Y282572D01*
X125914Y282086D01*
X125428Y281358D01*
X125257Y280500D01*
X125428Y279642D01*
X125914Y278914D01*
X126642Y278428D01*
X127500Y278257D01*
X128358Y278428D01*
X129086Y278914D01*
X129124Y278971D01*
X129867D01*
X130971Y277867D01*
Y269634D01*
X130367Y269029D01*
X129694D01*
X129458Y269470D01*
X129572Y269642D01*
X129743Y270500D01*
X129572Y271358D01*
X129086Y272086D01*
X128358Y272572D01*
X127500Y272743D01*
X126642Y272572D01*
X125914Y272086D01*
X125876Y272029D01*
X123634D01*
X121529Y274133D01*
Y276154D01*
X121991Y276346D01*
X123919Y274419D01*
X124415Y274087D01*
X124512Y274068D01*
X125000Y273971D01*
X125876D01*
X125914Y273914D01*
X126642Y273428D01*
X127500Y273257D01*
X128358Y273428D01*
X129086Y273914D01*
X129572Y274642D01*
X129743Y275500D01*
X129572Y276358D01*
X129086Y277086D01*
X128358Y277572D01*
X127500Y277743D01*
X126642Y277572D01*
X125914Y277086D01*
X125443Y277220D01*
X124029Y278633D01*
Y286000D01*
X123913Y286585D01*
X123581Y287081D01*
X122081Y288581D01*
X121585Y288913D01*
X121000Y289029D01*
X118500D01*
Y292300D01*
X118500D01*
Y292700D01*
X118500D01*
Y302300D01*
X118500D01*
Y302700D01*
X118500D01*
Y312300D01*
X118500D01*
Y312700D01*
X118500D01*
Y316000D01*
X110000D01*
Y319000D01*
X118500D01*
Y321429D01*
X198930D01*
Y233571D01*
D02*
G37*
%LPC*%
G36*
X139000Y248644D02*
Y248500D01*
X139144D01*
X139086Y248586D01*
X139000Y248644D01*
D02*
G37*
G36*
X160500D02*
X160414Y248586D01*
X160356Y248500D01*
X160500D01*
Y248644D01*
D02*
G37*
G36*
X136000D02*
X135914Y248586D01*
X135856Y248500D01*
X136000D01*
Y248644D01*
D02*
G37*
G36*
X163644Y245500D02*
X163500D01*
Y245356D01*
X163586Y245414D01*
X163644Y245500D01*
D02*
G37*
G36*
X192000Y247644D02*
X191914Y247586D01*
X191856Y247500D01*
X192000D01*
Y247644D01*
D02*
G37*
G36*
X195000D02*
Y247500D01*
X195144D01*
X195086Y247586D01*
X195000Y247644D01*
D02*
G37*
G36*
X163500Y248644D02*
Y248500D01*
X163644D01*
X163586Y248586D01*
X163500Y248644D01*
D02*
G37*
G36*
X181256Y262888D02*
X181170Y262830D01*
X181112Y262744D01*
X181256D01*
Y262888D01*
D02*
G37*
G36*
X184256D02*
Y262744D01*
X184400D01*
X184342Y262830D01*
X184256Y262888D01*
D02*
G37*
G36*
X147000Y264000D02*
X146856D01*
X146914Y263914D01*
X147000Y263856D01*
Y264000D01*
D02*
G37*
G36*
X168500Y261743D02*
X167642Y261572D01*
X166914Y261086D01*
X166428Y260358D01*
X166257Y259500D01*
X166428Y258642D01*
X166914Y257914D01*
X167642Y257428D01*
X168150Y257327D01*
X175738Y249738D01*
X175738Y249738D01*
X176317Y249352D01*
X177000Y249216D01*
X177000Y249216D01*
X188440D01*
X188872Y248928D01*
X189730Y248757D01*
X190588Y248928D01*
X191316Y249414D01*
X191802Y250142D01*
X191973Y251000D01*
X191802Y251858D01*
X191316Y252586D01*
X190588Y253072D01*
X189730Y253243D01*
X188872Y253072D01*
X188440Y252784D01*
X177739D01*
X170674Y259850D01*
X170572Y260358D01*
X170086Y261086D01*
X169358Y261572D01*
X168500Y261743D01*
D02*
G37*
G36*
X181256Y259744D02*
X181112D01*
X181170Y259658D01*
X181256Y259600D01*
Y259744D01*
D02*
G37*
G36*
X184400D02*
X184256D01*
Y259600D01*
X184342Y259658D01*
X184400Y259744D01*
D02*
G37*
G36*
X192000Y240500D02*
X191856D01*
X191914Y240414D01*
X192000Y240356D01*
Y240500D01*
D02*
G37*
G36*
X195144D02*
X195000D01*
Y240356D01*
X195086Y240414D01*
X195144Y240500D01*
D02*
G37*
G36*
X135500Y241644D02*
X135414Y241586D01*
X135356Y241500D01*
X135500D01*
Y241644D01*
D02*
G37*
G36*
X164144Y238500D02*
X164000D01*
Y238356D01*
X164086Y238414D01*
X164144Y238500D01*
D02*
G37*
G36*
X135500D02*
X135356D01*
X135414Y238414D01*
X135500Y238356D01*
Y238500D01*
D02*
G37*
G36*
X138644D02*
X138500D01*
Y238356D01*
X138586Y238414D01*
X138644Y238500D01*
D02*
G37*
G36*
X161000D02*
X160856D01*
X160914Y238414D01*
X161000Y238356D01*
Y238500D01*
D02*
G37*
G36*
X136000Y245500D02*
X135856D01*
X135914Y245414D01*
X136000Y245356D01*
Y245500D01*
D02*
G37*
G36*
X139144D02*
X139000D01*
Y245356D01*
X139086Y245414D01*
X139144Y245500D01*
D02*
G37*
G36*
X160500D02*
X160356D01*
X160414Y245414D01*
X160500Y245356D01*
Y245500D01*
D02*
G37*
G36*
X195144Y244500D02*
X191856D01*
X191914Y244414D01*
X192159Y244250D01*
Y243750D01*
X191914Y243586D01*
X191856Y243500D01*
X195144D01*
X195086Y243586D01*
X194841Y243750D01*
Y244250D01*
X195086Y244414D01*
X195144Y244500D01*
D02*
G37*
G36*
X138500Y241644D02*
Y241500D01*
X138644D01*
X138586Y241586D01*
X138500Y241644D01*
D02*
G37*
G36*
X161000D02*
X160914Y241586D01*
X160856Y241500D01*
X161000D01*
Y241644D01*
D02*
G37*
G36*
X164000D02*
Y241500D01*
X164144D01*
X164086Y241586D01*
X164000Y241644D01*
D02*
G37*
G36*
X150144Y264000D02*
X150000D01*
Y263856D01*
X150086Y263914D01*
X150144Y264000D01*
D02*
G37*
G36*
X181500Y311743D02*
X180642Y311572D01*
X179914Y311086D01*
X179428Y310358D01*
X179257Y309500D01*
X179428Y308642D01*
X179716Y308210D01*
Y303500D01*
X179851Y302817D01*
X180238Y302238D01*
X181903Y300573D01*
X181657Y300112D01*
X181000Y300243D01*
X180142Y300072D01*
X179414Y299586D01*
X179356Y299500D01*
X181000D01*
Y298000D01*
X182500D01*
Y296356D01*
X182586Y296414D01*
X183072Y297142D01*
X183243Y298000D01*
X183112Y298657D01*
X183573Y298903D01*
X188238Y294238D01*
X188817Y293851D01*
X189500Y293716D01*
X189500Y293716D01*
X190354D01*
X190461Y293457D01*
X191111Y292611D01*
X191957Y291961D01*
X192942Y291553D01*
X194000Y291414D01*
X195058Y291553D01*
X196043Y291961D01*
X196889Y292611D01*
X197539Y293457D01*
X197947Y294442D01*
X198086Y295500D01*
X197947Y296558D01*
X197539Y297543D01*
X196889Y298389D01*
X196043Y299039D01*
X195058Y299447D01*
X194000Y299586D01*
X192942Y299447D01*
X191957Y299039D01*
X191111Y298389D01*
X190559Y297671D01*
X190117Y297571D01*
X189938Y297586D01*
X183284Y304239D01*
Y308210D01*
X183572Y308642D01*
X183743Y309500D01*
X183572Y310358D01*
X183086Y311086D01*
X182358Y311572D01*
X181500Y311743D01*
D02*
G37*
G36*
X198051Y309551D02*
X189949D01*
Y301449D01*
X198051D01*
Y309551D01*
D02*
G37*
G36*
X173000Y302144D02*
X172914Y302086D01*
X172750Y301841D01*
X172250D01*
X172086Y302086D01*
X172000Y302144D01*
Y300500D01*
Y298856D01*
X172086Y298914D01*
X172250Y299159D01*
X172750D01*
X172914Y298914D01*
X173000Y298856D01*
Y300500D01*
Y302144D01*
D02*
G37*
G36*
X176144Y299000D02*
X176000D01*
Y298856D01*
X176086Y298914D01*
X176144Y299000D01*
D02*
G37*
G36*
X195500Y289264D02*
Y287000D01*
X197764D01*
X197539Y287543D01*
X196889Y288389D01*
X196043Y289039D01*
X195500Y289264D01*
D02*
G37*
G36*
X179500Y296500D02*
X179356D01*
X179414Y296414D01*
X179500Y296356D01*
Y296500D01*
D02*
G37*
G36*
X169000Y299000D02*
X168856D01*
X168914Y298914D01*
X169000Y298856D01*
Y299000D01*
D02*
G37*
G36*
X169500Y311743D02*
X168642Y311572D01*
X168210Y311284D01*
X167500D01*
X166817Y311149D01*
X166238Y310762D01*
X157238Y301762D01*
X156851Y301183D01*
X156716Y300500D01*
Y298289D01*
X156428Y297858D01*
X156257Y297000D01*
X156428Y296142D01*
X156914Y295414D01*
X157642Y294928D01*
X158500Y294757D01*
X159358Y294928D01*
X160086Y295414D01*
X160572Y296142D01*
X160743Y297000D01*
X160572Y297858D01*
X160284Y298289D01*
Y299761D01*
X168228Y307704D01*
X168642Y307428D01*
X169500Y307257D01*
X170358Y307428D01*
X171086Y307914D01*
X171572Y308642D01*
X171743Y309500D01*
X171572Y310358D01*
X171086Y311086D01*
X170358Y311572D01*
X169500Y311743D01*
D02*
G37*
G36*
X157000Y308644D02*
X156914Y308586D01*
X156856Y308500D01*
X157000D01*
Y308644D01*
D02*
G37*
G36*
X160000D02*
Y308500D01*
X160144D01*
X160086Y308586D01*
X160000Y308644D01*
D02*
G37*
G36*
X160144Y305500D02*
X160000D01*
Y305356D01*
X160086Y305414D01*
X160144Y305500D01*
D02*
G37*
G36*
X169000Y302144D02*
X168914Y302086D01*
X168856Y302000D01*
X169000D01*
Y302144D01*
D02*
G37*
G36*
X176000D02*
Y302000D01*
X176144D01*
X176086Y302086D01*
X176000Y302144D01*
D02*
G37*
G36*
X157000Y305500D02*
X156856D01*
X156914Y305414D01*
X157000Y305356D01*
Y305500D01*
D02*
G37*
G36*
X158144Y274000D02*
X158000D01*
Y273856D01*
X158086Y273914D01*
X158144Y274000D01*
D02*
G37*
G36*
X155000Y277144D02*
X154914Y277086D01*
X154856Y277000D01*
X155000D01*
Y277144D01*
D02*
G37*
G36*
X158000D02*
Y277000D01*
X158144D01*
X158086Y277086D01*
X158000Y277144D01*
D02*
G37*
G36*
X155000Y274000D02*
X154856D01*
X154914Y273914D01*
X155000Y273856D01*
Y274000D01*
D02*
G37*
G36*
X147000Y267144D02*
X146914Y267086D01*
X146856Y267000D01*
X147000D01*
Y267144D01*
D02*
G37*
G36*
X150000D02*
Y267000D01*
X150144D01*
X150086Y267086D01*
X150000Y267144D01*
D02*
G37*
G36*
X194000Y279586D02*
X192942Y279447D01*
X191957Y279039D01*
X191111Y278389D01*
X190461Y277543D01*
X190053Y276558D01*
X189914Y275500D01*
X190053Y274442D01*
X190461Y273457D01*
X191111Y272611D01*
X191957Y271961D01*
X192942Y271553D01*
X194000Y271414D01*
X195058Y271553D01*
X196043Y271961D01*
X196889Y272611D01*
X197539Y273457D01*
X197947Y274442D01*
X198086Y275500D01*
X197947Y276558D01*
X197539Y277543D01*
X196889Y278389D01*
X196043Y279039D01*
X195058Y279447D01*
X194000Y279586D01*
D02*
G37*
G36*
X126000Y287144D02*
X125914Y287086D01*
X125856Y287000D01*
X126000D01*
Y287144D01*
D02*
G37*
G36*
X129000D02*
Y287000D01*
X129144D01*
X129086Y287086D01*
X129000Y287144D01*
D02*
G37*
G36*
X192500Y289264D02*
X191957Y289039D01*
X191111Y288389D01*
X190461Y287543D01*
X190236Y287000D01*
X192500D01*
Y289264D01*
D02*
G37*
G36*
X129144Y284000D02*
X129000D01*
Y283856D01*
X129086Y283914D01*
X129144Y284000D01*
D02*
G37*
G36*
X192500D02*
X190236D01*
X190461Y283457D01*
X191111Y282611D01*
X191957Y281961D01*
X192500Y281736D01*
Y284000D01*
D02*
G37*
G36*
X197764D02*
X195500D01*
Y281736D01*
X196043Y281961D01*
X196889Y282611D01*
X197539Y283457D01*
X197764Y284000D01*
D02*
G37*
G36*
X126000D02*
X125856D01*
X125914Y283914D01*
X126000Y283856D01*
Y284000D01*
D02*
G37*
%LPD*%
D18*
X110000Y317500D02*
D03*
Y307500D02*
D03*
Y297500D02*
D03*
Y287500D02*
D03*
Y277500D02*
D03*
Y267500D02*
D03*
Y257500D02*
D03*
Y247500D02*
D03*
Y237500D02*
D03*
D19*
X167500Y309500D02*
X169500D01*
X158500Y300500D02*
X167500Y309500D01*
X158500Y297000D02*
Y300500D01*
X189500Y295500D02*
X194000D01*
X181500Y303500D02*
X189500Y295500D01*
X181500Y303500D02*
Y309500D01*
X126000Y256500D02*
X130500D01*
X125000Y257500D02*
X126000Y256500D01*
X110000Y257500D02*
X125000D01*
X168500Y259500D02*
X177000Y251000D01*
X189730D01*
D20*
X132500Y269000D02*
Y278500D01*
X130500Y280500D02*
X132500Y278500D01*
X127500Y280500D02*
X130500D01*
X120000Y273500D02*
Y284500D01*
Y273500D02*
X123000Y270500D01*
X127500D01*
X131000Y267500D02*
X132500Y269000D01*
X110000Y267500D02*
X131000D01*
X110000Y287500D02*
X121000D01*
X122500Y286000D01*
Y278000D02*
Y286000D01*
Y278000D02*
X125000Y275500D01*
X127500D01*
D24*
X194000D02*
D03*
Y285500D02*
D03*
Y295500D02*
D03*
D25*
Y305500D02*
D03*
D26*
X127500Y270500D02*
D03*
X120000Y284500D02*
D03*
X148500Y265500D02*
D03*
X127500Y285500D02*
D03*
Y275500D02*
D03*
X130500Y256500D02*
D03*
X127500Y280500D02*
D03*
X182756Y261244D02*
D03*
X189730Y251000D02*
D03*
X168500Y259500D02*
D03*
X181500Y309500D02*
D03*
X193500Y246000D02*
D03*
Y242000D02*
D03*
X162000Y247000D02*
D03*
X162500Y240000D02*
D03*
X137500Y247000D02*
D03*
X137000Y240000D02*
D03*
X169500Y309500D02*
D03*
X156500Y275500D02*
D03*
X181000Y298000D02*
D03*
X174500Y300500D02*
D03*
X170500D02*
D03*
X158500Y297000D02*
D03*
Y307000D02*
D03*
M02*
