G04 Layer_Color=8150272*
%FSLAX25Y25*%
%MOIN*%
G70*
G01*
G75*
%ADD39R,0.15200X0.07800*%
%ADD40C,0.06902*%
%ADD41R,0.06902X0.06902*%
%ADD42C,0.03200*%
D39*
X110000Y317500D02*
D03*
Y307500D02*
D03*
Y297500D02*
D03*
Y287500D02*
D03*
Y277500D02*
D03*
Y267500D02*
D03*
Y257500D02*
D03*
Y247500D02*
D03*
Y237500D02*
D03*
D40*
X194000Y275500D02*
D03*
Y285500D02*
D03*
Y295500D02*
D03*
D41*
Y305500D02*
D03*
D42*
X127500Y270500D02*
D03*
X120000Y284500D02*
D03*
X148500Y265500D02*
D03*
X127500Y285500D02*
D03*
Y275500D02*
D03*
X130500Y256500D02*
D03*
X127500Y280500D02*
D03*
X182756Y261244D02*
D03*
X189730Y251000D02*
D03*
X168500Y259500D02*
D03*
X181500Y309500D02*
D03*
X193500Y246000D02*
D03*
Y242000D02*
D03*
X162000Y247000D02*
D03*
X162500Y240000D02*
D03*
X137500Y247000D02*
D03*
X137000Y240000D02*
D03*
X169500Y309500D02*
D03*
X156500Y275500D02*
D03*
X181000Y298000D02*
D03*
X174500Y300500D02*
D03*
X170500D02*
D03*
X158500Y297000D02*
D03*
Y307000D02*
D03*
M02*
