G04 Layer_Physical_Order=1*
G04 Layer_Color=25308*
%FSLAX25Y25*%
%MOIN*%
G70*
G01*
G75*
%ADD10R,0.01969X0.03543*%
%ADD11R,0.07087X0.06496*%
%ADD12R,0.05118X0.07087*%
%ADD13R,0.04528X0.05315*%
%ADD14R,0.03543X0.01969*%
%ADD15R,0.03347X0.03740*%
%ADD16O,0.06693X0.02362*%
%ADD17R,0.04000X0.05600*%
%ADD18R,0.15000X0.07600*%
%ADD19C,0.01500*%
%ADD20C,0.01000*%
%ADD21C,0.02000*%
%ADD22C,0.02500*%
%ADD23C,0.03000*%
%ADD24C,0.06102*%
%ADD25R,0.06102X0.06102*%
%ADD26C,0.02400*%
D10*
X136453Y270500D02*
D03*
X130547D02*
D03*
X136453Y285500D02*
D03*
X130547D02*
D03*
Y265500D02*
D03*
X136453D02*
D03*
Y260500D02*
D03*
X130547D02*
D03*
X136453Y280500D02*
D03*
X130547D02*
D03*
X136453Y275500D02*
D03*
X130547D02*
D03*
X150047Y307000D02*
D03*
X155953D02*
D03*
Y302000D02*
D03*
X150047D02*
D03*
X155953Y297000D02*
D03*
X150047D02*
D03*
X178953Y304500D02*
D03*
X173047D02*
D03*
X178953Y309500D02*
D03*
X173047D02*
D03*
D11*
X172500Y296323D02*
D03*
Y286677D02*
D03*
D12*
X162488Y317000D02*
D03*
X173512D02*
D03*
X189012Y244000D02*
D03*
X177988D02*
D03*
D13*
X177244Y257000D02*
D03*
X182756D02*
D03*
X140744Y240000D02*
D03*
X146256D02*
D03*
X158256D02*
D03*
X152744D02*
D03*
D14*
X123500Y247047D02*
D03*
Y252953D02*
D03*
X181000Y294953D02*
D03*
Y289047D02*
D03*
Y285453D02*
D03*
Y279547D02*
D03*
Y275953D02*
D03*
Y270047D02*
D03*
X170500Y273047D02*
D03*
Y278953D02*
D03*
Y263547D02*
D03*
Y269453D02*
D03*
D15*
X146158Y247000D02*
D03*
X140842D02*
D03*
X152842D02*
D03*
X158158D02*
D03*
D16*
X162146Y255500D02*
D03*
Y260500D02*
D03*
Y265500D02*
D03*
Y270500D02*
D03*
Y275500D02*
D03*
Y280500D02*
D03*
Y285500D02*
D03*
Y290500D02*
D03*
X142854Y255500D02*
D03*
Y260500D02*
D03*
Y265500D02*
D03*
Y270500D02*
D03*
Y275500D02*
D03*
Y280500D02*
D03*
Y285500D02*
D03*
Y290500D02*
D03*
D17*
X193470Y264365D02*
D03*
X197270Y255635D02*
D03*
X189730D02*
D03*
D18*
X110000Y237500D02*
D03*
Y247500D02*
D03*
Y317500D02*
D03*
Y307500D02*
D03*
Y297500D02*
D03*
Y287500D02*
D03*
Y277500D02*
D03*
Y267500D02*
D03*
D19*
X136453Y270500D02*
Y275500D01*
X127500Y270500D02*
X130547D01*
X142854Y265500D02*
X148500D01*
X130453Y285500D02*
X130500Y285547D01*
X130547Y256547D02*
Y260500D01*
X127500Y275500D02*
X130547D01*
X127500Y280500D02*
X130547D01*
X194500Y234500D02*
X197270Y237270D01*
X152744Y234500D02*
X194500D01*
X152744D02*
Y235500D01*
Y238500D02*
Y240000D01*
X189730Y251000D02*
Y255635D01*
X167500Y260500D02*
X168500Y259500D01*
X162146Y260500D02*
X167500D01*
X168453Y278953D02*
X170500D01*
X165000Y275500D02*
X168453Y278953D01*
X162146Y275500D02*
X165000D01*
X178953Y309500D02*
X181500D01*
X169500D02*
X173047D01*
X156500Y275500D02*
X162146D01*
X155953Y297000D02*
X158500D01*
X155953Y287547D02*
Y297000D01*
Y287547D02*
X158000Y285500D01*
X173047Y316535D02*
X173512Y317000D01*
X173047Y309500D02*
Y316535D01*
X162488Y307512D02*
Y317000D01*
Y307512D02*
X165500Y304500D01*
X167500D01*
X162146Y290500D02*
Y299146D01*
X165000Y302000D01*
X188000Y305500D02*
X194000D01*
X187000Y304500D02*
X188000Y305500D01*
X178953Y304500D02*
X187000D01*
Y292000D02*
Y304500D01*
X184047Y289047D02*
X187000Y292000D01*
X181000Y289047D02*
X184047D01*
X188000Y289500D02*
X194000Y295500D01*
X188000Y283000D02*
Y289500D01*
X184547Y279547D02*
X188000Y283000D01*
X181000Y279547D02*
X184547D01*
X181000Y285453D02*
Y289047D01*
Y275953D02*
Y279547D01*
X197270Y237270D02*
Y255635D01*
X177988Y244000D02*
Y249012D01*
X177244Y249756D02*
X177988Y249012D01*
X177244Y249756D02*
Y257000D01*
X188547Y270047D02*
X191453D01*
X193470Y268030D01*
Y264365D02*
Y268030D01*
X174453Y263547D02*
X180035D01*
X181000Y264512D01*
Y270047D01*
X177244Y257000D02*
Y260756D01*
X174453Y263547D02*
X177244Y260756D01*
X170500Y263547D02*
X174453D01*
X188547Y270047D02*
X194000Y275500D01*
X181000Y270047D02*
X188547D01*
X152842Y247000D02*
Y249843D01*
Y240098D02*
Y247000D01*
X152744Y240000D02*
X152842Y240098D01*
Y249843D02*
X154500Y251500D01*
X159500D01*
X162146Y254146D01*
Y255500D01*
X146158Y247000D02*
Y249843D01*
Y240098D02*
Y247000D01*
Y240098D02*
X146256Y240000D01*
X142854Y253146D02*
X146158Y249843D01*
X142854Y253146D02*
Y255500D01*
X170500Y269453D02*
Y273047D01*
X167047Y269453D02*
X170500D01*
X166000Y270500D02*
X167047Y269453D01*
X162146Y270500D02*
X166000D01*
X166953Y263547D02*
X170500D01*
X165000Y265500D02*
X166953Y263547D01*
X162146Y265500D02*
X165000D01*
X166323Y280500D02*
X172500Y286677D01*
X162146Y280500D02*
X166323D01*
X155953Y302000D02*
X165000D01*
X158000Y285500D02*
X162146D01*
X167500Y304500D02*
X173047D01*
X165000Y302000D02*
X167500Y304500D01*
X150047Y302000D02*
Y307000D01*
X146500Y297000D02*
Y300000D01*
X142854Y293354D02*
X146500Y297000D01*
X142854Y290500D02*
Y293354D01*
X148500Y302000D02*
X150047D01*
X146500Y300000D02*
X148500Y302000D01*
X150047Y287547D02*
Y297000D01*
X148000Y285500D02*
X150047Y287547D01*
X142854Y285500D02*
X148000D01*
X136453D02*
X142854D01*
X136453Y280500D02*
X142854D01*
X136453Y275500D02*
X142854D01*
X136453Y265500D02*
X142854D01*
X136453Y260500D02*
X142854D01*
X130547D02*
Y265500D01*
D20*
X120000Y284500D02*
Y286000D01*
X118500Y287500D02*
X120000Y286000D01*
X110000Y287500D02*
X118500D01*
D21*
X123500Y238500D02*
Y246000D01*
Y238500D02*
X127500Y234500D01*
Y285500D02*
X130453D01*
X127500Y234500D02*
X151744D01*
X146256Y234744D02*
Y240000D01*
X152744Y235500D02*
Y238500D01*
X151744Y234500D02*
X152744Y235500D01*
X181000Y294953D02*
Y298000D01*
X155953Y307000D02*
X158500D01*
D22*
X120500Y317500D02*
X123500Y314500D01*
Y254000D02*
Y314500D01*
X110000Y317500D02*
X120500D01*
D23*
X182756Y257000D02*
Y261244D01*
X191012Y246000D02*
X193500D01*
X191012Y242000D02*
X193500D01*
X158158Y247000D02*
X162000D01*
X158256Y240000D02*
X162500D01*
X137000D02*
X140744D01*
X137500Y247000D02*
X140842D01*
X174500Y298323D02*
Y300500D01*
X170500Y298323D02*
Y300500D01*
D24*
X194000Y275500D02*
D03*
Y285500D02*
D03*
Y295500D02*
D03*
D25*
Y305500D02*
D03*
D26*
X127500Y270500D02*
D03*
X120000Y284500D02*
D03*
X148500Y265500D02*
D03*
X127500Y285500D02*
D03*
Y275500D02*
D03*
X130500Y256500D02*
D03*
X127500Y280500D02*
D03*
X182756Y261244D02*
D03*
X189730Y251000D02*
D03*
X168500Y259500D02*
D03*
X181500Y309500D02*
D03*
X193500Y246000D02*
D03*
Y242000D02*
D03*
X162000Y247000D02*
D03*
X162500Y240000D02*
D03*
X137500Y247000D02*
D03*
X137000Y240000D02*
D03*
X169500Y309500D02*
D03*
X156500Y275500D02*
D03*
X181000Y298000D02*
D03*
X174500Y300500D02*
D03*
X170500D02*
D03*
X158500Y297000D02*
D03*
Y307000D02*
D03*
M02*
