G04 Layer_Color=13813960*
%FSLAX25Y25*%
%MOIN*%
G70*
G01*
G75*
%ADD20C,0.01000*%
D20*
X153500Y293500D02*
X151367D01*
Y292967D01*
X151900Y292434D01*
X153500D01*
X151900D01*
X151367Y291900D01*
X151900Y291367D01*
X153500D01*
Y290301D02*
Y289235D01*
Y289768D01*
X151367D01*
Y290301D01*
Y285503D02*
Y287102D01*
X151900Y287635D01*
X152967D01*
X153500Y287102D01*
Y285503D01*
X151367Y284436D02*
X153500D01*
X152434D01*
X151900Y283903D01*
X151367Y283370D01*
Y282837D01*
X153500Y280704D02*
Y279638D01*
X152967Y279105D01*
X151900D01*
X151367Y279638D01*
Y280704D01*
X151900Y281237D01*
X152967D01*
X153500Y280704D01*
X150301Y278038D02*
X153500D01*
X151900D01*
X151367Y277505D01*
Y276439D01*
X151900Y275906D01*
X153500D01*
X151367Y274306D02*
Y273240D01*
X151900Y272707D01*
X153500D01*
Y274306D01*
X152967Y274839D01*
X152434Y274306D01*
Y272707D01*
X153500Y271640D02*
Y270574D01*
Y271107D01*
X150301D01*
Y271640D01*
X153500Y268975D02*
X152967D01*
Y268441D01*
X153500D01*
Y268975D01*
Y265776D02*
Y264709D01*
X152967Y264176D01*
X151900D01*
X151367Y264709D01*
Y265776D01*
X151900Y266309D01*
X152967D01*
X153500Y265776D01*
X151367Y263110D02*
X153500D01*
X152434D01*
X151900Y262577D01*
X151367Y262043D01*
Y261510D01*
X154566Y258844D02*
Y258311D01*
X154033Y257778D01*
X151367D01*
Y259378D01*
X151900Y259911D01*
X152967D01*
X153500Y259378D01*
Y257778D01*
X159801Y293500D02*
X163000D01*
X161400D01*
X160867Y292967D01*
Y291900D01*
X161400Y291367D01*
X163000D01*
X160867Y290301D02*
X163000Y288168D01*
X161934Y289235D01*
X160867Y288168D01*
X163000Y290301D01*
X159801Y287102D02*
Y284969D01*
X160334D01*
X162467Y287102D01*
X163000D01*
Y283903D02*
Y282837D01*
Y283370D01*
X159801D01*
X160334Y283903D01*
X163000Y281237D02*
Y280171D01*
Y280704D01*
X159801D01*
X160334Y281237D01*
X160867Y275373D02*
X163000Y274306D01*
X160867Y273240D01*
X163000Y272174D02*
Y271107D01*
Y271640D01*
X159801D01*
X160334Y272174D01*
X163000Y269508D02*
X162467D01*
Y268975D01*
X163000D01*
Y269508D01*
X160334Y266842D02*
X159801Y266309D01*
Y265243D01*
X160334Y264709D01*
X162467D01*
X163000Y265243D01*
Y266309D01*
X162467Y266842D01*
X160334D01*
X144566Y292434D02*
Y291900D01*
X144033Y291367D01*
X141367D01*
Y292967D01*
X141901Y293500D01*
X142967D01*
X143500Y292967D01*
Y291367D01*
Y290301D02*
Y289235D01*
Y289768D01*
X141367D01*
Y290301D01*
X140834Y287102D02*
X141367D01*
Y287635D01*
Y286569D01*
Y287102D01*
X142967D01*
X143500Y286569D01*
X140301Y284969D02*
X143500D01*
X141901D01*
X141367Y284436D01*
Y283370D01*
X141901Y282837D01*
X143500D01*
X141367Y281770D02*
X142967D01*
X143500Y281237D01*
Y279638D01*
X141367D01*
X140301Y278572D02*
X143500D01*
Y276972D01*
X142967Y276439D01*
X142434D01*
X141901D01*
X141367Y276972D01*
Y278572D01*
X143500Y275373D02*
X142967D01*
Y274839D01*
X143500D01*
Y275373D01*
X141367Y270574D02*
Y272174D01*
X141901Y272707D01*
X142967D01*
X143500Y272174D01*
Y270574D01*
Y268975D02*
Y267908D01*
X142967Y267375D01*
X141901D01*
X141367Y267908D01*
Y268975D01*
X141901Y269508D01*
X142967D01*
X143500Y268975D01*
Y266309D02*
X141367D01*
Y265776D01*
X141901Y265243D01*
X143500D01*
X141901D01*
X141367Y264709D01*
X141901Y264176D01*
X143500D01*
Y263110D02*
X141367Y260977D01*
X143500Y259911D02*
X141367D01*
Y259378D01*
X141901Y258844D01*
X143500D01*
X141901D01*
X141367Y258311D01*
X141901Y257778D01*
X143500D01*
Y256712D02*
Y255646D01*
Y256179D01*
X141367D01*
Y256712D01*
Y251913D02*
Y253513D01*
X141901Y254046D01*
X142967D01*
X143500Y253513D01*
Y251913D01*
X141367Y250847D02*
X143500D01*
X142434D01*
X141901Y250314D01*
X141367Y249781D01*
Y249248D01*
X143500Y247115D02*
Y246049D01*
X142967Y245515D01*
X141901D01*
X141367Y246049D01*
Y247115D01*
X141901Y247648D01*
X142967D01*
X143500Y247115D01*
X140301Y244449D02*
X143500D01*
X141901D01*
X141367Y243916D01*
Y242850D01*
X141901Y242317D01*
X143500D01*
X141367Y240717D02*
Y239651D01*
X141901Y239118D01*
X143500D01*
Y240717D01*
X142967Y241250D01*
X142434Y240717D01*
Y239118D01*
X143500Y238051D02*
Y236985D01*
Y237518D01*
X140301D01*
Y238051D01*
X185367Y286666D02*
X185900Y287199D01*
X186967D01*
X187500Y286666D01*
Y284533D01*
X186967Y284000D01*
X185900D01*
X185367Y284533D01*
Y285599D01*
X186434D01*
X184301Y284000D02*
Y287199D01*
X182168Y284000D01*
Y287199D01*
X181102D02*
Y284000D01*
X179503D01*
X178969Y284533D01*
Y286666D01*
X179503Y287199D01*
X181102D01*
X187500Y277199D02*
Y275066D01*
X186434Y274000D01*
X185367Y275066D01*
Y277199D01*
X184301D02*
Y274000D01*
X182702D01*
X182168Y274533D01*
Y276666D01*
X182702Y277199D01*
X184301D01*
X181102D02*
Y274000D01*
X179503D01*
X178969Y274533D01*
Y276666D01*
X179503Y277199D01*
X181102D01*
X187500Y294000D02*
Y296133D01*
X186434Y297199D01*
X185367Y296133D01*
Y294000D01*
Y295600D01*
X187500D01*
X184301D02*
X182168D01*
X187500Y304000D02*
Y306133D01*
X186434Y307199D01*
X185367Y306133D01*
Y304000D01*
Y305599D01*
X187500D01*
X184301D02*
X182168D01*
X183235Y306666D02*
Y304533D01*
M02*
