G04 Layer_Color=20142*
%FSLAX25Y25*%
%MOIN*%
G70*
G01*
G75*
%ADD31R,0.02769X0.04343*%
%ADD32R,0.07887X0.07296*%
%ADD33R,0.05918X0.07887*%
%ADD34R,0.05328X0.06115*%
%ADD35R,0.04343X0.02769*%
%ADD36R,0.04147X0.04540*%
%ADD37O,0.07493X0.03162*%
%ADD38R,0.04800X0.06400*%
%ADD39R,0.15200X0.07800*%
%ADD40C,0.06902*%
%ADD41R,0.06902X0.06902*%
%ADD42C,0.03200*%
D31*
X136453Y270500D02*
D03*
X130547D02*
D03*
X136453Y285500D02*
D03*
X130547D02*
D03*
Y265500D02*
D03*
X136453D02*
D03*
Y260500D02*
D03*
X130547D02*
D03*
X136453Y280500D02*
D03*
X130547D02*
D03*
X136453Y275500D02*
D03*
X130547D02*
D03*
X150047Y307000D02*
D03*
X155953D02*
D03*
Y302000D02*
D03*
X150047D02*
D03*
X155953Y297000D02*
D03*
X150047D02*
D03*
X178953Y304500D02*
D03*
X173047D02*
D03*
X178953Y309500D02*
D03*
X173047D02*
D03*
D32*
X172500Y296323D02*
D03*
Y286677D02*
D03*
D33*
X162488Y317000D02*
D03*
X173512D02*
D03*
X189012Y244000D02*
D03*
X177988D02*
D03*
D34*
X177244Y257000D02*
D03*
X182756D02*
D03*
X140744Y240000D02*
D03*
X146256D02*
D03*
X158256D02*
D03*
X152744D02*
D03*
D35*
X123500Y247047D02*
D03*
Y252953D02*
D03*
X181000Y294953D02*
D03*
Y289047D02*
D03*
Y285453D02*
D03*
Y279547D02*
D03*
Y275953D02*
D03*
Y270047D02*
D03*
X170500Y273047D02*
D03*
Y278953D02*
D03*
Y263547D02*
D03*
Y269453D02*
D03*
D36*
X146158Y247000D02*
D03*
X140842D02*
D03*
X152842D02*
D03*
X158158D02*
D03*
D37*
X162146Y255500D02*
D03*
Y260500D02*
D03*
Y265500D02*
D03*
Y270500D02*
D03*
Y275500D02*
D03*
Y280500D02*
D03*
Y285500D02*
D03*
Y290500D02*
D03*
X142854Y255500D02*
D03*
Y260500D02*
D03*
Y265500D02*
D03*
Y270500D02*
D03*
Y275500D02*
D03*
Y280500D02*
D03*
Y285500D02*
D03*
Y290500D02*
D03*
D38*
X193470Y264365D02*
D03*
X197270Y255635D02*
D03*
X189730D02*
D03*
D39*
X110000Y237500D02*
D03*
Y247500D02*
D03*
Y317500D02*
D03*
Y307500D02*
D03*
Y297500D02*
D03*
Y287500D02*
D03*
Y277500D02*
D03*
Y267500D02*
D03*
D40*
X194000Y275500D02*
D03*
Y285500D02*
D03*
Y295500D02*
D03*
D41*
Y305500D02*
D03*
D42*
X127500Y270500D02*
D03*
X120000Y284500D02*
D03*
X148500Y265500D02*
D03*
X127500Y285500D02*
D03*
Y275500D02*
D03*
X130500Y256500D02*
D03*
X127500Y280500D02*
D03*
X182756Y261244D02*
D03*
X189730Y251000D02*
D03*
X168500Y259500D02*
D03*
X181500Y309500D02*
D03*
X193500Y246000D02*
D03*
Y242000D02*
D03*
X162000Y247000D02*
D03*
X162500Y240000D02*
D03*
X137500Y247000D02*
D03*
X137000Y240000D02*
D03*
X169500Y309500D02*
D03*
X156500Y275500D02*
D03*
X181000Y298000D02*
D03*
X174500Y300500D02*
D03*
X170500D02*
D03*
X158500Y297000D02*
D03*
Y307000D02*
D03*
M02*
