M48
;Layer_Color=6321
;FILE_FORMAT=2:5
INCH,LZ
;TYPE=PLATED
T1F00S00C0.00787
T2F00S00C0.01200
%
T01
X01605Y0460063
X0164437
X0168374
Y0464
X0164437
X01605
Y0467937
X0164437
X0168374
T02
X0147437Y0457
X0152937Y0452
X0156437Y04485
X0158Y043325
X0162437Y0434
X0167437Y04225
X0173437
X01765Y044675
X0174Y045175
X0169437Y04785
Y0484
M30
