M48
;Layer_Color=6321
;FILE_FORMAT=2:5
INCH,LZ
;TYPE=PLATED
T1F00S00C0.01200
T2F00S00C0.02756
T3F00S00C0.03200
;TYPE=NON_PLATED
T4F00S00C0.09252
%
T01
X0181Y04245
X0227Y04175
X02365Y041
X0242Y0395
X0241Y03785
X02435Y0363
X0235Y04425
X0236Y04575
X0181Y04775
T02
X0204205Y0335579
Y0343453
Y0351327
Y0359201
Y0367075
Y0374949
Y0382823
Y0390697
Y0398571
Y0406445
Y0414319
X0212079Y0410382
Y0402508
Y0394634
Y038676
Y0378886
Y0371012
Y0363138
Y0355264
Y034739
Y0339516
X0221921Y0339516
Y034739
Y0355264
Y0363138
Y0371012
Y0378886
Y038676
Y0394634
Y0402508
Y0410382
X0229796Y0414319
Y0406445
Y0398571
Y0390697
Y0382823
Y0374949
Y0367075
Y0359201
Y0351327
Y0343453
Y0335579
Y0430067
Y0437941
Y0445815
Y0453689
Y0461563
X0221921Y0457626
Y0449752
Y0441878
Y0434004
Y042613
X0212079
Y0434004
Y0441878
Y0449752
Y0457626
Y04655
X0221921
X0204205Y0461563
Y0453689
Y0445815
Y0437941
Y0430067
T03
X01525Y03275
Y03375
Y03475
Y03575
Y03675
Y03775
Y03875
Y03975
Y04075
Y04175
Y04275
Y04375
Y04475
Y04575
Y04675
X02815
Y04575
Y04475
Y04375
Y04275
Y04175
Y04075
Y03975
Y03875
Y03775
Y03675
Y03575
Y03475
Y03375
Y03275
Y04775
X01525
T04
X0217Y0328492
Y0419634
M30
