G04 Layer_Physical_Order=2*
G04 Layer_Color=11436288*
%FSLAX25Y25*%
%MOIN*%
G70*
G01*
G75*
%ADD10R,0.15000X0.07600*%
%ADD15C,0.01000*%
%ADD19C,0.02400*%
G36*
X178929Y251071D02*
X121000D01*
Y259800D01*
X121000D01*
Y260200D01*
X121000D01*
Y269800D01*
X121000D01*
Y270200D01*
X121000D01*
Y279800D01*
X121000D01*
Y280200D01*
X121000D01*
Y289800D01*
X121000D01*
Y290200D01*
X121000D01*
Y293471D01*
X141367D01*
X151919Y282919D01*
X152415Y282587D01*
X153000Y282471D01*
X156000D01*
X156585Y282587D01*
X157081Y282919D01*
X157433Y283270D01*
X157500Y283257D01*
X158358Y283428D01*
X159086Y283914D01*
X159572Y284642D01*
X159743Y285500D01*
X159572Y286358D01*
X159086Y287086D01*
X158358Y287572D01*
X157500Y287743D01*
X156697Y287583D01*
X156641Y287573D01*
X156172Y287860D01*
X156072Y288358D01*
X155586Y289086D01*
X154858Y289572D01*
X154000Y289743D01*
X153933Y289730D01*
X137581Y306081D01*
X137085Y306413D01*
X136500Y306529D01*
X121000D01*
Y309800D01*
X121000D01*
Y310200D01*
X121000D01*
Y313500D01*
X112500D01*
Y316500D01*
X121000D01*
Y318929D01*
X176500D01*
X176500Y318929D01*
X176500Y318929D01*
X178929D01*
Y251071D01*
D02*
G37*
%LPC*%
G36*
X146500Y305500D02*
X146356D01*
X146414Y305414D01*
X146500Y305356D01*
Y305500D01*
D02*
G37*
G36*
X167500Y291644D02*
Y291500D01*
X167644D01*
X167586Y291586D01*
X167500Y291644D01*
D02*
G37*
G36*
X164500D02*
X164414Y291586D01*
X164356Y291500D01*
X164500D01*
Y291644D01*
D02*
G37*
G36*
X175644Y305500D02*
X175500D01*
Y305356D01*
X175586Y305414D01*
X175644Y305500D01*
D02*
G37*
G36*
X172500D02*
X172356D01*
X172414Y305414D01*
X172500Y305356D01*
Y305500D01*
D02*
G37*
G36*
X149644D02*
X149500D01*
Y305356D01*
X149586Y305414D01*
X149644Y305500D01*
D02*
G37*
G36*
X145500Y265144D02*
X145414Y265086D01*
X145356Y265000D01*
X145500D01*
Y265144D01*
D02*
G37*
G36*
X148644Y262000D02*
X148500D01*
Y261856D01*
X148586Y261914D01*
X148644Y262000D01*
D02*
G37*
G36*
X145500D02*
X145356D01*
X145414Y261914D01*
X145500Y261856D01*
Y262000D01*
D02*
G37*
G36*
X167644Y288500D02*
X167500D01*
Y288356D01*
X167586Y288414D01*
X167644Y288500D01*
D02*
G37*
G36*
X164500D02*
X164356D01*
X164414Y288414D01*
X164500Y288356D01*
Y288500D01*
D02*
G37*
G36*
X148500Y265144D02*
Y265000D01*
X148644D01*
X148586Y265086D01*
X148500Y265144D01*
D02*
G37*
G36*
X172500Y311000D02*
X172356D01*
X172414Y310914D01*
X172500Y310856D01*
Y311000D01*
D02*
G37*
G36*
X162500Y309144D02*
Y309000D01*
X162644D01*
X162586Y309086D01*
X162500Y309144D01*
D02*
G37*
G36*
X159500D02*
X159414Y309086D01*
X159356Y309000D01*
X159500D01*
Y309144D01*
D02*
G37*
G36*
X175500Y314144D02*
Y314000D01*
X175644D01*
X175586Y314086D01*
X175500Y314144D01*
D02*
G37*
G36*
X172500D02*
X172414Y314086D01*
X172356Y314000D01*
X172500D01*
Y314144D01*
D02*
G37*
G36*
X175644Y311000D02*
X175500D01*
Y310856D01*
X175586Y310914D01*
X175644Y311000D01*
D02*
G37*
G36*
X146500Y308644D02*
X146414Y308586D01*
X146356Y308500D01*
X146500D01*
Y308644D01*
D02*
G37*
G36*
X162644Y306000D02*
X162500D01*
Y305856D01*
X162586Y305914D01*
X162644Y306000D01*
D02*
G37*
G36*
X159500D02*
X159356D01*
X159414Y305914D01*
X159500Y305856D01*
Y306000D01*
D02*
G37*
G36*
X175500Y308644D02*
Y308500D01*
X175644D01*
X175586Y308586D01*
X175500Y308644D01*
D02*
G37*
G36*
X172500D02*
X172414Y308586D01*
X172356Y308500D01*
X172500D01*
Y308644D01*
D02*
G37*
G36*
X149500D02*
Y308500D01*
X149644D01*
X149586Y308586D01*
X149500Y308644D01*
D02*
G37*
%LPD*%
D10*
X112500Y255000D02*
D03*
Y265000D02*
D03*
Y275000D02*
D03*
Y285000D02*
D03*
Y295000D02*
D03*
Y305000D02*
D03*
Y315000D02*
D03*
D15*
X156000Y284000D02*
X157500Y285500D01*
X112500Y295000D02*
X142000D01*
X153000Y284000D02*
X156000D01*
X142000Y295000D02*
X153000Y284000D01*
X112500Y305000D02*
X136500D01*
X154000Y287500D01*
D19*
X161000Y307500D02*
D03*
X174000Y312500D02*
D03*
Y307000D02*
D03*
X148000D02*
D03*
X166000Y290000D02*
D03*
X147000Y263500D02*
D03*
X154000Y287500D02*
D03*
X157500Y285500D02*
D03*
M02*
