G04 Layer_Color=25308*
%FSLAX25Y25*%
%MOIN*%
G70*
G01*
G75*
%ADD10R,0.15000X0.07600*%
G04:AMPARAMS|DCode=11|XSize=13.78mil|YSize=13.78mil|CornerRadius=3.45mil|HoleSize=0mil|Usage=FLASHONLY|Rotation=270.000|XOffset=0mil|YOffset=0mil|HoleType=Round|Shape=RoundedRectangle|*
%AMROUNDEDRECTD11*
21,1,0.01378,0.00689,0,0,270.0*
21,1,0.00689,0.01378,0,0,270.0*
1,1,0.00689,-0.00345,-0.00345*
1,1,0.00689,-0.00345,0.00345*
1,1,0.00689,0.00345,0.00345*
1,1,0.00689,0.00345,-0.00345*
%
%ADD11ROUNDEDRECTD11*%
%ADD12R,0.03740X0.04134*%
%ADD13R,0.03150X0.03740*%
D10*
X112500Y265000D02*
D03*
Y275000D02*
D03*
Y315000D02*
D03*
Y305000D02*
D03*
Y295000D02*
D03*
Y285000D02*
D03*
D11*
X164839Y294646D02*
D03*
X162279D02*
D03*
X159721D02*
D03*
X157161D02*
D03*
Y300354D02*
D03*
X159721D02*
D03*
X162279D02*
D03*
X164839D02*
D03*
D12*
X165146Y307000D02*
D03*
X170854D02*
D03*
X165146Y312500D02*
D03*
X170854D02*
D03*
X156854Y307000D02*
D03*
X151146D02*
D03*
D13*
X161441Y281500D02*
D03*
X166559D02*
D03*
X161441Y263500D02*
D03*
X166559D02*
D03*
X150941D02*
D03*
X156059D02*
D03*
X161441Y275500D02*
D03*
X166559D02*
D03*
X161441Y269500D02*
D03*
X166559D02*
D03*
M02*
