G04 Layer_Physical_Order=1*
G04 Layer_Color=25308*
%FSLAX25Y25*%
%MOIN*%
G70*
G01*
G75*
%ADD10R,0.15000X0.07600*%
G04:AMPARAMS|DCode=11|XSize=13.78mil|YSize=13.78mil|CornerRadius=3.45mil|HoleSize=0mil|Usage=FLASHONLY|Rotation=270.000|XOffset=0mil|YOffset=0mil|HoleType=Round|Shape=RoundedRectangle|*
%AMROUNDEDRECTD11*
21,1,0.01378,0.00689,0,0,270.0*
21,1,0.00689,0.01378,0,0,270.0*
1,1,0.00689,-0.00345,-0.00345*
1,1,0.00689,-0.00345,0.00345*
1,1,0.00689,0.00345,0.00345*
1,1,0.00689,0.00345,-0.00345*
%
%ADD11ROUNDEDRECTD11*%
%ADD12R,0.03740X0.04134*%
%ADD13R,0.03150X0.03740*%
%ADD14C,0.02500*%
%ADD15C,0.01000*%
%ADD16C,0.03000*%
%ADD17C,0.02000*%
%ADD18C,0.01500*%
%ADD19C,0.02400*%
D10*
X112500Y265000D02*
D03*
Y275000D02*
D03*
Y315000D02*
D03*
Y305000D02*
D03*
Y295000D02*
D03*
Y285000D02*
D03*
D11*
X164839Y294646D02*
D03*
X162279D02*
D03*
X159721D02*
D03*
X157161D02*
D03*
Y300354D02*
D03*
X159721D02*
D03*
X162279D02*
D03*
X164839D02*
D03*
D12*
X165146Y307000D02*
D03*
X170854D02*
D03*
X165146Y312500D02*
D03*
X170854D02*
D03*
X156854Y307000D02*
D03*
X151146D02*
D03*
D13*
X161441Y281500D02*
D03*
X166559D02*
D03*
X161441Y263500D02*
D03*
X166559D02*
D03*
X150941D02*
D03*
X156059D02*
D03*
X161441Y275500D02*
D03*
X166559D02*
D03*
X161441Y269500D02*
D03*
X166559D02*
D03*
D14*
X165146Y307000D02*
Y312500D01*
X112500Y315000D02*
X153500D01*
X156854Y307000D02*
Y311646D01*
X156000Y312500D02*
X165146D01*
X153500Y315000D02*
X156000Y312500D01*
X156854Y311646D01*
D15*
X162279Y300354D02*
Y303221D01*
X161000Y304500D02*
X162279Y303221D01*
X161000Y304500D02*
Y307500D01*
X156854Y304500D02*
Y307000D01*
Y304500D02*
X159721Y301634D01*
Y300354D02*
Y301634D01*
X164839Y291161D02*
Y294646D01*
Y291161D02*
X166000Y290000D01*
X162279Y285279D02*
Y294646D01*
X157500Y269500D02*
X161441D01*
X156059Y263500D02*
Y265941D01*
X157161Y290661D02*
Y294646D01*
X157500Y285500D02*
X159721Y287720D01*
Y294646D01*
X154000Y287500D02*
X157161Y290661D01*
X150000Y297500D02*
X152854Y300354D01*
X157161D01*
X150000Y272000D02*
X156059Y265941D01*
X150000Y272000D02*
Y297500D01*
X154000Y273000D02*
X157500Y269500D01*
X154000Y273000D02*
Y287500D01*
X157500Y277000D02*
Y285500D01*
Y277000D02*
X159000Y275500D01*
X161441D01*
X161500Y284500D02*
X162279Y285279D01*
X161441Y281500D02*
Y284441D01*
X164839Y300354D02*
Y301839D01*
X166000Y303000D01*
D16*
X148000Y307000D02*
X151146D01*
X170854Y312500D02*
X174000D01*
X147000Y263500D02*
X150941D01*
X170854Y307000D02*
X174000D01*
D17*
X156059Y263500D02*
X161441D01*
X166559D02*
Y269500D01*
Y275500D01*
Y281500D01*
D18*
X168500D01*
X169000D02*
X173000Y285500D01*
Y296000D01*
X166000Y303000D02*
X173000Y296000D01*
X165146Y303854D02*
X166000Y303000D01*
X165146Y303854D02*
Y307000D01*
D19*
X161000Y307500D02*
D03*
X174000Y312500D02*
D03*
Y307000D02*
D03*
X148000D02*
D03*
X166000Y290000D02*
D03*
X147000Y263500D02*
D03*
X154000Y287500D02*
D03*
X157500Y285500D02*
D03*
M02*
