G04 Layer_Physical_Order=1*
G04 Layer_Color=25308*
%FSLAX25Y25*%
%MOIN*%
G70*
G01*
G75*
%ADD10R,0.15000X0.07600*%
%ADD11R,0.03740X0.04134*%
%ADD12O,0.03150X0.00984*%
%ADD13O,0.00984X0.03150*%
%ADD14R,0.04134X0.03740*%
%ADD15R,0.03150X0.03740*%
%ADD16C,0.00600*%
%ADD17C,0.01000*%
%ADD18C,0.02000*%
%ADD19C,0.03000*%
%ADD20C,0.02400*%
D10*
X112500Y447500D02*
D03*
Y457500D02*
D03*
Y467500D02*
D03*
Y477500D02*
D03*
Y437500D02*
D03*
Y427500D02*
D03*
D11*
X167146Y471000D02*
D03*
X172854D02*
D03*
X167146Y465000D02*
D03*
X172854D02*
D03*
D12*
X159201Y453437D02*
D03*
Y451469D02*
D03*
Y449500D02*
D03*
Y447532D02*
D03*
Y445563D02*
D03*
X171799D02*
D03*
Y447532D02*
D03*
Y449500D02*
D03*
Y451469D02*
D03*
Y453437D02*
D03*
D13*
X163531Y443201D02*
D03*
X165500D02*
D03*
X167469D02*
D03*
Y455799D02*
D03*
X165500D02*
D03*
X163531D02*
D03*
D14*
X150500Y453354D02*
D03*
Y447646D02*
D03*
D15*
X164559Y426500D02*
D03*
X159441D02*
D03*
X164559Y432500D02*
D03*
X159441D02*
D03*
X152059Y439000D02*
D03*
X146941D02*
D03*
X152059Y433000D02*
D03*
X146941D02*
D03*
D16*
X157000Y426500D02*
X159441D01*
X153500Y423000D02*
X157000Y426500D01*
X135000Y423000D02*
X153500D01*
X157500Y432500D02*
X159441D01*
X149500Y424500D02*
X157500Y432500D01*
X137000Y424500D02*
X149500D01*
X134500Y433000D02*
X146941D01*
X142500Y440000D02*
Y442500D01*
Y440000D02*
X143500Y439000D01*
X146941D01*
X129000Y429000D02*
Y433500D01*
Y429000D02*
X135000Y423000D01*
X132000Y429500D02*
X137000Y424500D01*
X132000Y429500D02*
Y440500D01*
X129500Y443000D02*
X132000Y440500D01*
X112500Y437500D02*
X122500D01*
X122000Y457500D02*
X126500Y453000D01*
Y429000D02*
Y453000D01*
Y429000D02*
X134000Y421500D01*
X122000Y447500D02*
X125000Y444500D01*
Y427500D02*
Y444500D01*
Y427500D02*
X132500Y420000D01*
X174500Y421500D02*
X177500Y424500D01*
X134000Y421500D02*
X174500D01*
X112500Y457500D02*
X122000D01*
X112500Y447500D02*
X122000D01*
X132500Y420000D02*
X175500D01*
X177500Y424500D02*
Y442500D01*
X179000Y423500D02*
Y447500D01*
X175500Y420000D02*
X179000Y423500D01*
X167469Y427468D02*
Y443201D01*
X166500Y426500D02*
X167469Y427468D01*
X164559Y426500D02*
X166500D01*
X164559Y432500D02*
Y435559D01*
X165500Y436500D01*
Y443201D01*
X152059Y433000D02*
X155000D01*
X155500Y433500D01*
Y437000D01*
X158000Y439500D01*
X162500D01*
X152059Y439000D02*
X154500D01*
X155000Y439500D01*
Y446500D01*
X156032Y447532D01*
X159201D01*
X162500Y439500D02*
X163531Y440531D01*
Y443201D01*
X163500Y455831D02*
Y460000D01*
X165500Y458000D01*
Y455799D02*
Y458000D01*
X171799Y453437D02*
X175437D01*
X173468Y451469D02*
X175437Y453437D01*
X171799Y451469D02*
X173468D01*
X157500Y442500D02*
X158500D01*
X159201Y443201D01*
Y445563D01*
X171799Y449500D02*
X177000D01*
X171799Y447532D02*
X175469D01*
X176500Y446500D01*
X177000Y449500D02*
X179000Y447500D01*
X171799Y445563D02*
X174437D01*
X177500Y442500D01*
D17*
X167469Y455799D02*
Y464677D01*
X151417Y453437D02*
X159201D01*
X151000Y453854D02*
X151417Y453437D01*
D18*
X163500Y477500D02*
X167146Y473854D01*
X150500Y453354D02*
Y459000D01*
X162500Y471000D02*
X167146D01*
Y465000D02*
Y471000D01*
Y473854D01*
X112500Y477500D02*
X163500D01*
X150500Y459000D02*
X162500Y471000D01*
D19*
X172854D02*
X176000D01*
X172854Y465000D02*
X176000D01*
X150500Y444500D02*
Y447646D01*
D20*
X142500Y442500D02*
D03*
X134500Y433000D02*
D03*
X129000Y433500D02*
D03*
X129500Y443000D02*
D03*
X122500Y437500D02*
D03*
X176000Y471000D02*
D03*
Y465000D02*
D03*
X150500Y444500D02*
D03*
X157500Y442500D02*
D03*
X163500Y460000D02*
D03*
X175500Y453500D02*
D03*
X176500Y446500D02*
D03*
M02*
