G04 Layer_Color=25308*
%FSLAX25Y25*%
%MOIN*%
G70*
G01*
G75*
%ADD10R,0.15000X0.07600*%
%ADD11R,0.03740X0.04134*%
%ADD12O,0.03150X0.00984*%
%ADD13O,0.00984X0.03150*%
%ADD14R,0.04134X0.03740*%
%ADD15R,0.03150X0.03740*%
D10*
X112500Y447500D02*
D03*
Y457500D02*
D03*
Y467500D02*
D03*
Y477500D02*
D03*
Y437500D02*
D03*
Y427500D02*
D03*
D11*
X167146Y471000D02*
D03*
X172854D02*
D03*
X167146Y465000D02*
D03*
X172854D02*
D03*
D12*
X159201Y453437D02*
D03*
Y451469D02*
D03*
Y449500D02*
D03*
Y447532D02*
D03*
Y445563D02*
D03*
X171799D02*
D03*
Y447532D02*
D03*
Y449500D02*
D03*
Y451469D02*
D03*
Y453437D02*
D03*
D13*
X163531Y443201D02*
D03*
X165500D02*
D03*
X167469D02*
D03*
Y455799D02*
D03*
X165500D02*
D03*
X163531D02*
D03*
D14*
X150500Y453354D02*
D03*
Y447646D02*
D03*
D15*
X164559Y426500D02*
D03*
X159441D02*
D03*
X164559Y432500D02*
D03*
X159441D02*
D03*
X152059Y439000D02*
D03*
X146941D02*
D03*
X152059Y433000D02*
D03*
X146941D02*
D03*
M02*
