G04 Layer_Color=20142*
%FSLAX25Y25*%
%MOIN*%
G70*
G01*
G75*
%ADD23R,0.15800X0.08400*%
%ADD24R,0.04540X0.04934*%
%ADD25O,0.03950X0.01784*%
%ADD26O,0.01784X0.03950*%
%ADD27R,0.04934X0.04540*%
%ADD28R,0.03950X0.04540*%
%ADD29C,0.03200*%
D23*
X112500Y447500D02*
D03*
Y457500D02*
D03*
Y467500D02*
D03*
Y477500D02*
D03*
Y437500D02*
D03*
Y427500D02*
D03*
D24*
X167146Y471000D02*
D03*
X172854D02*
D03*
X167146Y465000D02*
D03*
X172854D02*
D03*
D25*
X159201Y453437D02*
D03*
Y451469D02*
D03*
Y449500D02*
D03*
Y447532D02*
D03*
Y445563D02*
D03*
X171799D02*
D03*
Y447532D02*
D03*
Y449500D02*
D03*
Y451469D02*
D03*
Y453437D02*
D03*
D26*
X163531Y443201D02*
D03*
X165500D02*
D03*
X167469D02*
D03*
Y455799D02*
D03*
X165500D02*
D03*
X163531D02*
D03*
D27*
X150500Y453354D02*
D03*
Y447646D02*
D03*
D28*
X164559Y426500D02*
D03*
X159441D02*
D03*
X164559Y432500D02*
D03*
X159441D02*
D03*
X152059Y439000D02*
D03*
X146941D02*
D03*
X152059Y433000D02*
D03*
X146941D02*
D03*
D29*
X142500Y442500D02*
D03*
X134500Y433000D02*
D03*
X129000Y433500D02*
D03*
X129500Y443000D02*
D03*
X122500Y437500D02*
D03*
X176000Y471000D02*
D03*
Y465000D02*
D03*
X150500Y444500D02*
D03*
X157500Y442500D02*
D03*
X163500Y460000D02*
D03*
X175500Y453500D02*
D03*
X176500Y446500D02*
D03*
M02*
