G04 Layer_Physical_Order=2*
G04 Layer_Color=11436288*
%FSLAX25Y25*%
%MOIN*%
G70*
G01*
G75*
%ADD10R,0.15000X0.07600*%
%ADD16C,0.00600*%
%ADD20C,0.02400*%
G36*
X178929Y447724D02*
X178929Y447724D01*
Y445276D01*
X178929Y445276D01*
Y413571D01*
X121000D01*
Y422300D01*
X121000D01*
Y422700D01*
X121000D01*
Y426174D01*
X138000D01*
X138507Y426275D01*
X138937Y426563D01*
X143437Y431063D01*
X143725Y431493D01*
X143825Y432000D01*
Y440740D01*
X144086Y440914D01*
X144572Y441642D01*
X144743Y442500D01*
X144572Y443358D01*
X144086Y444086D01*
X143358Y444572D01*
X142500Y444743D01*
X141642Y444572D01*
X140914Y444086D01*
X140428Y443358D01*
X140257Y442500D01*
X140428Y441642D01*
X140914Y440914D01*
X141174Y440740D01*
Y432549D01*
X137451Y428826D01*
X121000D01*
Y432300D01*
X121000D01*
Y432418D01*
X121500Y432625D01*
X124063Y430063D01*
X124493Y429775D01*
X125000Y429674D01*
X132500D01*
X133007Y429775D01*
X133437Y430063D01*
X134193Y430818D01*
X134500Y430757D01*
X135358Y430928D01*
X136086Y431414D01*
X136572Y432142D01*
X136743Y433000D01*
X136572Y433858D01*
X136086Y434586D01*
X135358Y435072D01*
X134500Y435243D01*
X133642Y435072D01*
X132914Y434586D01*
X132428Y433858D01*
X132257Y433000D01*
X132318Y432693D01*
X131951Y432326D01*
X131417D01*
X131109Y432826D01*
X131243Y433500D01*
X131072Y434358D01*
X130586Y435086D01*
X129858Y435572D01*
X129000Y435743D01*
X128142Y435572D01*
X127414Y435086D01*
X126815Y435059D01*
X124682Y437193D01*
X124743Y437500D01*
X124572Y438358D01*
X124086Y439086D01*
X123358Y439572D01*
X122500Y439743D01*
X121642Y439572D01*
X121441Y439438D01*
X121000Y439674D01*
Y442300D01*
X121000D01*
Y442700D01*
X121000D01*
Y446174D01*
X124451D01*
X127318Y443307D01*
X127257Y443000D01*
X127428Y442142D01*
X127914Y441414D01*
X128642Y440928D01*
X129500Y440757D01*
X130358Y440928D01*
X131086Y441414D01*
X131572Y442142D01*
X131743Y443000D01*
X131572Y443858D01*
X131086Y444586D01*
X130358Y445072D01*
X129500Y445243D01*
X129193Y445182D01*
X125937Y448437D01*
X125507Y448725D01*
X125000Y448826D01*
X121000D01*
Y452300D01*
X121000D01*
Y452700D01*
X121000D01*
Y462300D01*
X121000D01*
Y462700D01*
X121000D01*
Y472300D01*
X121000D01*
Y472700D01*
X121000D01*
Y476000D01*
X112500D01*
Y479000D01*
X121000D01*
Y481429D01*
X178929D01*
Y447724D01*
D02*
G37*
%LPC*%
G36*
X152000Y446144D02*
Y446000D01*
X152144D01*
X152086Y446086D01*
X152000Y446144D01*
D02*
G37*
G36*
X149000D02*
X148914Y446086D01*
X148856Y446000D01*
X149000D01*
Y446144D01*
D02*
G37*
G36*
X178144Y445000D02*
X178000D01*
Y444856D01*
X178086Y444914D01*
X178144Y445000D01*
D02*
G37*
G36*
X174000Y452000D02*
X173856D01*
X173914Y451914D01*
X174000Y451856D01*
Y452000D01*
D02*
G37*
G36*
X178000Y448144D02*
Y448000D01*
X178144D01*
X178086Y448086D01*
X178000Y448144D01*
D02*
G37*
G36*
X175000D02*
X174914Y448086D01*
X174856Y448000D01*
X175000D01*
Y448144D01*
D02*
G37*
G36*
Y445000D02*
X174856D01*
X174914Y444914D01*
X175000Y444856D01*
Y445000D01*
D02*
G37*
G36*
X149000Y443000D02*
X148856D01*
X148914Y442914D01*
X149000Y442856D01*
Y443000D01*
D02*
G37*
G36*
X159144Y441000D02*
X159000D01*
Y440856D01*
X159086Y440914D01*
X159144Y441000D01*
D02*
G37*
G36*
X156000D02*
X155856D01*
X155914Y440914D01*
X156000Y440856D01*
Y441000D01*
D02*
G37*
G36*
X159000Y444144D02*
Y444000D01*
X159144D01*
X159086Y444086D01*
X159000Y444144D01*
D02*
G37*
G36*
X156000D02*
X155914Y444086D01*
X155856Y444000D01*
X156000D01*
Y444144D01*
D02*
G37*
G36*
X152144Y443000D02*
X152000D01*
Y442856D01*
X152086Y442914D01*
X152144Y443000D01*
D02*
G37*
G36*
X177144Y452000D02*
X177000D01*
Y451856D01*
X177086Y451914D01*
X177144Y452000D01*
D02*
G37*
G36*
X177500Y466644D02*
Y466500D01*
X177644D01*
X177586Y466586D01*
X177500Y466644D01*
D02*
G37*
G36*
X174500D02*
X174414Y466586D01*
X174356Y466500D01*
X174500D01*
Y466644D01*
D02*
G37*
G36*
X177644Y463500D02*
X177500D01*
Y463356D01*
X177586Y463414D01*
X177644Y463500D01*
D02*
G37*
G36*
X174500Y469500D02*
X174356D01*
X174414Y469414D01*
X174500Y469356D01*
Y469500D01*
D02*
G37*
G36*
X177500Y472644D02*
Y472500D01*
X177644D01*
X177586Y472586D01*
X177500Y472644D01*
D02*
G37*
G36*
X174500D02*
X174414Y472586D01*
X174356Y472500D01*
X174500D01*
Y472644D01*
D02*
G37*
G36*
X177644Y469500D02*
X177500D01*
Y469356D01*
X177586Y469414D01*
X177644Y469500D01*
D02*
G37*
G36*
X162000Y458500D02*
X161856D01*
X161914Y458414D01*
X162000Y458356D01*
Y458500D01*
D02*
G37*
G36*
X177000Y455144D02*
Y455000D01*
X177144D01*
X177086Y455086D01*
X177000Y455144D01*
D02*
G37*
G36*
X174000D02*
X173914Y455086D01*
X173856Y455000D01*
X174000D01*
Y455144D01*
D02*
G37*
G36*
X165144Y458500D02*
X165000D01*
Y458356D01*
X165086Y458414D01*
X165144Y458500D01*
D02*
G37*
G36*
X174500Y463500D02*
X174356D01*
X174414Y463414D01*
X174500Y463356D01*
Y463500D01*
D02*
G37*
G36*
X165000Y461644D02*
Y461500D01*
X165144D01*
X165086Y461586D01*
X165000Y461644D01*
D02*
G37*
G36*
X162000D02*
X161914Y461586D01*
X161856Y461500D01*
X162000D01*
Y461644D01*
D02*
G37*
%LPD*%
D10*
X112500Y477500D02*
D03*
Y467500D02*
D03*
Y457500D02*
D03*
Y447500D02*
D03*
Y437500D02*
D03*
Y427500D02*
D03*
Y417500D02*
D03*
D16*
X142500Y432000D02*
Y442500D01*
X138000Y427500D02*
X142500Y432000D01*
X112500Y427500D02*
X138000D01*
X118500Y437500D02*
X125000Y431000D01*
X132500D01*
X134500Y433000D01*
X126500Y433500D02*
X129000D01*
X122500Y437500D02*
X126500Y433500D01*
X125000Y447500D02*
X129500Y443000D01*
X112500Y447500D02*
X125000D01*
D20*
X142500Y442500D02*
D03*
X134500Y433000D02*
D03*
X129000Y433500D02*
D03*
X129500Y443000D02*
D03*
X122500Y437500D02*
D03*
X176000Y471000D02*
D03*
Y465000D02*
D03*
X150500Y444500D02*
D03*
X157500Y442500D02*
D03*
X163500Y460000D02*
D03*
X175500Y453500D02*
D03*
X176500Y446500D02*
D03*
M02*
