G04 Layer_Physical_Order=2*
G04 Layer_Color=11436288*
%FSLAX25Y25*%
%MOIN*%
G70*
G01*
G75*
%ADD10R,0.15000X0.07600*%
%ADD19C,0.00600*%
%ADD21C,0.01969*%
%ADD22C,0.02400*%
G36*
X178929Y447974D02*
X178429Y447822D01*
X178086Y448336D01*
X177358Y448822D01*
X176500Y448993D01*
X175755Y448845D01*
X175438Y449063D01*
X175317Y449207D01*
X175326Y449250D01*
Y449990D01*
X175586Y450164D01*
X176072Y450892D01*
X176243Y451750D01*
X176072Y452608D01*
X175586Y453336D01*
X174858Y453822D01*
X174000Y453993D01*
X173142Y453822D01*
X172414Y453336D01*
X171928Y452608D01*
X171757Y451750D01*
X171928Y450892D01*
X172414Y450164D01*
X172441Y449565D01*
X158307Y435432D01*
X158000Y435493D01*
X157142Y435322D01*
X156414Y434836D01*
X155928Y434108D01*
X155757Y433250D01*
X155928Y432392D01*
X156414Y431664D01*
X157142Y431178D01*
X158000Y431007D01*
X158858Y431178D01*
X159586Y431664D01*
X160072Y432392D01*
X160116Y432613D01*
X160647Y432719D01*
X160851Y432414D01*
X161579Y431928D01*
X162437Y431757D01*
X163295Y431928D01*
X164023Y432414D01*
X164197Y432675D01*
X169000D01*
X169507Y432775D01*
X169937Y433063D01*
X177437Y440563D01*
X177725Y440993D01*
X177825Y441500D01*
Y444990D01*
X178086Y445164D01*
X178429Y445678D01*
X178929Y445526D01*
Y421071D01*
X121000D01*
Y429800D01*
X121000D01*
Y430200D01*
X121000D01*
Y439800D01*
X121000D01*
Y440200D01*
X121000D01*
Y449800D01*
X121000D01*
Y450200D01*
X121000D01*
Y459800D01*
X121000D01*
Y460200D01*
X121000D01*
Y463674D01*
X121951D01*
X134563Y451063D01*
X134993Y450775D01*
X135500Y450674D01*
X151177D01*
X151351Y450414D01*
X152079Y449928D01*
X152937Y449757D01*
X153795Y449928D01*
X154523Y450414D01*
X155009Y451142D01*
X155180Y452000D01*
X155009Y452858D01*
X154523Y453586D01*
X153795Y454072D01*
X152937Y454243D01*
X152079Y454072D01*
X151351Y453586D01*
X151177Y453326D01*
X136049D01*
X134200Y455174D01*
X134407Y455675D01*
X145677D01*
X145851Y455414D01*
X146579Y454928D01*
X147437Y454757D01*
X148295Y454928D01*
X149023Y455414D01*
X149509Y456142D01*
X149680Y457000D01*
X149509Y457858D01*
X149023Y458586D01*
X148295Y459072D01*
X147437Y459243D01*
X146579Y459072D01*
X145851Y458586D01*
X145677Y458325D01*
X134549D01*
X126326Y466549D01*
Y471000D01*
X126225Y471507D01*
X125937Y471937D01*
X122937Y474937D01*
X122507Y475225D01*
X122000Y475325D01*
X121000D01*
Y479800D01*
X115000D01*
Y488929D01*
X178929D01*
Y447974D01*
D02*
G37*
%LPC*%
G36*
X153157Y467523D02*
X152299Y467352D01*
X151571Y466866D01*
X151085Y466138D01*
X150914Y465279D01*
X151085Y464421D01*
X151571Y463693D01*
X152299Y463207D01*
X153157Y463036D01*
X154016Y463207D01*
X154744Y463693D01*
X155230Y464421D01*
X155401Y465279D01*
X155230Y466138D01*
X154744Y466866D01*
X154016Y467352D01*
X153157Y467523D01*
D02*
G37*
%LPD*%
D10*
X112500Y425000D02*
D03*
Y435000D02*
D03*
Y445000D02*
D03*
Y455000D02*
D03*
Y465000D02*
D03*
Y475000D02*
D03*
Y485000D02*
D03*
D19*
X135500Y452000D02*
X152937D01*
X122500Y465000D02*
X135500Y452000D01*
X112500Y465000D02*
X122500D01*
X134000Y457000D02*
X147437D01*
X125000Y466000D02*
X134000Y457000D01*
X112500Y475000D02*
X113500Y474000D01*
X122000D01*
X125000Y471000D01*
Y466000D02*
Y471000D01*
X162437Y434000D02*
X169000D01*
X176500Y441500D01*
Y446750D01*
X158000Y433250D02*
X174000Y449250D01*
Y451750D01*
D21*
X168374Y460063D02*
D03*
X164437D02*
D03*
X160500D02*
D03*
X168374Y464000D02*
D03*
X164437D02*
D03*
X160500D02*
D03*
X168374Y467937D02*
D03*
X164437D02*
D03*
X160500D02*
D03*
D22*
X169437Y484000D02*
D03*
Y478500D02*
D03*
X156437Y448500D02*
D03*
X167437Y422500D02*
D03*
X173437D02*
D03*
X147437Y457000D02*
D03*
X152937Y452000D02*
D03*
X162437Y434000D02*
D03*
X176500Y446750D02*
D03*
X174000Y451750D02*
D03*
X158000Y433250D02*
D03*
M02*
