G04 Layer_Color=20142*
%FSLAX25Y25*%
%MOIN*%
G70*
G01*
G75*
%ADD31R,0.15800X0.08400*%
%ADD32R,0.04540X0.04934*%
%ADD33R,0.11181X0.11181*%
%ADD34O,0.01929X0.03898*%
%ADD35O,0.03898X0.01929*%
%ADD36R,0.04540X0.03950*%
%ADD37C,0.02769*%
%ADD38C,0.03200*%
D31*
X112500Y435000D02*
D03*
Y445000D02*
D03*
Y485000D02*
D03*
Y475000D02*
D03*
Y465000D02*
D03*
Y455000D02*
D03*
D32*
X160583Y478500D02*
D03*
X166291D02*
D03*
X160583Y484000D02*
D03*
X166291D02*
D03*
X165791Y448500D02*
D03*
X160083D02*
D03*
D33*
X164437Y464000D02*
D03*
D34*
X160598Y471776D02*
D03*
X163157D02*
D03*
X165717D02*
D03*
X168276D02*
D03*
Y456224D02*
D03*
X165717D02*
D03*
X163157D02*
D03*
X160598D02*
D03*
D35*
X172213Y467839D02*
D03*
Y465279D02*
D03*
Y462720D02*
D03*
Y460161D02*
D03*
X156661D02*
D03*
Y462720D02*
D03*
Y465279D02*
D03*
Y467839D02*
D03*
D36*
X173437Y425941D02*
D03*
Y431059D02*
D03*
X167437Y425941D02*
D03*
Y431059D02*
D03*
X173437Y436441D02*
D03*
Y441559D02*
D03*
X167437Y436441D02*
D03*
Y441559D02*
D03*
X147437Y441559D02*
D03*
Y436441D02*
D03*
X152937Y441559D02*
D03*
Y436441D02*
D03*
D37*
X168374Y460063D02*
D03*
X164437D02*
D03*
X160500D02*
D03*
X168374Y464000D02*
D03*
X164437D02*
D03*
X160500D02*
D03*
X168374Y467937D02*
D03*
X164437D02*
D03*
X160500D02*
D03*
D38*
X169437Y484000D02*
D03*
Y478500D02*
D03*
X156437Y448500D02*
D03*
X167437Y422500D02*
D03*
X173437D02*
D03*
X147437Y457000D02*
D03*
X152937Y452000D02*
D03*
X162437Y434000D02*
D03*
X176500Y446750D02*
D03*
X174000Y451750D02*
D03*
X158000Y433250D02*
D03*
M02*
