G04 Layer_Color=15132400*
%FSLAX25Y25*%
%MOIN*%
G70*
G01*
G75*
%ADD16C,0.01000*%
%ADD23C,0.00984*%
%ADD24C,0.00787*%
%ADD25C,0.00100*%
%ADD26C,0.00500*%
D16*
X135692Y465292D02*
G03*
X135692Y465292I-3500J0D01*
G01*
X130692Y471292D02*
X132192Y472792D01*
X133692Y471292D01*
X132192Y468792D02*
Y472792D01*
X139108Y466708D02*
X140608Y465208D01*
X139108Y463708D02*
X140608Y465208D01*
X135692Y465292D02*
X139692D01*
X155070Y485166D02*
X154536Y485699D01*
X153470D01*
X152937Y485166D01*
Y483033D01*
X153470Y482500D01*
X154536D01*
X155070Y483033D01*
X156136Y482500D02*
X157202D01*
X156669D01*
Y485699D01*
X156136Y485166D01*
X154070Y479666D02*
X153536Y480199D01*
X152470D01*
X151937Y479666D01*
Y477533D01*
X152470Y477000D01*
X153536D01*
X154070Y477533D01*
X157269Y477000D02*
X155136D01*
X157269Y479133D01*
Y479666D01*
X156736Y480199D01*
X155669D01*
X155136Y479666D01*
X171070Y449666D02*
X170536Y450199D01*
X169470D01*
X168937Y449666D01*
Y447533D01*
X169470Y447000D01*
X170536D01*
X171070Y447533D01*
X172136Y449666D02*
X172669Y450199D01*
X173735D01*
X174269Y449666D01*
Y449133D01*
X173735Y448599D01*
X173202D01*
X173735D01*
X174269Y448066D01*
Y447533D01*
X173735Y447000D01*
X172669D01*
X172136Y447533D01*
X159437Y437000D02*
X156238D01*
Y438599D01*
X156771Y439133D01*
X157837D01*
X158371Y438599D01*
Y437000D01*
Y438066D02*
X159437Y439133D01*
Y440199D02*
Y441265D01*
Y440732D01*
X156238D01*
X156771Y440199D01*
X163937Y436500D02*
X160738D01*
Y438099D01*
X161271Y438633D01*
X162338D01*
X162871Y438099D01*
Y436500D01*
Y437566D02*
X163937Y438633D01*
Y441832D02*
Y439699D01*
X161804Y441832D01*
X161271D01*
X160738Y441298D01*
Y440232D01*
X161271Y439699D01*
X154000Y444500D02*
X150801D01*
Y446100D01*
X151334Y446633D01*
X152401D01*
X152934Y446100D01*
Y444500D01*
Y445566D02*
X154000Y446633D01*
X151334Y447699D02*
X150801Y448232D01*
Y449298D01*
X151334Y449832D01*
X151867D01*
X152401Y449298D01*
Y448765D01*
Y449298D01*
X152934Y449832D01*
X153467D01*
X154000Y449298D01*
Y448232D01*
X153467Y447699D01*
X149000Y444500D02*
X145801D01*
Y446100D01*
X146334Y446633D01*
X147400D01*
X147934Y446100D01*
Y444500D01*
Y445566D02*
X149000Y446633D01*
Y449298D02*
X145801D01*
X147400Y447699D01*
Y449832D01*
X159437Y426000D02*
X156238D01*
Y427599D01*
X156771Y428133D01*
X157837D01*
X158371Y427599D01*
Y426000D01*
Y427066D02*
X159437Y428133D01*
X156238Y431332D02*
Y429199D01*
X157837D01*
X157304Y430265D01*
Y430798D01*
X157837Y431332D01*
X158904D01*
X159437Y430798D01*
Y429732D01*
X158904Y429199D01*
X163937Y426000D02*
X160738D01*
Y427599D01*
X161271Y428133D01*
X162338D01*
X162871Y427599D01*
Y426000D01*
Y427066D02*
X163937Y428133D01*
X160738Y431332D02*
X161271Y430265D01*
X162338Y429199D01*
X163404D01*
X163937Y429732D01*
Y430798D01*
X163404Y431332D01*
X162871D01*
X162338Y430798D01*
Y429199D01*
X149437Y462699D02*
Y460033D01*
X149970Y459500D01*
X151037D01*
X151570Y460033D01*
Y462699D01*
X152636Y459500D02*
X153702D01*
X153169D01*
Y462699D01*
X152636Y462166D01*
X125000Y485832D02*
X125666Y486499D01*
X126999D01*
X127666Y485832D01*
Y485166D01*
X126999Y484499D01*
X126333D01*
X126999D01*
X127666Y483833D01*
Y483166D01*
X126999Y482500D01*
X125666D01*
X125000Y483166D01*
X128999Y486499D02*
Y483833D01*
X130332Y482500D01*
X131665Y483833D01*
Y486499D01*
X132997Y485832D02*
X133664Y486499D01*
X134997D01*
X135663Y485832D01*
Y485166D01*
X134997Y484499D01*
X134330D01*
X134997D01*
X135663Y483833D01*
Y483166D01*
X134997Y482500D01*
X133664D01*
X132997Y483166D01*
X127666Y435832D02*
X126999Y436499D01*
X125666D01*
X125000Y435832D01*
Y433166D01*
X125666Y432500D01*
X126999D01*
X127666Y433166D01*
Y434499D01*
X126333D01*
X128999Y432500D02*
Y436499D01*
X130998D01*
X131665Y435832D01*
Y434499D01*
X130998Y433833D01*
X128999D01*
X132997Y436499D02*
X134330D01*
X133664D01*
Y432500D01*
X132997D01*
X134330D01*
X138329Y436499D02*
X136996D01*
X136330Y435832D01*
Y433166D01*
X136996Y432500D01*
X138329D01*
X138996Y433166D01*
Y435832D01*
X138329Y436499D01*
X140328Y435832D02*
X140995Y436499D01*
X142328D01*
X142994Y435832D01*
Y435166D01*
X142328Y434499D01*
X141661D01*
X142328D01*
X142994Y433833D01*
Y433166D01*
X142328Y432500D01*
X140995D01*
X140328Y433166D01*
X118533Y423133D02*
X119599D01*
X120133Y422600D01*
Y421000D01*
X118533D01*
X118000Y421533D01*
X118533Y422066D01*
X120133D01*
X121199Y421000D02*
Y424199D01*
Y422066D02*
X122799Y423133D01*
X121199Y422066D02*
X122799Y421000D01*
X124398Y423666D02*
X124931Y424199D01*
X125997D01*
X126531Y423666D01*
Y423133D01*
X125997Y422600D01*
X126531Y422066D01*
Y421533D01*
X125997Y421000D01*
X124931D01*
X124398Y421533D01*
Y422066D01*
X124931Y422600D01*
X124398Y423133D01*
Y423666D01*
X124931Y422600D02*
X125997D01*
X127597Y421533D02*
X128130Y421000D01*
X129196D01*
X129729Y421533D01*
Y423666D01*
X129196Y424199D01*
X128130D01*
X127597Y423666D01*
Y423133D01*
X128130Y422600D01*
X129729D01*
X130796Y424199D02*
X132929D01*
Y423666D01*
X130796Y421533D01*
Y421000D01*
X136127Y424199D02*
X133995D01*
Y422600D01*
X135061Y423133D01*
X135594D01*
X136127Y422600D01*
Y421533D01*
X135594Y421000D01*
X134528D01*
X133995Y421533D01*
X137194Y420467D02*
X139327D01*
X140393Y421000D02*
X141459D01*
X140926D01*
Y423133D01*
X140393D01*
X145191Y421000D02*
X143059D01*
X145191Y423133D01*
Y423666D01*
X144658Y424199D01*
X143592D01*
X143059Y423666D01*
X148390Y423133D02*
X146791D01*
X146258Y422600D01*
Y421533D01*
X146791Y421000D01*
X148390D01*
X152655Y423133D02*
X153722Y421000D01*
X154788Y423133D01*
X155854Y421000D02*
X156921D01*
X156388D01*
Y424199D01*
X155854Y423666D01*
X158520Y421000D02*
Y421533D01*
X159053D01*
Y421000D01*
X158520D01*
X161186Y423666D02*
X161719Y424199D01*
X162785D01*
X163319Y423666D01*
Y421533D01*
X162785Y421000D01*
X161719D01*
X161186Y421533D01*
Y423666D01*
X130900Y477199D02*
X133033Y474000D01*
Y477199D02*
X130900Y474000D01*
X133300Y463801D02*
X131167D01*
Y464334D01*
X133300Y466467D01*
Y467000D01*
X131167D01*
X142900Y466699D02*
Y466166D01*
X143966Y465099D01*
X145033Y466166D01*
Y466699D01*
X143966Y465099D02*
Y463500D01*
D23*
X153709Y472071D02*
G03*
X153709Y472071I-492J0D01*
G01*
D24*
X155776Y470102D02*
Y472661D01*
X158335D01*
X155776Y455339D02*
Y457898D01*
Y455339D02*
X158335D01*
X173098D02*
Y457898D01*
X170539Y455339D02*
X173098D01*
Y470102D02*
Y472661D01*
X170539D02*
X173098D01*
D25*
X129600Y467601D02*
Y467700D01*
D26*
X129700Y462892D02*
X134500Y467692D01*
X129800D02*
X134600Y462892D01*
M02*
