G04 Layer_Color=20142*
%FSLAX25Y25*%
%MOIN*%
G70*
G01*
G75*
%ADD25R,0.04540X0.03950*%
%ADD26R,0.03950X0.04540*%
%ADD27R,0.04934X0.04540*%
%ADD28O,0.01784X0.03950*%
%ADD29O,0.03950X0.01784*%
%ADD30R,0.04540X0.04934*%
%ADD31R,0.15800X0.08400*%
%ADD32C,0.03200*%
D25*
X140500Y473059D02*
D03*
Y467941D02*
D03*
X147000Y473059D02*
D03*
Y467941D02*
D03*
D26*
X163391Y433699D02*
D03*
X158273D02*
D03*
X152891D02*
D03*
X147773D02*
D03*
D27*
X150500Y447646D02*
D03*
Y453354D02*
D03*
D28*
X163531Y455799D02*
D03*
X165500D02*
D03*
X167469D02*
D03*
Y443201D02*
D03*
X165500D02*
D03*
X163531D02*
D03*
D29*
X171799Y453437D02*
D03*
Y451469D02*
D03*
Y449500D02*
D03*
Y447532D02*
D03*
Y445563D02*
D03*
X159201D02*
D03*
Y447532D02*
D03*
Y449500D02*
D03*
Y451469D02*
D03*
Y453437D02*
D03*
D30*
X172854Y465000D02*
D03*
X167146D02*
D03*
X172854Y471000D02*
D03*
X167146D02*
D03*
D31*
X112500Y447500D02*
D03*
Y457500D02*
D03*
Y467500D02*
D03*
Y477500D02*
D03*
Y437500D02*
D03*
Y427500D02*
D03*
D32*
X154332Y462699D02*
D03*
X176500Y446500D02*
D03*
X144332Y433699D02*
D03*
X166832D02*
D03*
X175500Y453500D02*
D03*
X163500Y460000D02*
D03*
X157500Y442500D02*
D03*
X150500Y444500D02*
D03*
X176000Y465000D02*
D03*
Y471000D02*
D03*
X140500Y464500D02*
D03*
X147000D02*
D03*
M02*
