G04 Layer_Color=13813960*
%FSLAX25Y25*%
%MOIN*%
G70*
G01*
G75*
%ADD21C,0.01000*%
D21*
X130500Y418000D02*
X131566D01*
X131033D01*
Y414801D01*
X130500D01*
X133166Y418000D02*
X134232D01*
X133699D01*
Y415867D01*
X133166D01*
X135832Y418000D02*
X137431D01*
X137964Y417467D01*
X137431Y416934D01*
X136365D01*
X135832Y416400D01*
X136365Y415867D01*
X137964D01*
X139031Y415334D02*
X139564Y414801D01*
X140630D01*
X141163Y415334D01*
Y415867D01*
X140630Y416400D01*
X140097D01*
X140630D01*
X141163Y416934D01*
Y417467D01*
X140630Y418000D01*
X139564D01*
X139031Y417467D01*
X144362Y414801D02*
Y418000D01*
X142763D01*
X142229Y417467D01*
Y416400D01*
X142763Y415867D01*
X144362D01*
X145429Y418000D02*
X147028D01*
X147561Y417467D01*
X147028Y416934D01*
X145962D01*
X145429Y416400D01*
X145962Y415867D01*
X147561D01*
X148627Y414801D02*
Y418000D01*
Y416400D01*
X149161Y415867D01*
X150227D01*
X150760Y416400D01*
Y418000D01*
X151826Y418533D02*
X153959D01*
X155025Y418000D02*
X156092D01*
X155559D01*
Y415867D01*
X155025D01*
X159824Y418000D02*
X157691D01*
X159824Y415867D01*
Y415334D01*
X159291Y414801D01*
X158224D01*
X157691Y415334D01*
X163023Y415867D02*
X161423D01*
X160890Y416400D01*
Y417467D01*
X161423Y418000D01*
X163023D01*
X167288Y415867D02*
X168354Y418000D01*
X169421Y415867D01*
X170487Y418000D02*
X171553D01*
X171020D01*
Y414801D01*
X170487Y415334D01*
X173153Y418000D02*
Y417467D01*
X173686D01*
Y418000D01*
X173153D01*
X175819Y415334D02*
X176352Y414801D01*
X177418D01*
X177951Y415334D01*
Y417467D01*
X177418Y418000D01*
X176352D01*
X175819Y417467D01*
Y415334D01*
X160000Y479500D02*
X157867D01*
Y478967D01*
X158400Y478434D01*
X160000D01*
X158400D01*
X157867Y477901D01*
X158400Y477367D01*
X160000D01*
Y476301D02*
Y475235D01*
Y475768D01*
X157867D01*
Y476301D01*
Y471503D02*
Y473102D01*
X158400Y473635D01*
X159467D01*
X160000Y473102D01*
Y471503D01*
X157867Y470436D02*
X160000D01*
X158934D01*
X158400Y469903D01*
X157867Y469370D01*
Y468837D01*
X160000Y466704D02*
Y465638D01*
X159467Y465105D01*
X158400D01*
X157867Y465638D01*
Y466704D01*
X158400Y467237D01*
X159467D01*
X160000Y466704D01*
X156801Y464038D02*
X160000D01*
X158400D01*
X157867Y463505D01*
Y462439D01*
X158400Y461906D01*
X160000D01*
X157867Y460306D02*
Y459240D01*
X158400Y458707D01*
X160000D01*
Y460306D01*
X159467Y460839D01*
X158934Y460306D01*
Y458707D01*
X160000Y457640D02*
Y456574D01*
Y457107D01*
X156801D01*
Y457640D01*
X160000Y454975D02*
X159467D01*
Y454441D01*
X160000D01*
Y454975D01*
Y451776D02*
Y450709D01*
X159467Y450176D01*
X158400D01*
X157867Y450709D01*
Y451776D01*
X158400Y452309D01*
X159467D01*
X160000Y451776D01*
X157867Y449110D02*
X160000D01*
X158934D01*
X158400Y448577D01*
X157867Y448043D01*
Y447510D01*
X161066Y444844D02*
Y444311D01*
X160533Y443778D01*
X157867D01*
Y445378D01*
X158400Y445911D01*
X159467D01*
X160000Y445378D01*
Y443778D01*
X172566Y478434D02*
Y477901D01*
X172033Y477367D01*
X169367D01*
Y478967D01*
X169901Y479500D01*
X170967D01*
X171500Y478967D01*
Y477367D01*
Y476301D02*
Y475235D01*
Y475768D01*
X169367D01*
Y476301D01*
X168834Y473102D02*
X169367D01*
Y473635D01*
Y472569D01*
Y473102D01*
X170967D01*
X171500Y472569D01*
X168301Y470969D02*
X171500D01*
X169901D01*
X169367Y470436D01*
Y469370D01*
X169901Y468837D01*
X171500D01*
X169367Y467770D02*
X170967D01*
X171500Y467237D01*
Y465638D01*
X169367D01*
X168301Y464572D02*
X171500D01*
Y462972D01*
X170967Y462439D01*
X170434D01*
X169901D01*
X169367Y462972D01*
Y464572D01*
X171500Y461373D02*
X170967D01*
Y460839D01*
X171500D01*
Y461373D01*
X169367Y456574D02*
Y458174D01*
X169901Y458707D01*
X170967D01*
X171500Y458174D01*
Y456574D01*
Y454975D02*
Y453908D01*
X170967Y453375D01*
X169901D01*
X169367Y453908D01*
Y454975D01*
X169901Y455508D01*
X170967D01*
X171500Y454975D01*
Y452309D02*
X169367D01*
Y451776D01*
X169901Y451242D01*
X171500D01*
X169901D01*
X169367Y450709D01*
X169901Y450176D01*
X171500D01*
Y449110D02*
X169367Y446977D01*
X171500Y445911D02*
X169367D01*
Y445378D01*
X169901Y444844D01*
X171500D01*
X169901D01*
X169367Y444311D01*
X169901Y443778D01*
X171500D01*
Y442712D02*
Y441646D01*
Y442179D01*
X169367D01*
Y442712D01*
Y437913D02*
Y439513D01*
X169901Y440046D01*
X170967D01*
X171500Y439513D01*
Y437913D01*
X169367Y436847D02*
X171500D01*
X170434D01*
X169901Y436314D01*
X169367Y435781D01*
Y435248D01*
X171500Y433115D02*
Y432049D01*
X170967Y431516D01*
X169901D01*
X169367Y432049D01*
Y433115D01*
X169901Y433648D01*
X170967D01*
X171500Y433115D01*
X168301Y430449D02*
X171500D01*
X169901D01*
X169367Y429916D01*
Y428850D01*
X169901Y428316D01*
X171500D01*
X169367Y426717D02*
Y425651D01*
X169901Y425118D01*
X171500D01*
Y426717D01*
X170967Y427250D01*
X170434Y426717D01*
Y425118D01*
X171500Y424051D02*
Y422985D01*
Y423518D01*
X168301D01*
Y424051D01*
X127666Y476668D02*
X126999Y476001D01*
X125666D01*
X125000Y476668D01*
Y479334D01*
X125666Y480000D01*
X126999D01*
X127666Y479334D01*
Y478001D01*
X126333D01*
X128999Y480000D02*
Y476001D01*
X131665Y480000D01*
Y476001D01*
X132997D02*
Y480000D01*
X134997D01*
X135663Y479334D01*
Y476668D01*
X134997Y476001D01*
X132997D01*
X127666Y466668D02*
X126999Y466001D01*
X125666D01*
X125000Y466668D01*
Y467334D01*
X125666Y468001D01*
X126999D01*
X127666Y468667D01*
Y469334D01*
X126999Y470000D01*
X125666D01*
X125000Y469334D01*
X128999Y466001D02*
Y470000D01*
X130998D01*
X131665Y469334D01*
Y466668D01*
X130998Y466001D01*
X128999D01*
X132997Y470000D02*
Y467334D01*
X134330Y466001D01*
X135663Y467334D01*
Y470000D01*
Y468001D01*
X132997D01*
X127666Y456668D02*
X126999Y456001D01*
X125666D01*
X125000Y456668D01*
Y457334D01*
X125666Y458001D01*
X126999D01*
X127666Y458667D01*
Y459334D01*
X126999Y460000D01*
X125666D01*
X125000Y459334D01*
X131665Y456668D02*
X130998Y456001D01*
X129665D01*
X128999Y456668D01*
Y459334D01*
X129665Y460000D01*
X130998D01*
X131665Y459334D01*
X132997Y456001D02*
Y460000D01*
X135663D01*
X127666Y426668D02*
X126999Y426001D01*
X125666D01*
X125000Y426668D01*
Y427334D01*
X125666Y428001D01*
X126999D01*
X127666Y428667D01*
Y429334D01*
X126999Y430000D01*
X125666D01*
X125000Y429334D01*
X131665Y426668D02*
X130998Y426001D01*
X129665D01*
X128999Y426668D01*
Y429334D01*
X129665Y430000D01*
X130998D01*
X131665Y429334D01*
X132997Y426001D02*
Y430000D01*
Y428667D01*
X135663Y426001D01*
X133664Y428001D01*
X135663Y430000D01*
M02*
