M48
;Layer_Color=6321
;FILE_FORMAT=2:5
INCH,LZ
;TYPE=PLATED
T1F00S00C0.01200
T2F00S00C0.04134
%
T01
X01625Y024
X0162Y0247
X01685Y02595
X0182756Y0261244
X018973Y0251
X01935Y0246
Y0242
X0181Y0298
X01745Y03005
X01705
X01695Y03095
X01815
X01585Y0307
Y0297
X01565Y02755
X01485Y02655
X01275Y02705
Y02755
Y02805
Y02855
X012Y02845
X01305Y02565
X01375Y0247
X0137Y024
T02
X0194Y02755
Y02855
Y02955
Y03055
M30
