M48
;Layer_Color=6321
;FILE_FORMAT=2:5
INCH,LZ
;TYPE=PLATED
T1F00S00C0.01200
T2F00S00C0.03937
T3F00S00C0.05906
T4F00S00C0.06693
%
T01
X012Y04175
X01305Y04375
X01255Y04475
X01485Y0445
X01555Y04465
X0143Y0456
Y04635
X01609Y04547
X0175Y04495
X0199Y0445
Y04415
X02025Y045472
X02065Y0457279
X0196398Y0462398
X0191Y04225
X02025
X01965Y048
X01555Y04735
X01485Y0475
T02
X0138Y0426
Y0436
X016
Y0426
X0174Y04745
X0184
T03
X02225Y0435
Y04745
T04
X02125Y0425
X02325
Y0445
Y04645
X02125
Y0445
Y04845
X02325
M30
