G04 Layer_Color=15132400*
%FSLAX25Y25*%
%MOIN*%
G70*
G01*
G75*
%ADD16C,0.01000*%
%ADD19C,0.00984*%
%ADD20C,0.00787*%
D16*
X163716Y453823D02*
G03*
X163716Y454807I0J492D01*
G01*
Y456500D02*
X171590D01*
Y452000D02*
Y456500D01*
X163716Y452000D02*
X171590D01*
X163716D02*
Y454807D01*
Y453823D02*
Y456500D01*
X173301Y472900D02*
X176634D01*
X177300Y473566D01*
Y474899D01*
X176634Y475566D01*
X173301D01*
X177300Y479565D02*
Y476899D01*
X174634Y479565D01*
X173968D01*
X173301Y478898D01*
Y477565D01*
X173968Y476899D01*
X173801Y452000D02*
X177134D01*
X177800Y452666D01*
Y453999D01*
X177134Y454666D01*
X173801D01*
X177800Y455999D02*
Y457332D01*
Y456665D01*
X173801D01*
X174468Y455999D01*
X151568Y458266D02*
X150901Y457599D01*
Y456266D01*
X151568Y455600D01*
X154234D01*
X154900Y456266D01*
Y457599D01*
X154234Y458266D01*
X154900Y459599D02*
Y460932D01*
Y460265D01*
X150901D01*
X151568Y459599D01*
X148868Y477066D02*
X148201Y476399D01*
Y475066D01*
X148868Y474400D01*
X151533D01*
X152200Y475066D01*
Y476399D01*
X151533Y477066D01*
X152200Y481065D02*
Y478399D01*
X149534Y481065D01*
X148868D01*
X148201Y480398D01*
Y479065D01*
X148868Y478399D01*
X127666Y449332D02*
X126999Y449999D01*
X125666D01*
X125000Y449332D01*
Y448666D01*
X125666Y447999D01*
X126999D01*
X127666Y447333D01*
Y446666D01*
X126999Y446000D01*
X125666D01*
X125000Y446666D01*
X131665Y449332D02*
X130998Y449999D01*
X129665D01*
X128999Y449332D01*
Y448666D01*
X129665Y447999D01*
X130998D01*
X131665Y447333D01*
Y446666D01*
X130998Y446000D01*
X129665D01*
X128999Y446666D01*
X125000Y489332D02*
X125666Y489999D01*
X126999D01*
X127666Y489332D01*
Y488666D01*
X126999Y487999D01*
X126333D01*
X126999D01*
X127666Y487333D01*
Y486666D01*
X126999Y486000D01*
X125666D01*
X125000Y486666D01*
X128999Y489999D02*
Y487333D01*
X130332Y486000D01*
X131665Y487333D01*
Y489999D01*
X132997Y489332D02*
X133664Y489999D01*
X134997D01*
X135663Y489332D01*
Y488666D01*
X134997Y487999D01*
X134330D01*
X134997D01*
X135663Y487333D01*
Y486666D01*
X134997Y486000D01*
X133664D01*
X132997Y486666D01*
X122966Y425134D02*
X123500D01*
X124033Y425667D01*
Y428333D01*
X122433D01*
X121900Y427800D01*
Y426733D01*
X122433Y426200D01*
X124033D01*
X125099D02*
X126165D01*
X125632D01*
Y428333D01*
X125099D01*
X128298Y428866D02*
Y428333D01*
X127765D01*
X128831D01*
X128298D01*
Y426733D01*
X128831Y426200D01*
X130431Y429399D02*
Y426200D01*
Y427800D01*
X130964Y428333D01*
X132030D01*
X132563Y427800D01*
Y426200D01*
X133630Y428333D02*
Y426733D01*
X134163Y426200D01*
X135762D01*
Y428333D01*
X136828Y429399D02*
Y426200D01*
X138428D01*
X138961Y426733D01*
Y427266D01*
Y427800D01*
X138428Y428333D01*
X136828D01*
X140027Y426200D02*
Y426733D01*
X140561D01*
Y426200D01*
X140027D01*
X144826Y428333D02*
X143226D01*
X142693Y427800D01*
Y426733D01*
X143226Y426200D01*
X144826D01*
X146425D02*
X147492D01*
X148025Y426733D01*
Y427800D01*
X147492Y428333D01*
X146425D01*
X145892Y427800D01*
Y426733D01*
X146425Y426200D01*
X149091D02*
Y428333D01*
X149624D01*
X150157Y427800D01*
Y426200D01*
Y427800D01*
X150691Y428333D01*
X151224Y427800D01*
Y426200D01*
X152290D02*
X154423Y428333D01*
X155489Y426200D02*
Y428333D01*
X156022D01*
X156555Y427800D01*
Y426200D01*
Y427800D01*
X157089Y428333D01*
X157622Y427800D01*
Y426200D01*
X158688D02*
X159754D01*
X159221D01*
Y428333D01*
X158688D01*
X163487D02*
X161887D01*
X161354Y427800D01*
Y426733D01*
X161887Y426200D01*
X163487D01*
X164553Y428333D02*
Y426200D01*
Y427266D01*
X165086Y427800D01*
X165619Y428333D01*
X166152D01*
X168285Y426200D02*
X169351D01*
X169885Y426733D01*
Y427800D01*
X169351Y428333D01*
X168285D01*
X167752Y427800D01*
Y426733D01*
X168285Y426200D01*
X170951Y429399D02*
Y426200D01*
Y427800D01*
X171484Y428333D01*
X172550D01*
X173083Y427800D01*
Y426200D01*
X174683Y428333D02*
X175749D01*
X176282Y427800D01*
Y426200D01*
X174683D01*
X174150Y426733D01*
X174683Y427266D01*
X176282D01*
X177349Y426200D02*
X178415D01*
X177882D01*
Y429399D01*
X177349D01*
X146200Y431600D02*
X147800D01*
X148333Y432133D01*
X147800Y432666D01*
X146733D01*
X146200Y433200D01*
X146733Y433733D01*
X148333D01*
X149399Y430534D02*
Y433733D01*
X150998D01*
X151532Y433200D01*
Y432133D01*
X150998Y431600D01*
X149399D01*
X152598D02*
X153664D01*
X153131D01*
Y433733D01*
X152598D01*
X155264Y431067D02*
X157396D01*
X158463Y434799D02*
Y431600D01*
X160062D01*
X160595Y432133D01*
Y432666D01*
Y433200D01*
X160062Y433733D01*
X158463D01*
X164861D02*
X165927Y431600D01*
X166993Y433733D01*
X168060Y431600D02*
Y432133D01*
X168593D01*
Y431600D01*
X168060D01*
X170725D02*
X171792D01*
X171259D01*
Y434799D01*
X170725Y434266D01*
X173391Y431600D02*
Y432133D01*
X173924D01*
Y431600D01*
X173391D01*
X176057Y434266D02*
X176590Y434799D01*
X177656D01*
X178190Y434266D01*
Y432133D01*
X177656Y431600D01*
X176590D01*
X176057Y432133D01*
Y434266D01*
D19*
X161182Y471077D02*
G03*
X161182Y471077I-492J0D01*
G01*
D20*
X161969Y474719D02*
Y477081D01*
X170631Y474719D02*
Y477081D01*
X161969Y474719D02*
X170631D01*
X161969Y477081D02*
X170631D01*
M02*
