G04 Layer_Physical_Order=1*
G04 Layer_Color=25308*
%FSLAX25Y25*%
%MOIN*%
G70*
G01*
G75*
%ADD10R,0.03937X0.04134*%
%ADD11R,0.01772X0.04331*%
%ADD12O,0.01181X0.02756*%
%ADD13R,0.01181X0.02756*%
%ADD14R,0.15000X0.07600*%
%ADD15C,0.02000*%
%ADD16C,0.01000*%
%ADD17C,0.03000*%
%ADD18C,0.02400*%
D10*
X159100Y461905D02*
D03*
Y456000D02*
D03*
X156700Y480853D02*
D03*
Y474947D02*
D03*
D11*
X163741Y471077D02*
D03*
X166300D02*
D03*
X168859D02*
D03*
Y480723D02*
D03*
X163741D02*
D03*
D12*
X170606Y459630D02*
D03*
X168637D02*
D03*
X166668D02*
D03*
X164700D02*
D03*
X170606Y449000D02*
D03*
X168637D02*
D03*
X166668D02*
D03*
D13*
X164700D02*
D03*
D14*
X112500Y458500D02*
D03*
Y468500D02*
D03*
Y478500D02*
D03*
Y488500D02*
D03*
Y448500D02*
D03*
Y438500D02*
D03*
D15*
X151600Y472500D02*
Y484400D01*
Y472500D02*
X159100Y465000D01*
X156700Y480853D02*
Y486500D01*
X159100Y462800D02*
Y465000D01*
X156700Y480853D02*
X163611D01*
X112500Y488500D02*
X147500D01*
X151600Y484400D01*
X147500Y488500D02*
X154700D01*
X156700Y486500D01*
D16*
X175500Y440100D02*
Y483300D01*
X173800Y485000D02*
X175500Y483300D01*
X170600Y485000D02*
X173800D01*
X168859Y483259D02*
X170600Y485000D01*
X168859Y480723D02*
Y483259D01*
X170900Y435500D02*
X175500Y440100D01*
X154100Y435500D02*
X170900D01*
X120700Y448500D02*
X136000Y463800D01*
X112500Y448500D02*
X120700D01*
X149900Y439700D02*
Y452800D01*
Y439700D02*
X154100Y435500D01*
X163741Y465559D02*
Y471077D01*
X164700Y444100D02*
Y449000D01*
X166668Y442100D02*
Y449000D01*
X159700Y462200D02*
X166668D01*
X168200D01*
X170606Y446795D02*
X172100Y445300D01*
X170606Y446795D02*
Y449000D01*
X169800Y467500D02*
X171600D01*
X166300Y467200D02*
Y471077D01*
Y467200D02*
X170606Y462894D01*
Y459630D02*
Y462894D01*
X168859Y468441D02*
X169800Y467500D01*
X168859Y468441D02*
Y471077D01*
X164700Y459630D02*
Y462100D01*
X166668Y459630D02*
Y462200D01*
X168200D02*
X168637Y461763D01*
Y459630D02*
Y461763D01*
X136000Y463800D02*
X153200D01*
X159100Y438500D02*
X164700Y444100D01*
X158700Y438500D02*
X159100D01*
D17*
Y453100D02*
Y456000D01*
X156700Y472500D02*
Y474947D01*
D18*
X149900Y452800D02*
D03*
X163800Y465500D02*
D03*
X153300Y463700D02*
D03*
X166668Y442100D02*
D03*
X172100Y445300D02*
D03*
X171600Y467500D02*
D03*
X159100Y453100D02*
D03*
X156700Y472500D02*
D03*
X158700Y438500D02*
D03*
M02*
