G04 Layer_Color=13813960*
%FSLAX25Y25*%
%MOIN*%
G70*
G01*
G75*
%ADD16C,0.01000*%
D16*
X127666Y487668D02*
X126999Y487001D01*
X125666D01*
X125000Y487668D01*
Y490334D01*
X125666Y491000D01*
X126999D01*
X127666Y490334D01*
Y489001D01*
X126333D01*
X128999Y491000D02*
Y487001D01*
X131665Y491000D01*
Y487001D01*
X132997D02*
Y491000D01*
X134997D01*
X135663Y490334D01*
Y487668D01*
X134997Y487001D01*
X132997D01*
X125000Y461000D02*
Y457001D01*
X126333Y458334D01*
X127666Y457001D01*
Y461000D01*
X128999Y457001D02*
X130332D01*
X129665D01*
Y461000D01*
X128999D01*
X130332D01*
X134997Y457668D02*
X134330Y457001D01*
X132997D01*
X132331Y457668D01*
Y458334D01*
X132997Y459001D01*
X134330D01*
X134997Y459667D01*
Y460334D01*
X134330Y461000D01*
X132997D01*
X132331Y460334D01*
X138329Y457001D02*
X136996D01*
X136330Y457668D01*
Y460334D01*
X136996Y461000D01*
X138329D01*
X138996Y460334D01*
Y457668D01*
X138329Y457001D01*
X125000Y451000D02*
Y447001D01*
X126333Y448334D01*
X127666Y447001D01*
Y451000D01*
X130998Y447001D02*
X129665D01*
X128999Y447668D01*
Y450334D01*
X129665Y451000D01*
X130998D01*
X131665Y450334D01*
Y447668D01*
X130998Y447001D01*
X135663Y447668D02*
X134997Y447001D01*
X133664D01*
X132997Y447668D01*
Y448334D01*
X133664Y449001D01*
X134997D01*
X135663Y449667D01*
Y450334D01*
X134997Y451000D01*
X133664D01*
X132997Y450334D01*
X136996Y447001D02*
X138329D01*
X137663D01*
Y451000D01*
X136996D01*
X138329D01*
X127666Y437668D02*
X126999Y437001D01*
X125666D01*
X125000Y437668D01*
Y438334D01*
X125666Y439001D01*
X126999D01*
X127666Y439667D01*
Y440334D01*
X126999Y441000D01*
X125666D01*
X125000Y440334D01*
X131665Y437668D02*
X130998Y437001D01*
X129665D01*
X128999Y437668D01*
Y440334D01*
X129665Y441000D01*
X130998D01*
X131665Y440334D01*
X132997Y437001D02*
Y441000D01*
Y439667D01*
X135663Y437001D01*
X133664Y439001D01*
X135663Y441000D01*
X146200Y434800D02*
X147800D01*
X148333Y434267D01*
X147800Y433734D01*
X146733D01*
X146200Y433201D01*
X146733Y432667D01*
X148333D01*
X149399Y435866D02*
Y432667D01*
X150998D01*
X151532Y433201D01*
Y434267D01*
X150998Y434800D01*
X149399D01*
X152598D02*
X153664D01*
X153131D01*
Y432667D01*
X152598D01*
X155264Y435333D02*
X157396D01*
X158463Y431601D02*
Y434800D01*
X160062D01*
X160595Y434267D01*
Y433734D01*
Y433201D01*
X160062Y432667D01*
X158463D01*
X164861D02*
X165927Y434800D01*
X166993Y432667D01*
X168060Y434800D02*
Y434267D01*
X168593D01*
Y434800D01*
X168060D01*
X170725D02*
X171792D01*
X171259D01*
Y431601D01*
X170725Y432134D01*
X173391Y434800D02*
Y434267D01*
X173924D01*
Y434800D01*
X173391D01*
X176057Y432134D02*
X176590Y431601D01*
X177656D01*
X178190Y432134D01*
Y434267D01*
X177656Y434800D01*
X176590D01*
X176057Y434267D01*
Y432134D01*
X142300Y428600D02*
Y426467D01*
X142833D01*
X143366Y427001D01*
Y428600D01*
Y427001D01*
X143900Y426467D01*
X144433Y427001D01*
Y428600D01*
X145499D02*
X146565D01*
X146032D01*
Y426467D01*
X145499D01*
X150297D02*
X148698D01*
X148165Y427001D01*
Y428067D01*
X148698Y428600D01*
X150297D01*
X151364Y426467D02*
Y428600D01*
Y427534D01*
X151897Y427001D01*
X152430Y426467D01*
X152963D01*
X155096Y428600D02*
X156162D01*
X156695Y428067D01*
Y427001D01*
X156162Y426467D01*
X155096D01*
X154563Y427001D01*
Y428067D01*
X155096Y428600D01*
X157762Y425401D02*
Y428600D01*
Y427001D01*
X158295Y426467D01*
X159361D01*
X159894Y427001D01*
Y428600D01*
X161494Y426467D02*
X162560D01*
X163093Y427001D01*
Y428600D01*
X161494D01*
X160961Y428067D01*
X161494Y427534D01*
X163093D01*
X164160Y428600D02*
X165226D01*
X164693D01*
Y425401D01*
X164160D01*
X166825Y428600D02*
Y428067D01*
X167359D01*
Y428600D01*
X166825D01*
X170024D02*
X171091D01*
X171624Y428067D01*
Y427001D01*
X171091Y426467D01*
X170024D01*
X169491Y427001D01*
Y428067D01*
X170024Y428600D01*
X172690Y426467D02*
Y428600D01*
Y427534D01*
X173223Y427001D01*
X173757Y426467D01*
X174290D01*
X176955Y429666D02*
X177489D01*
X178022Y429133D01*
Y426467D01*
X176422D01*
X175889Y427001D01*
Y428067D01*
X176422Y428600D01*
X178022D01*
M02*
