G04 Layer_Physical_Order=2*
G04 Layer_Color=11436288*
%FSLAX25Y25*%
%MOIN*%
G70*
G01*
G75*
%ADD14R,0.15000X0.07600*%
%ADD16C,0.01000*%
%ADD18C,0.02400*%
G36*
X178929Y424571D02*
X121200D01*
X121000Y424735D01*
Y433300D01*
X121000D01*
Y433700D01*
X121000D01*
Y436971D01*
X157076D01*
X157114Y436914D01*
X157842Y436428D01*
X158700Y436257D01*
X159558Y436428D01*
X160286Y436914D01*
X160772Y437642D01*
X160943Y438500D01*
X160772Y439358D01*
X160286Y440086D01*
X159558Y440572D01*
X158700Y440743D01*
X157842Y440572D01*
X157114Y440086D01*
X157076Y440029D01*
X121000D01*
Y443300D01*
X121000D01*
Y443700D01*
X121000D01*
Y446971D01*
X154067D01*
X160019Y441018D01*
X160515Y440687D01*
X161100Y440571D01*
X165044D01*
X165082Y440514D01*
X165810Y440028D01*
X166668Y439857D01*
X167527Y440028D01*
X168255Y440514D01*
X168741Y441242D01*
X168912Y442100D01*
X168741Y442958D01*
X168255Y443686D01*
X167527Y444172D01*
X166668Y444343D01*
X165810Y444172D01*
X165082Y443686D01*
X165044Y443629D01*
X161733D01*
X155881Y449481D01*
X155822Y449521D01*
X155781Y449581D01*
X155285Y449913D01*
X154700Y450029D01*
X121000D01*
Y453300D01*
X121000D01*
Y453700D01*
X121000D01*
Y456971D01*
X146266D01*
X148347Y454890D01*
X148318Y454389D01*
X148314Y454386D01*
X147828Y453658D01*
X147657Y452800D01*
X147828Y451942D01*
X148314Y451214D01*
X149042Y450728D01*
X149900Y450557D01*
X150758Y450728D01*
X151486Y451214D01*
X151972Y451942D01*
X152143Y452800D01*
X151972Y453658D01*
X151486Y454386D01*
X151429Y454424D01*
Y455500D01*
X151313Y456085D01*
X150981Y456581D01*
X148081Y459481D01*
X148021Y459521D01*
X147981Y459581D01*
X147485Y459913D01*
X146900Y460029D01*
X121000D01*
Y463300D01*
X121000D01*
Y463700D01*
X121000D01*
Y473300D01*
X121000D01*
Y473700D01*
X121000D01*
Y483300D01*
X121000D01*
Y483700D01*
X121000D01*
Y487000D01*
X112500D01*
Y490000D01*
X121000D01*
Y492429D01*
X178929D01*
Y424571D01*
D02*
G37*
%LPC*%
G36*
X160744Y451600D02*
X160600D01*
Y451456D01*
X160686Y451514D01*
X160744Y451600D01*
D02*
G37*
G36*
X157600D02*
X157456D01*
X157514Y451514D01*
X157600Y451456D01*
Y451600D01*
D02*
G37*
G36*
X160600Y454744D02*
Y454600D01*
X160744D01*
X160686Y454686D01*
X160600Y454744D01*
D02*
G37*
G36*
X157600D02*
X157514Y454686D01*
X157456Y454600D01*
X157600D01*
Y454744D01*
D02*
G37*
G36*
X170600Y446944D02*
X170514Y446886D01*
X170456Y446800D01*
X170600D01*
Y446944D01*
D02*
G37*
G36*
X173744Y443800D02*
X173600D01*
Y443656D01*
X173686Y443714D01*
X173744Y443800D01*
D02*
G37*
G36*
X170600D02*
X170456D01*
X170514Y443714D01*
X170600Y443656D01*
Y443800D01*
D02*
G37*
G36*
X173600Y446944D02*
Y446800D01*
X173744D01*
X173686Y446886D01*
X173600Y446944D01*
D02*
G37*
G36*
X158344Y471000D02*
X158200D01*
Y470856D01*
X158286Y470914D01*
X158344Y471000D01*
D02*
G37*
G36*
X155200D02*
X155056D01*
X155114Y470914D01*
X155200Y470856D01*
Y471000D01*
D02*
G37*
G36*
X158200Y474144D02*
Y474000D01*
X158344D01*
X158286Y474086D01*
X158200Y474144D01*
D02*
G37*
G36*
X155200D02*
X155114Y474086D01*
X155056Y474000D01*
X155200D01*
Y474144D01*
D02*
G37*
G36*
X173100Y469144D02*
Y469000D01*
X173244D01*
X173186Y469086D01*
X173100Y469144D01*
D02*
G37*
G36*
X173244Y466000D02*
X173100D01*
Y465856D01*
X173186Y465914D01*
X173244Y466000D01*
D02*
G37*
G36*
X170100D02*
X169956D01*
X170014Y465914D01*
X170100Y465856D01*
Y466000D01*
D02*
G37*
G36*
Y469144D02*
X170014Y469086D01*
X169956Y469000D01*
X170100D01*
Y469144D01*
D02*
G37*
G36*
X163800Y467743D02*
X162942Y467572D01*
X162214Y467086D01*
X162176Y467029D01*
X155100D01*
X154612Y466932D01*
X154515Y466913D01*
X154019Y466581D01*
X153367Y465930D01*
X153300Y465943D01*
X152442Y465772D01*
X151714Y465286D01*
X151228Y464558D01*
X151057Y463700D01*
X151228Y462842D01*
X151714Y462114D01*
X152442Y461628D01*
X153300Y461457D01*
X154158Y461628D01*
X154886Y462114D01*
X155372Y462842D01*
X155543Y463700D01*
X155949Y463971D01*
X162176D01*
X162214Y463914D01*
X162942Y463428D01*
X163800Y463257D01*
X164658Y463428D01*
X165386Y463914D01*
X165872Y464642D01*
X166043Y465500D01*
X165872Y466358D01*
X165386Y467086D01*
X164658Y467572D01*
X163800Y467743D01*
D02*
G37*
%LPD*%
D14*
X112500Y488500D02*
D03*
Y478500D02*
D03*
Y468500D02*
D03*
Y458500D02*
D03*
Y448500D02*
D03*
Y438500D02*
D03*
Y428500D02*
D03*
D16*
X149900Y452800D02*
Y455500D01*
X147000Y458400D02*
X149900Y455500D01*
X154800Y448400D02*
X161100Y442100D01*
X166668D01*
X112500Y438500D02*
X158700D01*
X112500Y448500D02*
X154700D01*
X112500Y458500D02*
X146900D01*
X153300Y463700D02*
X155100Y465500D01*
X163800D01*
D18*
X149900Y452800D02*
D03*
X163800Y465500D02*
D03*
X153300Y463700D02*
D03*
X166668Y442100D02*
D03*
X172100Y445300D02*
D03*
X171600Y467500D02*
D03*
X159100Y453100D02*
D03*
X156700Y472500D02*
D03*
X158700Y438500D02*
D03*
M02*
