G04 Layer_Color=20142*
%FSLAX25Y25*%
%MOIN*%
G70*
G01*
G75*
%ADD23R,0.15200X0.07800*%
%ADD24R,0.04343X0.04934*%
%ADD25R,0.03950X0.04343*%
%ADD26R,0.06706X0.03950*%
%ADD27R,0.08674X0.06509*%
%ADD28C,0.03200*%
D23*
X110000Y422500D02*
D03*
Y432500D02*
D03*
Y442500D02*
D03*
Y452500D02*
D03*
Y462500D02*
D03*
Y472500D02*
D03*
Y402500D02*
D03*
Y392500D02*
D03*
D24*
X134843Y402500D02*
D03*
X140157D02*
D03*
X134843Y408500D02*
D03*
X140157D02*
D03*
X134843Y414500D02*
D03*
X140157D02*
D03*
X134843Y420500D02*
D03*
X140157D02*
D03*
D25*
X140453Y440500D02*
D03*
X134547D02*
D03*
X140453Y446500D02*
D03*
X134547D02*
D03*
X140453Y452500D02*
D03*
X134547D02*
D03*
X140453Y458500D02*
D03*
X134547D02*
D03*
X140453Y428500D02*
D03*
X134547D02*
D03*
X140453Y434500D02*
D03*
X134547D02*
D03*
D26*
X189602Y432618D02*
D03*
Y428287D02*
D03*
Y423957D02*
D03*
Y419626D02*
D03*
Y415295D02*
D03*
Y410964D02*
D03*
Y406634D02*
D03*
Y402303D02*
D03*
D27*
X167161Y447067D02*
D03*
X199839D02*
D03*
Y392933D02*
D03*
X167161D02*
D03*
D28*
X147500Y427000D02*
D03*
X147000Y440500D02*
D03*
X150000Y402500D02*
D03*
X147000Y452500D02*
D03*
Y458500D02*
D03*
X156000Y446500D02*
D03*
X147500Y398000D02*
D03*
X155000Y408500D02*
D03*
X157500Y414500D02*
D03*
X160000Y420500D02*
D03*
X123500Y408500D02*
D03*
Y428000D02*
D03*
X124000Y414500D02*
D03*
X195000Y411000D02*
D03*
X184500Y419500D02*
D03*
X145000Y472500D02*
D03*
M02*
