G04 Layer_Physical_Order=1*
G04 Layer_Color=25308*
%FSLAX25Y25*%
%MOIN*%
G70*
G01*
G75*
%ADD10R,0.15000X0.07600*%
%ADD11R,0.03543X0.04134*%
%ADD12R,0.03150X0.03543*%
%ADD13R,0.05906X0.03150*%
%ADD14R,0.07874X0.05709*%
%ADD15C,0.01000*%
%ADD16C,0.02000*%
%ADD17C,0.02500*%
%ADD18C,0.02400*%
G36*
X211837Y388163D02*
X119000D01*
Y397200D01*
Y402707D01*
X119500Y402914D01*
X120707Y401707D01*
X121071Y401464D01*
X121500Y401378D01*
X121500Y401378D01*
X131571D01*
Y398933D01*
X143429D01*
Y401378D01*
X148103D01*
X148414Y400914D01*
X149142Y400428D01*
X150000Y400257D01*
X150858Y400428D01*
X151586Y400914D01*
X151897Y401378D01*
X178000D01*
X178000Y401378D01*
X178429Y401464D01*
X178793Y401707D01*
X182598Y405512D01*
X185150D01*
Y403559D01*
Y403425D01*
X183303D01*
X183303Y403425D01*
X182874Y403339D01*
X182510Y403096D01*
X182510Y403096D01*
X178535Y399121D01*
X149397D01*
X149086Y399586D01*
X148358Y400072D01*
X147500Y400243D01*
X146642Y400072D01*
X145914Y399586D01*
X145428Y398858D01*
X145257Y398000D01*
X145428Y397142D01*
X145914Y396414D01*
X146642Y395928D01*
X147500Y395757D01*
X148358Y395928D01*
X149086Y396414D01*
X149397Y396879D01*
X179000D01*
X179000Y396878D01*
X179429Y396964D01*
X179793Y397207D01*
X183768Y401182D01*
X185150D01*
Y399228D01*
X194055D01*
Y403559D01*
Y409709D01*
X185150D01*
Y407755D01*
X182134D01*
X181705Y407670D01*
X181341Y407427D01*
X181341Y407427D01*
X177535Y403621D01*
X151897D01*
X151586Y404086D01*
X150858Y404572D01*
X150000Y404743D01*
X149142Y404572D01*
X148414Y404086D01*
X148103Y403621D01*
X143429D01*
Y404933D01*
Y407378D01*
X153103D01*
X153414Y406914D01*
X154142Y406428D01*
X155000Y406257D01*
X155858Y406428D01*
X156586Y406914D01*
X156896Y407378D01*
X174500D01*
X174500Y407378D01*
X174929Y407464D01*
X175293Y407707D01*
X181760Y414174D01*
X185150D01*
Y412220D01*
X194055D01*
Y416551D01*
Y420882D01*
Y425213D01*
Y429543D01*
Y435693D01*
X185150D01*
Y433740D01*
X151847D01*
X150293Y435293D01*
X149929Y435536D01*
X149500Y435622D01*
X149500Y435622D01*
X143528D01*
Y437228D01*
Y439378D01*
X145104D01*
X145414Y438914D01*
X146142Y438428D01*
X147000Y438257D01*
X147858Y438428D01*
X148586Y438914D01*
X149072Y439642D01*
X149243Y440500D01*
X149072Y441358D01*
X148586Y442086D01*
X147858Y442572D01*
X147000Y442743D01*
X146142Y442572D01*
X145414Y442086D01*
X145104Y441622D01*
X143528D01*
Y443228D01*
Y445378D01*
X154104D01*
X154414Y444914D01*
X155142Y444428D01*
X156000Y444257D01*
X156858Y444428D01*
X157586Y444914D01*
X158072Y445642D01*
X158243Y446500D01*
X158072Y447358D01*
X157586Y448086D01*
X156858Y448572D01*
X156000Y448743D01*
X155142Y448572D01*
X154414Y448086D01*
X154104Y447622D01*
X143528D01*
Y449228D01*
Y451378D01*
X145104D01*
X145414Y450914D01*
X146142Y450428D01*
X147000Y450257D01*
X147858Y450428D01*
X148586Y450914D01*
X149072Y451642D01*
X149243Y452500D01*
X149072Y453358D01*
X148586Y454086D01*
X147858Y454572D01*
X147000Y454743D01*
X146142Y454572D01*
X145414Y454086D01*
X145104Y453622D01*
X143528D01*
Y455228D01*
Y457378D01*
X145104D01*
X145414Y456914D01*
X146142Y456428D01*
X147000Y456257D01*
X147858Y456428D01*
X148586Y456914D01*
X149072Y457642D01*
X149243Y458500D01*
X149072Y459358D01*
X148586Y460086D01*
X147858Y460572D01*
X147000Y460743D01*
X146142Y460572D01*
X145414Y460086D01*
X145104Y459622D01*
X143528D01*
Y461772D01*
X136179D01*
Y469953D01*
X136096Y470369D01*
X136415Y470869D01*
X143482D01*
X144142Y470428D01*
X145000Y470257D01*
X145858Y470428D01*
X146586Y470914D01*
X147072Y471642D01*
X147243Y472500D01*
X147072Y473358D01*
X146586Y474086D01*
X145858Y474572D01*
X145000Y474743D01*
X144142Y474572D01*
X143482Y474131D01*
X119000D01*
Y476837D01*
X211837D01*
Y388163D01*
D02*
G37*
D10*
X110000Y422500D02*
D03*
Y432500D02*
D03*
Y442500D02*
D03*
Y452500D02*
D03*
Y462500D02*
D03*
Y472500D02*
D03*
Y402500D02*
D03*
Y392500D02*
D03*
D11*
X134843Y402500D02*
D03*
X140157D02*
D03*
X134843Y408500D02*
D03*
X140157D02*
D03*
X134843Y414500D02*
D03*
X140157D02*
D03*
X134843Y420500D02*
D03*
X140157D02*
D03*
D12*
X140453Y440500D02*
D03*
X134547D02*
D03*
X140453Y446500D02*
D03*
X134547D02*
D03*
X140453Y452500D02*
D03*
X134547D02*
D03*
X140453Y458500D02*
D03*
X134547D02*
D03*
X140453Y428500D02*
D03*
X134547D02*
D03*
X140453Y434500D02*
D03*
X134547D02*
D03*
D13*
X189602Y432618D02*
D03*
Y428287D02*
D03*
Y423957D02*
D03*
Y419626D02*
D03*
Y415295D02*
D03*
Y410964D02*
D03*
Y406634D02*
D03*
Y402303D02*
D03*
D14*
X167161Y447067D02*
D03*
X199839D02*
D03*
Y392933D02*
D03*
X167161D02*
D03*
D15*
X140453Y428500D02*
X145000D01*
X147500Y427000D01*
X140453Y434500D02*
X149500D01*
X151382Y432618D01*
X189602D01*
X140453Y440500D02*
X147000D01*
X140157Y402500D02*
X150000D01*
X140453Y446500D02*
X140953Y446000D01*
X140453Y452500D02*
X147000D01*
X140453Y458500D02*
X147000D01*
X140953Y446000D02*
X141453Y446500D01*
X156000D01*
X183303Y402303D02*
X189602D01*
X150000Y402500D02*
X178000D01*
X182134Y406634D01*
X189602D01*
X140157Y408500D02*
X174500D01*
X181295Y415295D01*
X189602D01*
X140157Y414500D02*
X170500D01*
X179957Y423957D01*
X189602D01*
X167500Y420500D02*
X175287Y428287D01*
X189602D01*
X140157Y420500D02*
X167500D01*
X179000Y398000D02*
X183303Y402303D01*
X147500Y398000D02*
X179000D01*
X128000Y420500D02*
X134843D01*
X110000Y432500D02*
X123000D01*
X123500Y408500D02*
X134843D01*
X121500Y402500D02*
X134843D01*
X120000Y404000D02*
X121500Y402500D01*
X127000Y421500D02*
X128000Y420500D01*
X127000Y421500D02*
Y428500D01*
X123000Y432500D02*
X127000Y428500D01*
X124000Y414500D02*
X134843D01*
X120000Y404000D02*
Y421199D01*
X123500Y424699D01*
Y428000D01*
D16*
X134547Y428500D02*
Y434500D01*
Y440500D01*
Y446500D01*
Y452500D01*
Y458500D01*
Y469953D01*
X132000Y472500D02*
X134547Y469953D01*
X110000Y472500D02*
X132000D01*
X189602Y410964D02*
X194965D01*
X195000Y411000D01*
X132000Y472500D02*
X145000D01*
D17*
X184500Y419500D02*
X189476D01*
D18*
X147500Y427000D02*
D03*
X147000Y440500D02*
D03*
X150000Y402500D02*
D03*
X147000Y452500D02*
D03*
Y458500D02*
D03*
X156000Y446500D02*
D03*
X147500Y398000D02*
D03*
X155000Y408500D02*
D03*
X157500Y414500D02*
D03*
X160000Y420500D02*
D03*
X123500Y408500D02*
D03*
Y428000D02*
D03*
X124000Y414500D02*
D03*
X195000Y411000D02*
D03*
X184500Y419500D02*
D03*
X145000Y472500D02*
D03*
M02*
