G04 Layer_Color=15132400*
%FSLAX25Y25*%
%MOIN*%
G70*
G01*
G75*
%ADD15C,0.01000*%
%ADD22C,0.00787*%
D15*
X152004Y388504D02*
Y451496D01*
X211059Y388504D02*
Y451496D01*
X152004D02*
X211059D01*
X152004Y388504D02*
X211059D01*
X146133Y392199D02*
X145066D01*
X145599D01*
Y389533D01*
X145066Y389000D01*
X144533D01*
X144000Y389533D01*
X149332Y389000D02*
X147199D01*
X149332Y391133D01*
Y391666D01*
X148799Y392199D01*
X147732D01*
X147199Y391666D01*
X127000Y427000D02*
Y430199D01*
X128600D01*
X129133Y429666D01*
Y428600D01*
X128600Y428066D01*
X127000D01*
X128066D02*
X129133Y427000D01*
X130199D02*
X131265D01*
X130732D01*
Y430199D01*
X130199Y429666D01*
X126000Y433000D02*
Y436199D01*
X127600D01*
X128133Y435666D01*
Y434599D01*
X127600Y434066D01*
X126000D01*
X127066D02*
X128133Y433000D01*
X131332D02*
X129199D01*
X131332Y435133D01*
Y435666D01*
X130798Y436199D01*
X129732D01*
X129199Y435666D01*
X126000Y439000D02*
Y442199D01*
X127600D01*
X128133Y441666D01*
Y440599D01*
X127600Y440066D01*
X126000D01*
X127066D02*
X128133Y439000D01*
X129199Y441666D02*
X129732Y442199D01*
X130798D01*
X131332Y441666D01*
Y441133D01*
X130798Y440599D01*
X130265D01*
X130798D01*
X131332Y440066D01*
Y439533D01*
X130798Y439000D01*
X129732D01*
X129199Y439533D01*
X126000Y445000D02*
Y448199D01*
X127600D01*
X128133Y447666D01*
Y446599D01*
X127600Y446066D01*
X126000D01*
X127066D02*
X128133Y445000D01*
X130798D02*
Y448199D01*
X129199Y446599D01*
X131332D01*
X126000Y451000D02*
Y454199D01*
X127600D01*
X128133Y453666D01*
Y452599D01*
X127600Y452066D01*
X126000D01*
X127066D02*
X128133Y451000D01*
X131332Y454199D02*
X129199D01*
Y452599D01*
X130265Y453133D01*
X130798D01*
X131332Y452599D01*
Y451533D01*
X130798Y451000D01*
X129732D01*
X129199Y451533D01*
X126000Y457000D02*
Y460199D01*
X127600D01*
X128133Y459666D01*
Y458600D01*
X127600Y458066D01*
X126000D01*
X127066D02*
X128133Y457000D01*
X131332Y460199D02*
X130265Y459666D01*
X129199Y458600D01*
Y457533D01*
X129732Y457000D01*
X130798D01*
X131332Y457533D01*
Y458066D01*
X130798Y458600D01*
X129199D01*
X126000Y400500D02*
Y403699D01*
X127600D01*
X128133Y403166D01*
Y402100D01*
X127600Y401566D01*
X126000D01*
X127066D02*
X128133Y400500D01*
X129199Y403699D02*
X131332D01*
Y403166D01*
X129199Y401033D01*
Y400500D01*
X126000Y413000D02*
Y416199D01*
X127600D01*
X128133Y415666D01*
Y414600D01*
X127600Y414066D01*
X126000D01*
X127066D02*
X128133Y413000D01*
X129199Y415666D02*
X129732Y416199D01*
X130798D01*
X131332Y415666D01*
Y415133D01*
X130798Y414600D01*
X131332Y414066D01*
Y413533D01*
X130798Y413000D01*
X129732D01*
X129199Y413533D01*
Y414066D01*
X129732Y414600D01*
X129199Y415133D01*
Y415666D01*
X129732Y414600D02*
X130798D01*
X126000Y407000D02*
Y410199D01*
X127600D01*
X128133Y409666D01*
Y408600D01*
X127600Y408066D01*
X126000D01*
X127066D02*
X128133Y407000D01*
X129199Y407533D02*
X129732Y407000D01*
X130798D01*
X131332Y407533D01*
Y409666D01*
X130798Y410199D01*
X129732D01*
X129199Y409666D01*
Y409133D01*
X129732Y408600D01*
X131332D01*
X123000Y419000D02*
Y422199D01*
X124600D01*
X125133Y421666D01*
Y420600D01*
X124600Y420066D01*
X123000D01*
X124066D02*
X125133Y419000D01*
X126199D02*
X127265D01*
X126732D01*
Y422199D01*
X126199Y421666D01*
X128865D02*
X129398Y422199D01*
X130464D01*
X130997Y421666D01*
Y419533D01*
X130464Y419000D01*
X129398D01*
X128865Y419533D01*
Y421666D01*
X171500Y467000D02*
Y469133D01*
X172033D01*
X172566Y468600D01*
Y467000D01*
Y468600D01*
X173100Y469133D01*
X173633Y468600D01*
Y467000D01*
X174699D02*
X175765D01*
X175232D01*
Y469133D01*
X174699D01*
X179497D02*
X177898D01*
X177365Y468600D01*
Y467533D01*
X177898Y467000D01*
X179497D01*
X180564Y469133D02*
Y467000D01*
Y468066D01*
X181097Y468600D01*
X181630Y469133D01*
X182163D01*
X184296Y467000D02*
X185362D01*
X185895Y467533D01*
Y468600D01*
X185362Y469133D01*
X184296D01*
X183763Y468600D01*
Y467533D01*
X184296Y467000D01*
X186962Y466467D02*
X189094D01*
X190161Y467000D02*
X191760D01*
X192293Y467533D01*
X191760Y468066D01*
X190694D01*
X190161Y468600D01*
X190694Y469133D01*
X192293D01*
X195492Y470199D02*
Y467000D01*
X193893D01*
X193360Y467533D01*
Y468600D01*
X193893Y469133D01*
X195492D01*
X199758D02*
X200824Y467000D01*
X201890Y469133D01*
X202957Y467000D02*
X204023D01*
X203490D01*
Y470199D01*
X202957Y469666D01*
X205622Y467000D02*
Y467533D01*
X206155D01*
Y467000D01*
X205622D01*
X208288Y469666D02*
X208821Y470199D01*
X209888D01*
X210421Y469666D01*
Y467533D01*
X209888Y467000D01*
X208821D01*
X208288Y467533D01*
Y469666D01*
X154566Y471434D02*
X155099D01*
X155633Y471967D01*
Y474633D01*
X154033D01*
X153500Y474099D01*
Y473033D01*
X154033Y472500D01*
X155633D01*
X156699D02*
X157765D01*
X157232D01*
Y474633D01*
X156699D01*
X159898Y475166D02*
Y474633D01*
X159365D01*
X160431D01*
X159898D01*
Y473033D01*
X160431Y472500D01*
X162031Y475699D02*
Y472500D01*
Y474099D01*
X162564Y474633D01*
X163630D01*
X164163Y474099D01*
Y472500D01*
X165229Y474633D02*
Y473033D01*
X165763Y472500D01*
X167362D01*
Y474633D01*
X168429Y475699D02*
Y472500D01*
X170028D01*
X170561Y473033D01*
Y473566D01*
Y474099D01*
X170028Y474633D01*
X168429D01*
X171627Y472500D02*
Y473033D01*
X172161D01*
Y472500D01*
X171627D01*
X176426Y474633D02*
X174826D01*
X174293Y474099D01*
Y473033D01*
X174826Y472500D01*
X176426D01*
X178025D02*
X179092D01*
X179625Y473033D01*
Y474099D01*
X179092Y474633D01*
X178025D01*
X177492Y474099D01*
Y473033D01*
X178025Y472500D01*
X180691D02*
Y474633D01*
X181224D01*
X181757Y474099D01*
Y472500D01*
Y474099D01*
X182291Y474633D01*
X182824Y474099D01*
Y472500D01*
X183890D02*
X186023Y474633D01*
X187089Y472500D02*
Y474633D01*
X187622D01*
X188155Y474099D01*
Y472500D01*
Y474099D01*
X188689Y474633D01*
X189222Y474099D01*
Y472500D01*
X190288D02*
X191354D01*
X190821D01*
Y474633D01*
X190288D01*
X195087D02*
X193487D01*
X192954Y474099D01*
Y473033D01*
X193487Y472500D01*
X195087D01*
X196153Y474633D02*
Y472500D01*
Y473566D01*
X196686Y474099D01*
X197219Y474633D01*
X197752D01*
X199885Y472500D02*
X200951D01*
X201484Y473033D01*
Y474099D01*
X200951Y474633D01*
X199885D01*
X199352Y474099D01*
Y473033D01*
X199885Y472500D01*
X202551Y475699D02*
Y472500D01*
Y474099D01*
X203084Y474633D01*
X204150D01*
X204683Y474099D01*
Y472500D01*
X206283Y474633D02*
X207349D01*
X207882Y474099D01*
Y472500D01*
X206283D01*
X205750Y473033D01*
X206283Y473566D01*
X207882D01*
X208949Y472500D02*
X210015D01*
X209482D01*
Y475699D01*
X208949D01*
X174500Y461000D02*
Y463133D01*
X175033D01*
X175566Y462600D01*
Y461000D01*
Y462600D01*
X176100Y463133D01*
X176633Y462600D01*
Y461000D01*
X177699D02*
X178765D01*
X178232D01*
Y463133D01*
X177699D01*
X182497D02*
X180898D01*
X180365Y462600D01*
Y461533D01*
X180898Y461000D01*
X182497D01*
X183564Y463133D02*
Y461000D01*
Y462066D01*
X184097Y462600D01*
X184630Y463133D01*
X185163D01*
X187296Y461000D02*
X188362D01*
X188895Y461533D01*
Y462600D01*
X188362Y463133D01*
X187296D01*
X186763Y462600D01*
Y461533D01*
X187296Y461000D01*
X189962Y464199D02*
Y461000D01*
Y462600D01*
X190495Y463133D01*
X191561D01*
X192094Y462600D01*
Y461000D01*
X193694Y463133D02*
X194760D01*
X195293Y462600D01*
Y461000D01*
X193694D01*
X193161Y461533D01*
X193694Y462066D01*
X195293D01*
X196360Y461000D02*
X197426D01*
X196893D01*
Y464199D01*
X196360D01*
X199025Y461000D02*
Y461533D01*
X199559D01*
Y461000D01*
X199025D01*
X202224D02*
X203291D01*
X203824Y461533D01*
Y462600D01*
X203291Y463133D01*
X202224D01*
X201691Y462600D01*
Y461533D01*
X202224Y461000D01*
X204890Y463133D02*
Y461000D01*
Y462066D01*
X205423Y462600D01*
X205957Y463133D01*
X206490D01*
X209156Y459934D02*
X209689D01*
X210222Y460467D01*
Y463133D01*
X208622D01*
X208089Y462600D01*
Y461533D01*
X208622Y461000D01*
X210222D01*
D22*
X204760Y420000D02*
X207909Y416850D01*
X204760Y420000D02*
X207909Y423150D01*
X204760Y420000D02*
X210665D01*
M02*
