G04 Layer_Color=15132400*
%FSLAX25Y25*%
%MOIN*%
G70*
G01*
G75*
%ADD16C,0.01000*%
%ADD23C,0.00984*%
%ADD24C,0.02362*%
%ADD25C,0.00787*%
D16*
X184000Y336000D02*
X186000D01*
Y256000D02*
Y336000D01*
X184000Y256000D02*
X186000D01*
X184000D02*
Y336000D01*
X158633Y330666D02*
X158099Y331199D01*
X157033D01*
X156500Y330666D01*
Y328533D01*
X157033Y328000D01*
X158099D01*
X158633Y328533D01*
X159699Y328000D02*
X160765D01*
X160232D01*
Y331199D01*
X159699Y330666D01*
X169801Y259633D02*
Y258566D01*
Y259100D01*
X172467D01*
X173000Y258566D01*
Y258033D01*
X172467Y257500D01*
X173000Y262832D02*
Y260699D01*
X170867Y262832D01*
X170334D01*
X169801Y262298D01*
Y261232D01*
X170334Y260699D01*
X146500Y331500D02*
Y334699D01*
X148100D01*
X148633Y334166D01*
Y333100D01*
X148100Y332566D01*
X146500D01*
X147566D02*
X148633Y331500D01*
X149699D02*
X150765D01*
X150232D01*
Y334699D01*
X149699Y334166D01*
X134000Y331500D02*
Y334699D01*
X135600D01*
X136133Y334166D01*
Y333100D01*
X135600Y332566D01*
X134000D01*
X135066D02*
X136133Y331500D01*
X139332D02*
X137199D01*
X139332Y333633D01*
Y334166D01*
X138798Y334699D01*
X137732D01*
X137199Y334166D01*
X123500Y310500D02*
X120301D01*
Y312100D01*
X120834Y312633D01*
X121900D01*
X122434Y312100D01*
Y310500D01*
Y311566D02*
X123500Y312633D01*
X120834Y313699D02*
X120301Y314232D01*
Y315299D01*
X120834Y315832D01*
X121367D01*
X121900Y315299D01*
Y314765D01*
Y315299D01*
X122434Y315832D01*
X122967D01*
X123500Y315299D01*
Y314232D01*
X122967Y313699D01*
X129000Y310500D02*
X125801D01*
Y312100D01*
X126334Y312633D01*
X127401D01*
X127934Y312100D01*
Y310500D01*
Y311566D02*
X129000Y312633D01*
Y315299D02*
X125801D01*
X127401Y313699D01*
Y315832D01*
X137900Y279899D02*
Y276566D01*
X138567Y275900D01*
X139899D01*
X140566Y276566D01*
Y279899D01*
X141899Y275900D02*
X143232D01*
X142565D01*
Y279899D01*
X141899Y279232D01*
X133500Y260900D02*
X130301D01*
Y262499D01*
X130834Y263033D01*
X131901D01*
X132434Y262499D01*
Y260900D01*
Y261966D02*
X133500Y263033D01*
X130301Y266232D02*
Y264099D01*
X131901D01*
X131367Y265165D01*
Y265699D01*
X131901Y266232D01*
X132967D01*
X133500Y265699D01*
Y264632D01*
X132967Y264099D01*
X127500Y260900D02*
X124301D01*
Y262499D01*
X124834Y263033D01*
X125900D01*
X126434Y262499D01*
Y260900D01*
Y261966D02*
X127500Y263033D01*
X124301Y266232D02*
X124834Y265165D01*
X125900Y264099D01*
X126967D01*
X127500Y264632D01*
Y265699D01*
X126967Y266232D01*
X126434D01*
X125900Y265699D01*
Y264099D01*
X135500Y252000D02*
Y255199D01*
X137100D01*
X137633Y254666D01*
Y253600D01*
X137100Y253066D01*
X135500D01*
X136566D02*
X137633Y252000D01*
X138699Y255199D02*
X140832D01*
Y254666D01*
X138699Y252533D01*
Y252000D01*
X159500Y250000D02*
Y252133D01*
X160033D01*
X160566Y251600D01*
Y250000D01*
Y251600D01*
X161100Y252133D01*
X161633Y251600D01*
Y250000D01*
X164832Y252133D02*
X163232D01*
X162699Y251600D01*
Y250533D01*
X163232Y250000D01*
X164832D01*
X165898Y248934D02*
Y252133D01*
X167497D01*
X168031Y251600D01*
Y250533D01*
X167497Y250000D01*
X165898D01*
X171230D02*
X169097D01*
X171230Y252133D01*
Y252666D01*
X170696Y253199D01*
X169630D01*
X169097Y252666D01*
X172296D02*
X172829Y253199D01*
X173895D01*
X174428Y252666D01*
Y252133D01*
X173895Y251600D01*
X173362D01*
X173895D01*
X174428Y251066D01*
Y250533D01*
X173895Y250000D01*
X172829D01*
X172296Y250533D01*
X175495Y252666D02*
X176028Y253199D01*
X177094D01*
X177628Y252666D01*
Y250533D01*
X177094Y250000D01*
X176028D01*
X175495Y250533D01*
Y252666D01*
X178694Y250000D02*
X179760D01*
X179227D01*
Y253199D01*
X178694Y252666D01*
X181360Y253199D02*
X183492D01*
Y252666D01*
X181360Y250533D01*
Y250000D01*
X187758Y252133D02*
X188824Y250000D01*
X189890Y252133D01*
X190956Y250000D02*
X192023D01*
X191490D01*
Y253199D01*
X190956Y252666D01*
X193622Y250000D02*
Y250533D01*
X194156D01*
Y250000D01*
X193622D01*
X196288Y252666D02*
X196821Y253199D01*
X197888D01*
X198421Y252666D01*
Y250533D01*
X197888Y250000D01*
X196821D01*
X196288Y250533D01*
Y252666D01*
D23*
X163075Y282815D02*
G03*
X163075Y282815I-492J0D01*
G01*
D24*
X154118Y285768D02*
G03*
X154118Y285768I-1181J0D01*
G01*
D25*
X156874Y281831D02*
Y323169D01*
X141126Y281831D02*
Y323169D01*
Y281831D02*
X156874D01*
X141126Y323169D02*
X156874D01*
M02*
