G04 Layer_Physical_Order=2*
G04 Layer_Color=11436288*
%FSLAX25Y25*%
%MOIN*%
G70*
G01*
G75*
%ADD10R,0.15000X0.07600*%
%ADD16C,0.01000*%
%ADD17C,0.01500*%
%ADD20C,0.05709*%
%ADD21R,0.05709X0.05709*%
%ADD22C,0.02400*%
G36*
X198930Y324887D02*
X198468Y324695D01*
X193584Y329579D01*
X193755Y329994D01*
X193888Y331000D01*
X193755Y332006D01*
X193367Y332944D01*
X192749Y333749D01*
X191944Y334367D01*
X191006Y334755D01*
X190000Y334888D01*
X188994Y334755D01*
X188056Y334367D01*
X187251Y333749D01*
X186633Y332944D01*
X186245Y332006D01*
X186112Y331000D01*
X186245Y329994D01*
X186633Y329056D01*
X187251Y328251D01*
X188056Y327633D01*
X188994Y327245D01*
X190000Y327112D01*
X191006Y327245D01*
X191421Y327416D01*
X196971Y321866D01*
Y316846D01*
X196509Y316654D01*
X193584Y319579D01*
X193755Y319994D01*
X193888Y321000D01*
X193755Y322006D01*
X193367Y322944D01*
X192749Y323749D01*
X191944Y324367D01*
X191006Y324755D01*
X190000Y324888D01*
X188994Y324755D01*
X188056Y324367D01*
X187251Y323749D01*
X186633Y322944D01*
X186245Y322006D01*
X186112Y321000D01*
X186245Y319994D01*
X186633Y319056D01*
X187251Y318251D01*
X188056Y317633D01*
X188994Y317245D01*
X190000Y317112D01*
X191006Y317245D01*
X191421Y317417D01*
X194971Y313866D01*
Y308846D01*
X194509Y308654D01*
X193584Y309579D01*
X193755Y309994D01*
X193888Y311000D01*
X193755Y312006D01*
X193367Y312944D01*
X192749Y313749D01*
X191944Y314367D01*
X191006Y314755D01*
X190000Y314888D01*
X188994Y314755D01*
X188056Y314367D01*
X187251Y313749D01*
X186633Y312944D01*
X186245Y312006D01*
X186112Y311000D01*
X186245Y309994D01*
X186633Y309056D01*
X187251Y308251D01*
X188056Y307633D01*
X188994Y307245D01*
X190000Y307112D01*
X191006Y307245D01*
X191421Y307417D01*
X192971Y305867D01*
Y304209D01*
X192471Y303962D01*
X191944Y304367D01*
X191006Y304755D01*
X190000Y304888D01*
X188994Y304755D01*
X188056Y304367D01*
X187251Y303749D01*
X186633Y302944D01*
X186245Y302006D01*
X186112Y301000D01*
X186245Y299994D01*
X186416Y299579D01*
X182919Y296081D01*
X182587Y295585D01*
X182471Y295000D01*
Y294528D01*
X182022Y294307D01*
X181944Y294367D01*
X181006Y294755D01*
X180000Y294888D01*
X178994Y294755D01*
X178056Y294367D01*
X177251Y293749D01*
X176633Y292944D01*
X176245Y292006D01*
X176112Y291000D01*
X176245Y289994D01*
X176633Y289056D01*
X177251Y288251D01*
X178056Y287633D01*
X178994Y287245D01*
X180000Y287112D01*
X181006Y287245D01*
X181944Y287633D01*
X182022Y287693D01*
X182471Y287472D01*
Y284528D01*
X182022Y284307D01*
X181944Y284367D01*
X181006Y284755D01*
X180000Y284888D01*
X178994Y284755D01*
X178056Y284367D01*
X177251Y283749D01*
X176633Y282944D01*
X176245Y282006D01*
X176112Y281000D01*
X176245Y279994D01*
X176633Y279056D01*
X177251Y278251D01*
X178056Y277633D01*
X178994Y277245D01*
X180000Y277112D01*
X181006Y277245D01*
X181944Y277633D01*
X182022Y277693D01*
X182471Y277472D01*
Y274528D01*
X182022Y274307D01*
X181944Y274367D01*
X181006Y274755D01*
X180000Y274888D01*
X178994Y274755D01*
X178056Y274367D01*
X177251Y273749D01*
X176633Y272944D01*
X176245Y272006D01*
X176112Y271000D01*
X176245Y269994D01*
X176633Y269056D01*
X177251Y268251D01*
X178056Y267633D01*
X178994Y267245D01*
X180000Y267112D01*
X181006Y267245D01*
X181944Y267633D01*
X182022Y267693D01*
X182471Y267472D01*
Y264528D01*
X182022Y264307D01*
X181944Y264367D01*
X181006Y264755D01*
X180000Y264888D01*
X178994Y264755D01*
X178056Y264367D01*
X177251Y263749D01*
X176633Y262944D01*
X176245Y262006D01*
X176112Y261000D01*
X176245Y259994D01*
X176506Y259364D01*
X176082Y259081D01*
X164581Y270581D01*
X164085Y270913D01*
X163500Y271029D01*
X148124D01*
X148086Y271086D01*
X147358Y271572D01*
X146500Y271743D01*
X145642Y271572D01*
X144914Y271086D01*
X144428Y270358D01*
X144257Y269500D01*
X144339Y269086D01*
X143914Y268661D01*
X143500Y268743D01*
X142642Y268572D01*
X141914Y268086D01*
X141428Y267358D01*
X141257Y266500D01*
X141289Y266340D01*
X140873Y266063D01*
X140858Y266072D01*
X140000Y266243D01*
X139142Y266072D01*
X138414Y265586D01*
X137928Y264858D01*
X137757Y264000D01*
X137928Y263142D01*
X138337Y262529D01*
X138321Y262485D01*
X137988Y262152D01*
X137358Y262572D01*
X136500Y262743D01*
X135642Y262572D01*
X134914Y262086D01*
X134428Y261358D01*
X134257Y260500D01*
X134428Y259642D01*
X134914Y258914D01*
X135642Y258428D01*
X136500Y258257D01*
X137358Y258428D01*
X138086Y258914D01*
X138124Y258971D01*
X162366D01*
X172267Y249071D01*
X172059Y248571D01*
X118500D01*
Y257300D01*
X118500D01*
Y257700D01*
X118500D01*
Y267300D01*
X118500D01*
Y267700D01*
X118500D01*
Y277300D01*
X118500D01*
Y277700D01*
X118500D01*
Y287300D01*
X118500D01*
Y287700D01*
X118500D01*
Y297300D01*
X118500D01*
Y297700D01*
X118500D01*
Y307300D01*
X118500D01*
Y307700D01*
X118500D01*
Y310716D01*
X124000D01*
X124683Y310852D01*
X125262Y311238D01*
X127850Y313826D01*
X128358Y313928D01*
X129086Y314414D01*
X129572Y315142D01*
X129737Y315971D01*
X140658D01*
X140826Y315500D01*
X144174D01*
X144342Y315971D01*
X150366D01*
X152270Y314067D01*
X152257Y314000D01*
X152428Y313142D01*
X152914Y312414D01*
X153642Y311928D01*
X154500Y311757D01*
X155358Y311928D01*
X156086Y312414D01*
X156572Y313142D01*
X156743Y314000D01*
X156572Y314858D01*
X156115Y315543D01*
X156086Y315586D01*
X156167Y316134D01*
X156586Y316414D01*
X157072Y317142D01*
X157243Y318000D01*
X157072Y318858D01*
X156586Y319586D01*
X155858Y320072D01*
X155000Y320243D01*
X154933Y320230D01*
X153581Y321581D01*
X153085Y321913D01*
X152500Y322029D01*
X126500D01*
X125915Y321913D01*
X125419Y321581D01*
X124366Y320529D01*
X123624D01*
X123586Y320586D01*
X122858Y321072D01*
X122350Y321174D01*
X119762Y323762D01*
X119183Y324149D01*
X118500Y324284D01*
Y327300D01*
X118500D01*
Y327700D01*
X118500D01*
Y331000D01*
X110000D01*
Y334000D01*
X118500D01*
Y336429D01*
X198930D01*
Y324887D01*
D02*
G37*
%LPC*%
G36*
X153500Y310644D02*
X153414Y310586D01*
X153356Y310500D01*
X153500D01*
Y310644D01*
D02*
G37*
G36*
X180000Y314888D02*
X178994Y314755D01*
X178056Y314367D01*
X177251Y313749D01*
X176633Y312944D01*
X176245Y312006D01*
X176112Y311000D01*
X176245Y309994D01*
X176633Y309056D01*
X177251Y308251D01*
X178056Y307633D01*
X178994Y307245D01*
X180000Y307112D01*
X181006Y307245D01*
X181944Y307633D01*
X182749Y308251D01*
X183367Y309056D01*
X183755Y309994D01*
X183888Y311000D01*
X183755Y312006D01*
X183367Y312944D01*
X182749Y313749D01*
X181944Y314367D01*
X181006Y314755D01*
X180000Y314888D01*
D02*
G37*
G36*
X141000Y312500D02*
X140856D01*
X140914Y312414D01*
X141000Y312356D01*
Y312500D01*
D02*
G37*
G36*
X156500Y310644D02*
Y310500D01*
X156644D01*
X156586Y310586D01*
X156500Y310644D01*
D02*
G37*
G36*
X156644Y307500D02*
X153356D01*
X153414Y307414D01*
X153510Y307350D01*
X153542Y306802D01*
X153251Y306529D01*
X142000D01*
X141415Y306413D01*
X140919Y306081D01*
X125567Y290730D01*
X125500Y290743D01*
X124642Y290572D01*
X123914Y290086D01*
X123428Y289358D01*
X123257Y288500D01*
X123428Y287642D01*
X123914Y286914D01*
X124642Y286428D01*
X125500Y286257D01*
X126358Y286428D01*
X127086Y286914D01*
X127572Y287642D01*
X127743Y288500D01*
X127730Y288567D01*
X142633Y303471D01*
X153376D01*
X153414Y303414D01*
X154142Y302928D01*
X155000Y302757D01*
X155858Y302928D01*
X156586Y303414D01*
X157072Y304142D01*
X157243Y305000D01*
X157072Y305858D01*
X156586Y306586D01*
X156341Y306750D01*
Y307250D01*
X156586Y307414D01*
X156644Y307500D01*
D02*
G37*
G36*
X133644Y277400D02*
X133500D01*
Y277256D01*
X133586Y277314D01*
X133644Y277400D01*
D02*
G37*
G36*
X130500D02*
X130356D01*
X130414Y277314D01*
X130500Y277256D01*
Y277400D01*
D02*
G37*
G36*
Y280544D02*
X130414Y280486D01*
X130356Y280400D01*
X130500D01*
Y280544D01*
D02*
G37*
G36*
X180000Y304888D02*
X178994Y304755D01*
X178056Y304367D01*
X177251Y303749D01*
X176633Y302944D01*
X176245Y302006D01*
X176112Y301000D01*
X176245Y299994D01*
X176633Y299056D01*
X177251Y298251D01*
X178056Y297633D01*
X178994Y297245D01*
X180000Y297112D01*
X181006Y297245D01*
X181944Y297633D01*
X182749Y298251D01*
X183367Y299056D01*
X183755Y299994D01*
X183888Y301000D01*
X183755Y302006D01*
X183367Y302944D01*
X182749Y303749D01*
X181944Y304367D01*
X181006Y304755D01*
X180000Y304888D01*
D02*
G37*
G36*
X133500Y280544D02*
Y280400D01*
X133644D01*
X133586Y280486D01*
X133500Y280544D01*
D02*
G37*
G36*
X144144Y312500D02*
X144000D01*
Y312356D01*
X144086Y312414D01*
X144144Y312500D01*
D02*
G37*
G36*
X170000Y332000D02*
X169856D01*
X169914Y331914D01*
X170000Y331856D01*
Y332000D01*
D02*
G37*
G36*
X135500Y331144D02*
Y331000D01*
X135644D01*
X135586Y331086D01*
X135500Y331144D01*
D02*
G37*
G36*
X173144Y332000D02*
X173000D01*
Y331856D01*
X173086Y331914D01*
X173144Y332000D01*
D02*
G37*
G36*
X173000Y335144D02*
Y335000D01*
X173144D01*
X173086Y335086D01*
X173000Y335144D01*
D02*
G37*
G36*
X170000D02*
X169914Y335086D01*
X169856Y335000D01*
X170000D01*
Y335144D01*
D02*
G37*
G36*
X183854Y334854D02*
X176146D01*
Y327146D01*
X183854D01*
Y334854D01*
D02*
G37*
G36*
X180000Y324888D02*
X178994Y324755D01*
X178056Y324367D01*
X177251Y323749D01*
X176633Y322944D01*
X176245Y322006D01*
X176112Y321000D01*
X176245Y319994D01*
X176633Y319056D01*
X177251Y318251D01*
X178056Y317633D01*
X178994Y317245D01*
X180000Y317112D01*
X181006Y317245D01*
X181944Y317633D01*
X182749Y318251D01*
X183367Y319056D01*
X183755Y319994D01*
X183888Y321000D01*
X183755Y322006D01*
X183367Y322944D01*
X182749Y323749D01*
X181944Y324367D01*
X181006Y324755D01*
X180000Y324888D01*
D02*
G37*
G36*
X132500Y328000D02*
X132356D01*
X132414Y327914D01*
X132500Y327856D01*
Y328000D01*
D02*
G37*
G36*
Y331144D02*
X132414Y331086D01*
X132356Y331000D01*
X132500D01*
Y331144D01*
D02*
G37*
G36*
X135644Y328000D02*
X135500D01*
Y327856D01*
X135586Y327914D01*
X135644Y328000D01*
D02*
G37*
%LPD*%
D10*
X110000Y252500D02*
D03*
Y262500D02*
D03*
Y272500D02*
D03*
Y282500D02*
D03*
Y292500D02*
D03*
Y302500D02*
D03*
Y312500D02*
D03*
Y322500D02*
D03*
Y332500D02*
D03*
D16*
X190500Y252000D02*
X196500Y258000D01*
Y314500D01*
X190000Y321000D02*
X196500Y314500D01*
X191000Y250000D02*
X198500Y257500D01*
Y322500D01*
X190000Y331000D02*
X198500Y322500D01*
X182000Y256000D02*
X184000Y258000D01*
Y295000D01*
X190000Y301000D01*
Y311000D02*
X194500Y306500D01*
X190000Y254000D02*
X194500Y258500D01*
Y306500D01*
X151000Y317500D02*
X154500Y314000D01*
X127500Y316000D02*
X129000Y317500D01*
X151000D01*
X122000Y319000D02*
X125000D01*
X152500Y320500D02*
X155000Y318000D01*
X125000Y319000D02*
X126500Y320500D01*
X152500D01*
X146500Y269500D02*
X163500D01*
X177000Y256000D01*
X182000D01*
X143500Y266500D02*
X163500D01*
X176000Y254000D01*
X190000D01*
X140000Y264000D02*
X162500D01*
X174500Y252000D01*
X190500D01*
X136500Y260500D02*
X163000D01*
X173500Y250000D01*
X191000D01*
X125500Y288500D02*
X142000Y305000D01*
X155000D01*
D17*
X110000Y322500D02*
X118500D01*
X122000Y319000D01*
X110000Y312500D02*
X124000D01*
X127500Y316000D01*
D20*
X190000Y261000D02*
D03*
Y271000D02*
D03*
Y281000D02*
D03*
Y291000D02*
D03*
Y301000D02*
D03*
Y311000D02*
D03*
Y321000D02*
D03*
Y331000D02*
D03*
X180000Y261000D02*
D03*
Y271000D02*
D03*
Y281000D02*
D03*
Y291000D02*
D03*
Y301000D02*
D03*
Y311000D02*
D03*
Y321000D02*
D03*
D21*
Y331000D02*
D03*
D22*
X143500Y266500D02*
D03*
X140000Y264000D02*
D03*
X136500Y260500D02*
D03*
X146500Y269500D02*
D03*
X154500Y314000D02*
D03*
X155000Y318000D02*
D03*
X122000Y319000D02*
D03*
X171500Y333500D02*
D03*
X134000Y329500D02*
D03*
X155000Y309000D02*
D03*
X142500Y314000D02*
D03*
X127500Y316000D02*
D03*
X132000Y278900D02*
D03*
X125500Y288500D02*
D03*
X155000Y305000D02*
D03*
M02*
