G04 Layer_Color=25308*
%FSLAX25Y25*%
%MOIN*%
G70*
G01*
G75*
%ADD10R,0.15000X0.07600*%
%ADD11O,0.08268X0.01772*%
%ADD12R,0.03150X0.03740*%
%ADD13R,0.03740X0.04134*%
%ADD14R,0.04134X0.03543*%
%ADD15R,0.03740X0.03150*%
%ADD20C,0.05709*%
%ADD21R,0.05709X0.05709*%
D10*
X110000Y282500D02*
D03*
Y292500D02*
D03*
Y302500D02*
D03*
Y312500D02*
D03*
Y322500D02*
D03*
Y332500D02*
D03*
Y262500D02*
D03*
Y252500D02*
D03*
D11*
X162583Y285866D02*
D03*
Y288425D02*
D03*
Y290984D02*
D03*
Y293543D02*
D03*
Y296102D02*
D03*
Y298661D02*
D03*
Y301220D02*
D03*
Y303780D02*
D03*
Y306339D02*
D03*
Y308898D02*
D03*
Y311457D02*
D03*
Y314016D02*
D03*
Y316575D02*
D03*
Y319134D02*
D03*
X135417Y285866D02*
D03*
Y288425D02*
D03*
Y290984D02*
D03*
Y293543D02*
D03*
Y296102D02*
D03*
Y298661D02*
D03*
Y301220D02*
D03*
Y303780D02*
D03*
Y306339D02*
D03*
Y308898D02*
D03*
Y311457D02*
D03*
Y314016D02*
D03*
Y316575D02*
D03*
Y319134D02*
D03*
D12*
X133941Y327500D02*
D03*
X139059D02*
D03*
X146441D02*
D03*
X151559D02*
D03*
X143441Y253500D02*
D03*
X148559D02*
D03*
D13*
X165646Y329500D02*
D03*
X171354D02*
D03*
D14*
X127500Y324342D02*
D03*
Y329658D02*
D03*
X122000Y324342D02*
D03*
Y329658D02*
D03*
D15*
X132000Y274959D02*
D03*
Y269841D02*
D03*
X125500Y274959D02*
D03*
Y269841D02*
D03*
D20*
X190000Y261000D02*
D03*
Y271000D02*
D03*
Y281000D02*
D03*
Y291000D02*
D03*
Y301000D02*
D03*
Y311000D02*
D03*
Y321000D02*
D03*
Y331000D02*
D03*
X180000Y261000D02*
D03*
Y271000D02*
D03*
Y281000D02*
D03*
Y291000D02*
D03*
Y301000D02*
D03*
Y311000D02*
D03*
Y321000D02*
D03*
D21*
Y331000D02*
D03*
M02*
