G04 Layer_Physical_Order=1*
G04 Layer_Color=25308*
%FSLAX25Y25*%
%MOIN*%
G70*
G01*
G75*
%ADD10R,0.15000X0.07600*%
%ADD11O,0.08268X0.01772*%
%ADD12R,0.03150X0.03740*%
%ADD13R,0.03740X0.04134*%
%ADD14R,0.04134X0.03543*%
%ADD15R,0.03740X0.03150*%
%ADD16C,0.01000*%
%ADD17C,0.01500*%
%ADD18C,0.02000*%
%ADD19C,0.03000*%
%ADD20C,0.05709*%
%ADD21R,0.05709X0.05709*%
%ADD22C,0.02400*%
D10*
X110000Y282500D02*
D03*
Y292500D02*
D03*
Y302500D02*
D03*
Y312500D02*
D03*
Y322500D02*
D03*
Y332500D02*
D03*
Y262500D02*
D03*
Y252500D02*
D03*
D11*
X162583Y285866D02*
D03*
Y288425D02*
D03*
Y290984D02*
D03*
Y293543D02*
D03*
Y296102D02*
D03*
Y298661D02*
D03*
Y301220D02*
D03*
Y303780D02*
D03*
Y306339D02*
D03*
Y308898D02*
D03*
Y311457D02*
D03*
Y314016D02*
D03*
Y316575D02*
D03*
Y319134D02*
D03*
X135417Y285866D02*
D03*
Y288425D02*
D03*
Y290984D02*
D03*
Y293543D02*
D03*
Y296102D02*
D03*
Y298661D02*
D03*
Y301220D02*
D03*
Y303780D02*
D03*
Y306339D02*
D03*
Y308898D02*
D03*
Y311457D02*
D03*
Y314016D02*
D03*
Y316575D02*
D03*
Y319134D02*
D03*
D12*
X133941Y327500D02*
D03*
X139059D02*
D03*
X146441D02*
D03*
X151559D02*
D03*
X143441Y253500D02*
D03*
X148559D02*
D03*
D13*
X165646Y329500D02*
D03*
X171354D02*
D03*
D14*
X127500Y324342D02*
D03*
Y329658D02*
D03*
X122000Y324342D02*
D03*
Y329658D02*
D03*
D15*
X132000Y274959D02*
D03*
Y269841D02*
D03*
X125500Y274959D02*
D03*
Y269841D02*
D03*
D16*
X146500Y262000D02*
Y269500D01*
Y262000D02*
X148559Y259941D01*
Y254000D02*
Y259941D01*
X162583Y285866D02*
X166634D01*
X169000Y283500D01*
X162583Y288425D02*
X168075D01*
X171000Y285500D01*
X169516Y290984D02*
X173000Y287500D01*
X162583Y290984D02*
X169516D01*
X162583Y301220D02*
X170220D01*
X175500Y306500D01*
X162583Y303780D02*
X169780D01*
X162583Y296102D02*
X175102D01*
X169780Y303780D02*
X173800Y307800D01*
X139059Y324059D02*
Y327500D01*
X135417Y320417D02*
X139059Y324059D01*
X135417Y319134D02*
Y320417D01*
X175500Y306500D02*
Y317500D01*
X177750Y319750D01*
X173800Y307800D02*
Y322300D01*
X180000Y328500D01*
Y331000D01*
X162583Y298661D02*
X171161D01*
X180000Y307500D01*
Y310000D01*
X175102Y296102D02*
X180000Y301000D01*
X176500Y281000D02*
X181000D01*
X173000Y284500D02*
X176500Y281000D01*
X173000Y284500D02*
Y287500D01*
X162583Y293543D02*
X172457D01*
X175000Y291000D01*
X180000D01*
X181000Y290000D01*
X185000Y256000D02*
X190000Y261000D01*
X150721Y303780D02*
X155500Y299000D01*
X135417Y303780D02*
X150721D01*
X135417Y301220D02*
X149779D01*
X153500Y297500D01*
X190000Y271000D02*
X194500Y266500D01*
X190000Y254000D02*
X194500Y258500D01*
Y266500D01*
X135417Y298661D02*
X149339D01*
X151500Y296500D01*
X190500Y252000D02*
X196500Y258000D01*
Y274500D01*
X190000Y281000D02*
X196500Y274500D01*
X190000Y291000D02*
X193500D01*
X198500Y286000D01*
Y257500D02*
Y286000D01*
X191000Y250000D02*
X198500Y257500D01*
X146898Y296102D02*
X149500Y293500D01*
X135417Y296102D02*
X146898D01*
X135417Y288425D02*
X141075D01*
X142575Y286925D01*
Y276575D02*
Y286925D01*
X135417Y290984D02*
X142516D01*
X145016Y288484D01*
Y275516D02*
Y288484D01*
X135417Y293543D02*
X144957D01*
X147500Y291000D01*
Y273500D02*
Y291000D01*
X146500Y272500D02*
X147500Y273500D01*
X143500Y274000D02*
X145016Y275516D01*
X143500Y266500D02*
Y274000D01*
X140000D02*
X142575Y276575D01*
X140000Y264000D02*
Y274000D01*
X136500D02*
X140500Y278000D01*
X135417Y285866D02*
X140134D01*
X140500Y285500D01*
Y278000D02*
Y285500D01*
X146500Y269500D02*
Y272500D01*
X149500Y266500D02*
Y293500D01*
Y266500D02*
X166000Y250000D01*
X191000D01*
X151500Y267000D02*
Y296500D01*
Y267000D02*
X166500Y252000D01*
X190500D01*
X153500Y267500D02*
Y297500D01*
Y267500D02*
X167000Y254000D01*
X190000D01*
X155500Y268000D02*
Y299000D01*
Y268000D02*
X167500Y256000D01*
X185000D01*
X110000Y312500D02*
X128000D01*
X129043Y311457D01*
X135417D01*
X110000Y282500D02*
X118000D01*
X110000Y302500D02*
X118500D01*
X124898Y308898D01*
X135417D01*
X118000Y282500D02*
X120500Y285000D01*
Y301000D01*
X125839Y306339D01*
X135417D01*
X154500Y314000D02*
X162567D01*
X155000Y318000D02*
X155500D01*
X156925Y316575D01*
X162583D01*
X132000Y269841D02*
X135159D01*
X136500Y268500D01*
Y260500D02*
Y268500D01*
Y274000D01*
X140000Y258500D02*
Y264000D01*
X125500Y262000D02*
Y269841D01*
Y262000D02*
X130000Y257500D01*
X139000D01*
X140000Y258500D01*
X143500Y254000D02*
Y266500D01*
X125500Y274959D02*
Y288500D01*
X155000Y305000D02*
X156339Y306339D01*
X162583D01*
X169000Y268000D02*
Y283500D01*
Y268000D02*
X176000Y261000D01*
X181000D01*
X171000Y273500D02*
Y285500D01*
Y273500D02*
X173500Y271000D01*
X181000D01*
D17*
X162583Y306339D02*
X167839D01*
X171000Y309500D01*
Y320000D01*
X165646Y325354D02*
X171000Y320000D01*
X165646Y325354D02*
Y329500D01*
X139059Y327500D02*
X146441D01*
X122000Y319000D02*
Y324342D01*
X155102Y308898D02*
X162583D01*
X135417Y314016D02*
X142484D01*
X135417Y316575D02*
X139925D01*
X142484Y314016D01*
X127500Y316000D02*
Y324000D01*
D18*
X161000Y329500D02*
X165646D01*
X151559Y327500D02*
Y332441D01*
X127500Y333500D02*
X157000D01*
X161000Y329500D01*
X122000Y333500D02*
X127500D01*
Y329658D02*
Y333500D01*
X110000Y332500D02*
X111000Y333500D01*
X122000D01*
Y329658D02*
Y333500D01*
X132000Y274959D02*
Y278900D01*
D19*
X171500Y329646D02*
Y333500D01*
X134000Y327559D02*
Y329500D01*
D20*
X190000Y261000D02*
D03*
Y271000D02*
D03*
Y281000D02*
D03*
Y291000D02*
D03*
Y301000D02*
D03*
Y311000D02*
D03*
Y321000D02*
D03*
Y331000D02*
D03*
X180000Y261000D02*
D03*
Y271000D02*
D03*
Y281000D02*
D03*
Y291000D02*
D03*
Y301000D02*
D03*
Y311000D02*
D03*
Y321000D02*
D03*
D21*
Y331000D02*
D03*
D22*
X143500Y266500D02*
D03*
X140000Y264000D02*
D03*
X136500Y260500D02*
D03*
X146500Y269500D02*
D03*
X154500Y314000D02*
D03*
X155000Y318000D02*
D03*
X122000Y319000D02*
D03*
X171500Y333500D02*
D03*
X134000Y329500D02*
D03*
X155000Y309000D02*
D03*
X142500Y314000D02*
D03*
X127500Y316000D02*
D03*
X132000Y278900D02*
D03*
X125500Y288500D02*
D03*
X155000Y305000D02*
D03*
M02*
