G04 Layer_Color=20142*
%FSLAX25Y25*%
%MOIN*%
G70*
G01*
G75*
%ADD31R,0.15800X0.08400*%
%ADD32R,0.03950X0.04540*%
%ADD33R,0.04540X0.04934*%
%ADD34R,0.11181X0.11181*%
%ADD35O,0.01929X0.03898*%
%ADD36O,0.03898X0.01929*%
%ADD37C,0.03200*%
%ADD38C,0.02769*%
D31*
X112500Y455000D02*
D03*
Y465000D02*
D03*
Y475000D02*
D03*
Y485000D02*
D03*
Y445000D02*
D03*
Y435000D02*
D03*
D32*
X147559Y449000D02*
D03*
X142441D02*
D03*
X147559Y455000D02*
D03*
X142441D02*
D03*
X159559Y440500D02*
D03*
X154441D02*
D03*
X159559Y434500D02*
D03*
X154441D02*
D03*
D33*
X160583Y478500D02*
D03*
X166291D02*
D03*
X160583Y484000D02*
D03*
X166291D02*
D03*
X166462Y449000D02*
D03*
X172170D02*
D03*
D34*
X164437Y464000D02*
D03*
D35*
X160598Y471776D02*
D03*
X163157D02*
D03*
X165717D02*
D03*
X168276D02*
D03*
Y456224D02*
D03*
X165717D02*
D03*
X163157D02*
D03*
X160598D02*
D03*
D36*
X172213Y467839D02*
D03*
Y465279D02*
D03*
Y462720D02*
D03*
Y460161D02*
D03*
X156661D02*
D03*
Y462720D02*
D03*
Y465279D02*
D03*
Y467839D02*
D03*
D37*
X147500Y477500D02*
D03*
X166500Y445500D02*
D03*
X144000Y430500D02*
D03*
X142500Y440500D02*
D03*
X125000Y438000D02*
D03*
X177500Y466500D02*
D03*
X169437Y484000D02*
D03*
Y478500D02*
D03*
X175816Y449000D02*
D03*
D38*
X168374Y460063D02*
D03*
X164437D02*
D03*
X160500D02*
D03*
X168374Y464000D02*
D03*
X164437D02*
D03*
X160500D02*
D03*
X168374Y467937D02*
D03*
X164437D02*
D03*
X160500D02*
D03*
M02*
