G04 Layer_Color=13813960*
%FSLAX25Y25*%
%MOIN*%
G70*
G01*
G75*
%ADD20C,0.01000*%
D20*
X127666Y484168D02*
X126999Y483501D01*
X125666D01*
X125000Y484168D01*
Y486834D01*
X125666Y487500D01*
X126999D01*
X127666Y486834D01*
Y485501D01*
X126333D01*
X128999Y487500D02*
Y483501D01*
X131665Y487500D01*
Y483501D01*
X132997D02*
Y487500D01*
X134997D01*
X135663Y486834D01*
Y484168D01*
X134997Y483501D01*
X132997D01*
X125000Y457500D02*
Y453501D01*
X126333Y454834D01*
X127666Y453501D01*
Y457500D01*
X128999Y453501D02*
X130332D01*
X129665D01*
Y457500D01*
X128999D01*
X130332D01*
X134997Y454168D02*
X134330Y453501D01*
X132997D01*
X132331Y454168D01*
Y454834D01*
X132997Y455501D01*
X134330D01*
X134997Y456167D01*
Y456834D01*
X134330Y457500D01*
X132997D01*
X132331Y456834D01*
X138329Y453501D02*
X136996D01*
X136330Y454168D01*
Y456834D01*
X136996Y457500D01*
X138329D01*
X138996Y456834D01*
Y454168D01*
X138329Y453501D01*
X125000Y447500D02*
Y443501D01*
X126333Y444834D01*
X127666Y443501D01*
Y447500D01*
X130998Y443501D02*
X129665D01*
X128999Y444168D01*
Y446834D01*
X129665Y447500D01*
X130998D01*
X131665Y446834D01*
Y444168D01*
X130998Y443501D01*
X135663Y444168D02*
X134997Y443501D01*
X133664D01*
X132997Y444168D01*
Y444834D01*
X133664Y445501D01*
X134997D01*
X135663Y446167D01*
Y446834D01*
X134997Y447500D01*
X133664D01*
X132997Y446834D01*
X136996Y443501D02*
X138329D01*
X137663D01*
Y447500D01*
X136996D01*
X138329D01*
X127666Y434168D02*
X126999Y433501D01*
X125666D01*
X125000Y434168D01*
Y434834D01*
X125666Y435501D01*
X126999D01*
X127666Y436167D01*
Y436834D01*
X126999Y437500D01*
X125666D01*
X125000Y436834D01*
X131665Y434168D02*
X130998Y433501D01*
X129665D01*
X128999Y434168D01*
Y436834D01*
X129665Y437500D01*
X130998D01*
X131665Y436834D01*
X132997Y433501D02*
Y437500D01*
Y436167D01*
X135663Y433501D01*
X133664Y435501D01*
X135663Y437500D01*
X133533Y422867D02*
X134599D01*
X135133Y423400D01*
Y425000D01*
X133533D01*
X133000Y424467D01*
X133533Y423934D01*
X135133D01*
X136199Y425000D02*
Y421801D01*
Y423934D02*
X137799Y422867D01*
X136199Y423934D02*
X137799Y425000D01*
X139398Y422334D02*
X139931Y421801D01*
X140997D01*
X141531Y422334D01*
Y422867D01*
X140997Y423400D01*
X141531Y423934D01*
Y424467D01*
X140997Y425000D01*
X139931D01*
X139398Y424467D01*
Y423934D01*
X139931Y423400D01*
X139398Y422867D01*
Y422334D01*
X139931Y423400D02*
X140997D01*
X142597Y424467D02*
X143130Y425000D01*
X144196D01*
X144729Y424467D01*
Y422334D01*
X144196Y421801D01*
X143130D01*
X142597Y422334D01*
Y422867D01*
X143130Y423400D01*
X144729D01*
X145796Y421801D02*
X147929D01*
Y422334D01*
X145796Y424467D01*
Y425000D01*
X151128Y421801D02*
X148995D01*
Y423400D01*
X150061Y422867D01*
X150594D01*
X151128Y423400D01*
Y424467D01*
X150594Y425000D01*
X149528D01*
X148995Y424467D01*
X152194Y425533D02*
X154326D01*
X155393Y425000D02*
X156992D01*
X157525Y424467D01*
X156992Y423934D01*
X155926D01*
X155393Y423400D01*
X155926Y422867D01*
X157525D01*
X158592Y426066D02*
Y422867D01*
X160191D01*
X160724Y423400D01*
Y424467D01*
X160191Y425000D01*
X158592D01*
X161791D02*
X162857D01*
X162324D01*
Y422867D01*
X161791D01*
X167656D02*
X168722Y425000D01*
X169788Y422867D01*
X170854Y425000D02*
X171921D01*
X171388D01*
Y421801D01*
X170854Y422334D01*
X173520Y425000D02*
Y424467D01*
X174053D01*
Y425000D01*
X173520D01*
X176186Y422334D02*
X176719Y421801D01*
X177786D01*
X178319Y422334D01*
Y424467D01*
X177786Y425000D01*
X176719D01*
X176186Y424467D01*
Y422334D01*
X123566Y475566D02*
X124100D01*
X124633Y475033D01*
Y472367D01*
X123033D01*
X122500Y472900D01*
Y473967D01*
X123033Y474500D01*
X124633D01*
X125699D02*
X126765D01*
X126232D01*
Y472367D01*
X125699D01*
X128898Y471834D02*
Y472367D01*
X128365D01*
X129431D01*
X128898D01*
Y473967D01*
X129431Y474500D01*
X131031Y471301D02*
Y474500D01*
Y472900D01*
X131564Y472367D01*
X132630D01*
X133163Y472900D01*
Y474500D01*
X134230Y472367D02*
Y473967D01*
X134763Y474500D01*
X136362D01*
Y472367D01*
X137428Y471301D02*
Y474500D01*
X139028D01*
X139561Y473967D01*
Y473434D01*
Y472900D01*
X139028Y472367D01*
X137428D01*
X140628Y474500D02*
Y473967D01*
X141161D01*
Y474500D01*
X140628D01*
X145426Y472367D02*
X143826D01*
X143293Y472900D01*
Y473967D01*
X143826Y474500D01*
X145426D01*
X147025D02*
X148092D01*
X148625Y473967D01*
Y472900D01*
X148092Y472367D01*
X147025D01*
X146492Y472900D01*
Y473967D01*
X147025Y474500D01*
X149691D02*
Y472367D01*
X150224D01*
X150758Y472900D01*
Y474500D01*
Y472900D01*
X151291Y472367D01*
X151824Y472900D01*
Y474500D01*
X152890D02*
X155023Y472367D01*
X156089Y474500D02*
Y472367D01*
X156622D01*
X157156Y472900D01*
Y474500D01*
Y472900D01*
X157689Y472367D01*
X158222Y472900D01*
Y474500D01*
X159288D02*
X160354D01*
X159821D01*
Y472367D01*
X159288D01*
X164087D02*
X162487D01*
X161954Y472900D01*
Y473967D01*
X162487Y474500D01*
X164087D01*
X165153Y472367D02*
Y474500D01*
Y473434D01*
X165686Y472900D01*
X166219Y472367D01*
X166752D01*
X168885Y474500D02*
X169951D01*
X170484Y473967D01*
Y472900D01*
X169951Y472367D01*
X168885D01*
X168352Y472900D01*
Y473967D01*
X168885Y474500D01*
X171551Y471301D02*
Y474500D01*
Y472900D01*
X172084Y472367D01*
X173150D01*
X173684Y472900D01*
Y474500D01*
X175283Y472367D02*
X176349D01*
X176882Y472900D01*
Y474500D01*
X175283D01*
X174750Y473967D01*
X175283Y473434D01*
X176882D01*
X177949Y474500D02*
X179015D01*
X178482D01*
Y471301D01*
X177949D01*
M02*
