G04 Layer_Physical_Order=1*
G04 Layer_Color=25308*
%FSLAX25Y25*%
%MOIN*%
G70*
G01*
G75*
%ADD10R,0.15000X0.07600*%
%ADD11R,0.03150X0.03740*%
%ADD12R,0.03740X0.04134*%
%ADD13R,0.10630X0.10630*%
%ADD14O,0.01378X0.03347*%
%ADD15O,0.03347X0.01378*%
%ADD16C,0.00600*%
%ADD17C,0.02500*%
%ADD18C,0.02000*%
%ADD19C,0.03000*%
%ADD20C,0.01000*%
%ADD21C,0.02400*%
%ADD22C,0.01969*%
D10*
X112500Y455000D02*
D03*
Y465000D02*
D03*
Y475000D02*
D03*
Y485000D02*
D03*
Y445000D02*
D03*
Y435000D02*
D03*
D11*
X147559Y449000D02*
D03*
X142441D02*
D03*
X147559Y455000D02*
D03*
X142441D02*
D03*
X159559Y440500D02*
D03*
X154441D02*
D03*
X159559Y434500D02*
D03*
X154441D02*
D03*
D12*
X160583Y478500D02*
D03*
X166291D02*
D03*
X160583Y484000D02*
D03*
X166291D02*
D03*
X166462Y449000D02*
D03*
X172170D02*
D03*
D13*
X164437Y464000D02*
D03*
D14*
X160598Y471776D02*
D03*
X163157D02*
D03*
X165717D02*
D03*
X168276D02*
D03*
Y456224D02*
D03*
X165717D02*
D03*
X163157D02*
D03*
X160598D02*
D03*
D15*
X172213Y467839D02*
D03*
Y465279D02*
D03*
Y462720D02*
D03*
Y460161D02*
D03*
X156661D02*
D03*
Y462720D02*
D03*
Y465279D02*
D03*
Y467839D02*
D03*
D16*
X176000Y424000D02*
X178500Y426500D01*
X144000Y424000D02*
X176000D01*
X133000Y435000D02*
X144000Y424000D01*
X139000Y449000D02*
X142441D01*
X128000Y438000D02*
X139000Y449000D01*
X125000Y438000D02*
X128000D01*
X154441Y431441D02*
Y434500D01*
X153500Y430500D02*
X154441Y431441D01*
X144000Y430500D02*
X153500D01*
X142500Y440500D02*
X154441D01*
X135000Y455000D02*
X142441D01*
X125000Y445000D02*
X135000Y455000D01*
X112500Y445000D02*
X125000D01*
X147559Y449000D02*
X151000D01*
X152500Y450500D01*
Y458500D01*
X154161Y460161D01*
X156661D01*
X152779Y465279D02*
X156661D01*
X147559Y460059D02*
X152779Y465279D01*
X147559Y455000D02*
Y460059D01*
X163157Y436158D02*
Y456224D01*
X161500Y434500D02*
X163157Y436158D01*
X159559Y434500D02*
X161500D01*
X159559Y440500D02*
Y445059D01*
X160598Y446098D01*
Y456224D01*
X178500Y426500D02*
Y459000D01*
X174779Y462720D02*
X178500Y459000D01*
X172213Y462720D02*
X174779D01*
X112500Y435000D02*
X133000D01*
D17*
X145000Y485000D02*
X149937D01*
X112500D02*
X145000D01*
X160583Y478500D02*
Y484000D01*
X149937Y485000D02*
X150937Y484000D01*
X160583D01*
D18*
X145000Y485000D02*
X147500Y482500D01*
Y477500D02*
Y482500D01*
D19*
X166462Y445538D02*
Y449000D01*
X166291Y478500D02*
X169437D01*
X166291Y484000D02*
X169437D01*
X172170Y449000D02*
X175816D01*
D20*
X166462D02*
X166500Y449038D01*
Y452500D01*
X165717Y453284D02*
X166500Y452500D01*
X176279Y465279D02*
X177500Y466500D01*
X172213Y465279D02*
X176279D01*
X166291Y476891D02*
X168276Y474907D01*
Y471776D02*
Y474907D01*
X166291Y476891D02*
Y478500D01*
X163157Y473758D02*
X166291Y476891D01*
X163157Y471776D02*
Y473758D01*
X165717Y453284D02*
Y456224D01*
X160583Y471791D02*
Y478500D01*
D21*
X147500Y477500D02*
D03*
X166500Y445500D02*
D03*
X144000Y430500D02*
D03*
X142500Y440500D02*
D03*
X125000Y438000D02*
D03*
X177500Y466500D02*
D03*
X169437Y484000D02*
D03*
Y478500D02*
D03*
X175816Y449000D02*
D03*
D22*
X168374Y460063D02*
D03*
X164437D02*
D03*
X160500D02*
D03*
X168374Y464000D02*
D03*
X164437D02*
D03*
X160500D02*
D03*
X168374Y467937D02*
D03*
X164437D02*
D03*
X160500D02*
D03*
M02*
