G04 Layer_Color=25308*
%FSLAX25Y25*%
%MOIN*%
G70*
G01*
G75*
%ADD10R,0.15000X0.07600*%
%ADD11R,0.03150X0.03740*%
%ADD12R,0.03740X0.04134*%
%ADD13R,0.10630X0.10630*%
%ADD14O,0.01378X0.03347*%
%ADD15O,0.03347X0.01378*%
D10*
X112500Y455000D02*
D03*
Y465000D02*
D03*
Y475000D02*
D03*
Y485000D02*
D03*
Y445000D02*
D03*
Y435000D02*
D03*
D11*
X147559Y449000D02*
D03*
X142441D02*
D03*
X147559Y455000D02*
D03*
X142441D02*
D03*
X159559Y440500D02*
D03*
X154441D02*
D03*
X159559Y434500D02*
D03*
X154441D02*
D03*
D12*
X160583Y478500D02*
D03*
X166291D02*
D03*
X160583Y484000D02*
D03*
X166291D02*
D03*
X166462Y449000D02*
D03*
X172170D02*
D03*
D13*
X164437Y464000D02*
D03*
D14*
X160598Y471776D02*
D03*
X163157D02*
D03*
X165717D02*
D03*
X168276D02*
D03*
Y456224D02*
D03*
X165717D02*
D03*
X163157D02*
D03*
X160598D02*
D03*
D15*
X172213Y467839D02*
D03*
Y465279D02*
D03*
Y462720D02*
D03*
Y460161D02*
D03*
X156661D02*
D03*
Y462720D02*
D03*
Y465279D02*
D03*
Y467839D02*
D03*
M02*
