G04 Layer_Physical_Order=2*
G04 Layer_Color=11436288*
%FSLAX25Y25*%
%MOIN*%
G70*
G01*
G75*
%ADD10R,0.15000X0.07600*%
%ADD16C,0.00600*%
%ADD18C,0.02000*%
%ADD21C,0.02400*%
%ADD22C,0.01969*%
G36*
X178929Y421071D02*
X121000D01*
Y429800D01*
X121000D01*
Y430200D01*
X121000D01*
Y433674D01*
X122000D01*
X122507Y433775D01*
X122937Y434063D01*
X124693Y435818D01*
X125000Y435757D01*
X125858Y435928D01*
X126586Y436414D01*
X127072Y437142D01*
X127243Y438000D01*
X127109Y438674D01*
X127417Y439175D01*
X140740D01*
X140914Y438914D01*
X141642Y438428D01*
X142500Y438257D01*
X143358Y438428D01*
X143675Y438639D01*
X144175Y438372D01*
Y437549D01*
X143063Y436437D01*
X142775Y436007D01*
X142675Y435500D01*
Y432260D01*
X142414Y432086D01*
X141928Y431358D01*
X141757Y430500D01*
X141928Y429642D01*
X142414Y428914D01*
X143142Y428428D01*
X144000Y428257D01*
X144858Y428428D01*
X145586Y428914D01*
X146072Y429642D01*
X146243Y430500D01*
X146072Y431358D01*
X145586Y432086D01*
X145326Y432260D01*
Y434951D01*
X146437Y436063D01*
X146725Y436493D01*
X146826Y437000D01*
Y443500D01*
X146725Y444007D01*
X146437Y444437D01*
X134937Y455937D01*
X134507Y456225D01*
X134000Y456325D01*
X121000D01*
Y459800D01*
X121000D01*
Y460200D01*
X121000D01*
Y469800D01*
X121000D01*
Y470200D01*
X121000D01*
Y479800D01*
X115000D01*
Y488929D01*
X178929D01*
Y421071D01*
D02*
G37*
%LPC*%
G36*
X147500Y479743D02*
X146642Y479572D01*
X145914Y479086D01*
X145428Y478358D01*
X145257Y477500D01*
X145428Y476642D01*
X145461Y476592D01*
Y454500D01*
X145616Y453720D01*
X146058Y453058D01*
X155058Y444058D01*
X155720Y443616D01*
X156500Y443461D01*
X165592D01*
X165642Y443428D01*
X166500Y443257D01*
X167358Y443428D01*
X168086Y443914D01*
X168572Y444642D01*
X168743Y445500D01*
X168572Y446358D01*
X168086Y447086D01*
X167358Y447572D01*
X166500Y447743D01*
X165642Y447572D01*
X165592Y447539D01*
X157345D01*
X149539Y455345D01*
Y476592D01*
X149572Y476642D01*
X149743Y477500D01*
X149572Y478358D01*
X149086Y479086D01*
X148358Y479572D01*
X147500Y479743D01*
D02*
G37*
%LPD*%
D10*
X112500Y485000D02*
D03*
Y475000D02*
D03*
Y465000D02*
D03*
Y455000D02*
D03*
Y445000D02*
D03*
Y435000D02*
D03*
Y425000D02*
D03*
D16*
X122000Y435000D02*
X125000Y438000D01*
X112500Y435000D02*
X122000D01*
X112500Y455000D02*
X134000D01*
X145500Y443500D01*
Y437000D02*
Y443500D01*
X144000Y435500D02*
X145500Y437000D01*
X144000Y430500D02*
Y435500D01*
X112500Y445000D02*
X122000D01*
X126500Y440500D01*
X142500D01*
D18*
X147500Y454500D02*
Y477500D01*
Y454500D02*
X156500Y445500D01*
X166500D01*
D21*
X147500Y477500D02*
D03*
X166500Y445500D02*
D03*
X144000Y430500D02*
D03*
X142500Y440500D02*
D03*
X125000Y438000D02*
D03*
X177500Y466500D02*
D03*
X169437Y484000D02*
D03*
Y478500D02*
D03*
X175816Y449000D02*
D03*
D22*
X168374Y460063D02*
D03*
X164437D02*
D03*
X160500D02*
D03*
X168374Y464000D02*
D03*
X164437D02*
D03*
X160500D02*
D03*
X168374Y467937D02*
D03*
X164437D02*
D03*
X160500D02*
D03*
M02*
