G04 Layer_Color=13813960*
%FSLAX25Y25*%
%MOIN*%
G70*
G01*
G75*
%ADD11C,0.01000*%
D11*
X194500Y483500D02*
Y485633D01*
X193967D01*
X193434Y485100D01*
Y483500D01*
Y485100D01*
X192901Y485633D01*
X192367Y485100D01*
Y483500D01*
X191301D02*
X190235D01*
X190768D01*
Y485633D01*
X191301D01*
X186503D02*
X188102D01*
X188635Y485100D01*
Y484033D01*
X188102Y483500D01*
X186503D01*
X185436Y485633D02*
Y483500D01*
Y484566D01*
X184903Y485100D01*
X184370Y485633D01*
X183837D01*
X181704Y483500D02*
X180638D01*
X180105Y484033D01*
Y485100D01*
X180638Y485633D01*
X181704D01*
X182237Y485100D01*
Y484033D01*
X181704Y483500D01*
X179038Y486699D02*
Y483500D01*
Y485100D01*
X178505Y485633D01*
X177439D01*
X176906Y485100D01*
Y483500D01*
X175306Y485633D02*
X174240D01*
X173707Y485100D01*
Y483500D01*
X175306D01*
X175839Y484033D01*
X175306Y484566D01*
X173707D01*
X172640Y483500D02*
X171574D01*
X172107D01*
Y486699D01*
X172640D01*
X169975Y483500D02*
Y484033D01*
X169441D01*
Y483500D01*
X169975D01*
X166776D02*
X165709D01*
X165176Y484033D01*
Y485100D01*
X165709Y485633D01*
X166776D01*
X167309Y485100D01*
Y484033D01*
X166776Y483500D01*
X164110Y485633D02*
Y483500D01*
Y484566D01*
X163577Y485100D01*
X163043Y485633D01*
X162510D01*
X159845Y482434D02*
X159311D01*
X158778Y482967D01*
Y485633D01*
X160378D01*
X160911Y485100D01*
Y484033D01*
X160378Y483500D01*
X158778D01*
X274967Y486166D02*
Y485633D01*
X275500D01*
X274434D01*
X274967D01*
Y484033D01*
X274434Y483500D01*
X271235D02*
X272301D01*
X272834Y484033D01*
Y485100D01*
X272301Y485633D01*
X271235D01*
X270702Y485100D01*
Y484566D01*
X272834D01*
X269635Y483500D02*
X268036D01*
X267503Y484033D01*
X268036Y484566D01*
X269102D01*
X269635Y485100D01*
X269102Y485633D01*
X267503D01*
X265903Y486166D02*
Y485633D01*
X266436D01*
X265370D01*
X265903D01*
Y484033D01*
X265370Y483500D01*
X262171D02*
X263237D01*
X263771Y484033D01*
Y485100D01*
X263237Y485633D01*
X262171D01*
X261638Y485100D01*
Y484566D01*
X263771D01*
X260572Y485633D02*
Y483500D01*
Y484566D01*
X260038Y485100D01*
X259505Y485633D01*
X258972D01*
X257372Y482967D02*
X255240D01*
X254173Y486699D02*
Y483500D01*
X252574D01*
X252041Y484033D01*
Y484566D01*
Y485100D01*
X252574Y485633D01*
X254173D01*
X250975D02*
Y483500D01*
Y484566D01*
X250441Y485100D01*
X249908Y485633D01*
X249375D01*
X246176Y483500D02*
X247242D01*
X247776Y484033D01*
Y485100D01*
X247242Y485633D01*
X246176D01*
X245643Y485100D01*
Y484566D01*
X247776D01*
X244043Y485633D02*
X242977D01*
X242444Y485100D01*
Y483500D01*
X244043D01*
X244577Y484033D01*
X244043Y484566D01*
X242444D01*
X241378Y483500D02*
Y486699D01*
Y484566D02*
X239778Y485633D01*
X241378Y484566D02*
X239778Y483500D01*
X237646D02*
X236579D01*
X236046Y484033D01*
Y485100D01*
X236579Y485633D01*
X237646D01*
X238179Y485100D01*
Y484033D01*
X237646Y483500D01*
X234980Y485633D02*
Y484033D01*
X234447Y483500D01*
X232847D01*
Y485633D01*
X231248Y486166D02*
Y485633D01*
X231781D01*
X230714D01*
X231248D01*
Y484033D01*
X230714Y483500D01*
X225916Y485633D02*
X224850Y483500D01*
X223783Y485633D01*
X222717Y483500D02*
X221651D01*
X222184D01*
Y486699D01*
X222717Y486166D01*
X220051Y483500D02*
Y484033D01*
X219518D01*
Y483500D01*
X220051D01*
X217385Y486166D02*
X216852Y486699D01*
X215786D01*
X215253Y486166D01*
Y484033D01*
X215786Y483500D01*
X216852D01*
X217385Y484033D01*
Y486166D01*
M02*
