G04 Layer_Color=25308*
%FSLAX25Y25*%
%MOIN*%
G70*
G01*
G75*
G04:AMPARAMS|DCode=10|XSize=35.43mil|YSize=35.43mil|CornerRadius=4.43mil|HoleSize=0mil|Usage=FLASHONLY|Rotation=180.000|XOffset=0mil|YOffset=0mil|HoleType=Round|Shape=RoundedRectangle|*
%AMROUNDEDRECTD10*
21,1,0.03543,0.02658,0,0,180.0*
21,1,0.02658,0.03543,0,0,180.0*
1,1,0.00886,-0.01329,0.01329*
1,1,0.00886,0.01329,0.01329*
1,1,0.00886,0.01329,-0.01329*
1,1,0.00886,-0.01329,-0.01329*
%
%ADD10ROUNDEDRECTD10*%
%ADD12C,0.06000*%
%ADD13R,0.06000X0.06000*%
%ADD14C,0.03543*%
%ADD15R,0.03543X0.03543*%
D10*
X175150Y417500D02*
D03*
X168850Y417500D02*
D03*
D12*
X152500Y327500D02*
D03*
Y337500D02*
D03*
Y347500D02*
D03*
Y357500D02*
D03*
Y367500D02*
D03*
Y377500D02*
D03*
Y387500D02*
D03*
Y397500D02*
D03*
Y407500D02*
D03*
Y417500D02*
D03*
Y427500D02*
D03*
Y437500D02*
D03*
Y447500D02*
D03*
Y457500D02*
D03*
Y467500D02*
D03*
X281500Y327500D02*
D03*
Y337500D02*
D03*
Y347500D02*
D03*
Y357500D02*
D03*
Y367500D02*
D03*
Y377500D02*
D03*
Y387500D02*
D03*
Y397500D02*
D03*
Y407500D02*
D03*
Y417500D02*
D03*
Y427500D02*
D03*
Y437500D02*
D03*
Y447500D02*
D03*
Y457500D02*
D03*
Y467500D02*
D03*
D13*
X152500Y477500D02*
D03*
X281500D02*
D03*
D14*
X204205Y406445D02*
D03*
Y398571D02*
D03*
Y414319D02*
D03*
Y359201D02*
D03*
Y351327D02*
D03*
Y335579D02*
D03*
Y343453D02*
D03*
Y374949D02*
D03*
Y367075D02*
D03*
Y382823D02*
D03*
Y390697D02*
D03*
X212079Y410382D02*
D03*
Y402508D02*
D03*
Y363138D02*
D03*
Y355264D02*
D03*
Y339516D02*
D03*
Y347390D02*
D03*
Y378886D02*
D03*
Y371012D02*
D03*
Y386760D02*
D03*
Y394634D02*
D03*
X221921Y402508D02*
D03*
Y394634D02*
D03*
Y410382D02*
D03*
Y355264D02*
D03*
Y347390D02*
D03*
Y339516D02*
D03*
Y371012D02*
D03*
Y363138D02*
D03*
Y378886D02*
D03*
Y386760D02*
D03*
X229796Y406445D02*
D03*
Y398571D02*
D03*
Y414319D02*
D03*
Y359201D02*
D03*
Y351327D02*
D03*
Y335579D02*
D03*
Y343453D02*
D03*
Y374949D02*
D03*
Y367075D02*
D03*
Y382823D02*
D03*
Y390697D02*
D03*
Y430067D02*
D03*
Y445815D02*
D03*
Y437941D02*
D03*
X221921Y426130D02*
D03*
Y441878D02*
D03*
Y434004D02*
D03*
Y449752D02*
D03*
X212079Y434004D02*
D03*
Y426130D02*
D03*
Y449752D02*
D03*
Y441878D02*
D03*
X204205Y430067D02*
D03*
Y445815D02*
D03*
Y437941D02*
D03*
X229796Y453689D02*
D03*
X221921Y457626D02*
D03*
X229796Y461563D02*
D03*
X204205Y453689D02*
D03*
X212079Y457626D02*
D03*
Y465500D02*
D03*
X204205Y461563D02*
D03*
D15*
X221921Y465500D02*
D03*
M02*
