G04 Layer_Physical_Order=1*
G04 Layer_Color=25308*
%FSLAX25Y25*%
%MOIN*%
G70*
G01*
G75*
G04:AMPARAMS|DCode=10|XSize=35.43mil|YSize=35.43mil|CornerRadius=4.43mil|HoleSize=0mil|Usage=FLASHONLY|Rotation=180.000|XOffset=0mil|YOffset=0mil|HoleType=Round|Shape=RoundedRectangle|*
%AMROUNDEDRECTD10*
21,1,0.03543,0.02658,0,0,180.0*
21,1,0.02658,0.03543,0,0,180.0*
1,1,0.00886,-0.01329,0.01329*
1,1,0.00886,0.01329,0.01329*
1,1,0.00886,0.01329,-0.01329*
1,1,0.00886,-0.01329,-0.01329*
%
%ADD10ROUNDEDRECTD10*%
%ADD11C,0.01000*%
%ADD12C,0.06000*%
%ADD13R,0.06000X0.06000*%
%ADD14C,0.03543*%
%ADD15R,0.03543X0.03543*%
%ADD16C,0.02400*%
D10*
X175150Y417500D02*
D03*
X168850Y417500D02*
D03*
D11*
X217500Y362000D02*
Y380000D01*
X214500Y359000D02*
X217500Y362000D01*
X209500Y359000D02*
X214500D01*
X212500Y470500D02*
X216774Y466226D01*
X184500Y470500D02*
X212500D01*
X181500Y467500D02*
X184500Y470500D01*
X152500Y477500D02*
X216000D01*
X221921Y471579D01*
Y465500D02*
Y471579D01*
X152500Y327500D02*
X172500D01*
X152500Y337500D02*
X170500D01*
X173500Y347500D02*
X181000Y355000D01*
X152500Y347500D02*
X173500D01*
X172500Y327500D02*
X184500Y339500D01*
X206500D01*
X210500Y343500D01*
X223500D02*
X227000Y347000D01*
X210500Y343500D02*
X223500D01*
X227000Y347000D02*
X233000D01*
X234500Y348500D01*
Y370244D01*
X229796Y374949D02*
X234500Y370244D01*
X221921Y378886D02*
X226000Y374807D01*
X220323Y382823D02*
X229796D01*
X217500Y380000D02*
X220323Y382823D01*
X219260Y386760D02*
X221921D01*
X215500Y383000D02*
X219260Y386760D01*
X210000Y383000D02*
X215500D01*
X208000Y381000D02*
X210000Y383000D01*
X152500Y357500D02*
X174000D01*
X206500Y387000D02*
X210000Y390500D01*
X217788D01*
X221921Y394634D01*
X206000Y394500D02*
X210071Y398571D01*
X229796D01*
X210445Y406445D02*
X229796D01*
X206000Y402000D02*
X210445Y406445D01*
X152500Y437500D02*
X174500D01*
X152500Y467500D02*
X181500D01*
X243500Y363000D02*
X247500D01*
X262000Y377500D01*
X281500D01*
X241000Y378500D02*
X252500D01*
X261500Y387500D01*
X281500D01*
X242000Y395000D02*
X257000D01*
X259500Y397500D01*
X281500D01*
X170500Y337500D02*
X180500Y347500D01*
X226000Y353500D02*
Y374807D01*
X180500Y347500D02*
X207000D01*
X211000Y351500D01*
X224000D01*
X226000Y353500D01*
X181000Y355000D02*
X205500D01*
X209500Y359000D01*
X208000Y365000D02*
Y381000D01*
X174000Y357500D02*
X179500Y363000D01*
X206000D01*
X208000Y365000D01*
X152500Y367500D02*
X181500D01*
X201000Y387000D01*
X206500D01*
X152500Y377500D02*
X181500D01*
X198500Y394500D01*
X206000D01*
X152500Y387500D02*
X181500D01*
X196000Y402000D01*
X206000D01*
X152500Y457500D02*
X206000D01*
X174500Y437500D02*
X178500Y441500D01*
X206500D01*
X152500Y427500D02*
X172500D01*
X152500Y447500D02*
X174000D01*
X176000Y449500D01*
X216774Y462774D02*
X221921Y457626D01*
X216774Y462774D02*
Y466226D01*
X206000Y457500D02*
X209500Y461000D01*
X214000D01*
X217500Y457500D01*
Y454174D02*
Y457500D01*
Y454174D02*
X221921Y449752D01*
X216000Y449500D02*
X219685Y445815D01*
X229796D01*
X216000Y449500D02*
Y452000D01*
X214500Y453500D02*
X216000Y452000D01*
X176000Y449500D02*
X206000D01*
X210000Y453500D01*
X214500D01*
X217622Y441878D02*
X221921D01*
X206500Y441500D02*
X211000Y446000D01*
X213500D01*
X217622Y441878D01*
X209941Y437941D02*
X229796D01*
X172500Y427500D02*
X179500Y434500D01*
X206500D01*
X209941Y437941D01*
X204205Y414319D02*
Y424705D01*
X209500Y430000D01*
X223000D01*
X227000Y426000D01*
X269500D01*
X271000Y427500D01*
X281500D01*
X152500Y397500D02*
X179500D01*
X192000Y410000D01*
X206000D01*
X209500Y413500D01*
X217118Y410382D02*
X221921D01*
X209500Y413500D02*
X214000D01*
X217118Y410382D01*
X227000Y417500D02*
X281500D01*
X236500Y410000D02*
X241500D01*
X244000Y407500D01*
X281500D01*
X221921Y457626D02*
X225858D01*
X229796Y461563D01*
X236000Y457500D02*
X281500D01*
X235000Y442500D02*
X265000D01*
X270000Y447500D01*
X281500D01*
X152500Y417500D02*
X168850D01*
X175150D02*
X178000D01*
X181000Y420500D01*
Y424000D01*
D12*
X152500Y327500D02*
D03*
Y337500D02*
D03*
Y347500D02*
D03*
Y357500D02*
D03*
Y367500D02*
D03*
Y377500D02*
D03*
Y387500D02*
D03*
Y397500D02*
D03*
Y407500D02*
D03*
Y417500D02*
D03*
Y427500D02*
D03*
Y437500D02*
D03*
Y447500D02*
D03*
Y457500D02*
D03*
Y467500D02*
D03*
X281500Y327500D02*
D03*
Y337500D02*
D03*
Y347500D02*
D03*
Y357500D02*
D03*
Y367500D02*
D03*
Y377500D02*
D03*
Y387500D02*
D03*
Y397500D02*
D03*
Y407500D02*
D03*
Y417500D02*
D03*
Y427500D02*
D03*
Y437500D02*
D03*
Y447500D02*
D03*
Y457500D02*
D03*
Y467500D02*
D03*
D13*
X152500Y477500D02*
D03*
X281500D02*
D03*
D14*
X204205Y406445D02*
D03*
Y398571D02*
D03*
Y414319D02*
D03*
Y359201D02*
D03*
Y351327D02*
D03*
Y335579D02*
D03*
Y343453D02*
D03*
Y374949D02*
D03*
Y367075D02*
D03*
Y382823D02*
D03*
Y390697D02*
D03*
X212079Y410382D02*
D03*
Y402508D02*
D03*
Y363138D02*
D03*
Y355264D02*
D03*
Y339516D02*
D03*
Y347390D02*
D03*
Y378886D02*
D03*
Y371012D02*
D03*
Y386760D02*
D03*
Y394634D02*
D03*
X221921Y402508D02*
D03*
Y394634D02*
D03*
Y410382D02*
D03*
Y355264D02*
D03*
Y347390D02*
D03*
Y339516D02*
D03*
Y371012D02*
D03*
Y363138D02*
D03*
Y378886D02*
D03*
Y386760D02*
D03*
X229796Y406445D02*
D03*
Y398571D02*
D03*
Y414319D02*
D03*
Y359201D02*
D03*
Y351327D02*
D03*
Y335579D02*
D03*
Y343453D02*
D03*
Y374949D02*
D03*
Y367075D02*
D03*
Y382823D02*
D03*
Y390697D02*
D03*
Y430067D02*
D03*
Y445815D02*
D03*
Y437941D02*
D03*
X221921Y426130D02*
D03*
Y441878D02*
D03*
Y434004D02*
D03*
Y449752D02*
D03*
X212079Y434004D02*
D03*
Y426130D02*
D03*
Y449752D02*
D03*
Y441878D02*
D03*
X204205Y430067D02*
D03*
Y445815D02*
D03*
Y437941D02*
D03*
X229796Y453689D02*
D03*
X221921Y457626D02*
D03*
X229796Y461563D02*
D03*
X204205Y453689D02*
D03*
X212079Y457626D02*
D03*
Y465500D02*
D03*
X204205Y461563D02*
D03*
D15*
X221921Y465500D02*
D03*
D16*
X243500Y363000D02*
D03*
X242000Y395000D02*
D03*
X241000Y378500D02*
D03*
X227000Y417500D02*
D03*
X236500Y410000D02*
D03*
X236000Y457500D02*
D03*
X235000Y442500D02*
D03*
X181000Y424500D02*
D03*
Y477500D02*
D03*
M02*
