G04 Layer_Physical_Order=2*
G04 Layer_Color=11436288*
%FSLAX25Y25*%
%MOIN*%
G70*
G01*
G75*
%ADD11C,0.01000*%
%ADD12C,0.06000*%
%ADD13R,0.06000X0.06000*%
%ADD14C,0.03543*%
%ADD15R,0.03543X0.03543*%
%ADD16C,0.02400*%
G36*
X305837Y320663D02*
X128163D01*
Y489337D01*
X305837D01*
Y320663D01*
D02*
G37*
%LPC*%
G36*
X152500Y361535D02*
X151456Y361397D01*
X150483Y360994D01*
X149647Y360353D01*
X149006Y359517D01*
X148603Y358544D01*
X148466Y357500D01*
X148603Y356456D01*
X149006Y355483D01*
X149647Y354647D01*
X150483Y354006D01*
X151456Y353603D01*
X152500Y353466D01*
X153544Y353603D01*
X154517Y354006D01*
X155353Y354647D01*
X155994Y355483D01*
X156397Y356456D01*
X156535Y357500D01*
X156397Y358544D01*
X155994Y359517D01*
X155353Y360353D01*
X154517Y360994D01*
X153544Y361397D01*
X152500Y361535D01*
D02*
G37*
G36*
X221921Y358059D02*
X221198Y357964D01*
X220524Y357685D01*
X219945Y357241D01*
X219500Y356662D01*
X219221Y355987D01*
X219126Y355264D01*
X219221Y354540D01*
X219500Y353866D01*
X219945Y353287D01*
X220524Y352843D01*
X221198Y352564D01*
X221921Y352468D01*
X222645Y352564D01*
X223319Y352843D01*
X223898Y353287D01*
X224343Y353866D01*
X224622Y354540D01*
X224717Y355264D01*
X224622Y355987D01*
X224343Y356662D01*
X223898Y357241D01*
X223319Y357685D01*
X222645Y357964D01*
X221921Y358059D01*
D02*
G37*
G36*
X281000Y357000D02*
X277531D01*
X277603Y356456D01*
X278006Y355483D01*
X278647Y354647D01*
X279483Y354006D01*
X280456Y353603D01*
X281000Y353531D01*
Y357000D01*
D02*
G37*
G36*
X204205Y361996D02*
X203481Y361901D01*
X202807Y361622D01*
X202228Y361178D01*
X201784Y360599D01*
X201505Y359924D01*
X201409Y359201D01*
X201505Y358477D01*
X201784Y357803D01*
X202228Y357224D01*
X202807Y356780D01*
X203481Y356501D01*
X204205Y356405D01*
X204928Y356501D01*
X205603Y356780D01*
X206182Y357224D01*
X206626Y357803D01*
X206905Y358477D01*
X207001Y359201D01*
X206905Y359924D01*
X206626Y360599D01*
X206182Y361178D01*
X205603Y361622D01*
X204928Y361901D01*
X204205Y361996D01*
D02*
G37*
G36*
X285469Y357000D02*
X282000D01*
Y353531D01*
X282544Y353603D01*
X283517Y354006D01*
X284353Y354647D01*
X284994Y355483D01*
X285397Y356456D01*
X285469Y357000D01*
D02*
G37*
G36*
X282000Y351469D02*
Y348000D01*
X285469D01*
X285397Y348544D01*
X284994Y349517D01*
X284353Y350353D01*
X283517Y350994D01*
X282544Y351397D01*
X282000Y351469D01*
D02*
G37*
G36*
X281000D02*
X280456Y351397D01*
X279483Y350994D01*
X278647Y350353D01*
X278006Y349517D01*
X277603Y348544D01*
X277531Y348000D01*
X281000D01*
Y351469D01*
D02*
G37*
G36*
X204205Y354122D02*
X203481Y354027D01*
X202807Y353748D01*
X202228Y353304D01*
X201784Y352725D01*
X201505Y352050D01*
X201409Y351327D01*
X201505Y350603D01*
X201784Y349929D01*
X202228Y349350D01*
X202807Y348906D01*
X203481Y348626D01*
X204205Y348531D01*
X204928Y348626D01*
X205603Y348906D01*
X206182Y349350D01*
X206626Y349929D01*
X206905Y350603D01*
X207001Y351327D01*
X206905Y352050D01*
X206626Y352725D01*
X206182Y353304D01*
X205603Y353748D01*
X204928Y354027D01*
X204205Y354122D01*
D02*
G37*
G36*
X212079Y358059D02*
X211355Y357964D01*
X210681Y357685D01*
X210102Y357241D01*
X209658Y356662D01*
X209379Y355987D01*
X209283Y355264D01*
X209379Y354540D01*
X209658Y353866D01*
X210102Y353287D01*
X210681Y352843D01*
X211355Y352564D01*
X212079Y352468D01*
X212803Y352564D01*
X213477Y352843D01*
X214056Y353287D01*
X214500Y353866D01*
X214779Y354540D01*
X214875Y355264D01*
X214779Y355987D01*
X214500Y356662D01*
X214056Y357241D01*
X213477Y357685D01*
X212803Y357964D01*
X212079Y358059D01*
D02*
G37*
G36*
X229796Y354122D02*
X229072Y354027D01*
X228398Y353748D01*
X227819Y353304D01*
X227375Y352725D01*
X227095Y352050D01*
X227000Y351327D01*
X227095Y350603D01*
X227375Y349929D01*
X227819Y349350D01*
X228398Y348906D01*
X229072Y348626D01*
X229796Y348531D01*
X230519Y348626D01*
X231193Y348906D01*
X231772Y349350D01*
X232217Y349929D01*
X232496Y350603D01*
X232591Y351327D01*
X232496Y352050D01*
X232217Y352725D01*
X231772Y353304D01*
X231193Y353748D01*
X230519Y354027D01*
X229796Y354122D01*
D02*
G37*
G36*
X281000Y361469D02*
X280456Y361397D01*
X279483Y360994D01*
X278647Y360353D01*
X278006Y359517D01*
X277603Y358544D01*
X277531Y358000D01*
X281000D01*
Y361469D01*
D02*
G37*
G36*
X282000Y371469D02*
Y368000D01*
X285469D01*
X285397Y368544D01*
X284994Y369517D01*
X284353Y370353D01*
X283517Y370994D01*
X282544Y371397D01*
X282000Y371469D01*
D02*
G37*
G36*
X281000D02*
X280456Y371397D01*
X279483Y370994D01*
X278647Y370353D01*
X278006Y369517D01*
X277603Y368544D01*
X277531Y368000D01*
X281000D01*
Y371469D01*
D02*
G37*
G36*
X221422Y370512D02*
X219192D01*
X219221Y370288D01*
X219500Y369614D01*
X219945Y369035D01*
X220524Y368591D01*
X221198Y368312D01*
X221422Y368282D01*
Y370512D01*
D02*
G37*
G36*
Y373742D02*
X221198Y373712D01*
X220524Y373433D01*
X219945Y372989D01*
X219500Y372410D01*
X219221Y371735D01*
X219192Y371512D01*
X221422D01*
Y373742D01*
D02*
G37*
G36*
X224651Y370512D02*
X222422D01*
Y368282D01*
X222645Y368312D01*
X223319Y368591D01*
X223898Y369035D01*
X224343Y369614D01*
X224622Y370288D01*
X224651Y370512D01*
D02*
G37*
G36*
X152500Y371534D02*
X151456Y371397D01*
X150483Y370994D01*
X149647Y370353D01*
X149006Y369517D01*
X148603Y368544D01*
X148466Y367500D01*
X148603Y366456D01*
X149006Y365483D01*
X149647Y364647D01*
X150483Y364006D01*
X151456Y363603D01*
X152500Y363465D01*
X153544Y363603D01*
X154517Y364006D01*
X155353Y364647D01*
X155994Y365483D01*
X156397Y366456D01*
X156535Y367500D01*
X156397Y368544D01*
X155994Y369517D01*
X155353Y370353D01*
X154517Y370994D01*
X153544Y371397D01*
X152500Y371534D01*
D02*
G37*
G36*
X282000Y361469D02*
Y358000D01*
X285469D01*
X285397Y358544D01*
X284994Y359517D01*
X284353Y360353D01*
X283517Y360994D01*
X282544Y361397D01*
X282000Y361469D01*
D02*
G37*
G36*
X281000Y367000D02*
X277531D01*
X277603Y366456D01*
X278006Y365483D01*
X278647Y364647D01*
X279483Y364006D01*
X280456Y363603D01*
X281000Y363531D01*
Y367000D01*
D02*
G37*
G36*
X204205Y369870D02*
X203481Y369775D01*
X202807Y369496D01*
X202228Y369052D01*
X201784Y368473D01*
X201505Y367798D01*
X201409Y367075D01*
X201505Y366351D01*
X201784Y365677D01*
X202228Y365098D01*
X202807Y364654D01*
X203481Y364374D01*
X204205Y364279D01*
X204928Y364374D01*
X205603Y364654D01*
X206182Y365098D01*
X206626Y365677D01*
X206905Y366351D01*
X207001Y367075D01*
X206905Y367798D01*
X206626Y368473D01*
X206182Y369052D01*
X205603Y369496D01*
X204928Y369775D01*
X204205Y369870D01*
D02*
G37*
G36*
X285469Y367000D02*
X282000D01*
Y363531D01*
X282544Y363603D01*
X283517Y364006D01*
X284353Y364647D01*
X284994Y365483D01*
X285397Y366456D01*
X285469Y367000D01*
D02*
G37*
G36*
X221921Y350185D02*
X221198Y350090D01*
X220524Y349811D01*
X219945Y349367D01*
X219500Y348788D01*
X219221Y348113D01*
X219126Y347390D01*
X219221Y346666D01*
X219500Y345992D01*
X219945Y345413D01*
X220524Y344969D01*
X221198Y344689D01*
X221921Y344594D01*
X222645Y344689D01*
X223319Y344969D01*
X223898Y345413D01*
X224343Y345992D01*
X224622Y346666D01*
X224717Y347390D01*
X224622Y348113D01*
X224343Y348788D01*
X223898Y349367D01*
X223319Y349811D01*
X222645Y350090D01*
X221921Y350185D01*
D02*
G37*
G36*
X204205Y338374D02*
X203481Y338279D01*
X202807Y338000D01*
X202228Y337556D01*
X201784Y336977D01*
X201505Y336302D01*
X201409Y335579D01*
X201505Y334855D01*
X201784Y334181D01*
X202228Y333602D01*
X202807Y333158D01*
X203481Y332878D01*
X204205Y332783D01*
X204928Y332878D01*
X205603Y333158D01*
X206182Y333602D01*
X206626Y334181D01*
X206905Y334855D01*
X207001Y335579D01*
X206905Y336302D01*
X206626Y336977D01*
X206182Y337556D01*
X205603Y338000D01*
X204928Y338279D01*
X204205Y338374D01*
D02*
G37*
G36*
X282000Y331469D02*
Y328000D01*
X285469D01*
X285397Y328544D01*
X284994Y329517D01*
X284353Y330353D01*
X283517Y330994D01*
X282544Y331397D01*
X282000Y331469D01*
D02*
G37*
G36*
X229796Y338374D02*
X229072Y338279D01*
X228398Y338000D01*
X227819Y337556D01*
X227375Y336977D01*
X227095Y336302D01*
X227000Y335579D01*
X227095Y334855D01*
X227375Y334181D01*
X227819Y333602D01*
X228398Y333158D01*
X229072Y332878D01*
X229796Y332783D01*
X230519Y332878D01*
X231193Y333158D01*
X231772Y333602D01*
X232217Y334181D01*
X232496Y334855D01*
X232591Y335579D01*
X232496Y336302D01*
X232217Y336977D01*
X231772Y337556D01*
X231193Y338000D01*
X230519Y338279D01*
X229796Y338374D01*
D02*
G37*
G36*
X281000Y337000D02*
X277531D01*
X277603Y336456D01*
X278006Y335483D01*
X278647Y334647D01*
X279483Y334006D01*
X280456Y333603D01*
X281000Y333531D01*
Y337000D01*
D02*
G37*
G36*
X152500Y341534D02*
X151456Y341397D01*
X150483Y340994D01*
X149647Y340353D01*
X149006Y339517D01*
X148603Y338544D01*
X148466Y337500D01*
X148603Y336456D01*
X149006Y335483D01*
X149647Y334647D01*
X150483Y334006D01*
X151456Y333603D01*
X152500Y333466D01*
X153544Y333603D01*
X154517Y334006D01*
X155353Y334647D01*
X155994Y335483D01*
X156397Y336456D01*
X156535Y337500D01*
X156397Y338544D01*
X155994Y339517D01*
X155353Y340353D01*
X154517Y340994D01*
X153544Y341397D01*
X152500Y341534D01*
D02*
G37*
G36*
Y331535D02*
X151456Y331397D01*
X150483Y330994D01*
X149647Y330353D01*
X149006Y329517D01*
X148603Y328544D01*
X148466Y327500D01*
X148603Y326456D01*
X149006Y325483D01*
X149647Y324647D01*
X150483Y324006D01*
X151456Y323603D01*
X152500Y323465D01*
X153544Y323603D01*
X154517Y324006D01*
X155353Y324647D01*
X155994Y325483D01*
X156397Y326456D01*
X156535Y327500D01*
X156397Y328544D01*
X155994Y329517D01*
X155353Y330353D01*
X154517Y330994D01*
X153544Y331397D01*
X152500Y331535D01*
D02*
G37*
G36*
X217000Y334167D02*
X215532Y333973D01*
X214163Y333406D01*
X212988Y332505D01*
X212086Y331329D01*
X211519Y329961D01*
X211326Y328492D01*
X211519Y327024D01*
X212086Y325655D01*
X212988Y324480D01*
X214163Y323578D01*
X215532Y323011D01*
X217000Y322818D01*
X218469Y323011D01*
X219838Y323578D01*
X221013Y324480D01*
X221915Y325655D01*
X222481Y327024D01*
X222675Y328492D01*
X222481Y329961D01*
X221915Y331329D01*
X221013Y332505D01*
X219838Y333406D01*
X218469Y333973D01*
X217000Y334167D01*
D02*
G37*
G36*
X281000Y327000D02*
X277531D01*
X277603Y326456D01*
X278006Y325483D01*
X278647Y324647D01*
X279483Y324006D01*
X280456Y323603D01*
X281000Y323531D01*
Y327000D01*
D02*
G37*
G36*
Y331469D02*
X280456Y331397D01*
X279483Y330994D01*
X278647Y330353D01*
X278006Y329517D01*
X277603Y328544D01*
X277531Y328000D01*
X281000D01*
Y331469D01*
D02*
G37*
G36*
X285469Y327000D02*
X282000D01*
Y323531D01*
X282544Y323603D01*
X283517Y324006D01*
X284353Y324647D01*
X284994Y325483D01*
X285397Y326456D01*
X285469Y327000D01*
D02*
G37*
G36*
Y337000D02*
X282000D01*
Y333531D01*
X282544Y333603D01*
X283517Y334006D01*
X284353Y334647D01*
X284994Y335483D01*
X285397Y336456D01*
X285469Y337000D01*
D02*
G37*
G36*
X152500Y351535D02*
X151456Y351397D01*
X150483Y350994D01*
X149647Y350353D01*
X149006Y349517D01*
X148603Y348544D01*
X148466Y347500D01*
X148603Y346456D01*
X149006Y345483D01*
X149647Y344647D01*
X150483Y344006D01*
X151456Y343603D01*
X152500Y343465D01*
X153544Y343603D01*
X154517Y344006D01*
X155353Y344647D01*
X155994Y345483D01*
X156397Y346456D01*
X156535Y347500D01*
X156397Y348544D01*
X155994Y349517D01*
X155353Y350353D01*
X154517Y350994D01*
X153544Y351397D01*
X152500Y351535D01*
D02*
G37*
G36*
X229796Y346248D02*
X229072Y346153D01*
X228398Y345874D01*
X227819Y345429D01*
X227375Y344851D01*
X227095Y344176D01*
X227000Y343453D01*
X227095Y342729D01*
X227375Y342055D01*
X227819Y341476D01*
X228398Y341032D01*
X229072Y340753D01*
X229796Y340657D01*
X230519Y340753D01*
X231193Y341032D01*
X231772Y341476D01*
X232217Y342055D01*
X232496Y342729D01*
X232591Y343453D01*
X232496Y344176D01*
X232217Y344851D01*
X231772Y345429D01*
X231193Y345874D01*
X230519Y346153D01*
X229796Y346248D01*
D02*
G37*
G36*
X281000Y347000D02*
X277531D01*
X277603Y346456D01*
X278006Y345483D01*
X278647Y344647D01*
X279483Y344006D01*
X280456Y343603D01*
X281000Y343531D01*
Y347000D01*
D02*
G37*
G36*
X212079Y350185D02*
X211355Y350090D01*
X210681Y349811D01*
X210102Y349366D01*
X209658Y348788D01*
X209379Y348113D01*
X209283Y347390D01*
X209379Y346666D01*
X209658Y345992D01*
X210102Y345413D01*
X210681Y344969D01*
X211355Y344689D01*
X212079Y344594D01*
X212803Y344689D01*
X213477Y344969D01*
X214056Y345413D01*
X214500Y345992D01*
X214779Y346666D01*
X214875Y347390D01*
X214779Y348113D01*
X214500Y348788D01*
X214056Y349366D01*
X213477Y349811D01*
X212803Y350090D01*
X212079Y350185D01*
D02*
G37*
G36*
X285469Y347000D02*
X282000D01*
Y343531D01*
X282544Y343603D01*
X283517Y344006D01*
X284353Y344647D01*
X284994Y345483D01*
X285397Y346456D01*
X285469Y347000D01*
D02*
G37*
G36*
X221921Y342311D02*
X221198Y342216D01*
X220524Y341937D01*
X219945Y341493D01*
X219500Y340914D01*
X219221Y340239D01*
X219126Y339516D01*
X219221Y338792D01*
X219500Y338118D01*
X219945Y337539D01*
X220524Y337095D01*
X221198Y336816D01*
X221921Y336720D01*
X222645Y336816D01*
X223319Y337095D01*
X223898Y337539D01*
X224343Y338118D01*
X224622Y338792D01*
X224717Y339516D01*
X224622Y340239D01*
X224343Y340914D01*
X223898Y341493D01*
X223319Y341937D01*
X222645Y342216D01*
X221921Y342311D01*
D02*
G37*
G36*
X212079Y342311D02*
X211355Y342216D01*
X210681Y341937D01*
X210102Y341493D01*
X209658Y340914D01*
X209379Y340239D01*
X209283Y339516D01*
X209379Y338792D01*
X209658Y338118D01*
X210102Y337539D01*
X210681Y337095D01*
X211355Y336815D01*
X212079Y336720D01*
X212803Y336815D01*
X213477Y337095D01*
X214056Y337539D01*
X214500Y338118D01*
X214779Y338792D01*
X214875Y339516D01*
X214779Y340239D01*
X214500Y340914D01*
X214056Y341493D01*
X213477Y341937D01*
X212803Y342216D01*
X212079Y342311D01*
D02*
G37*
G36*
X281000Y341469D02*
X280456Y341397D01*
X279483Y340994D01*
X278647Y340353D01*
X278006Y339517D01*
X277603Y338544D01*
X277531Y338000D01*
X281000D01*
Y341469D01*
D02*
G37*
G36*
X204205Y346248D02*
X203481Y346153D01*
X202807Y345874D01*
X202228Y345429D01*
X201784Y344851D01*
X201505Y344176D01*
X201409Y343453D01*
X201505Y342729D01*
X201784Y342055D01*
X202228Y341476D01*
X202807Y341032D01*
X203481Y340753D01*
X204205Y340657D01*
X204928Y340753D01*
X205603Y341032D01*
X206182Y341476D01*
X206626Y342055D01*
X206905Y342729D01*
X207001Y343453D01*
X206905Y344176D01*
X206626Y344851D01*
X206182Y345429D01*
X205603Y345874D01*
X204928Y346153D01*
X204205Y346248D01*
D02*
G37*
G36*
X282000Y341469D02*
Y338000D01*
X285469D01*
X285397Y338544D01*
X284994Y339517D01*
X284353Y340353D01*
X283517Y340994D01*
X282544Y341397D01*
X282000Y341469D01*
D02*
G37*
G36*
X222422Y373742D02*
Y371512D01*
X224651D01*
X224622Y371735D01*
X224343Y372410D01*
X223898Y372989D01*
X223319Y373433D01*
X222645Y373712D01*
X222422Y373742D01*
D02*
G37*
G36*
X232525Y453189D02*
X230296D01*
Y450959D01*
X230519Y450989D01*
X231193Y451268D01*
X231772Y451712D01*
X232217Y452291D01*
X232496Y452965D01*
X232525Y453189D01*
D02*
G37*
G36*
X229296D02*
X227066D01*
X227095Y452965D01*
X227375Y452291D01*
X227819Y451712D01*
X228398Y451268D01*
X229072Y450989D01*
X229296Y450959D01*
Y453189D01*
D02*
G37*
G36*
X152500Y461535D02*
X151456Y461397D01*
X150483Y460994D01*
X149647Y460353D01*
X149006Y459517D01*
X148603Y458544D01*
X148466Y457500D01*
X148603Y456456D01*
X149006Y455483D01*
X149647Y454647D01*
X150483Y454006D01*
X151456Y453603D01*
X152500Y453466D01*
X153544Y453603D01*
X154517Y454006D01*
X155353Y454647D01*
X155994Y455483D01*
X156397Y456456D01*
X156535Y457500D01*
X156397Y458544D01*
X155994Y459517D01*
X155353Y460353D01*
X154517Y460994D01*
X153544Y461397D01*
X152500Y461535D01*
D02*
G37*
G36*
X203705Y456419D02*
X203481Y456389D01*
X202807Y456110D01*
X202228Y455666D01*
X201784Y455087D01*
X201505Y454413D01*
X201475Y454189D01*
X203705D01*
Y456419D01*
D02*
G37*
G36*
X281500Y461535D02*
X280456Y461397D01*
X279483Y460994D01*
X278647Y460353D01*
X278006Y459517D01*
X277603Y458544D01*
X277466Y457500D01*
X277603Y456456D01*
X278006Y455483D01*
X278647Y454647D01*
X279483Y454006D01*
X280456Y453603D01*
X281500Y453466D01*
X282544Y453603D01*
X283517Y454006D01*
X284353Y454647D01*
X284994Y455483D01*
X285397Y456456D01*
X285535Y457500D01*
X285397Y458544D01*
X284994Y459517D01*
X284353Y460353D01*
X283517Y460994D01*
X282544Y461397D01*
X281500Y461535D01*
D02*
G37*
G36*
X206935Y453189D02*
X204705D01*
Y450959D01*
X204928Y450989D01*
X205603Y451268D01*
X206182Y451712D01*
X206626Y452291D01*
X206905Y452965D01*
X206935Y453189D01*
D02*
G37*
G36*
X214809Y441378D02*
X209349D01*
X209379Y441154D01*
X209658Y440480D01*
X210102Y439901D01*
X210467Y439622D01*
X210297Y439122D01*
X210000D01*
X210000Y439122D01*
X209571Y439036D01*
X209207Y438793D01*
X209207Y438793D01*
X207316Y436902D01*
X206892Y437185D01*
X206905Y437217D01*
X207001Y437941D01*
X206905Y438664D01*
X206626Y439339D01*
X206182Y439918D01*
X205603Y440362D01*
X204928Y440641D01*
X204205Y440736D01*
X203481Y440641D01*
X202807Y440362D01*
X202228Y439918D01*
X201784Y439339D01*
X201505Y438664D01*
X201409Y437941D01*
X201505Y437217D01*
X201784Y436543D01*
X202108Y436122D01*
X201898Y435622D01*
X200500D01*
X200500Y435622D01*
X200071Y435536D01*
X199707Y435293D01*
X183035Y418622D01*
X156365D01*
X155994Y419517D01*
X155353Y420353D01*
X154517Y420994D01*
X153544Y421397D01*
X152500Y421534D01*
X151456Y421397D01*
X150483Y420994D01*
X149647Y420353D01*
X149006Y419517D01*
X148603Y418544D01*
X148466Y417500D01*
X148603Y416456D01*
X149006Y415483D01*
X149647Y414647D01*
X150483Y414006D01*
X151456Y413603D01*
X152500Y413465D01*
X153544Y413603D01*
X154517Y414006D01*
X155353Y414647D01*
X155994Y415483D01*
X156365Y416378D01*
X183500D01*
X183500Y416378D01*
X183929Y416464D01*
X184293Y416707D01*
X200965Y433378D01*
X206500D01*
X206500Y433378D01*
X206929Y433464D01*
X207293Y433707D01*
X209250Y435664D01*
X209658Y435402D01*
X209379Y434727D01*
X209283Y434004D01*
X209379Y433280D01*
X209658Y432606D01*
X210102Y432027D01*
X210631Y431622D01*
X210627Y431452D01*
X210489Y431122D01*
X209500D01*
X209500Y431122D01*
X209071Y431036D01*
X208707Y430793D01*
X208707Y430793D01*
X207433Y429519D01*
X206959Y429752D01*
X207001Y430067D01*
X206905Y430791D01*
X206626Y431465D01*
X206182Y432044D01*
X205603Y432488D01*
X204928Y432767D01*
X204205Y432863D01*
X203481Y432767D01*
X202807Y432488D01*
X202228Y432044D01*
X201784Y431465D01*
X201505Y430791D01*
X201409Y430067D01*
X201505Y429343D01*
X201784Y428669D01*
X202228Y428090D01*
X202807Y427646D01*
X203481Y427367D01*
X204205Y427271D01*
X204520Y427313D01*
X204753Y426839D01*
X186535Y408622D01*
X156365D01*
X155994Y409517D01*
X155353Y410353D01*
X154517Y410994D01*
X153544Y411397D01*
X152500Y411535D01*
X151456Y411397D01*
X150483Y410994D01*
X149647Y410353D01*
X149006Y409517D01*
X148603Y408544D01*
X148466Y407500D01*
X148603Y406456D01*
X149006Y405483D01*
X149647Y404647D01*
X150483Y404006D01*
X151456Y403603D01*
X152500Y403466D01*
X153544Y403603D01*
X154517Y404006D01*
X155353Y404647D01*
X155994Y405483D01*
X156365Y406379D01*
X187000D01*
X187000Y406378D01*
X187429Y406464D01*
X187793Y406707D01*
X209814Y428728D01*
X210044Y428692D01*
X210179Y428165D01*
X210102Y428107D01*
X209658Y427528D01*
X209379Y426854D01*
X209283Y426130D01*
X209379Y425406D01*
X209658Y424732D01*
X210102Y424153D01*
X210681Y423709D01*
X211355Y423430D01*
X212079Y423334D01*
X212123Y423340D01*
X212393Y422871D01*
X212086Y422471D01*
X211519Y421103D01*
X211326Y419634D01*
X211519Y418165D01*
X212086Y416797D01*
X212988Y415621D01*
X214163Y414720D01*
X215532Y414153D01*
X217000Y413959D01*
X217767Y414060D01*
X218001Y413587D01*
X215917Y411503D01*
X214615D01*
X214500Y411780D01*
X214056Y412359D01*
X213477Y412803D01*
X212803Y413082D01*
X212079Y413177D01*
X211355Y413082D01*
X210681Y412803D01*
X210102Y412359D01*
X209658Y411780D01*
X209379Y411105D01*
X209283Y410382D01*
X209379Y409658D01*
X209658Y408984D01*
X210102Y408405D01*
X210544Y408066D01*
X210374Y407566D01*
X206740D01*
X206626Y407843D01*
X206182Y408422D01*
X205603Y408866D01*
X204928Y409145D01*
X204205Y409240D01*
X203481Y409145D01*
X202807Y408866D01*
X202228Y408422D01*
X201784Y407843D01*
X201505Y407168D01*
X201409Y406445D01*
X201505Y405721D01*
X201784Y405047D01*
X202228Y404468D01*
X202807Y404024D01*
X203481Y403745D01*
X204205Y403649D01*
X204928Y403745D01*
X205603Y404024D01*
X206182Y404468D01*
X206626Y405047D01*
X206740Y405323D01*
X210374D01*
X210544Y404823D01*
X210102Y404485D01*
X209658Y403906D01*
X209379Y403231D01*
X209283Y402508D01*
X209379Y401784D01*
X209658Y401110D01*
X210102Y400531D01*
X210544Y400192D01*
X210374Y399692D01*
X206740D01*
X206626Y399969D01*
X206182Y400548D01*
X205603Y400992D01*
X204928Y401271D01*
X204205Y401366D01*
X203481Y401271D01*
X202807Y400992D01*
X202228Y400548D01*
X201784Y399969D01*
X201505Y399294D01*
X201409Y398571D01*
X201505Y397847D01*
X201784Y397173D01*
X202228Y396594D01*
X202807Y396150D01*
X203481Y395871D01*
X204205Y395775D01*
X204928Y395871D01*
X205603Y396150D01*
X206182Y396594D01*
X206626Y397173D01*
X206740Y397449D01*
X210374D01*
X210544Y396949D01*
X210102Y396611D01*
X209658Y396032D01*
X209379Y395357D01*
X209283Y394634D01*
X209379Y393910D01*
X209493Y393634D01*
X207380Y391521D01*
X207343Y391513D01*
X206843Y391619D01*
X206814Y391641D01*
X206626Y392095D01*
X206182Y392674D01*
X205603Y393118D01*
X204928Y393397D01*
X204705Y393427D01*
Y390697D01*
Y387967D01*
X204928Y387997D01*
X205603Y388276D01*
X206182Y388720D01*
X206379Y388976D01*
X206878Y388807D01*
Y384713D01*
X206379Y384543D01*
X206182Y384800D01*
X205603Y385244D01*
X204928Y385523D01*
X204205Y385618D01*
X203481Y385523D01*
X202807Y385244D01*
X202228Y384800D01*
X201784Y384221D01*
X201505Y383546D01*
X201409Y382823D01*
X201505Y382099D01*
X201784Y381425D01*
X202228Y380846D01*
X202807Y380402D01*
X203481Y380122D01*
X204205Y380027D01*
X204928Y380122D01*
X205603Y380402D01*
X206182Y380846D01*
X206379Y381102D01*
X206878Y380933D01*
Y376839D01*
X206379Y376669D01*
X206182Y376926D01*
X205603Y377370D01*
X204928Y377649D01*
X204205Y377744D01*
X203481Y377649D01*
X202807Y377370D01*
X202228Y376926D01*
X201784Y376347D01*
X201505Y375672D01*
X201409Y374949D01*
X201505Y374225D01*
X201784Y373551D01*
X202228Y372972D01*
X202807Y372528D01*
X203481Y372249D01*
X204205Y372153D01*
X204928Y372249D01*
X205603Y372528D01*
X206182Y372972D01*
X206379Y373228D01*
X206878Y373059D01*
Y369500D01*
X206878Y369500D01*
X206964Y369071D01*
X207207Y368707D01*
X210140Y365774D01*
X210219Y365342D01*
X210223Y365207D01*
X210102Y365115D01*
X209658Y364536D01*
X209379Y363861D01*
X209283Y363138D01*
X209379Y362414D01*
X209658Y361740D01*
X210102Y361161D01*
X210681Y360717D01*
X211355Y360437D01*
X212079Y360342D01*
X212803Y360437D01*
X213477Y360717D01*
X214056Y361161D01*
X214500Y361740D01*
X214779Y362414D01*
X214875Y363138D01*
X214779Y363861D01*
X214500Y364536D01*
X214237Y364879D01*
X214484Y365378D01*
X219517D01*
X219764Y364879D01*
X219500Y364536D01*
X219221Y363861D01*
X219126Y363138D01*
X219221Y362414D01*
X219500Y361740D01*
X219945Y361161D01*
X220524Y360717D01*
X221198Y360437D01*
X221921Y360342D01*
X222645Y360437D01*
X223319Y360717D01*
X223898Y361161D01*
X224343Y361740D01*
X224622Y362414D01*
X224700Y363007D01*
X225166Y363248D01*
X226207Y362207D01*
X226207Y362207D01*
X226571Y361964D01*
X227000Y361878D01*
X227000Y361878D01*
X227911D01*
X228081Y361379D01*
X227819Y361178D01*
X227375Y360599D01*
X227095Y359924D01*
X227000Y359201D01*
X227095Y358477D01*
X227375Y357803D01*
X227819Y357224D01*
X228398Y356780D01*
X229072Y356501D01*
X229796Y356405D01*
X230519Y356501D01*
X231193Y356780D01*
X231772Y357224D01*
X232217Y357803D01*
X232496Y358477D01*
X232591Y359201D01*
X232496Y359924D01*
X232217Y360599D01*
X231772Y361178D01*
X231510Y361379D01*
X231680Y361878D01*
X241603D01*
X241914Y361414D01*
X242642Y360928D01*
X243500Y360757D01*
X244358Y360928D01*
X245086Y361414D01*
X245572Y362142D01*
X245743Y363000D01*
X245572Y363858D01*
X245086Y364586D01*
X244358Y365072D01*
X243500Y365243D01*
X242642Y365072D01*
X241914Y364586D01*
X241603Y364122D01*
X231215D01*
X231116Y364621D01*
X231193Y364654D01*
X231772Y365098D01*
X232217Y365677D01*
X232496Y366351D01*
X232591Y367075D01*
X232496Y367798D01*
X232217Y368473D01*
X231772Y369052D01*
X231193Y369496D01*
X230519Y369775D01*
X229796Y369870D01*
X229072Y369775D01*
X228398Y369496D01*
X227819Y369052D01*
X227375Y368473D01*
X227095Y367798D01*
X227000Y367075D01*
X227095Y366351D01*
X227375Y365677D01*
X227819Y365098D01*
X228398Y364654D01*
X228476Y364621D01*
X228376Y364122D01*
X227465D01*
X224293Y367293D01*
X223929Y367536D01*
X223500Y367622D01*
X223500Y367621D01*
X211693D01*
X211590Y367776D01*
X211881Y368242D01*
X212079Y368216D01*
X212803Y368312D01*
X213477Y368591D01*
X214056Y369035D01*
X214500Y369614D01*
X214779Y370288D01*
X214875Y371012D01*
X214779Y371735D01*
X214500Y372410D01*
X214056Y372989D01*
X213477Y373433D01*
X212803Y373712D01*
X212079Y373807D01*
X211355Y373712D01*
X210681Y373433D01*
X210102Y372989D01*
X209658Y372410D01*
X209622Y372322D01*
X209121Y372421D01*
Y377477D01*
X209622Y377576D01*
X209658Y377488D01*
X210102Y376909D01*
X210681Y376465D01*
X211355Y376185D01*
X212079Y376090D01*
X212803Y376185D01*
X213477Y376465D01*
X214056Y376909D01*
X214500Y377488D01*
X214779Y378162D01*
X214875Y378886D01*
X214779Y379609D01*
X214500Y380284D01*
X214056Y380863D01*
X213477Y381307D01*
X212803Y381586D01*
X212079Y381681D01*
X211355Y381586D01*
X210681Y381307D01*
X210102Y380863D01*
X209658Y380284D01*
X209622Y380196D01*
X209121Y380295D01*
Y385351D01*
X209622Y385450D01*
X209658Y385362D01*
X210102Y384783D01*
X210681Y384339D01*
X211355Y384060D01*
X212079Y383964D01*
X212803Y384060D01*
X213477Y384339D01*
X214056Y384783D01*
X214500Y385362D01*
X214779Y386036D01*
X214875Y386760D01*
X214779Y387483D01*
X214500Y388158D01*
X214056Y388737D01*
X213477Y389181D01*
X212803Y389460D01*
X212079Y389555D01*
X211355Y389460D01*
X210681Y389181D01*
X210102Y388737D01*
X209658Y388158D01*
X209622Y388070D01*
X209121Y388169D01*
Y390090D01*
X211079Y392048D01*
X211355Y391934D01*
X212079Y391838D01*
X212803Y391934D01*
X213477Y392213D01*
X214056Y392657D01*
X214500Y393236D01*
X214779Y393910D01*
X214840Y394367D01*
X215367Y394547D01*
X216378Y393535D01*
Y385000D01*
X216378Y385000D01*
X216464Y384571D01*
X216707Y384207D01*
X218707Y382207D01*
X218707Y382207D01*
X219071Y381964D01*
X219500Y381878D01*
X219500Y381878D01*
X220597D01*
X220697Y381379D01*
X220524Y381307D01*
X219945Y380863D01*
X219500Y380284D01*
X219221Y379609D01*
X219126Y378886D01*
X219221Y378162D01*
X219500Y377488D01*
X219945Y376909D01*
X220524Y376465D01*
X221198Y376185D01*
X221921Y376090D01*
X222645Y376185D01*
X223319Y376465D01*
X223898Y376909D01*
X224343Y377488D01*
X224622Y378162D01*
X224717Y378886D01*
X224622Y379609D01*
X224343Y380284D01*
X223898Y380863D01*
X223319Y381307D01*
X223147Y381379D01*
X223246Y381878D01*
X224035D01*
X228136Y377778D01*
X228169Y377453D01*
X228125Y377160D01*
X227819Y376926D01*
X227375Y376347D01*
X227095Y375672D01*
X227000Y374949D01*
X227095Y374225D01*
X227375Y373551D01*
X227819Y372972D01*
X228398Y372528D01*
X229072Y372249D01*
X229796Y372153D01*
X230519Y372249D01*
X231193Y372528D01*
X231772Y372972D01*
X232217Y373551D01*
X232496Y374225D01*
X232591Y374949D01*
X232496Y375672D01*
X232217Y376347D01*
X231808Y376878D01*
X231850Y377077D01*
X232003Y377379D01*
X239104D01*
X239414Y376914D01*
X240142Y376428D01*
X241000Y376257D01*
X241858Y376428D01*
X242586Y376914D01*
X243072Y377642D01*
X243243Y378500D01*
X243072Y379358D01*
X242586Y380086D01*
X241858Y380572D01*
X241000Y380743D01*
X240142Y380572D01*
X239414Y380086D01*
X239104Y379622D01*
X230544D01*
X230512Y380121D01*
X230519Y380122D01*
X231193Y380402D01*
X231772Y380846D01*
X232217Y381425D01*
X232496Y382099D01*
X232591Y382823D01*
X232496Y383546D01*
X232217Y384221D01*
X231772Y384800D01*
X231193Y385244D01*
X230519Y385523D01*
X229796Y385618D01*
X229072Y385523D01*
X228398Y385244D01*
X227819Y384800D01*
X227375Y384221D01*
X227095Y383546D01*
X227000Y382823D01*
X227005Y382789D01*
X226531Y382555D01*
X225293Y383793D01*
X224929Y384036D01*
X224500Y384122D01*
X224500Y384121D01*
X223857D01*
X223688Y384622D01*
X223898Y384783D01*
X224343Y385362D01*
X224622Y386036D01*
X224717Y386760D01*
X224622Y387483D01*
X224343Y388158D01*
X223898Y388737D01*
X223319Y389181D01*
X222645Y389460D01*
X221921Y389555D01*
X221198Y389460D01*
X220524Y389181D01*
X219945Y388737D01*
X219500Y388158D01*
X219221Y387483D01*
X219126Y386760D01*
X219221Y386036D01*
X219500Y385362D01*
X219729Y385064D01*
X219353Y384734D01*
X218621Y385465D01*
Y394000D01*
X218622Y394000D01*
X218536Y394429D01*
X218293Y394793D01*
X218293Y394793D01*
X213722Y399364D01*
X213460Y399539D01*
X213434Y399921D01*
X213474Y400086D01*
X213477Y400087D01*
X214056Y400531D01*
X214500Y401110D01*
X214571Y401281D01*
X215076Y401337D01*
X218707Y397707D01*
X218707Y397707D01*
X219071Y397464D01*
X219500Y397378D01*
X219500Y397378D01*
X220124D01*
X220294Y396879D01*
X219945Y396611D01*
X219500Y396032D01*
X219221Y395357D01*
X219126Y394634D01*
X219221Y393910D01*
X219500Y393236D01*
X219945Y392657D01*
X220524Y392213D01*
X221198Y391934D01*
X221921Y391838D01*
X222645Y391934D01*
X223319Y392213D01*
X223898Y392657D01*
X224343Y393236D01*
X224622Y393910D01*
X224717Y394634D01*
X224663Y395044D01*
X225137Y395277D01*
X226207Y394207D01*
X226207Y394207D01*
X226571Y393964D01*
X227000Y393878D01*
X227000Y393879D01*
X228982D01*
X229072Y393397D01*
X228398Y393118D01*
X227819Y392674D01*
X227375Y392095D01*
X227095Y391420D01*
X227066Y391197D01*
X232525D01*
X232496Y391420D01*
X232217Y392095D01*
X231772Y392674D01*
X231193Y393118D01*
X230519Y393397D01*
X230609Y393879D01*
X240104D01*
X240414Y393414D01*
X241142Y392928D01*
X242000Y392757D01*
X242858Y392928D01*
X243586Y393414D01*
X244072Y394142D01*
X244243Y395000D01*
X244072Y395858D01*
X243586Y396586D01*
X242858Y397072D01*
X242000Y397243D01*
X241142Y397072D01*
X240414Y396586D01*
X240104Y396122D01*
X231978D01*
X231814Y396498D01*
X231793Y396621D01*
X232217Y397173D01*
X232496Y397847D01*
X232591Y398571D01*
X232496Y399294D01*
X232217Y399969D01*
X231772Y400548D01*
X231193Y400992D01*
X230519Y401271D01*
X229796Y401366D01*
X229072Y401271D01*
X228398Y400992D01*
X227819Y400548D01*
X227375Y399969D01*
X227095Y399294D01*
X227000Y398571D01*
X227095Y397847D01*
X227375Y397173D01*
X227535Y396964D01*
X227322Y396421D01*
X227188Y396398D01*
X224293Y399293D01*
X223929Y399536D01*
X223500Y399622D01*
X223365Y400087D01*
X223365Y400121D01*
X223898Y400531D01*
X224343Y401110D01*
X224622Y401784D01*
X224651Y402008D01*
X221921D01*
Y403008D01*
X224651D01*
X224622Y403231D01*
X224343Y403906D01*
X223898Y404485D01*
X223457Y404823D01*
X223627Y405323D01*
X224445D01*
X224445Y405323D01*
X224874Y405409D01*
X225238Y405652D01*
X226566Y406980D01*
X227040Y406746D01*
X227000Y406445D01*
X227095Y405721D01*
X227375Y405047D01*
X227819Y404468D01*
X228398Y404024D01*
X229072Y403745D01*
X229796Y403649D01*
X230519Y403745D01*
X231193Y404024D01*
X231772Y404468D01*
X232217Y405047D01*
X232496Y405721D01*
X232591Y406445D01*
X232496Y407168D01*
X232217Y407843D01*
X231805Y408379D01*
X231842Y408563D01*
X231998Y408879D01*
X234604D01*
X234914Y408414D01*
X235642Y407928D01*
X236500Y407757D01*
X237358Y407928D01*
X238086Y408414D01*
X238572Y409142D01*
X238743Y410000D01*
X238572Y410858D01*
X238086Y411586D01*
X237358Y412072D01*
X236500Y412243D01*
X235642Y412072D01*
X234914Y411586D01*
X234604Y411122D01*
X230574D01*
X230519Y411619D01*
X231193Y411898D01*
X231772Y412342D01*
X232217Y412921D01*
X232496Y413595D01*
X232525Y413819D01*
X229796D01*
Y414319D01*
X229296D01*
Y417384D01*
X229233Y417450D01*
X229243Y417500D01*
X229072Y418358D01*
X228586Y419086D01*
X227858Y419572D01*
X227000Y419743D01*
X226142Y419572D01*
X225414Y419086D01*
X224928Y418358D01*
X224757Y417500D01*
X224866Y416952D01*
X222535Y414622D01*
X220531D01*
X220361Y415122D01*
X221013Y415621D01*
X221915Y416797D01*
X222481Y418165D01*
X222675Y419634D01*
X222481Y421103D01*
X221915Y422471D01*
X221607Y422871D01*
X221878Y423340D01*
X221921Y423334D01*
X222645Y423430D01*
X223319Y423709D01*
X223898Y424153D01*
X224343Y424732D01*
X224622Y425406D01*
X224717Y426130D01*
X224622Y426854D01*
X224343Y427528D01*
X223898Y428107D01*
X223319Y428551D01*
X222645Y428830D01*
X221921Y428926D01*
X221198Y428830D01*
X220922Y428716D01*
X218845Y430793D01*
X218481Y431036D01*
X218052Y431122D01*
X218051Y431122D01*
X213669D01*
X213531Y431452D01*
X213527Y431622D01*
X214056Y432027D01*
X214500Y432606D01*
X214779Y433280D01*
X214875Y434004D01*
X214779Y434727D01*
X214500Y435402D01*
X214056Y435981D01*
X213537Y436378D01*
X213551Y436594D01*
X213677Y436878D01*
X217535D01*
X219357Y435056D01*
X219221Y434727D01*
X219126Y434004D01*
X219221Y433280D01*
X219500Y432606D01*
X219945Y432027D01*
X220524Y431583D01*
X221198Y431304D01*
X221921Y431208D01*
X222645Y431304D01*
X223319Y431583D01*
X223898Y432027D01*
X224343Y432606D01*
X224457Y432882D01*
X225394D01*
X227210Y431067D01*
X227095Y430791D01*
X227000Y430067D01*
X227095Y429343D01*
X227375Y428669D01*
X227819Y428090D01*
X228398Y427646D01*
X229072Y427367D01*
X229796Y427271D01*
X230519Y427367D01*
X231193Y427646D01*
X231772Y428090D01*
X232217Y428669D01*
X232496Y429343D01*
X232591Y430067D01*
X232496Y430791D01*
X232217Y431465D01*
X231772Y432044D01*
X231193Y432488D01*
X230519Y432767D01*
X229796Y432863D01*
X229072Y432767D01*
X228796Y432653D01*
X226652Y434797D01*
X226288Y435040D01*
X225858Y435125D01*
X225858Y435125D01*
X224457D01*
X224343Y435402D01*
X223898Y435981D01*
X223319Y436425D01*
X222645Y436704D01*
X221921Y436799D01*
X221198Y436704D01*
X220974Y436612D01*
X218793Y438793D01*
X218429Y439036D01*
X218000Y439122D01*
X218000Y439122D01*
X213861D01*
X213691Y439622D01*
X214056Y439901D01*
X214500Y440480D01*
X214779Y441154D01*
X214809Y441378D01*
D02*
G37*
G36*
X282000Y441469D02*
Y438000D01*
X285469D01*
X285397Y438544D01*
X284994Y439517D01*
X284353Y440353D01*
X283517Y440994D01*
X282544Y441397D01*
X282000Y441469D01*
D02*
G37*
G36*
X152500Y451535D02*
X151456Y451397D01*
X150483Y450994D01*
X149647Y450353D01*
X149006Y449517D01*
X148603Y448544D01*
X148466Y447500D01*
X148603Y446456D01*
X149006Y445483D01*
X149647Y444647D01*
X150483Y444006D01*
X151456Y443603D01*
X152500Y443466D01*
X153544Y443603D01*
X154517Y444006D01*
X155353Y444647D01*
X155994Y445483D01*
X156397Y446456D01*
X156535Y447500D01*
X156397Y448544D01*
X155994Y449517D01*
X155353Y450353D01*
X154517Y450994D01*
X153544Y451397D01*
X152500Y451535D01*
D02*
G37*
G36*
X203705Y453189D02*
X201475D01*
X201505Y452965D01*
X201784Y452291D01*
X202228Y451712D01*
X202807Y451268D01*
X203481Y450989D01*
X203705Y450959D01*
Y453189D01*
D02*
G37*
G36*
X281500Y451535D02*
X280456Y451397D01*
X279483Y450994D01*
X278647Y450353D01*
X278006Y449517D01*
X277603Y448544D01*
X277466Y447500D01*
X277603Y446456D01*
X278006Y445483D01*
X278647Y444647D01*
X279483Y444006D01*
X280456Y443603D01*
X281500Y443466D01*
X282544Y443603D01*
X283517Y444006D01*
X284353Y444647D01*
X284994Y445483D01*
X285397Y446456D01*
X285535Y447500D01*
X285397Y448544D01*
X284994Y449517D01*
X284353Y450353D01*
X283517Y450994D01*
X282544Y451397D01*
X281500Y451535D01*
D02*
G37*
G36*
X281000Y471469D02*
X280456Y471397D01*
X279483Y470994D01*
X278647Y470353D01*
X278006Y469517D01*
X277603Y468544D01*
X277531Y468000D01*
X281000D01*
Y471469D01*
D02*
G37*
G36*
X285469Y467000D02*
X282000D01*
Y463531D01*
X282544Y463603D01*
X283517Y464006D01*
X284353Y464647D01*
X284994Y465483D01*
X285397Y466456D01*
X285469Y467000D01*
D02*
G37*
G36*
X282000Y471469D02*
Y468000D01*
X285469D01*
X285397Y468544D01*
X284994Y469517D01*
X284353Y470353D01*
X283517Y470994D01*
X282544Y471397D01*
X282000Y471469D01*
D02*
G37*
G36*
X285500Y481500D02*
X277500D01*
Y478622D01*
X224079D01*
X223650Y478536D01*
X223286Y478293D01*
X223286Y478293D01*
X213079Y468086D01*
X212803Y468200D01*
X212079Y468296D01*
X211355Y468200D01*
X210681Y467921D01*
X210102Y467477D01*
X209658Y466898D01*
X209379Y466223D01*
X209283Y465500D01*
X209379Y464777D01*
X209493Y464500D01*
X207677Y462684D01*
X206740D01*
X206626Y462961D01*
X206182Y463540D01*
X205603Y463984D01*
X204928Y464263D01*
X204205Y464359D01*
X203481Y464263D01*
X202807Y463984D01*
X202228Y463540D01*
X201784Y462961D01*
X201505Y462287D01*
X201409Y461563D01*
X201505Y460839D01*
X201784Y460165D01*
X202228Y459586D01*
X202807Y459142D01*
X203481Y458863D01*
X204205Y458767D01*
X204928Y458863D01*
X205603Y459142D01*
X206182Y459586D01*
X206626Y460165D01*
X206740Y460441D01*
X208142D01*
X208142Y460441D01*
X208571Y460527D01*
X208935Y460770D01*
X211079Y462914D01*
X211355Y462800D01*
X212079Y462704D01*
X212803Y462800D01*
X213477Y463079D01*
X214056Y463523D01*
X214500Y464102D01*
X214779Y464777D01*
X214875Y465500D01*
X214779Y466223D01*
X214665Y466500D01*
X224544Y476378D01*
X277500D01*
Y473500D01*
X285500D01*
Y481500D01*
D02*
G37*
G36*
X156500D02*
X148500D01*
Y473500D01*
X156500D01*
Y481500D01*
D02*
G37*
G36*
X281000Y467000D02*
X277531D01*
X277603Y466456D01*
X278006Y465483D01*
X278647Y464647D01*
X279483Y464006D01*
X280456Y463603D01*
X281000Y463531D01*
Y467000D01*
D02*
G37*
G36*
X212079Y460422D02*
X211355Y460326D01*
X210681Y460047D01*
X210102Y459603D01*
X209658Y459024D01*
X209379Y458350D01*
X209283Y457626D01*
X209379Y456902D01*
X209658Y456228D01*
X210102Y455649D01*
X210681Y455205D01*
X211355Y454926D01*
X212079Y454830D01*
X212803Y454926D01*
X213477Y455205D01*
X214056Y455649D01*
X214500Y456228D01*
X214779Y456902D01*
X214875Y457626D01*
X214779Y458350D01*
X214500Y459024D01*
X214056Y459603D01*
X213477Y460047D01*
X212803Y460326D01*
X212079Y460422D01*
D02*
G37*
G36*
X204705Y456419D02*
Y454189D01*
X206935D01*
X206905Y454413D01*
X206626Y455087D01*
X206182Y455666D01*
X205603Y456110D01*
X204928Y456389D01*
X204705Y456419D01*
D02*
G37*
G36*
X229796Y464359D02*
X229072Y464263D01*
X228398Y463984D01*
X227819Y463540D01*
X227375Y462961D01*
X227095Y462287D01*
X227000Y461563D01*
X227095Y460839D01*
X227375Y460165D01*
X227819Y459586D01*
X228398Y459142D01*
X228447Y459122D01*
X228348Y458622D01*
X227500D01*
X227500Y458622D01*
X227071Y458536D01*
X226707Y458293D01*
X226707Y458293D01*
X225055Y456641D01*
X224647Y456887D01*
X224624Y456917D01*
X224717Y457626D01*
X224622Y458350D01*
X224343Y459024D01*
X223898Y459603D01*
X223319Y460047D01*
X222645Y460326D01*
X221921Y460422D01*
X221198Y460326D01*
X220524Y460047D01*
X219945Y459603D01*
X219500Y459024D01*
X219221Y458350D01*
X219126Y457626D01*
X219221Y456902D01*
X219500Y456228D01*
X219945Y455649D01*
X219988Y455616D01*
X219991Y455490D01*
X219850Y455092D01*
X219571Y455036D01*
X219207Y454793D01*
X219207Y454793D01*
X215287Y450874D01*
X214615D01*
X214500Y451150D01*
X214056Y451729D01*
X213477Y452173D01*
X212803Y452452D01*
X212079Y452548D01*
X211355Y452452D01*
X210681Y452173D01*
X210102Y451729D01*
X209658Y451150D01*
X209379Y450476D01*
X209283Y449752D01*
X209379Y449028D01*
X209658Y448354D01*
X210102Y447775D01*
X210544Y447437D01*
X210374Y446937D01*
X206740D01*
X206626Y447213D01*
X206182Y447792D01*
X205603Y448236D01*
X204928Y448515D01*
X204205Y448610D01*
X203481Y448515D01*
X202807Y448236D01*
X202228Y447792D01*
X201784Y447213D01*
X201505Y446538D01*
X201409Y445815D01*
X201505Y445091D01*
X201784Y444417D01*
X202228Y443838D01*
X202807Y443394D01*
X203481Y443115D01*
X204205Y443019D01*
X204928Y443115D01*
X205603Y443394D01*
X206182Y443838D01*
X206626Y444417D01*
X206740Y444693D01*
X210374D01*
X210544Y444193D01*
X210102Y443855D01*
X209658Y443276D01*
X209379Y442601D01*
X209349Y442378D01*
X214809D01*
X214779Y442601D01*
X214500Y443276D01*
X214056Y443855D01*
X213614Y444193D01*
X213784Y444693D01*
X220216D01*
X220386Y444193D01*
X219945Y443855D01*
X219500Y443276D01*
X219221Y442601D01*
X219126Y441878D01*
X219221Y441154D01*
X219500Y440480D01*
X219945Y439901D01*
X220524Y439457D01*
X221198Y439178D01*
X221921Y439082D01*
X222645Y439178D01*
X223319Y439457D01*
X223898Y439901D01*
X224343Y440480D01*
X224622Y441154D01*
X224717Y441878D01*
X224622Y442601D01*
X224343Y443276D01*
X224051Y443656D01*
X224428Y443986D01*
X226707Y441707D01*
X226707Y441707D01*
X227071Y441464D01*
X227500Y441378D01*
X227500Y441378D01*
X233103D01*
X233414Y440914D01*
X234142Y440428D01*
X235000Y440257D01*
X235858Y440428D01*
X236586Y440914D01*
X237072Y441642D01*
X237243Y442500D01*
X237072Y443358D01*
X236586Y444086D01*
X235858Y444572D01*
X235000Y444743D01*
X234142Y444572D01*
X233414Y444086D01*
X233103Y443622D01*
X232236D01*
X231990Y444122D01*
X232217Y444417D01*
X232496Y445091D01*
X232591Y445815D01*
X232496Y446538D01*
X232217Y447213D01*
X231772Y447792D01*
X231193Y448236D01*
X230519Y448515D01*
X229796Y448610D01*
X229072Y448515D01*
X228398Y448236D01*
X227819Y447792D01*
X227375Y447213D01*
X227095Y446538D01*
X227000Y445815D01*
X227079Y445214D01*
X226726Y444981D01*
X226633Y444953D01*
X224978Y446608D01*
X224614Y446851D01*
X224185Y446937D01*
X224185Y446937D01*
X223627D01*
X223457Y447437D01*
X223898Y447775D01*
X224343Y448354D01*
X224622Y449028D01*
X224717Y449752D01*
X224622Y450476D01*
X224343Y451150D01*
X223898Y451729D01*
X223319Y452173D01*
X222823Y452378D01*
X222923Y452878D01*
X224000D01*
X224000Y452878D01*
X224429Y452964D01*
X224793Y453207D01*
X226980Y455394D01*
X227375Y455087D01*
X227095Y454413D01*
X227066Y454189D01*
X232525D01*
X232496Y454413D01*
X232217Y455087D01*
X231772Y455666D01*
X231495Y455878D01*
X231665Y456378D01*
X234103D01*
X234414Y455914D01*
X235142Y455428D01*
X236000Y455257D01*
X236858Y455428D01*
X237586Y455914D01*
X238072Y456642D01*
X238243Y457500D01*
X238072Y458358D01*
X237586Y459086D01*
X236858Y459572D01*
X236000Y459743D01*
X235142Y459572D01*
X234414Y459086D01*
X234103Y458622D01*
X231243D01*
X231144Y459122D01*
X231193Y459142D01*
X231772Y459586D01*
X232217Y460165D01*
X232496Y460839D01*
X232591Y461563D01*
X232496Y462287D01*
X232217Y462961D01*
X231772Y463540D01*
X231193Y463984D01*
X230519Y464263D01*
X229796Y464359D01*
D02*
G37*
G36*
X152500Y471534D02*
X151456Y471397D01*
X150483Y470994D01*
X149647Y470353D01*
X149006Y469517D01*
X148603Y468544D01*
X148466Y467500D01*
X148603Y466456D01*
X149006Y465483D01*
X149647Y464647D01*
X150483Y464006D01*
X151456Y463603D01*
X152500Y463465D01*
X153544Y463603D01*
X154517Y464006D01*
X155353Y464647D01*
X155994Y465483D01*
X156397Y466456D01*
X156535Y467500D01*
X156397Y468544D01*
X155994Y469517D01*
X155353Y470353D01*
X154517Y470994D01*
X153544Y471397D01*
X152500Y471534D01*
D02*
G37*
G36*
X224693Y468272D02*
X219150D01*
Y462728D01*
X224693D01*
Y468272D01*
D02*
G37*
G36*
X203705Y393427D02*
X203481Y393397D01*
X202807Y393118D01*
X202228Y392674D01*
X201784Y392095D01*
X201505Y391420D01*
X201475Y391197D01*
X203705D01*
Y393427D01*
D02*
G37*
G36*
X232525Y390197D02*
X230296D01*
Y387967D01*
X230519Y387997D01*
X231193Y388276D01*
X231772Y388720D01*
X232217Y389299D01*
X232496Y389973D01*
X232525Y390197D01*
D02*
G37*
G36*
X152500Y401535D02*
X151456Y401397D01*
X150483Y400994D01*
X149647Y400353D01*
X149006Y399517D01*
X148603Y398544D01*
X148466Y397500D01*
X148603Y396456D01*
X149006Y395483D01*
X149647Y394647D01*
X150483Y394006D01*
X151456Y393603D01*
X152500Y393465D01*
X153544Y393603D01*
X154517Y394006D01*
X155353Y394647D01*
X155994Y395483D01*
X156397Y396456D01*
X156535Y397500D01*
X156397Y398544D01*
X155994Y399517D01*
X155353Y400353D01*
X154517Y400994D01*
X153544Y401397D01*
X152500Y401535D01*
D02*
G37*
G36*
X281500Y411535D02*
X280456Y411397D01*
X279483Y410994D01*
X278647Y410353D01*
X278006Y409517D01*
X277603Y408544D01*
X277466Y407500D01*
X277603Y406456D01*
X278006Y405483D01*
X278647Y404647D01*
X279483Y404006D01*
X280456Y403603D01*
X281500Y403466D01*
X282544Y403603D01*
X283517Y404006D01*
X284353Y404647D01*
X284994Y405483D01*
X285397Y406456D01*
X285535Y407500D01*
X285397Y408544D01*
X284994Y409517D01*
X284353Y410353D01*
X283517Y410994D01*
X282544Y411397D01*
X281500Y411535D01*
D02*
G37*
G36*
Y401535D02*
X280456Y401397D01*
X279483Y400994D01*
X278647Y400353D01*
X278006Y399517D01*
X277603Y398544D01*
X277466Y397500D01*
X277603Y396456D01*
X278006Y395483D01*
X278647Y394647D01*
X279483Y394006D01*
X280456Y393603D01*
X281500Y393465D01*
X282544Y393603D01*
X283517Y394006D01*
X284353Y394647D01*
X284994Y395483D01*
X285397Y396456D01*
X285535Y397500D01*
X285397Y398544D01*
X284994Y399517D01*
X284353Y400353D01*
X283517Y400994D01*
X282544Y401397D01*
X281500Y401535D01*
D02*
G37*
G36*
X229296Y390197D02*
X227066D01*
X227095Y389973D01*
X227375Y389299D01*
X227819Y388720D01*
X228398Y388276D01*
X229072Y387997D01*
X229296Y387967D01*
Y390197D01*
D02*
G37*
G36*
X281500Y381535D02*
X280456Y381397D01*
X279483Y380994D01*
X278647Y380353D01*
X278006Y379517D01*
X277603Y378544D01*
X277466Y377500D01*
X277603Y376456D01*
X278006Y375483D01*
X278647Y374647D01*
X279483Y374006D01*
X280456Y373603D01*
X281500Y373465D01*
X282544Y373603D01*
X283517Y374006D01*
X284353Y374647D01*
X284994Y375483D01*
X285397Y376456D01*
X285535Y377500D01*
X285397Y378544D01*
X284994Y379517D01*
X284353Y380353D01*
X283517Y380994D01*
X282544Y381397D01*
X281500Y381535D01*
D02*
G37*
G36*
X152500D02*
X151456Y381397D01*
X150483Y380994D01*
X149647Y380353D01*
X149006Y379517D01*
X148603Y378544D01*
X148466Y377500D01*
X148603Y376456D01*
X149006Y375483D01*
X149647Y374647D01*
X150483Y374006D01*
X151456Y373603D01*
X152500Y373465D01*
X153544Y373603D01*
X154517Y374006D01*
X155353Y374647D01*
X155994Y375483D01*
X156397Y376456D01*
X156535Y377500D01*
X156397Y378544D01*
X155994Y379517D01*
X155353Y380353D01*
X154517Y380994D01*
X153544Y381397D01*
X152500Y381535D01*
D02*
G37*
G36*
Y391534D02*
X151456Y391397D01*
X150483Y390994D01*
X149647Y390353D01*
X149006Y389517D01*
X148603Y388544D01*
X148466Y387500D01*
X148603Y386456D01*
X149006Y385483D01*
X149647Y384647D01*
X150483Y384006D01*
X151456Y383603D01*
X152500Y383466D01*
X153544Y383603D01*
X154517Y384006D01*
X155353Y384647D01*
X155994Y385483D01*
X156397Y386456D01*
X156535Y387500D01*
X156397Y388544D01*
X155994Y389517D01*
X155353Y390353D01*
X154517Y390994D01*
X153544Y391397D01*
X152500Y391534D01*
D02*
G37*
G36*
X203705Y390197D02*
X201475D01*
X201505Y389973D01*
X201784Y389299D01*
X202228Y388720D01*
X202807Y388276D01*
X203481Y387997D01*
X203705Y387967D01*
Y390197D01*
D02*
G37*
G36*
X281500Y391534D02*
X280456Y391397D01*
X279483Y390994D01*
X278647Y390353D01*
X278006Y389517D01*
X277603Y388544D01*
X277466Y387500D01*
X277603Y386456D01*
X278006Y385483D01*
X278647Y384647D01*
X279483Y384006D01*
X280456Y383603D01*
X281500Y383466D01*
X282544Y383603D01*
X283517Y384006D01*
X284353Y384647D01*
X284994Y385483D01*
X285397Y386456D01*
X285535Y387500D01*
X285397Y388544D01*
X284994Y389517D01*
X284353Y390353D01*
X283517Y390994D01*
X282544Y391397D01*
X281500Y391534D01*
D02*
G37*
G36*
X281000Y437000D02*
X277531D01*
X277603Y436456D01*
X278006Y435483D01*
X278647Y434647D01*
X279483Y434006D01*
X280456Y433603D01*
X281000Y433531D01*
Y437000D01*
D02*
G37*
G36*
X152500Y441535D02*
X151456Y441397D01*
X150483Y440994D01*
X149647Y440353D01*
X149006Y439517D01*
X148603Y438544D01*
X148466Y437500D01*
X148603Y436456D01*
X149006Y435483D01*
X149647Y434647D01*
X150483Y434006D01*
X151456Y433603D01*
X152500Y433465D01*
X153544Y433603D01*
X154517Y434006D01*
X155353Y434647D01*
X155994Y435483D01*
X156397Y436456D01*
X156535Y437500D01*
X156397Y438544D01*
X155994Y439517D01*
X155353Y440353D01*
X154517Y440994D01*
X153544Y441397D01*
X152500Y441535D01*
D02*
G37*
G36*
X285469Y437000D02*
X282000D01*
Y433531D01*
X282544Y433603D01*
X283517Y434006D01*
X284353Y434647D01*
X284994Y435483D01*
X285397Y436456D01*
X285469Y437000D01*
D02*
G37*
G36*
X281000Y441469D02*
X280456Y441397D01*
X279483Y440994D01*
X278647Y440353D01*
X278006Y439517D01*
X277603Y438544D01*
X277531Y438000D01*
X281000D01*
Y441469D01*
D02*
G37*
G36*
X229796Y440736D02*
X229072Y440641D01*
X228398Y440362D01*
X227819Y439918D01*
X227375Y439339D01*
X227095Y438664D01*
X227000Y437941D01*
X227095Y437217D01*
X227375Y436543D01*
X227819Y435964D01*
X228398Y435520D01*
X229072Y435241D01*
X229796Y435145D01*
X230519Y435241D01*
X231193Y435520D01*
X231772Y435964D01*
X232217Y436543D01*
X232496Y437217D01*
X232591Y437941D01*
X232496Y438664D01*
X232217Y439339D01*
X231772Y439918D01*
X231193Y440362D01*
X230519Y440641D01*
X229796Y440736D01*
D02*
G37*
G36*
X281500Y431534D02*
X280456Y431397D01*
X279483Y430994D01*
X278647Y430353D01*
X278006Y429517D01*
X277603Y428544D01*
X277466Y427500D01*
X277603Y426456D01*
X278006Y425483D01*
X278647Y424647D01*
X279483Y424006D01*
X280456Y423603D01*
X281500Y423465D01*
X282544Y423603D01*
X283517Y424006D01*
X284353Y424647D01*
X284994Y425483D01*
X285397Y426456D01*
X285535Y427500D01*
X285397Y428544D01*
X284994Y429517D01*
X284353Y430353D01*
X283517Y430994D01*
X282544Y431397D01*
X281500Y431534D01*
D02*
G37*
G36*
Y421534D02*
X280456Y421397D01*
X279483Y420994D01*
X278647Y420353D01*
X278006Y419517D01*
X277603Y418544D01*
X277466Y417500D01*
X277603Y416456D01*
X278006Y415483D01*
X278647Y414647D01*
X279483Y414006D01*
X280456Y413603D01*
X281500Y413465D01*
X282544Y413603D01*
X283517Y414006D01*
X284353Y414647D01*
X284994Y415483D01*
X285397Y416456D01*
X285535Y417500D01*
X285397Y418544D01*
X284994Y419517D01*
X284353Y420353D01*
X283517Y420994D01*
X282544Y421397D01*
X281500Y421534D01*
D02*
G37*
G36*
X204205Y417114D02*
X203481Y417019D01*
X202807Y416740D01*
X202228Y416296D01*
X201784Y415717D01*
X201505Y415042D01*
X201409Y414319D01*
X201505Y413595D01*
X201784Y412921D01*
X202228Y412342D01*
X202807Y411898D01*
X203481Y411619D01*
X204205Y411523D01*
X204928Y411619D01*
X205603Y411898D01*
X206182Y412342D01*
X206626Y412921D01*
X206905Y413595D01*
X207001Y414319D01*
X206905Y415042D01*
X206626Y415717D01*
X206182Y416296D01*
X205603Y416740D01*
X204928Y417019D01*
X204205Y417114D01*
D02*
G37*
G36*
X230296Y417049D02*
Y414819D01*
X232525D01*
X232496Y415042D01*
X232217Y415717D01*
X231772Y416296D01*
X231193Y416740D01*
X230519Y417019D01*
X230296Y417049D01*
D02*
G37*
G36*
X152500Y431534D02*
X151456Y431397D01*
X150483Y430994D01*
X149647Y430353D01*
X149006Y429517D01*
X148603Y428544D01*
X148466Y427500D01*
X148603Y426456D01*
X149006Y425483D01*
X149647Y424647D01*
X150483Y424006D01*
X151456Y423603D01*
X152500Y423465D01*
X153544Y423603D01*
X154517Y424006D01*
X155353Y424647D01*
X155994Y425483D01*
X156397Y426456D01*
X156535Y427500D01*
X156397Y428544D01*
X155994Y429517D01*
X155353Y430353D01*
X154517Y430994D01*
X153544Y431397D01*
X152500Y431534D01*
D02*
G37*
G36*
X181000Y479743D02*
X180142Y479572D01*
X179414Y479086D01*
X178928Y478358D01*
X178757Y477500D01*
X178928Y476642D01*
X179414Y475914D01*
X179878Y475603D01*
Y426397D01*
X179414Y426086D01*
X178928Y425358D01*
X178757Y424500D01*
X178928Y423642D01*
X179414Y422914D01*
X180142Y422428D01*
X181000Y422257D01*
X181858Y422428D01*
X182586Y422914D01*
X183072Y423642D01*
X183243Y424500D01*
X183072Y425358D01*
X182586Y426086D01*
X182122Y426397D01*
Y475603D01*
X182586Y475914D01*
X183072Y476642D01*
X183243Y477500D01*
X183072Y478358D01*
X182586Y479086D01*
X181858Y479572D01*
X181000Y479743D01*
D02*
G37*
%LPD*%
D11*
X204205Y406445D02*
X224445D01*
X228000Y410000D01*
X206500Y434500D02*
X210000Y438000D01*
X218000D01*
X221921Y434079D01*
Y434004D02*
Y434079D01*
Y434004D02*
X225858D01*
X229796Y430067D01*
X152500Y417500D02*
X183500D01*
X200500Y434500D01*
X206500D01*
X152500Y407500D02*
X187000D01*
X209500Y430000D01*
X218052D01*
X221921Y426130D01*
X204205Y398571D02*
X212929D01*
X211000Y366500D02*
X223500D01*
X208000Y369500D02*
X211000Y366500D01*
X208000Y369500D02*
Y390555D01*
X212079Y394634D01*
X223500Y366500D02*
X227000Y363000D01*
X212929Y398571D02*
X217500Y394000D01*
X212079Y402508D02*
X215492D01*
X219500Y398500D01*
X223500D01*
X227000Y363000D02*
X243500D01*
X217500Y385000D02*
Y394000D01*
X229000Y378500D02*
X241000D01*
X217500Y385000D02*
X219500Y383000D01*
X224500D01*
X229000Y378500D01*
X223500Y398500D02*
X227000Y395000D01*
X242000D01*
X212079Y410382D02*
X216382D01*
X219500Y413500D01*
X223000D01*
X227000Y417500D01*
X228000Y410000D02*
X236500D01*
X212079Y449752D02*
X215752D01*
X220000Y454000D01*
X224000D01*
X227500Y457500D01*
X236000D01*
X204205Y445815D02*
X224185D01*
X227500Y442500D01*
X235000D01*
X224079Y477500D02*
X281500D01*
X212079Y465500D02*
X224079Y477500D01*
X208142Y461563D02*
X212079Y465500D01*
X204205Y461563D02*
X208142D01*
X181000Y424500D02*
Y477500D01*
D12*
X152500Y327500D02*
D03*
Y337500D02*
D03*
Y347500D02*
D03*
Y357500D02*
D03*
Y367500D02*
D03*
Y377500D02*
D03*
Y387500D02*
D03*
Y397500D02*
D03*
Y407500D02*
D03*
Y417500D02*
D03*
Y427500D02*
D03*
Y437500D02*
D03*
Y447500D02*
D03*
Y457500D02*
D03*
Y467500D02*
D03*
X281500Y327500D02*
D03*
Y337500D02*
D03*
Y347500D02*
D03*
Y357500D02*
D03*
Y367500D02*
D03*
Y377500D02*
D03*
Y387500D02*
D03*
Y397500D02*
D03*
Y407500D02*
D03*
Y417500D02*
D03*
Y427500D02*
D03*
Y437500D02*
D03*
Y447500D02*
D03*
Y457500D02*
D03*
Y467500D02*
D03*
D13*
X152500Y477500D02*
D03*
X281500D02*
D03*
D14*
X204205Y406445D02*
D03*
Y398571D02*
D03*
Y414319D02*
D03*
Y359201D02*
D03*
Y351327D02*
D03*
Y335579D02*
D03*
Y343453D02*
D03*
Y374949D02*
D03*
Y367075D02*
D03*
Y382823D02*
D03*
Y390697D02*
D03*
X212079Y410382D02*
D03*
Y402508D02*
D03*
Y363138D02*
D03*
Y355264D02*
D03*
Y339516D02*
D03*
Y347390D02*
D03*
Y378886D02*
D03*
Y371012D02*
D03*
Y386760D02*
D03*
Y394634D02*
D03*
X221921Y402508D02*
D03*
Y394634D02*
D03*
Y410382D02*
D03*
Y355264D02*
D03*
Y347390D02*
D03*
Y339516D02*
D03*
Y371012D02*
D03*
Y363138D02*
D03*
Y378886D02*
D03*
Y386760D02*
D03*
X229796Y406445D02*
D03*
Y398571D02*
D03*
Y414319D02*
D03*
Y359201D02*
D03*
Y351327D02*
D03*
Y335579D02*
D03*
Y343453D02*
D03*
Y374949D02*
D03*
Y367075D02*
D03*
Y382823D02*
D03*
Y390697D02*
D03*
Y430067D02*
D03*
Y445815D02*
D03*
Y437941D02*
D03*
X221921Y426130D02*
D03*
Y441878D02*
D03*
Y434004D02*
D03*
Y449752D02*
D03*
X212079Y434004D02*
D03*
Y426130D02*
D03*
Y449752D02*
D03*
Y441878D02*
D03*
X204205Y430067D02*
D03*
Y445815D02*
D03*
Y437941D02*
D03*
X229796Y453689D02*
D03*
X221921Y457626D02*
D03*
X229796Y461563D02*
D03*
X204205Y453689D02*
D03*
X212079Y457626D02*
D03*
Y465500D02*
D03*
X204205Y461563D02*
D03*
D15*
X221921Y465500D02*
D03*
D16*
X243500Y363000D02*
D03*
X242000Y395000D02*
D03*
X241000Y378500D02*
D03*
X227000Y417500D02*
D03*
X236500Y410000D02*
D03*
X236000Y457500D02*
D03*
X235000Y442500D02*
D03*
X181000Y424500D02*
D03*
Y477500D02*
D03*
M02*
