M48
;Layer_Color=6321
;FILE_FORMAT=2:5
INCH,LZ
;TYPE=PLATED
T1F00S00C0.01200
T2F00S00C0.04000
%
T01
X01365Y02605
X014Y0264
X01435Y02665
X01465Y02695
X0132Y02789
X01255Y02885
X0155Y0305
Y0309
X01545Y0314
X0155Y0318
X01425Y0314
X01275Y0316
X0122Y0319
X0134Y03295
X01715Y03335
T02
X018Y0261
X019
Y0271
Y0281
Y0291
Y0301
Y0311
X018
Y0301
Y0291
Y0281
Y0271
Y0321
X019
Y0331
X018
M30
