G04 Layer_Physical_Order=2*
G04 Layer_Color=11436288*
%FSLAX25Y25*%
%MOIN*%
G70*
G01*
G75*
%ADD10R,0.15000X0.07600*%
%ADD15C,0.00600*%
%ADD19C,0.02400*%
G36*
X178929Y251071D02*
X121000D01*
Y259800D01*
X121000D01*
Y260200D01*
X121000D01*
Y263674D01*
X157500D01*
X158007Y263775D01*
X158437Y264063D01*
X161937Y267563D01*
X162225Y267993D01*
X162326Y268500D01*
Y272500D01*
X162225Y273007D01*
X161937Y273437D01*
X159682Y275693D01*
X159743Y276000D01*
X159572Y276858D01*
X159086Y277586D01*
X158358Y278072D01*
X157500Y278243D01*
X156642Y278072D01*
X155914Y277586D01*
X155428Y276858D01*
X155257Y276000D01*
X155428Y275142D01*
X155914Y274414D01*
X156642Y273928D01*
X157500Y273757D01*
X157807Y273818D01*
X159675Y271951D01*
Y271106D01*
X159175Y270954D01*
X159086Y271086D01*
X158358Y271572D01*
X157500Y271743D01*
X156642Y271572D01*
X155914Y271086D01*
X155740Y270826D01*
X131549D01*
X126437Y275937D01*
X126007Y276225D01*
X125500Y276325D01*
X121000D01*
Y279800D01*
X121000D01*
Y280200D01*
X121000D01*
Y283675D01*
X135951D01*
X139830Y279796D01*
X140260Y279508D01*
X140767Y279408D01*
X148507D01*
X148681Y279147D01*
X149408Y278661D01*
X150267Y278490D01*
X151125Y278661D01*
X151853Y279147D01*
X152339Y279875D01*
X152510Y280733D01*
X152339Y281592D01*
X151853Y282319D01*
X151125Y282805D01*
X150267Y282976D01*
X149408Y282805D01*
X148681Y282319D01*
X148507Y282059D01*
X141316D01*
X137437Y285937D01*
X137007Y286225D01*
X136500Y286326D01*
X121000D01*
Y289800D01*
X121000D01*
Y290200D01*
X121000D01*
Y299800D01*
X121000D01*
Y300200D01*
X121000D01*
Y309800D01*
X121000D01*
Y310200D01*
X121000D01*
Y313500D01*
X112500D01*
Y316500D01*
X121000D01*
Y318929D01*
X176500D01*
X176500Y318929D01*
X176500Y318929D01*
X178929D01*
Y251071D01*
D02*
G37*
%LPC*%
G36*
X172500Y305500D02*
X172356D01*
X172414Y305414D01*
X172500Y305356D01*
Y305500D01*
D02*
G37*
G36*
X149644D02*
X149500D01*
Y305356D01*
X149586Y305414D01*
X149644Y305500D01*
D02*
G37*
G36*
X175644D02*
X175500D01*
Y305356D01*
X175586Y305414D01*
X175644Y305500D01*
D02*
G37*
G36*
X162644Y306000D02*
X162500D01*
Y305856D01*
X162586Y305914D01*
X162644Y306000D01*
D02*
G37*
G36*
X159500D02*
X159356D01*
X159414Y305914D01*
X159500Y305856D01*
Y306000D01*
D02*
G37*
G36*
X167644Y288500D02*
X167500D01*
Y288356D01*
X167586Y288414D01*
X167644Y288500D01*
D02*
G37*
G36*
X164500D02*
X164356D01*
X164414Y288414D01*
X164500Y288356D01*
Y288500D01*
D02*
G37*
G36*
Y291644D02*
X164414Y291586D01*
X164356Y291500D01*
X164500D01*
Y291644D01*
D02*
G37*
G36*
X146500Y305500D02*
X146356D01*
X146414Y305414D01*
X146500Y305356D01*
Y305500D01*
D02*
G37*
G36*
X167500Y291644D02*
Y291500D01*
X167644D01*
X167586Y291586D01*
X167500Y291644D01*
D02*
G37*
G36*
X172500Y311000D02*
X172356D01*
X172414Y310914D01*
X172500Y310856D01*
Y311000D01*
D02*
G37*
G36*
X162500Y309144D02*
Y309000D01*
X162644D01*
X162586Y309086D01*
X162500Y309144D01*
D02*
G37*
G36*
X175644Y311000D02*
X175500D01*
Y310856D01*
X175586Y310914D01*
X175644Y311000D01*
D02*
G37*
G36*
X175500Y314144D02*
Y314000D01*
X175644D01*
X175586Y314086D01*
X175500Y314144D01*
D02*
G37*
G36*
X172500D02*
X172414Y314086D01*
X172356Y314000D01*
X172500D01*
Y314144D01*
D02*
G37*
G36*
X149500Y308644D02*
Y308500D01*
X149644D01*
X149586Y308586D01*
X149500Y308644D01*
D02*
G37*
G36*
X146500D02*
X146414Y308586D01*
X146356Y308500D01*
X146500D01*
Y308644D01*
D02*
G37*
G36*
X172500D02*
X172414Y308586D01*
X172356Y308500D01*
X172500D01*
Y308644D01*
D02*
G37*
G36*
X159500Y309144D02*
X159414Y309086D01*
X159356Y309000D01*
X159500D01*
Y309144D01*
D02*
G37*
G36*
X175500Y308644D02*
Y308500D01*
X175644D01*
X175586Y308586D01*
X175500Y308644D01*
D02*
G37*
%LPD*%
D10*
X112500Y315000D02*
D03*
Y305000D02*
D03*
Y295000D02*
D03*
Y285000D02*
D03*
Y275000D02*
D03*
Y265000D02*
D03*
Y255000D02*
D03*
D15*
X140767Y280733D02*
X150267D01*
X136500Y285000D02*
X140767Y280733D01*
X112500Y285000D02*
X136500D01*
X131000Y269500D02*
X157500D01*
X125500Y275000D02*
X131000Y269500D01*
X112500Y275000D02*
X125500D01*
X157500Y276000D02*
X161000Y272500D01*
Y268500D02*
Y272500D01*
X157500Y265000D02*
X161000Y268500D01*
X112500Y265000D02*
X157500D01*
D19*
Y269500D02*
D03*
Y276000D02*
D03*
X161000Y307500D02*
D03*
X174000Y312500D02*
D03*
Y307000D02*
D03*
X148000D02*
D03*
X166000Y290000D02*
D03*
X150267Y280733D02*
D03*
M02*
