G04 Layer_Color=20142*
%FSLAX25Y25*%
%MOIN*%
G70*
G01*
G75*
%ADD21R,0.15800X0.08400*%
G04:AMPARAMS|DCode=22|XSize=21.78mil|YSize=21.78mil|CornerRadius=7.45mil|HoleSize=0mil|Usage=FLASHONLY|Rotation=270.000|XOffset=0mil|YOffset=0mil|HoleType=Round|Shape=RoundedRectangle|*
%AMROUNDEDRECTD22*
21,1,0.02178,0.00689,0,0,270.0*
21,1,0.00689,0.02178,0,0,270.0*
1,1,0.01489,-0.00345,-0.00345*
1,1,0.01489,-0.00345,0.00345*
1,1,0.01489,0.00345,0.00345*
1,1,0.01489,0.00345,-0.00345*
%
%ADD22ROUNDEDRECTD22*%
%ADD23R,0.04540X0.04934*%
%ADD24R,0.03950X0.04540*%
%ADD25R,0.04540X0.03950*%
%ADD26C,0.03200*%
D21*
X112500Y285000D02*
D03*
Y295000D02*
D03*
Y305000D02*
D03*
Y315000D02*
D03*
Y275000D02*
D03*
Y265000D02*
D03*
D22*
X164839Y294646D02*
D03*
X162279D02*
D03*
X159721D02*
D03*
X157161D02*
D03*
Y300354D02*
D03*
X159721D02*
D03*
X162279D02*
D03*
X164839D02*
D03*
D23*
X165146Y307000D02*
D03*
X170854D02*
D03*
X165146Y312500D02*
D03*
X170854D02*
D03*
X156854Y307000D02*
D03*
X151146D02*
D03*
D24*
X161441Y263500D02*
D03*
X166559D02*
D03*
X161441Y276000D02*
D03*
X166559D02*
D03*
X161441Y269500D02*
D03*
X166559D02*
D03*
D25*
X150267Y284674D02*
D03*
Y289792D02*
D03*
D26*
X157500Y269500D02*
D03*
Y276000D02*
D03*
X161000Y307500D02*
D03*
X174000Y312500D02*
D03*
Y307000D02*
D03*
X148000D02*
D03*
X166000Y290000D02*
D03*
X150267Y280733D02*
D03*
M02*
