G04 Layer_Color=13813960*
%FSLAX25Y25*%
%MOIN*%
G70*
G01*
G75*
%ADD16C,0.01000*%
D16*
X127666Y314168D02*
X126999Y313501D01*
X125666D01*
X125000Y314168D01*
Y316834D01*
X125666Y317500D01*
X126999D01*
X127666Y316834D01*
Y315501D01*
X126333D01*
X128999Y317500D02*
Y313501D01*
X131665Y317500D01*
Y313501D01*
X132997D02*
Y317500D01*
X134997D01*
X135663Y316834D01*
Y314168D01*
X134997Y313501D01*
X132997D01*
X125000Y287500D02*
Y283501D01*
X126333Y284834D01*
X127666Y283501D01*
Y287500D01*
X128999Y283501D02*
X130332D01*
X129665D01*
Y287500D01*
X128999D01*
X130332D01*
X134997Y284168D02*
X134330Y283501D01*
X132997D01*
X132331Y284168D01*
Y284834D01*
X132997Y285501D01*
X134330D01*
X134997Y286167D01*
Y286834D01*
X134330Y287500D01*
X132997D01*
X132331Y286834D01*
X138329Y283501D02*
X136996D01*
X136330Y284168D01*
Y286834D01*
X136996Y287500D01*
X138329D01*
X138996Y286834D01*
Y284168D01*
X138329Y283501D01*
X125000Y277500D02*
Y273501D01*
X126333Y274834D01*
X127666Y273501D01*
Y277500D01*
X130998Y273501D02*
X129665D01*
X128999Y274168D01*
Y276834D01*
X129665Y277500D01*
X130998D01*
X131665Y276834D01*
Y274168D01*
X130998Y273501D01*
X135663Y274168D02*
X134997Y273501D01*
X133664D01*
X132997Y274168D01*
Y274834D01*
X133664Y275501D01*
X134997D01*
X135663Y276167D01*
Y276834D01*
X134997Y277500D01*
X133664D01*
X132997Y276834D01*
X136996Y273501D02*
X138329D01*
X137663D01*
Y277500D01*
X136996D01*
X138329D01*
X127666Y264168D02*
X126999Y263501D01*
X125666D01*
X125000Y264168D01*
Y264834D01*
X125666Y265501D01*
X126999D01*
X127666Y266167D01*
Y266834D01*
X126999Y267500D01*
X125666D01*
X125000Y266834D01*
X131665Y264168D02*
X130998Y263501D01*
X129665D01*
X128999Y264168D01*
Y266834D01*
X129665Y267500D01*
X130998D01*
X131665Y266834D01*
X132997Y263501D02*
Y267500D01*
Y266167D01*
X135663Y263501D01*
X133664Y265501D01*
X135663Y267500D01*
X172301Y304000D02*
X175500D01*
Y302400D01*
X174967Y301867D01*
X174434D01*
X173900D01*
X173367Y302400D01*
Y304000D01*
X175500Y300801D02*
X173367D01*
Y300268D01*
X173900Y299735D01*
X175500D01*
X173900D01*
X173367Y299201D01*
X173900Y298668D01*
X175500D01*
X176566Y297602D02*
X173367D01*
Y296003D01*
X173900Y295469D01*
X174967D01*
X175500Y296003D01*
Y297602D01*
Y292270D02*
Y294403D01*
X173367Y292270D01*
X172834D01*
X172301Y292804D01*
Y293870D01*
X172834Y294403D01*
Y291204D02*
X172301Y290671D01*
Y289605D01*
X172834Y289071D01*
X173367D01*
X173900Y289605D01*
X174434Y289071D01*
X174967D01*
X175500Y289605D01*
Y290671D01*
X174967Y291204D01*
X174434D01*
X173900Y290671D01*
X173367Y291204D01*
X172834D01*
X173900Y290671D02*
Y289605D01*
X172834Y288005D02*
X172301Y287472D01*
Y286406D01*
X172834Y285873D01*
X174967D01*
X175500Y286406D01*
Y287472D01*
X174967Y288005D01*
X172834D01*
X176033Y284806D02*
Y282674D01*
X175500Y281607D02*
Y280008D01*
X174967Y279475D01*
X174434Y280008D01*
Y281074D01*
X173900Y281607D01*
X173367Y281074D01*
Y279475D01*
X176566Y278408D02*
X173367D01*
Y276809D01*
X173900Y276276D01*
X174967D01*
X175500Y276809D01*
Y278408D01*
Y275209D02*
Y274143D01*
Y274676D01*
X173367D01*
Y275209D01*
Y269344D02*
X175500Y268278D01*
X173367Y267212D01*
X175500Y266145D02*
Y265079D01*
Y265612D01*
X172301D01*
X172834Y266145D01*
X175500Y263480D02*
X174967D01*
Y262947D01*
X175500D01*
Y263480D01*
X172834Y260814D02*
X172301Y260281D01*
Y259214D01*
X172834Y258681D01*
X174967D01*
X175500Y259214D01*
Y260281D01*
X174967Y260814D01*
X172834D01*
X122500Y260500D02*
Y258367D01*
X123033D01*
X123566Y258900D01*
Y260500D01*
Y258900D01*
X124100Y258367D01*
X124633Y258900D01*
Y260500D01*
X125699D02*
X126765D01*
X126232D01*
Y258367D01*
X125699D01*
X130497D02*
X128898D01*
X128365Y258900D01*
Y259967D01*
X128898Y260500D01*
X130497D01*
X131564Y258367D02*
Y260500D01*
Y259434D01*
X132097Y258900D01*
X132630Y258367D01*
X133163D01*
X135296Y260500D02*
X136362D01*
X136895Y259967D01*
Y258900D01*
X136362Y258367D01*
X135296D01*
X134763Y258900D01*
Y259967D01*
X135296Y260500D01*
X137962Y257301D02*
Y260500D01*
Y258900D01*
X138495Y258367D01*
X139561D01*
X140094Y258900D01*
Y260500D01*
X141694Y258367D02*
X142760D01*
X143293Y258900D01*
Y260500D01*
X141694D01*
X141161Y259967D01*
X141694Y259434D01*
X143293D01*
X144360Y260500D02*
X145426D01*
X144893D01*
Y257301D01*
X144360D01*
X147025Y260500D02*
Y259967D01*
X147559D01*
Y260500D01*
X147025D01*
X150224D02*
X151291D01*
X151824Y259967D01*
Y258900D01*
X151291Y258367D01*
X150224D01*
X149691Y258900D01*
Y259967D01*
X150224Y260500D01*
X152890Y258367D02*
Y260500D01*
Y259434D01*
X153423Y258900D01*
X153956Y258367D01*
X154490D01*
X157156Y261566D02*
X157689D01*
X158222Y261033D01*
Y258367D01*
X156622D01*
X156089Y258900D01*
Y259967D01*
X156622Y260500D01*
X158222D01*
X123066Y256066D02*
X123600D01*
X124133Y255533D01*
Y252867D01*
X122533D01*
X122000Y253400D01*
Y254467D01*
X122533Y255000D01*
X124133D01*
X125199D02*
X126265D01*
X125732D01*
Y252867D01*
X125199D01*
X128398Y252334D02*
Y252867D01*
X127865D01*
X128931D01*
X128398D01*
Y254467D01*
X128931Y255000D01*
X130531Y251801D02*
Y255000D01*
Y253400D01*
X131064Y252867D01*
X132130D01*
X132663Y253400D01*
Y255000D01*
X133730Y252867D02*
Y254467D01*
X134263Y255000D01*
X135862D01*
Y252867D01*
X136928Y251801D02*
Y255000D01*
X138528D01*
X139061Y254467D01*
Y253934D01*
Y253400D01*
X138528Y252867D01*
X136928D01*
X140128Y255000D02*
Y254467D01*
X140661D01*
Y255000D01*
X140128D01*
X144926Y252867D02*
X143326D01*
X142793Y253400D01*
Y254467D01*
X143326Y255000D01*
X144926D01*
X146525D02*
X147592D01*
X148125Y254467D01*
Y253400D01*
X147592Y252867D01*
X146525D01*
X145992Y253400D01*
Y254467D01*
X146525Y255000D01*
X149191D02*
Y252867D01*
X149724D01*
X150258Y253400D01*
Y255000D01*
Y253400D01*
X150791Y252867D01*
X151324Y253400D01*
Y255000D01*
X152390D02*
X154523Y252867D01*
X155589Y255000D02*
Y252867D01*
X156122D01*
X156656Y253400D01*
Y255000D01*
Y253400D01*
X157189Y252867D01*
X157722Y253400D01*
Y255000D01*
X158788D02*
X159854D01*
X159321D01*
Y252867D01*
X158788D01*
X163587D02*
X161987D01*
X161454Y253400D01*
Y254467D01*
X161987Y255000D01*
X163587D01*
X164653Y252867D02*
Y255000D01*
Y253934D01*
X165186Y253400D01*
X165719Y252867D01*
X166252D01*
X168385Y255000D02*
X169451D01*
X169984Y254467D01*
Y253400D01*
X169451Y252867D01*
X168385D01*
X167852Y253400D01*
Y254467D01*
X168385Y255000D01*
X171051Y251801D02*
Y255000D01*
Y253400D01*
X171584Y252867D01*
X172650D01*
X173184Y253400D01*
Y255000D01*
X174783Y252867D02*
X175849D01*
X176382Y253400D01*
Y255000D01*
X174783D01*
X174250Y254467D01*
X174783Y253934D01*
X176382D01*
X177449Y255000D02*
X178515D01*
X177982D01*
Y251801D01*
X177449D01*
M02*
