G04 Layer_Physical_Order=2*
G04 Layer_Color=11436288*
%FSLAX25Y25*%
%MOIN*%
G70*
G01*
G75*
%ADD10R,0.15000X0.07600*%
%ADD16C,0.00600*%
%ADD19C,0.02400*%
G36*
X178929Y483871D02*
X178929Y483871D01*
Y481247D01*
X178929Y481247D01*
Y458568D01*
X178429Y458158D01*
X178000Y458243D01*
X177142Y458072D01*
X176414Y457586D01*
X176356Y457500D01*
X178000D01*
Y454500D01*
X176356D01*
X176414Y454414D01*
X177142Y453928D01*
X178000Y453757D01*
X178429Y453842D01*
X178929Y453432D01*
Y421071D01*
X121000D01*
Y429800D01*
X121000D01*
Y430200D01*
X121000D01*
Y439800D01*
X121000D01*
Y440200D01*
X121000D01*
Y449800D01*
X121000D01*
Y450200D01*
X121000D01*
Y459800D01*
X121000D01*
Y460200D01*
X121000D01*
Y463674D01*
X122000D01*
X122507Y463775D01*
X122937Y464063D01*
X123437Y464563D01*
X123725Y464993D01*
X123826Y465500D01*
Y465740D01*
X124086Y465914D01*
X124572Y466642D01*
X124743Y467500D01*
X124572Y468358D01*
X124086Y469086D01*
X123358Y469572D01*
X122500Y469743D01*
X121642Y469572D01*
X121441Y469438D01*
X121367Y469478D01*
X121000Y469800D01*
Y470200D01*
X121000D01*
Y472326D01*
X121441Y472562D01*
X121642Y472428D01*
X122500Y472257D01*
X123358Y472428D01*
X124086Y472914D01*
X124572Y473642D01*
X124743Y474500D01*
X124572Y475358D01*
X124086Y476086D01*
X123358Y476572D01*
X122500Y476743D01*
X121642Y476572D01*
X121441Y476438D01*
X121000Y476674D01*
Y479800D01*
X121000D01*
Y480200D01*
X121000D01*
Y483500D01*
X112500D01*
Y486500D01*
X121000D01*
Y488929D01*
X178929D01*
Y483871D01*
D02*
G37*
%LPC*%
G36*
X168500Y432644D02*
X168414Y432586D01*
X168356Y432500D01*
X168500D01*
Y432644D01*
D02*
G37*
G36*
X162500D02*
Y432500D01*
X162644D01*
X162586Y432586D01*
X162500Y432644D01*
D02*
G37*
G36*
X162644Y444000D02*
X162500D01*
Y443856D01*
X162586Y443914D01*
X162644Y444000D01*
D02*
G37*
G36*
X159500D02*
X159356D01*
X159414Y443914D01*
X159500Y443856D01*
Y444000D01*
D02*
G37*
G36*
X171500Y432644D02*
Y432500D01*
X171644D01*
X171586Y432586D01*
X171500Y432644D01*
D02*
G37*
G36*
X162644Y429500D02*
X162500D01*
Y429356D01*
X162586Y429414D01*
X162644Y429500D01*
D02*
G37*
G36*
X159500D02*
X159356D01*
X159414Y429414D01*
X159500Y429356D01*
Y429500D01*
D02*
G37*
G36*
X168500D02*
X168356D01*
X168414Y429414D01*
X168500Y429356D01*
Y429500D01*
D02*
G37*
G36*
X159500Y432644D02*
X159414Y432586D01*
X159356Y432500D01*
X159500D01*
Y432644D01*
D02*
G37*
G36*
X171644Y429500D02*
X171500D01*
Y429356D01*
X171586Y429414D01*
X171644Y429500D01*
D02*
G37*
G36*
X159500Y447144D02*
X159414Y447086D01*
X159356Y447000D01*
X159500D01*
Y447144D01*
D02*
G37*
G36*
X175059Y481059D02*
X174915D01*
X174973Y480973D01*
X175059Y480915D01*
Y481059D01*
D02*
G37*
G36*
X145500Y473243D02*
X144642Y473072D01*
X143914Y472586D01*
X143428Y471858D01*
X143257Y471000D01*
X143428Y470142D01*
X143911Y469418D01*
X143414Y469086D01*
X142928Y468358D01*
X142757Y467500D01*
X142928Y466642D01*
X143414Y465914D01*
X144142Y465428D01*
X145000Y465257D01*
X145307Y465318D01*
X148438Y462187D01*
X148247Y461726D01*
X145327D01*
X145086Y462086D01*
X144358Y462572D01*
X143500Y462743D01*
X142642Y462572D01*
X141914Y462086D01*
X141428Y461358D01*
X141257Y460500D01*
X141428Y459642D01*
X141914Y458914D01*
X142642Y458428D01*
X143306Y458295D01*
X143757Y458000D01*
X143928Y457142D01*
X144414Y456414D01*
X145142Y455928D01*
X146000Y455757D01*
X146858Y455928D01*
X147586Y456414D01*
X147760Y456674D01*
X152740D01*
X152914Y456414D01*
X153642Y455928D01*
X154500Y455757D01*
X155358Y455928D01*
X156086Y456414D01*
X156572Y457142D01*
X156743Y458000D01*
X156629Y458574D01*
X156983Y459074D01*
X162150D01*
X162405Y459125D01*
X163000Y459007D01*
X163858Y459178D01*
X164586Y459664D01*
X165072Y460392D01*
X165243Y461250D01*
X165072Y462108D01*
X164694Y462675D01*
X164911Y463174D01*
X167500D01*
X168007Y463275D01*
X168437Y463563D01*
X168549Y463674D01*
X170740D01*
X170914Y463414D01*
X171642Y462928D01*
X172500Y462757D01*
X173358Y462928D01*
X174086Y463414D01*
X174572Y464142D01*
X174723Y464902D01*
X174969Y465225D01*
X175083Y465340D01*
X175500Y465257D01*
X176358Y465428D01*
X177086Y465914D01*
X177572Y466642D01*
X177743Y467500D01*
X177572Y468358D01*
X177086Y469086D01*
X176358Y469572D01*
X175500Y469743D01*
X174642Y469572D01*
X173914Y469086D01*
X173740Y468825D01*
X149549D01*
X147682Y470693D01*
X147743Y471000D01*
X147572Y471858D01*
X147086Y472586D01*
X146358Y473072D01*
X145500Y473243D01*
D02*
G37*
G36*
X178203Y481059D02*
X178059D01*
Y480915D01*
X178145Y480973D01*
X178203Y481059D01*
D02*
G37*
G36*
X178059Y484203D02*
Y484059D01*
X178203D01*
X178145Y484145D01*
X178059Y484203D01*
D02*
G37*
G36*
X175059D02*
X174973Y484145D01*
X174915Y484059D01*
X175059D01*
Y484203D01*
D02*
G37*
G36*
X170189Y447689D02*
X170045D01*
X170103Y447603D01*
X170189Y447545D01*
Y447689D01*
D02*
G37*
G36*
X162500Y447144D02*
Y447000D01*
X162644D01*
X162586Y447086D01*
X162500Y447144D01*
D02*
G37*
G36*
X173333Y447689D02*
X173189D01*
Y447545D01*
X173275Y447603D01*
X173333Y447689D01*
D02*
G37*
G36*
X173189Y450833D02*
Y450689D01*
X173333D01*
X173275Y450775D01*
X173189Y450833D01*
D02*
G37*
G36*
X170189D02*
X170103Y450775D01*
X170045Y450689D01*
X170189D01*
Y450833D01*
D02*
G37*
%LPD*%
D10*
X112500Y425000D02*
D03*
Y435000D02*
D03*
Y445000D02*
D03*
Y455000D02*
D03*
Y465000D02*
D03*
Y475000D02*
D03*
Y485000D02*
D03*
D16*
X144600Y460400D02*
X162150D01*
X144500Y460500D02*
X144600Y460400D01*
X143500Y460500D02*
X144500D01*
X160500Y464500D02*
X167500D01*
X168000Y465000D01*
X172500D01*
X157000Y467500D02*
X175500D01*
X154000Y464500D02*
X157000Y467500D01*
X112500Y465000D02*
X122000D01*
X122500Y465500D01*
Y467500D01*
X145500Y471000D02*
X149000Y467500D01*
X157000D01*
X112500Y475000D02*
X113000Y474500D01*
X122500D01*
X146000Y458000D02*
X154500D01*
X145000Y467500D02*
X150500Y462000D01*
X158000D01*
X160500Y464500D01*
X162150Y460400D02*
X162750Y461000D01*
D19*
X143500Y460500D02*
D03*
X161000Y445500D02*
D03*
X170000Y431000D02*
D03*
X161000D02*
D03*
X176559Y482559D02*
D03*
X171689Y449189D02*
D03*
X178000Y456000D02*
D03*
X154000Y464500D02*
D03*
X172500Y465000D02*
D03*
X160500Y464500D02*
D03*
X175500Y467500D02*
D03*
X163000Y461250D02*
D03*
X122500Y474500D02*
D03*
X145500Y471000D02*
D03*
X122500Y467500D02*
D03*
X145000D02*
D03*
X154500Y458000D02*
D03*
X146000D02*
D03*
M02*
