G04 Layer_Color=13813960*
%FSLAX25Y25*%
%MOIN*%
G70*
G01*
G75*
%ADD20C,0.01000*%
D20*
X127666Y464168D02*
X126999Y463501D01*
X125666D01*
X125000Y464168D01*
Y464834D01*
X125666Y465501D01*
X126999D01*
X127666Y466167D01*
Y466834D01*
X126999Y467500D01*
X125666D01*
X125000Y466834D01*
X131665Y464168D02*
X130998Y463501D01*
X129665D01*
X128999Y464168D01*
Y466834D01*
X129665Y467500D01*
X130998D01*
X131665Y466834D01*
X132997Y463501D02*
Y467500D01*
X135663D01*
X127666Y474168D02*
X126999Y473501D01*
X125666D01*
X125000Y474168D01*
Y474834D01*
X125666Y475501D01*
X126999D01*
X127666Y476167D01*
Y476834D01*
X126999Y477500D01*
X125666D01*
X125000Y476834D01*
X128999Y473501D02*
Y477500D01*
X130998D01*
X131665Y476834D01*
Y474168D01*
X130998Y473501D01*
X128999D01*
X132997Y477500D02*
Y474834D01*
X134330Y473501D01*
X135663Y474834D01*
Y477500D01*
Y475501D01*
X132997D01*
X127666Y484168D02*
X126999Y483501D01*
X125666D01*
X125000Y484168D01*
Y486834D01*
X125666Y487500D01*
X126999D01*
X127666Y486834D01*
Y485501D01*
X126333D01*
X128999Y487500D02*
Y483501D01*
X131665Y487500D01*
Y483501D01*
X132997D02*
Y487500D01*
X134997D01*
X135663Y486834D01*
Y484168D01*
X134997Y483501D01*
X132997D01*
X134000Y437000D02*
X135066D01*
X134533D01*
Y433801D01*
X134000D01*
X136666Y437000D02*
X137732D01*
X137199D01*
Y434867D01*
X136666D01*
X139332Y437000D02*
X140931D01*
X141464Y436467D01*
X140931Y435934D01*
X139865D01*
X139332Y435400D01*
X139865Y434867D01*
X141464D01*
X144663Y437000D02*
X142531D01*
X144663Y434867D01*
Y434334D01*
X144130Y433801D01*
X143064D01*
X142531Y434334D01*
X147862Y433801D02*
Y437000D01*
X146263D01*
X145729Y436467D01*
Y435400D01*
X146263Y434867D01*
X147862D01*
X148928Y433801D02*
Y437000D01*
Y435400D01*
X149462Y434867D01*
X150528D01*
X151061Y435400D01*
Y437000D01*
X152128Y437533D02*
X154260D01*
X155326Y437000D02*
X156393D01*
X155860D01*
Y434867D01*
X155326D01*
X160125Y437000D02*
X157992D01*
X160125Y434867D01*
Y434334D01*
X159592Y433801D01*
X158525D01*
X157992Y434334D01*
X163324Y434867D02*
X161724D01*
X161191Y435400D01*
Y436467D01*
X161724Y437000D01*
X163324D01*
X167589Y434867D02*
X168656Y437000D01*
X169722Y434867D01*
X170788Y437000D02*
X171854D01*
X171321D01*
Y433801D01*
X170788Y434334D01*
X173454Y437000D02*
Y436467D01*
X173987D01*
Y437000D01*
X173454D01*
X176120Y434334D02*
X176653Y433801D01*
X177719D01*
X178252Y434334D01*
Y436467D01*
X177719Y437000D01*
X176653D01*
X176120Y436467D01*
Y434334D01*
X123066Y426566D02*
X123600D01*
X124133Y426033D01*
Y423367D01*
X122533D01*
X122000Y423901D01*
Y424967D01*
X122533Y425500D01*
X124133D01*
X125199D02*
X126265D01*
X125732D01*
Y423367D01*
X125199D01*
X128398Y422834D02*
Y423367D01*
X127865D01*
X128931D01*
X128398D01*
Y424967D01*
X128931Y425500D01*
X130531Y422301D02*
Y425500D01*
Y423901D01*
X131064Y423367D01*
X132130D01*
X132663Y423901D01*
Y425500D01*
X133730Y423367D02*
Y424967D01*
X134263Y425500D01*
X135862D01*
Y423367D01*
X136928Y422301D02*
Y425500D01*
X138528D01*
X139061Y424967D01*
Y424434D01*
Y423901D01*
X138528Y423367D01*
X136928D01*
X140128Y425500D02*
Y424967D01*
X140661D01*
Y425500D01*
X140128D01*
X144926Y423367D02*
X143326D01*
X142793Y423901D01*
Y424967D01*
X143326Y425500D01*
X144926D01*
X146525D02*
X147592D01*
X148125Y424967D01*
Y423901D01*
X147592Y423367D01*
X146525D01*
X145992Y423901D01*
Y424967D01*
X146525Y425500D01*
X149191D02*
Y423367D01*
X149724D01*
X150258Y423901D01*
Y425500D01*
Y423901D01*
X150791Y423367D01*
X151324Y423901D01*
Y425500D01*
X152390D02*
X154523Y423367D01*
X155589Y425500D02*
Y423367D01*
X156122D01*
X156656Y423901D01*
Y425500D01*
Y423901D01*
X157189Y423367D01*
X157722Y423901D01*
Y425500D01*
X158788D02*
X159854D01*
X159321D01*
Y423367D01*
X158788D01*
X163587D02*
X161987D01*
X161454Y423901D01*
Y424967D01*
X161987Y425500D01*
X163587D01*
X164653Y423367D02*
Y425500D01*
Y424434D01*
X165186Y423901D01*
X165719Y423367D01*
X166252D01*
X168385Y425500D02*
X169451D01*
X169984Y424967D01*
Y423901D01*
X169451Y423367D01*
X168385D01*
X167852Y423901D01*
Y424967D01*
X168385Y425500D01*
X171051Y422301D02*
Y425500D01*
Y423901D01*
X171584Y423367D01*
X172650D01*
X173184Y423901D01*
Y425500D01*
X174783Y423367D02*
X175849D01*
X176382Y423901D01*
Y425500D01*
X174783D01*
X174250Y424967D01*
X174783Y424434D01*
X176382D01*
X177449Y425500D02*
X178515D01*
X177982D01*
Y422301D01*
X177449D01*
M02*
