G04 Layer_Physical_Order=1*
G04 Layer_Color=25308*
%FSLAX25Y25*%
%MOIN*%
G70*
G01*
G75*
%ADD10R,0.15000X0.07600*%
%ADD11R,0.03150X0.03740*%
%ADD12R,0.03740X0.03150*%
%ADD13R,0.04134X0.03740*%
%ADD14O,0.01378X0.00787*%
%ADD15O,0.00787X0.01378*%
%ADD16C,0.00600*%
%ADD17C,0.02000*%
%ADD18C,0.03000*%
%ADD19C,0.02400*%
D10*
X112500Y435000D02*
D03*
Y445000D02*
D03*
Y485000D02*
D03*
Y475000D02*
D03*
Y465000D02*
D03*
Y455000D02*
D03*
D11*
X165559Y479500D02*
D03*
X160441D02*
D03*
X165559Y486000D02*
D03*
X160441D02*
D03*
X176559D02*
D03*
X171441D02*
D03*
D12*
X160500Y467941D02*
D03*
Y473059D02*
D03*
X154000Y467941D02*
D03*
Y473059D02*
D03*
D13*
X161000Y454354D02*
D03*
Y448646D02*
D03*
X170000Y440354D02*
D03*
Y434646D02*
D03*
X161000Y440354D02*
D03*
Y434646D02*
D03*
D14*
X174150Y457378D02*
D03*
Y456000D02*
D03*
Y454622D02*
D03*
X167850D02*
D03*
Y456000D02*
D03*
Y457378D02*
D03*
D15*
X173067Y452850D02*
D03*
X171689D02*
D03*
X170311D02*
D03*
X168933D02*
D03*
Y459150D02*
D03*
X170311D02*
D03*
X171689D02*
D03*
X173067D02*
D03*
D16*
X140000Y455000D02*
X143500Y458500D01*
Y460500D01*
X171441Y481059D02*
Y486000D01*
X161268Y454622D02*
X167850D01*
X168933Y445067D02*
Y452850D01*
Y445067D02*
X170000Y444000D01*
Y440354D02*
Y444000D01*
X170311Y451189D02*
Y452850D01*
X171689Y449811D02*
Y452850D01*
X173067Y451189D02*
Y452850D01*
X170311Y451189D02*
X171689Y449811D01*
X173067Y451189D01*
X171689Y449189D02*
Y449811D01*
X174150Y457378D02*
X176122D01*
X177500Y456000D01*
X174150D02*
X177500D01*
X174150Y454622D02*
X176122D01*
X177500Y456000D01*
X178500D01*
X165559Y476441D02*
Y479500D01*
Y476441D02*
X168933Y473067D01*
Y459150D02*
Y473067D01*
X170311Y459150D02*
Y479929D01*
X171441Y481059D01*
X171689Y459150D02*
Y462189D01*
X172500Y463000D01*
Y465000D01*
X173067Y459150D02*
Y461067D01*
X175500Y463500D02*
Y467500D01*
X173067Y461067D02*
X175500Y463500D01*
X165500Y456000D02*
X167850D01*
X112500Y455000D02*
X140000D01*
X166622Y457378D02*
X167850D01*
X163000Y461000D02*
X166622Y457378D01*
X163000Y461000D02*
Y461250D01*
X142000Y474500D02*
X145500Y471000D01*
X122500Y474500D02*
X142000D01*
X146000Y458000D02*
Y463500D01*
X112500Y465000D02*
X144500D01*
X146000Y463500D01*
X163500Y458000D02*
X165500Y456000D01*
X154500Y458000D02*
X163500D01*
X122500Y467500D02*
X145000D01*
D17*
X165559Y486000D02*
X171441D01*
X161000Y440354D02*
X170000D01*
X149646Y454354D02*
X161000D01*
X160441Y479500D02*
Y486000D01*
X154500Y485000D02*
X155500Y486000D01*
X160441D01*
X157646Y440354D02*
X161000D01*
X149500Y448500D02*
X157646Y440354D01*
X147500Y485000D02*
X149500Y483000D01*
X112500Y485000D02*
X147500D01*
X154500D01*
X154000Y464500D02*
Y467941D01*
X160500Y464500D02*
Y467941D01*
X154000Y473059D02*
X160500D01*
X151441D02*
X154000D01*
X149500Y475000D02*
X151441Y473059D01*
X149500Y448500D02*
Y475000D01*
Y483000D01*
D18*
X161000Y431000D02*
Y434646D01*
X170000Y431000D02*
Y434646D01*
X161000Y445500D02*
Y448646D01*
X176559Y482559D02*
Y486000D01*
D19*
X143500Y460500D02*
D03*
X161000Y445500D02*
D03*
X170000Y431000D02*
D03*
X161000D02*
D03*
X176559Y482559D02*
D03*
X171689Y449189D02*
D03*
X178000Y456000D02*
D03*
X154000Y464500D02*
D03*
X172500Y465000D02*
D03*
X160500Y464500D02*
D03*
X175500Y467500D02*
D03*
X163000Y461250D02*
D03*
X122500Y474500D02*
D03*
X145500Y471000D02*
D03*
X122500Y467500D02*
D03*
X145000D02*
D03*
X154500Y458000D02*
D03*
X146000D02*
D03*
M02*
