G04 Layer_Color=20142*
%FSLAX25Y25*%
%MOIN*%
G70*
G01*
G75*
%ADD22R,0.15800X0.08400*%
%ADD23R,0.03950X0.04540*%
%ADD24R,0.04540X0.03950*%
%ADD25R,0.04934X0.04540*%
%ADD26O,0.02178X0.01587*%
%ADD27O,0.01587X0.02178*%
%ADD28C,0.03200*%
D22*
X112500Y435000D02*
D03*
Y445000D02*
D03*
Y485000D02*
D03*
Y475000D02*
D03*
Y465000D02*
D03*
Y455000D02*
D03*
D23*
X165559Y479500D02*
D03*
X160441D02*
D03*
X165559Y486000D02*
D03*
X160441D02*
D03*
X176559D02*
D03*
X171441D02*
D03*
D24*
X160500Y467941D02*
D03*
Y473059D02*
D03*
X154000Y467941D02*
D03*
Y473059D02*
D03*
D25*
X161000Y454354D02*
D03*
Y448646D02*
D03*
X170000Y440354D02*
D03*
Y434646D02*
D03*
X161000Y440354D02*
D03*
Y434646D02*
D03*
D26*
X174150Y457378D02*
D03*
Y456000D02*
D03*
Y454622D02*
D03*
X167850D02*
D03*
Y456000D02*
D03*
Y457378D02*
D03*
D27*
X173067Y452850D02*
D03*
X171689D02*
D03*
X170311D02*
D03*
X168933D02*
D03*
Y459150D02*
D03*
X170311D02*
D03*
X171689D02*
D03*
X173067D02*
D03*
D28*
X143500Y460500D02*
D03*
X161000Y445500D02*
D03*
X170000Y431000D02*
D03*
X161000D02*
D03*
X176559Y482559D02*
D03*
X171689Y449189D02*
D03*
X178000Y456000D02*
D03*
X154000Y464500D02*
D03*
X172500Y465000D02*
D03*
X160500Y464500D02*
D03*
X175500Y467500D02*
D03*
X163000Y461250D02*
D03*
X122500Y474500D02*
D03*
X145500Y471000D02*
D03*
X122500Y467500D02*
D03*
X145000D02*
D03*
X154500Y458000D02*
D03*
X146000D02*
D03*
M02*
