G04 Layer_Color=13813960*
%FSLAX25Y25*%
%MOIN*%
G70*
G01*
G75*
%ADD19C,0.01000*%
D19*
X127666Y484168D02*
X126999Y483501D01*
X125666D01*
X125000Y484168D01*
Y486834D01*
X125666Y487500D01*
X126999D01*
X127666Y486834D01*
Y485501D01*
X126333D01*
X128999Y487500D02*
Y483501D01*
X131665Y487500D01*
Y483501D01*
X132997D02*
Y487500D01*
X134997D01*
X135663Y486834D01*
Y484168D01*
X134997Y483501D01*
X132997D01*
X125000Y457500D02*
Y453501D01*
X126333Y454834D01*
X127666Y453501D01*
Y457500D01*
X128999Y453501D02*
X130332D01*
X129665D01*
Y457500D01*
X128999D01*
X130332D01*
X134997Y454168D02*
X134330Y453501D01*
X132997D01*
X132331Y454168D01*
Y454834D01*
X132997Y455501D01*
X134330D01*
X134997Y456167D01*
Y456834D01*
X134330Y457500D01*
X132997D01*
X132331Y456834D01*
X138329Y453501D02*
X136996D01*
X136330Y454168D01*
Y456834D01*
X136996Y457500D01*
X138329D01*
X138996Y456834D01*
Y454168D01*
X138329Y453501D01*
X125000Y447500D02*
Y443501D01*
X126333Y444834D01*
X127666Y443501D01*
Y447500D01*
X130998Y443501D02*
X129665D01*
X128999Y444168D01*
Y446834D01*
X129665Y447500D01*
X130998D01*
X131665Y446834D01*
Y444168D01*
X130998Y443501D01*
X135663Y444168D02*
X134997Y443501D01*
X133664D01*
X132997Y444168D01*
Y444834D01*
X133664Y445501D01*
X134997D01*
X135663Y446167D01*
Y446834D01*
X134997Y447500D01*
X133664D01*
X132997Y446834D01*
X136996Y443501D02*
X138329D01*
X137663D01*
Y447500D01*
X136996D01*
X138329D01*
X127666Y434168D02*
X126999Y433501D01*
X125666D01*
X125000Y434168D01*
Y434834D01*
X125666Y435501D01*
X126999D01*
X127666Y436167D01*
Y436834D01*
X126999Y437500D01*
X125666D01*
X125000Y436834D01*
X131665Y434168D02*
X130998Y433501D01*
X129665D01*
X128999Y434168D01*
Y436834D01*
X129665Y437500D01*
X130998D01*
X131665Y436834D01*
X132997Y433501D02*
Y437500D01*
Y436167D01*
X135663Y433501D01*
X133664Y435501D01*
X135663Y437500D01*
X164500Y432000D02*
Y433066D01*
Y432533D01*
X167699D01*
Y432000D01*
X164500Y434666D02*
Y435732D01*
Y435199D01*
X166633D01*
Y434666D01*
X164500Y437332D02*
Y438931D01*
X165033Y439464D01*
X165566Y438931D01*
Y437865D01*
X166100Y437332D01*
X166633Y437865D01*
Y439464D01*
X164500Y442663D02*
Y440531D01*
X166633Y442663D01*
X167166D01*
X167699Y442130D01*
Y441064D01*
X167166Y440531D01*
X167699Y445862D02*
X164500D01*
Y444263D01*
X165033Y443729D01*
X166100D01*
X166633Y444263D01*
Y445862D01*
X167699Y446929D02*
X164500D01*
X166100D01*
X166633Y447462D01*
Y448528D01*
X166100Y449061D01*
X164500D01*
X163967Y450128D02*
Y452260D01*
X164500Y453327D02*
Y454926D01*
X165033Y455459D01*
X165566Y454926D01*
Y453860D01*
X166100Y453327D01*
X166633Y453860D01*
Y455459D01*
X163434Y456525D02*
X166633D01*
Y458125D01*
X166100Y458658D01*
X165033D01*
X164500Y458125D01*
Y456525D01*
Y459724D02*
Y460791D01*
Y460257D01*
X166633D01*
Y459724D01*
Y465589D02*
X164500Y466655D01*
X166633Y467722D01*
X164500Y468788D02*
Y469854D01*
Y469321D01*
X167699D01*
X167166Y468788D01*
X164500Y471454D02*
X165033D01*
Y471987D01*
X164500D01*
Y471454D01*
X167166Y474120D02*
X167699Y474653D01*
Y475719D01*
X167166Y476252D01*
X165033D01*
X164500Y475719D01*
Y474653D01*
X165033Y474120D01*
X167166D01*
X123066Y426566D02*
X123600D01*
X124133Y426033D01*
Y423367D01*
X122533D01*
X122000Y423901D01*
Y424967D01*
X122533Y425500D01*
X124133D01*
X125199D02*
X126265D01*
X125732D01*
Y423367D01*
X125199D01*
X128398Y422834D02*
Y423367D01*
X127865D01*
X128931D01*
X128398D01*
Y424967D01*
X128931Y425500D01*
X130531Y422301D02*
Y425500D01*
Y423901D01*
X131064Y423367D01*
X132130D01*
X132663Y423901D01*
Y425500D01*
X133730Y423367D02*
Y424967D01*
X134263Y425500D01*
X135862D01*
Y423367D01*
X136928Y422301D02*
Y425500D01*
X138528D01*
X139061Y424967D01*
Y424434D01*
Y423901D01*
X138528Y423367D01*
X136928D01*
X140128Y425500D02*
Y424967D01*
X140661D01*
Y425500D01*
X140128D01*
X144926Y423367D02*
X143326D01*
X142793Y423901D01*
Y424967D01*
X143326Y425500D01*
X144926D01*
X146525D02*
X147592D01*
X148125Y424967D01*
Y423901D01*
X147592Y423367D01*
X146525D01*
X145992Y423901D01*
Y424967D01*
X146525Y425500D01*
X149191D02*
Y423367D01*
X149724D01*
X150258Y423901D01*
Y425500D01*
Y423901D01*
X150791Y423367D01*
X151324Y423901D01*
Y425500D01*
X152390D02*
X154523Y423367D01*
X155589Y425500D02*
Y423367D01*
X156122D01*
X156656Y423901D01*
Y425500D01*
Y423901D01*
X157189Y423367D01*
X157722Y423901D01*
Y425500D01*
X158788D02*
X159854D01*
X159321D01*
Y423367D01*
X158788D01*
X163587D02*
X161987D01*
X161454Y423901D01*
Y424967D01*
X161987Y425500D01*
X163587D01*
X164653Y423367D02*
Y425500D01*
Y424434D01*
X165186Y423901D01*
X165719Y423367D01*
X166252D01*
X168385Y425500D02*
X169451D01*
X169984Y424967D01*
Y423901D01*
X169451Y423367D01*
X168385D01*
X167852Y423901D01*
Y424967D01*
X168385Y425500D01*
X171051Y422301D02*
Y425500D01*
Y423901D01*
X171584Y423367D01*
X172650D01*
X173184Y423901D01*
Y425500D01*
X174783Y423367D02*
X175849D01*
X176382Y423901D01*
Y425500D01*
X174783D01*
X174250Y424967D01*
X174783Y424434D01*
X176382D01*
X177449Y425500D02*
X178515D01*
X177982D01*
Y422301D01*
X177449D01*
M02*
