G04 Layer_Physical_Order=2*
G04 Layer_Color=11436288*
%FSLAX25Y25*%
%MOIN*%
G70*
G01*
G75*
%ADD11R,0.15000X0.07600*%
%ADD15C,0.00600*%
%ADD18C,0.02400*%
G36*
X178929Y458568D02*
X178429Y458158D01*
X178000Y458243D01*
X177142Y458072D01*
X176414Y457586D01*
X176356Y457500D01*
X178000D01*
Y454500D01*
X176356D01*
X176414Y454414D01*
X177142Y453928D01*
X178000Y453757D01*
X178429Y453842D01*
X178929Y453432D01*
Y421071D01*
X121000D01*
Y429800D01*
X121000D01*
Y430200D01*
X121000D01*
Y433674D01*
X146500D01*
X147007Y433775D01*
X147437Y434063D01*
X158401Y445027D01*
X158880Y444882D01*
X158928Y444642D01*
X159414Y443914D01*
X159500Y443856D01*
Y445500D01*
X161000D01*
Y447000D01*
X162644D01*
X162586Y447086D01*
X161858Y447572D01*
X161618Y447620D01*
X161473Y448099D01*
X162437Y449063D01*
X162725Y449493D01*
X162826Y450000D01*
Y483000D01*
X162725Y483507D01*
X162437Y483937D01*
X160937Y485437D01*
X160507Y485725D01*
X160000Y485825D01*
X157760D01*
X157586Y486086D01*
X156858Y486572D01*
X156000Y486743D01*
X155142Y486572D01*
X154414Y486086D01*
X153928Y485358D01*
X153757Y484500D01*
X153928Y483642D01*
X154414Y482914D01*
X155142Y482428D01*
X156000Y482257D01*
X156858Y482428D01*
X157586Y482914D01*
X157760Y483175D01*
X159451D01*
X160175Y482451D01*
Y479880D01*
X159675Y479613D01*
X159507Y479725D01*
X159000Y479825D01*
X157760D01*
X157586Y480086D01*
X156858Y480572D01*
X156000Y480743D01*
X155142Y480572D01*
X154414Y480086D01*
X153928Y479358D01*
X153757Y478500D01*
X153928Y477642D01*
X154414Y476914D01*
X155142Y476428D01*
X156000Y476257D01*
X156858Y476428D01*
X157586Y476914D01*
X157760Y477175D01*
X158451D01*
X158675Y476951D01*
Y472894D01*
X158175Y472845D01*
X158072Y473358D01*
X157586Y474086D01*
X156858Y474572D01*
X156000Y474743D01*
X155142Y474572D01*
X154414Y474086D01*
X154240Y473826D01*
X147000D01*
X146493Y473725D01*
X146063Y473437D01*
X128951Y456325D01*
X121000D01*
Y459800D01*
X121000D01*
Y460200D01*
X121000D01*
Y469800D01*
X121000D01*
Y470200D01*
X121000D01*
Y479800D01*
X121000D01*
Y480200D01*
X121000D01*
Y483500D01*
X112500D01*
Y486500D01*
X121000D01*
Y488929D01*
X178929D01*
Y458568D01*
D02*
G37*
%LPC*%
G36*
X171644Y429500D02*
X171500D01*
Y429356D01*
X171586Y429414D01*
X171644Y429500D01*
D02*
G37*
G36*
X159500Y432644D02*
X159414Y432586D01*
X159356Y432500D01*
X159500D01*
Y432644D01*
D02*
G37*
G36*
X162500D02*
Y432500D01*
X162644D01*
X162586Y432586D01*
X162500Y432644D01*
D02*
G37*
G36*
X159500Y429500D02*
X159356D01*
X159414Y429414D01*
X159500Y429356D01*
Y429500D01*
D02*
G37*
G36*
X162644D02*
X162500D01*
Y429356D01*
X162586Y429414D01*
X162644Y429500D01*
D02*
G37*
G36*
X168500D02*
X168356D01*
X168414Y429414D01*
X168500Y429356D01*
Y429500D01*
D02*
G37*
G36*
Y432644D02*
X168414Y432586D01*
X168356Y432500D01*
X168500D01*
Y432644D01*
D02*
G37*
G36*
X173333Y447689D02*
X173189D01*
Y447545D01*
X173275Y447603D01*
X173333Y447689D01*
D02*
G37*
G36*
X170189Y450833D02*
X170103Y450775D01*
X170045Y450689D01*
X170189D01*
Y450833D01*
D02*
G37*
G36*
X173189D02*
Y450689D01*
X173333D01*
X173275Y450775D01*
X173189Y450833D01*
D02*
G37*
G36*
X171500Y432644D02*
Y432500D01*
X171644D01*
X171586Y432586D01*
X171500Y432644D01*
D02*
G37*
G36*
X162644Y444000D02*
X162500D01*
Y443856D01*
X162586Y443914D01*
X162644Y444000D01*
D02*
G37*
G36*
X170189Y447689D02*
X170045D01*
X170103Y447603D01*
X170189Y447545D01*
Y447689D01*
D02*
G37*
%LPD*%
D11*
X112500Y485000D02*
D03*
Y475000D02*
D03*
Y465000D02*
D03*
Y455000D02*
D03*
Y445000D02*
D03*
Y435000D02*
D03*
Y425000D02*
D03*
D15*
X145000Y461000D02*
X153000D01*
X143000D02*
X145000D01*
X147000Y472500D02*
X156000D01*
X129500Y455000D02*
X147000Y472500D01*
X112500Y455000D02*
X129500D01*
X161500Y450000D02*
Y483000D01*
X146500Y435000D02*
X161500Y450000D01*
X112500Y435000D02*
X146500D01*
X156000Y478500D02*
X159000D01*
X160000Y477500D01*
Y452500D02*
Y477500D01*
X152500Y445000D02*
X160000Y452500D01*
X112500Y445000D02*
X152500D01*
X156000Y484500D02*
X160000D01*
X161500Y483000D01*
X156000Y466500D02*
X158000Y464500D01*
Y455500D02*
Y464500D01*
X152250Y449750D02*
X158000Y455500D01*
X142500Y449750D02*
X152250D01*
X146000Y458000D02*
X155500D01*
D18*
X143000Y461000D02*
D03*
X156000Y484500D02*
D03*
Y478500D02*
D03*
Y472500D02*
D03*
X155500Y458000D02*
D03*
X153000Y461000D02*
D03*
X142500Y449750D02*
D03*
X156000Y466500D02*
D03*
X146000Y458000D02*
D03*
X161000Y445500D02*
D03*
X170000Y431000D02*
D03*
X161000D02*
D03*
X171689Y449189D02*
D03*
X178000Y456000D02*
D03*
M02*
